<svg width="200" height="200" viewBox="0 0 200 200" fill="none" xmlns="http://www.w3.org/2000/svg">
<path d="M67.5483 77.9226C67.5438 77.7634 66.8987 79.1502 66.1221 80.9011C65.694 87.624 65.9755 95.8015 66.9247 108.532C67.3825 114.672 80.9956 126.49 89.2805 130.919C91.3803 132.042 98.2911 132.573 99.9739 132.604C100.044 132.603 100.141 132.578 100.215 132.574C100.288 132.578 100.385 132.603 100.456 132.604C102.138 132.573 109.049 132.042 111.149 130.919C119.434 126.49 133.028 114.672 133.486 108.532C133.884 103.202 134.164 98.6746 134.324 94.717C134.486 90.7263 134.526 87.3154 134.443 84.2459C132.806 80.5785 130.971 76.839 131.467 77.9226C132.734 80.6908 125.791 102.166 125.522 102.166C125.049 102.166 120.476 96.6845 119.589 96.5384C116.603 96.0464 104.136 97.7589 100.023 97.7896C100.023 97.7896 83.4376 96.0484 80.4641 96.5384C79.5768 96.6845 76.2448 101.751 75.772 101.751C75.503 101.751 66.5366 80.7916 67.5483 77.9226ZM91.1575 100.341C93.8903 100.299 97.0118 100.5 100.258 100.5C106.859 100.5 112.366 99.707 115.576 101.751C117.338 102.873 118.539 105.852 118.539 107.946C118.539 110.041 117.525 112.402 115.761 114.58C112.551 118.544 106.857 121.892 100.258 121.892C90.0319 121.892 81.5075 113.853 81.5077 107.946C81.5077 105.789 82.4499 102.783 84.3909 101.653C86.0782 100.671 88.4247 100.383 91.1575 100.341Z" fill="#5E3F37"/>
<path d="M134.27 83.873C134.352 89.7143 134.037 96.7678 133.301 106.633C132.843 112.773 119.249 124.592 110.963 129.021C108.864 130.143 101.953 130.674 100.27 130.705C100.2 130.704 100.103 130.679 100.029 130.675C99.9558 130.679 99.8587 130.704 99.7886 130.705C98.1058 130.674 91.195 130.143 89.0952 129.021C80.9974 124.692 67.8454 113.318 66.8257 107.072C66.863 107.588 66.8849 108 66.9245 108.531C67.3823 114.671 80.9954 126.49 89.2804 130.919C91.3802 132.041 98.2911 132.572 99.9737 132.604C100.044 132.602 100.141 132.577 100.215 132.573C100.288 132.577 100.385 132.602 100.455 132.604C102.138 132.572 109.049 132.041 111.149 130.919C119.434 126.49 133.028 114.671 133.486 108.531C134.284 97.8277 134.609 90.3592 134.443 84.2453C134.381 84.1072 134.332 84.0111 134.27 83.873ZM90.9722 98.4422C88.2393 98.4844 85.8927 98.7721 84.2054 99.7543C82.2645 100.884 81.3222 103.89 81.3222 106.047C81.3222 106.565 81.4118 107.102 81.5384 107.646C81.6161 105.517 82.5335 102.734 84.3907 101.653C86.078 100.67 88.4245 100.382 91.1573 100.34C93.8901 100.298 97.0116 100.499 100.258 100.499C106.859 100.499 112.366 99.7064 115.575 101.75C116.903 102.596 117.912 104.498 118.329 106.279C118.332 106.203 118.354 106.122 118.354 106.047C118.354 103.953 117.152 100.974 115.39 99.8519C112.181 97.8084 106.674 98.6008 100.073 98.6008C96.8265 98.6008 93.705 98.4 90.9722 98.4422Z" fill="#412923"/>
<path d="M98.44 116.6H101.612C103.769 116.6 105.517 118.328 105.517 120.461V125.826C105.517 127.958 103.769 129.687 101.612 129.687H98.44C96.2828 129.687 94.5342 127.958 94.5342 125.826V120.461C94.5342 118.328 96.2828 116.6 98.44 116.6Z" fill="#5E3F37"/>
</svg>
