<svg width="200" height="200" viewBox="0 0 200 200" fill="none" xmlns="http://www.w3.org/2000/svg">
<path d="M68.0025 77.7301C67.9919 77.3438 64.5583 85.2317 63.3943 88.5578C60.088 98.0045 58.1667 102.642 61.5144 111.849C66.9097 126.686 74.7482 139.923 90.3718 144.387C93.6857 145.333 96.7519 138.562 99.6919 137.947C102.633 138.556 105.697 145.334 109.012 144.387C124.635 139.923 132.474 126.686 137.869 111.849C141.217 102.642 139.296 98.0045 135.99 88.5578C134.659 84.7567 130.478 76.1522 131.192 77.7301C132.444 80.4983 125.58 101.973 125.314 101.973C124.847 101.973 120.326 96.492 119.449 96.3457C116.498 95.8539 104.173 97.5664 100.107 97.5971C100.107 97.5971 83.7105 95.8559 80.771 96.3457C79.8939 96.492 76.5997 101.558 76.1323 101.558C75.8663 101.558 67.0023 80.599 68.0025 77.7301ZM100.339 100.307C106.865 100.307 112.307 99.5145 115.479 101.558C117.221 102.68 118.411 105.659 118.411 107.753C118.411 109.848 117.409 112.21 115.665 114.388C112.491 118.351 106.863 121.7 100.339 121.7C90.2294 121.7 81.8025 113.661 81.8025 107.753C81.8025 105.596 82.7364 102.588 84.6552 101.458C87.9913 99.4936 93.9208 100.307 100.339 100.307Z" fill="#5E3F37"/>
<path d="M91.5377 98.8885C88.8362 98.9307 86.5162 99.2184 84.8483 100.201C82.9295 101.331 81.8026 103.6 81.8026 105.757C81.8026 106.11 81.8354 106.471 81.8942 106.838C82.109 104.812 82.9875 102.441 84.653 101.46C87.9891 99.4959 93.9209 100.307 100.339 100.307C106.865 100.307 112.309 99.5143 115.482 101.558C116.94 102.497 117.997 104.733 118.308 106.667C118.347 106.362 118.412 106.053 118.412 105.757C118.412 103.663 117.419 101.427 115.677 100.304C112.505 98.2607 107.06 99.0533 100.534 99.0533C97.3252 99.0533 94.2393 98.8463 91.5377 98.8885ZM59.836 102.01C59.676 104.95 60.1135 107.996 61.5145 111.849C66.9098 126.685 74.7483 139.922 90.3719 144.386C93.6858 145.333 96.752 138.562 99.692 137.947C102.633 138.556 105.697 145.334 109.012 144.386C124.636 139.922 132.474 126.685 137.87 111.849C139.271 107.996 139.708 104.95 139.548 102.01C139.44 104.361 138.959 106.858 137.87 109.853C132.474 124.689 124.636 137.927 109.012 142.39C105.697 143.338 102.633 136.56 99.692 135.951C96.752 136.566 93.6858 143.337 90.3719 142.39C74.7483 137.927 66.9098 124.689 61.5145 109.853C60.4254 106.858 59.9436 104.361 59.836 102.01Z" fill="#412923"/>
<path d="M98.5418 116.407H101.677C103.81 116.407 105.538 118.136 105.538 120.269V125.633C105.538 127.766 103.81 129.494 101.677 129.494H98.5418C96.4094 129.494 94.6807 127.766 94.6807 125.633V120.269C94.6807 118.136 96.4094 116.407 98.5418 116.407Z" fill="#5E3F37"/>
</svg>
