<svg width="200" height="200" viewBox="0 0 200 200" fill="none" xmlns="http://www.w3.org/2000/svg">
<g filter="url(#filter0_f_924_12074)">
<path d="M94.3546 3.65605C93.8184 3.68956 93.2839 3.77156 92.7432 3.90628C83.6255 6.17855 75.838 13.6719 72.1622 24.9451C68.9137 34.9073 82.7225 42.4438 92.3282 42.4438C97.2288 42.4438 101.649 40.2213 104.81 36.6639C105.986 37.0539 107.234 37.2742 108.527 37.2742C115.573 37.2742 125.698 31.7457 123.316 24.4385C120.62 16.1698 114.909 10.6694 108.222 9.00273C106.993 8.69646 105.777 8.76931 104.608 9.1248C101.822 5.65823 98.1708 3.41736 94.3546 3.65605Z" fill="#5E3F37"/>
</g>
<g filter="url(#filter1_f_924_12074)">
<path d="M94.5875 15.433C81.9119 19.5333 80.9943 21.6948 71.8875 29.6507C73.3939 37.1833 84.3083 42.4437 92.3283 42.4437C97.2289 42.4437 101.649 40.2212 104.81 36.6638C105.986 37.0538 107.234 37.2741 108.527 37.2741C115.037 37.2741 124.155 32.5501 123.627 26.0681C115.302 20.39 103.728 12.4763 94.5875 15.433Z" fill="#412923"/>
</g>
<g filter="url(#filter2_f_924_12074)">
<path d="M100.003 121.725C75.2199 121.725 55.1328 102.596 55.1328 79.0048C55.1328 76.9457 55.3383 74.9386 55.6342 72.9572L55.5961 72.9714C55.5961 72.9714 55.7715 72.0541 55.8164 71.7947C55.9301 71.1597 56.0383 70.5226 56.1811 69.8976C57.4424 63.5375 57.9943 49.5287 65.7496 38.615C74.5787 26.1902 91.4242 19.9628 100.003 19.8263C108.581 19.6898 125.561 26.1902 134.39 38.615C142.145 49.5287 142.563 63.5375 143.824 69.8976C143.967 70.5226 144.075 71.1597 144.189 71.7947C144.234 72.0541 144.409 72.9714 144.409 72.9714L144.371 72.9572C144.667 74.9386 144.873 76.9457 144.873 79.0048C144.873 102.596 124.785 121.725 100.003 121.725Z" fill="#5E3F37"/>
</g>
<path d="M100.44 31.8245C99.2149 31.8411 97.9952 31.9247 96.7774 32.032C96.5001 32.0564 96.2239 32.0761 95.9473 32.1052C94.8094 32.2247 93.6801 32.3822 92.5598 32.5812C92.2239 32.6409 91.8926 32.7097 91.5588 32.7765C90.6172 32.9652 89.6846 33.1841 88.7635 33.4296C88.5135 33.4964 88.261 33.554 88.0128 33.6249C86.918 33.9376 85.8506 34.2986 84.7962 34.6931C84.3928 34.8441 83.9903 34.9941 83.5938 35.157C83.3901 35.2406 83.1852 35.3204 82.9835 35.4072C82.3864 35.6642 81.7985 35.9341 81.2196 36.2191C81.1282 36.2638 81.0356 36.3077 80.945 36.3532C80.2368 36.7089 79.5409 37.0847 78.8635 37.4824C78.234 37.8521 77.6204 38.2421 77.0204 38.6482C76.8278 38.7784 76.642 38.9169 76.4528 39.0511C76.0376 39.345 75.6309 39.6484 75.2321 39.9605C75.0448 40.107 74.86 40.2556 74.6766 40.406C74.2391 40.7648 73.8161 41.1353 73.4008 41.5167C73.2766 41.631 73.1508 41.7425 73.0286 41.8585C72.4905 42.3704 71.9622 42.8943 71.4661 43.4456C70.9965 43.9673 70.5631 44.4859 70.1477 45.0019C70.0491 45.1251 69.9567 45.2452 69.861 45.3681C69.5075 45.8202 69.1735 46.2732 68.8598 46.7232C68.4831 47.2642 68.1378 47.806 67.8163 48.3466C67.5065 48.8677 67.2221 49.3919 66.9618 49.9152C66.9528 49.9331 66.9461 49.9523 66.9374 49.9702C66.9362 49.9726 66.9325 49.974 66.9313 49.9763C66.6932 50.2265 66.4835 50.5409 66.2903 50.8917C66.278 50.9146 66.2659 50.9359 66.2538 50.9589C66.1317 51.1876 66.0348 51.4687 65.9301 51.7341C65.8534 51.9331 65.7719 52.1206 65.7044 52.3384C65.5803 52.7288 65.4762 53.157 65.3809 53.6019C65.3674 53.6657 65.351 53.7259 65.3381 53.7909C65.2323 54.3152 65.1463 54.8673 65.0758 55.4511C64.8852 56.4318 64.7588 57.4327 64.6913 58.4601C64.6833 58.579 64.6915 58.7068 64.6852 58.8265C64.6368 59.7488 64.6155 60.6864 64.6546 61.6585C64.6704 62.0597 64.7286 62.4925 64.7583 62.9034C64.8102 63.6134 64.8446 64.3103 64.9354 65.0519C65.0803 66.2419 65.2735 67.4714 65.509 68.7568C65.5147 68.7878 65.5319 68.8021 65.5395 68.83C65.7631 70.3952 66.0094 71.7964 66.2965 73.0781C66.3965 73.5429 66.4969 74.0075 66.6016 74.4208C66.7495 74.9823 66.8946 75.5327 67.0471 75.9773C67.0772 76.0677 67.1085 76.1607 67.1387 76.2458C67.3245 76.7556 67.5047 77.1954 67.6879 77.4909C67.8053 77.68 71.2872 71.5755 71.9055 64.7529C71.9161 64.6365 71.9202 64.505 71.9299 64.3866C72.2417 64.0411 72.5249 63.6952 72.8333 63.3368C73.7436 62.2837 74.6383 61.2079 75.4212 60.163C79.0645 55.2995 80.8045 48.1269 80.8045 48.1269C80.8045 48.1269 83.1618 49.9437 86.6395 51.7281C88.3784 52.62 90.3977 53.5042 92.5415 54.1511C93.6135 54.4745 94.7163 54.7384 95.8313 54.914C96.9465 55.0898 98.0747 55.1757 99.1944 55.146C100.806 55.1031 102.407 54.8335 103.961 54.4257C104.62 54.2529 105.272 54.0579 105.908 53.8398C112.318 51.6425 117.395 47.4556 117.395 47.4556C117.395 47.4556 117.679 49.1525 119.397 52.3505C119.969 53.4165 120.704 54.6515 121.637 56.0433C122.04 56.6435 122.522 57.3152 123.053 58.0269C123.057 58.0323 123.061 58.0396 123.065 58.0452C123.58 58.7335 124.141 59.4599 124.732 60.1997C124.963 60.4894 125.214 60.7622 125.452 61.0542C126.497 62.3363 127.563 63.6212 128.607 64.7896C128.691 65.797 128.814 66.7474 128.937 67.7193C129.041 68.5523 129.152 69.3318 129.279 70.1118C129.383 70.7509 129.48 71.3482 129.596 71.9366C129.739 72.6681 129.892 73.2904 130.048 73.9204C130.182 74.4636 130.305 75.0519 130.444 75.5011C130.493 75.6572 130.542 75.7911 130.591 75.9345C130.67 76.1669 130.75 76.4091 130.829 76.606C130.971 76.9595 131.11 77.2652 131.25 77.4909C131.276 77.5331 131.491 77.1907 131.781 76.6669C131.873 76.5042 131.952 76.3306 132.062 76.1177C132.298 75.6599 132.536 75.1402 132.825 74.4757C133.101 73.8499 133.358 73.2573 133.643 72.48C134.019 71.4517 134.377 70.3245 134.686 69.1046C134.893 69.0302 135.066 68.9197 135.248 68.8179C135.354 68.7585 135.474 68.715 135.571 68.647C135.576 68.6437 135.579 68.638 135.584 68.6347C135.773 68.5019 135.931 68.34 136.09 68.1769C136.158 68.1079 136.235 68.0495 136.298 67.9755C136.436 67.812 136.549 67.6243 136.664 67.4384C136.727 67.3363 136.797 67.2415 136.853 67.1333C136.942 66.9626 137.018 66.7806 137.091 66.5962C137.149 66.4491 137.207 66.3054 137.256 66.1507C137.322 65.9421 137.377 65.7241 137.427 65.5036C137.456 65.3738 137.488 65.2464 137.512 65.113C137.555 64.8755 137.588 64.6337 137.616 64.3866C137.631 64.257 137.642 64.1279 137.653 63.996C137.703 63.3712 137.706 62.7339 137.683 62.0857C137.665 61.5683 137.618 61.0699 137.567 60.5597C137.535 60.2386 137.517 59.9257 137.476 59.6138C137.406 59.0911 137.323 58.621 137.238 58.1429C137.195 57.9073 137.165 57.6859 137.122 57.4654C136.855 56.1054 136.58 55.0376 136.481 54.6089C136.271 53.6982 136.009 52.8226 135.712 51.9659C135.637 51.7519 135.547 51.5482 135.468 51.3374C135.245 50.747 135.004 50.1677 134.741 49.604C134.588 49.2749 134.426 48.9534 134.259 48.6335C134.018 48.1702 133.764 47.7167 133.496 47.2724C133.333 47.0013 133.169 46.7308 132.996 46.4667C132.681 45.9859 132.346 45.5202 132.001 45.063C131.814 44.8161 131.634 44.5644 131.439 44.3245C130.986 43.7663 130.508 43.2281 130.011 42.707C129.943 42.6361 129.884 42.5575 129.816 42.4872C129.808 42.479 129.799 42.471 129.791 42.4628C129.204 41.8622 128.584 41.2917 127.942 40.7417C127.666 40.5048 127.373 40.2857 127.088 40.0581C126.688 39.7404 126.29 39.4236 125.873 39.1241C125.607 38.9335 125.333 38.7521 125.061 38.5689C124.573 38.2402 124.075 37.9214 123.566 37.6167C123.313 37.4656 123.06 37.3163 122.803 37.171C122.308 36.8915 121.801 36.6292 121.289 36.3716C120.96 36.2058 120.636 36.0337 120.3 35.8773C119.798 35.6427 119.284 35.4261 118.768 35.2118C118.471 35.0884 118.179 34.9564 117.877 34.8396C117.069 34.5267 116.247 34.2372 115.411 33.973C115.399 33.9691 115.387 33.9646 115.375 33.9607C115.112 33.8777 114.841 33.813 114.575 33.7349C113.954 33.5521 113.334 33.3726 112.701 33.2159C112.368 33.1335 112.031 33.0654 111.694 32.9902C111.12 32.8618 110.543 32.737 109.961 32.63C109.582 32.5605 109.201 32.5015 108.82 32.4409C108.297 32.3579 107.772 32.281 107.245 32.2152C106.826 32.1628 106.408 32.1101 105.988 32.0687C105.448 32.0154 104.907 31.982 104.364 31.9464C103.982 31.9214 103.6 31.8833 103.217 31.8671C102.292 31.8282 101.365 31.8118 100.44 31.8245Z" fill="#5E3F37"/>
<path d="M118.585 43.7217C118.585 43.7217 113.16 49.4818 106.464 51.6545C105.799 51.8701 105.12 52.0635 104.431 52.2344C102.807 52.6373 101.134 52.9 99.4508 52.9422C98.2811 52.9717 97.1 52.8902 95.9352 52.7164C94.7702 52.5428 93.6186 52.2793 92.4989 51.9596C90.259 51.3201 88.1508 50.4492 86.3342 49.567C82.701 47.8027 79.9276 44.2086 79.9276 44.2086C79.9276 44.2086 78.4219 53.0955 74.6155 57.9045C73.7977 58.9377 72.8625 60.0004 71.9118 61.0416C71.5895 61.3959 71.2911 61.7377 70.9657 62.0793C70.9555 62.1963 70.9522 62.3303 70.9413 62.4455C70.3379 68.7449 67.2276 74.2146 66.7053 74.7867C66.818 75.2082 66.9305 75.6369 67.0471 75.977C67.0772 76.0674 67.1084 76.1603 67.1387 76.2455C67.3245 76.7553 67.5047 77.1951 67.6879 77.4906C67.8053 77.6797 71.2872 71.5752 71.9055 64.7525C71.9161 64.6361 71.9202 64.5047 71.9299 64.3863C72.2416 64.0408 72.5249 63.6949 72.8333 63.3365C73.7436 62.2834 74.6383 61.2076 75.4211 60.1627C79.0645 55.2992 80.8045 48.1266 80.8045 48.1266C80.8045 48.1266 83.1618 49.9434 86.6395 51.7277C88.3784 52.6197 90.3977 53.5039 92.5415 54.1508C93.6135 54.4742 94.7163 54.7381 95.8313 54.9137C96.9465 55.0895 98.0747 55.1754 99.1944 55.1457C100.806 55.1027 102.407 54.8332 103.961 54.4254C104.62 54.2525 105.272 54.0576 105.908 53.8395C112.318 51.6422 117.395 47.4553 117.395 47.4553C117.395 47.4553 117.679 49.1521 119.397 52.3502C119.969 53.4162 120.704 54.6512 121.637 56.043C122.039 56.6432 122.522 57.3148 123.053 58.0266C123.057 58.032 123.061 58.0393 123.065 58.0449C123.58 58.7332 124.141 59.4596 124.731 60.1994C124.963 60.4891 125.214 60.7619 125.452 61.0539C126.497 62.3359 127.563 63.6209 128.607 64.7893C128.691 65.7967 128.814 66.7469 128.937 67.7189C129.041 68.552 129.152 69.3314 129.279 70.1115C129.383 70.7506 129.48 71.3479 129.596 71.9363C129.739 72.6678 129.892 73.29 130.048 73.9201C130.182 74.4633 130.305 75.0516 130.444 75.5008C130.493 75.6568 130.542 75.7908 130.591 75.9342C130.67 76.1666 130.75 76.4088 130.829 76.6057C130.971 76.9592 131.11 77.2648 131.25 77.4906C131.276 77.5328 131.491 77.1904 131.781 76.6666C131.873 76.5039 131.952 76.3303 132.062 76.1174C132.273 75.7072 132.495 75.2154 132.745 74.6465C132.664 74.4873 132.583 74.3576 132.501 74.1643C132.418 73.9695 132.334 73.7287 132.251 73.4988C132.2 73.357 132.149 73.226 132.098 73.0717C131.953 72.6273 131.824 72.0463 131.683 71.5092C131.521 70.8863 131.363 70.267 131.213 69.5438C131.093 68.9619 130.986 68.3754 130.878 67.7434C130.745 66.9721 130.633 66.1988 130.524 65.3752C130.396 64.4141 130.27 63.4783 130.182 62.482C129.091 61.327 127.972 60.051 126.88 58.7834C126.631 58.4945 126.371 58.2275 126.129 57.941C125.513 57.2096 124.927 56.4916 124.39 55.8109C124.385 55.8055 124.382 55.798 124.377 55.7926C123.822 55.0889 123.315 54.427 122.894 53.8334C121.919 52.4572 121.155 51.2314 120.557 50.1773C118.762 47.0152 118.585 43.7217 118.585 43.7217Z" fill="#412923"/>
<path opacity="0.559714" d="M132.933 52.8171C134.248 52.032 134.365 49.8079 133.195 47.8497C132.025 45.8913 130.011 44.9404 128.697 45.7257C127.382 46.5109 127.265 48.7349 128.435 50.6931C129.605 52.6515 131.619 53.6025 132.933 52.8171Z" fill="#FFD8CE"/>
<path opacity="0.559714" d="M128.144 53.3626C128.592 53.0948 128.609 52.2981 128.182 51.5829C127.754 50.8677 127.045 50.505 126.597 50.7727C126.149 51.0403 126.132 51.8372 126.559 52.5522C126.986 53.2675 127.696 53.6302 128.144 53.3626Z" fill="#FFD8CE"/>
<defs>
<filter id="filter0_f_924_12074" x="71.6409" y="3.60164" width="52.067" height="38.8787" filterUnits="userSpaceOnUse" color-interpolation-filters="sRGB">
<feFlood flood-opacity="0" result="BackgroundImageFix"/>
<feBlend mode="normal" in="SourceGraphic" in2="BackgroundImageFix" result="shape"/>
<feGaussianBlur stdDeviation="0.0185148" result="effect1_foregroundBlur_924_12074"/>
</filter>
<filter id="filter1_f_924_12074" x="71.8504" y="14.755" width="51.8355" height="27.7254" filterUnits="userSpaceOnUse" color-interpolation-filters="sRGB">
<feFlood flood-opacity="0" result="BackgroundImageFix"/>
<feBlend mode="normal" in="SourceGraphic" in2="BackgroundImageFix" result="shape"/>
<feGaussianBlur stdDeviation="0.0185148" result="effect1_foregroundBlur_924_12074"/>
</filter>
<filter id="filter2_f_924_12074" x="55.086" y="19.7774" width="89.8334" height="101.994" filterUnits="userSpaceOnUse" color-interpolation-filters="sRGB">
<feFlood flood-opacity="0" result="BackgroundImageFix"/>
<feBlend mode="normal" in="SourceGraphic" in2="BackgroundImageFix" result="shape"/>
<feGaussianBlur stdDeviation="0.0234127" result="effect1_foregroundBlur_924_12074"/>
</filter>
</defs>
</svg>
