<svg width="200" height="200" viewBox="0 0 200 200" fill="none" xmlns="http://www.w3.org/2000/svg">
<path d="M83.9418 67.765C77.8812 67.616 71.7703 69.3382 71.7703 69.3382C71.7703 69.3382 68.6234 80.1123 73.5367 84.6277C75.6814 86.5986 87.5904 87.9675 92.5293 83.9687C97.1603 80.2193 96.449 72.6761 95.4826 70.3492C94.5525 68.1097 90.0021 67.9138 83.9418 67.765ZM83.8793 69.0371C89.1191 69.166 93.0541 69.3332 93.8582 71.2693C94.6937 73.281 95.3064 79.8013 91.3025 83.0429C87.0324 86.5002 76.7371 85.3207 74.8828 83.6166C70.6348 79.7129 73.3607 70.3945 73.3607 70.3945C73.3607 70.3945 78.6394 68.9084 83.8793 69.0371Z" fill="#903912"/>
<path d="M116.059 67.765C109.999 67.9138 105.443 68.1097 104.513 70.3492C103.546 72.6761 102.841 80.2193 107.472 83.9687C112.411 87.9675 124.32 86.5986 126.465 84.6277C131.378 80.1123 128.231 69.3382 128.231 69.3382C128.231 69.3382 122.12 67.616 116.059 67.765ZM116.122 69.0371C121.362 68.9084 126.641 70.3945 126.641 70.3945C126.641 70.3945 129.366 79.7129 125.118 83.6166C123.264 85.3207 112.963 86.5002 108.693 83.0429C104.689 79.8013 105.302 73.281 106.137 71.2693C106.941 69.3332 110.882 69.166 116.122 69.0371Z" fill="#903912"/>
<path d="M71.9324 72.8189L69.1715 73.2124C68.6899 73.2812 68.2436 72.9462 68.175 72.4646L67.902 70.5499C67.8334 70.0681 68.1682 69.622 68.65 69.5533L74.3195 68.7451C74.5412 68.7136 73.7475 69.5015 73.1567 70.4386C72.4627 71.5394 71.9324 72.8189 71.9324 72.8189Z" fill="#903912"/>
<path d="M127.924 72.7987L130.828 73.2128C131.31 73.2815 131.756 72.9466 131.825 72.4649L132.098 70.5503C132.166 70.0684 131.832 69.6224 131.35 69.5536L125.68 68.7454C125.436 68.7106 126.379 69.4005 127.012 70.439C127.624 71.4444 127.924 72.7987 127.924 72.7987Z" fill="#903912"/>
<path d="M99.9498 73.1611C96.9826 73.1611 94.5752 75.4641 94.5752 78.3066C94.5752 78.759 94.651 79.191 94.7654 79.609C95.3676 77.3973 97.4523 75.7588 99.9498 75.7588C102.447 75.7588 104.526 77.3973 105.129 79.609C105.243 79.191 105.319 78.759 105.319 78.3066C105.319 75.4641 102.917 73.1611 99.9498 73.1611Z" fill="#903912"/>
</svg>
