<svg width="200" height="200" viewBox="0 0 200 200" fill="none" xmlns="http://www.w3.org/2000/svg">
<path d="M85.0047 67.1449C82.1375 67.1035 77.8781 67.6187 75.8678 69.1974C73.1558 71.3275 72.2974 75.8435 72.4605 79.3021C72.7447 85.324 78.4287 89.9468 85.1572 89.6294C91.8857 89.3121 97.1117 84.1746 96.8277 78.1527C96.5435 72.1306 91.5924 67.2402 85.0047 67.1449ZM84.9812 67.8076C91.1785 67.8972 95.839 72.4994 96.1062 78.1644C96.3734 83.8292 91.4574 88.6624 85.1279 88.9609C78.7984 89.2595 73.449 84.9083 73.1818 79.2433C73.0285 75.99 73.8387 71.7466 76.3898 69.7429C78.2808 68.2576 82.2842 67.7685 84.9812 67.8076Z" fill="black"/>
<path d="M71.0371 69.4336H75.6176V70.4104H71.0371V69.4336Z" fill="black"/>
<path d="M115 67.1449C117.868 67.1035 122.127 67.6187 124.137 69.1974C126.849 71.3275 127.708 75.8435 127.545 79.3021C127.261 85.324 121.576 89.9468 114.848 89.6294C108.119 89.3121 102.893 84.1746 103.178 78.1527C103.462 72.1306 108.413 67.2402 115 67.1449ZM115.024 67.8076C108.827 67.8972 104.166 72.4994 103.899 78.1644C103.632 83.8292 108.548 88.6624 114.877 88.9609C121.207 89.2595 126.556 84.9083 126.823 79.2433C126.977 75.99 126.166 71.7466 123.615 69.7429C121.724 68.2576 117.721 67.7685 115.024 67.8076Z" fill="black"/>
<path d="M128.968 69.4336H124.387V70.4104H128.968V69.4336Z" fill="black"/>
<path d="M99.9942 76.792C97.8622 76.792 96.1294 78.3027 96.1294 80.1682C96.1294 80.2951 96.1608 80.4168 96.1765 80.5402C96.3886 78.8502 98.0063 77.5295 99.9942 77.5295C101.982 77.5295 103.594 78.8502 103.806 80.5402C103.822 80.4168 103.853 80.2951 103.853 80.1682C103.853 78.3027 102.126 76.792 99.9942 76.792Z" fill="black"/>
</svg>
