<svg width="200" height="200" viewBox="0 0 200 200" fill="none" xmlns="http://www.w3.org/2000/svg">
<path d="M77.421 74.0946C77.9747 72.0459 81.6917 71.2684 85.723 72.3582C89.7544 73.4479 92.5736 75.992 92.0197 78.0409C91.4659 80.0895 87.749 80.8668 83.7175 79.7772C79.6863 78.6875 76.8671 76.1432 77.421 74.0946Z" fill="white"/>
<path d="M122.585 74.0946C122.031 72.0459 118.314 71.2684 114.283 72.3582C110.251 73.4479 107.432 75.992 107.986 78.0409C108.54 80.0895 112.257 80.8668 116.288 79.7772C120.319 78.6875 123.138 76.1432 122.585 74.0946Z" fill="white"/>
<path d="M106.804 76.8377C107.925 75.7164 109.334 74.7254 110.736 73.9467C113.877 72.2016 117.817 71.8652 121.375 71.8652" stroke="black" stroke-width="1.25952" stroke-miterlimit="10" stroke-linecap="round" stroke-linejoin="round"/>
<path d="M110.873 76.3322C110.873 74.4109 112.43 72.8535 114.351 72.8535C116.273 72.8535 117.83 74.4109 117.83 76.3322C117.83 78.2533 116.273 79.8107 114.351 79.8107C112.43 79.8107 110.873 78.2533 110.873 76.3322Z" fill="black"/>
<path d="M93.1967 76.8377C92.0754 75.7164 90.6666 74.7254 89.2648 73.9467C86.1236 72.2016 82.1844 71.8652 78.626 71.8652" stroke="black" stroke-width="1.25952" stroke-miterlimit="10" stroke-linecap="round" stroke-linejoin="round"/>
<path d="M89.1283 76.3322C89.1283 74.4109 87.5707 72.8535 85.6496 72.8535C83.7283 72.8535 82.1709 74.4109 82.1709 76.3322C82.1709 78.2533 83.7283 79.8107 85.6496 79.8107C87.5707 79.8107 89.1283 78.2533 89.1283 76.3322Z" fill="black"/>
</svg>
