<svg width="200" height="200" viewBox="0 0 200 200" fill="none" xmlns="http://www.w3.org/2000/svg">
<path d="M109.011 76.258C109.011 73.1811 111.811 70.6865 115.266 70.6865C118.721 70.6865 121.521 73.1811 121.521 76.258C121.521 79.3352 118.721 81.8297 115.266 81.8297C111.811 81.8297 109.011 79.3352 109.011 76.258Z" fill="white"/>
<path d="M107.388 75.1908C107.388 75.1908 108.582 73.0686 110.818 71.8316C114.568 69.7566 120.781 70.3523 122.118 74.1014" stroke="black" stroke-width="1.39394" stroke-miterlimit="10" stroke-linecap="round" stroke-linejoin="round"/>
<path d="M116.765 81.7928C116.765 81.7928 118.407 81.277 119.473 80.4771C120.539 79.6775 120.925 78.9658 120.925 78.9658" stroke="black" stroke-width="1.39394" stroke-miterlimit="10" stroke-linecap="round" stroke-linejoin="round"/>
<path d="M78.9922 75.5678C78.9922 72.4906 81.7928 69.9961 85.2475 69.9961C88.7023 69.9961 91.5029 72.4906 91.5029 75.5678C91.5029 78.6449 88.7023 81.1393 85.2475 81.1393C81.7928 81.1393 78.9922 78.6449 78.9922 75.5678Z" fill="white"/>
<path d="M110.872 75.9844C110.872 73.5574 112.839 71.5898 115.266 71.5898C117.693 71.5898 119.661 73.5574 119.661 75.9844C119.661 78.4113 117.693 80.3789 115.266 80.3789C112.839 80.3789 110.872 78.4113 110.872 75.9844Z" fill="black"/>
<path d="M92.6124 74.7739C92.6124 74.7739 91.4177 72.6516 89.1819 71.4147C85.4317 69.3397 79.219 69.9352 77.8823 73.6844" stroke="black" stroke-width="1.39394" stroke-miterlimit="10" stroke-linecap="round" stroke-linejoin="round"/>
<path d="M84.2617 81.3758C84.2617 81.3758 82.6199 80.8598 81.5537 80.0602C80.4877 79.2604 80.1016 78.5488 80.1016 78.5488" stroke="black" stroke-width="1.39394" stroke-miterlimit="10" stroke-linecap="round" stroke-linejoin="round"/>
<path d="M90.1553 75.5674C90.1553 73.1402 88.1877 71.1729 85.7607 71.1729C83.3338 71.1729 81.3662 73.1402 81.3662 75.5674C81.3662 77.9943 83.3338 79.9619 85.7607 79.9619C88.1877 79.9619 90.1553 77.9943 90.1553 75.5674Z" fill="black"/>
</svg>
