<svg width="100" height="100" viewBox="0 0 100 100" fill="none" xmlns="http://www.w3.org/2000/svg">
<g clip-path="url(#clip0_759_35588)">
<circle cx="50" cy="50" r="83" fill="url(#paint0_linear_759_35588)"/>
<path d="M14.7706 3.63778C14.8941 3.63778 14.9942 3.53764 14.9942 3.41411C14.9942 3.29057 14.8941 3.19043 14.7706 3.19043C14.647 3.19043 14.5469 3.29057 14.5469 3.41411C14.5469 3.53764 14.647 3.63778 14.7706 3.63778Z" fill="white" fill-opacity="0.3"/>
<path d="M19.6905 3.63925C19.814 3.63925 19.9141 3.5391 19.9141 3.41557C19.9141 3.29204 19.814 3.19189 19.6905 3.19189C19.5669 3.19189 19.4668 3.29204 19.4668 3.41557C19.4668 3.5391 19.5669 3.63925 19.6905 3.63925Z" fill="white" fill-opacity="0.3"/>
<path d="M24.6182 3.63778C24.7417 3.63778 24.8419 3.53764 24.8419 3.41411C24.8419 3.29057 24.7417 3.19043 24.6182 3.19043C24.4947 3.19043 24.3945 3.29057 24.3945 3.41411C24.3945 3.53764 24.4947 3.63778 24.6182 3.63778Z" fill="white" fill-opacity="0.3"/>
<path d="M29.5362 3.63925C29.6597 3.63925 29.7599 3.5391 29.7599 3.41557C29.7599 3.29204 29.6597 3.19189 29.5362 3.19189C29.4126 3.19189 29.3125 3.29204 29.3125 3.41557C29.3125 3.5391 29.4126 3.63925 29.5362 3.63925Z" fill="white" fill-opacity="0.3"/>
<path d="M34.4522 3.63925C34.5757 3.63925 34.6759 3.5391 34.6759 3.41557C34.6759 3.29204 34.5757 3.19189 34.4522 3.19189C34.3287 3.19189 34.2285 3.29204 34.2285 3.41557C34.2285 3.5391 34.3287 3.63925 34.4522 3.63925Z" fill="white" fill-opacity="0.3"/>
<path d="M39.378 3.63778C39.5015 3.63778 39.6016 3.53764 39.6016 3.41411C39.6016 3.29057 39.5015 3.19043 39.378 3.19043C39.2544 3.19043 39.1543 3.29057 39.1543 3.41411C39.1543 3.53764 39.2544 3.63778 39.378 3.63778Z" fill="white" fill-opacity="0.3"/>
<path d="M44.2979 3.63681C44.4214 3.63681 44.5216 3.53666 44.5216 3.41313C44.5216 3.2896 44.4214 3.18945 44.2979 3.18945C44.1744 3.18945 44.0742 3.2896 44.0742 3.41313C44.0742 3.53666 44.1744 3.63681 44.2979 3.63681Z" fill="white" fill-opacity="0.3"/>
<path d="M49.2178 3.63925C49.3413 3.63925 49.4415 3.5391 49.4415 3.41557C49.4415 3.29204 49.3413 3.19189 49.2178 3.19189C49.0943 3.19189 48.9941 3.29204 48.9941 3.41557C48.9941 3.5391 49.0943 3.63925 49.2178 3.63925Z" fill="white" fill-opacity="0.3"/>
<path d="M54.1436 3.63925C54.2671 3.63925 54.3673 3.5391 54.3673 3.41557C54.3673 3.29204 54.2671 3.19189 54.1436 3.19189C54.0201 3.19189 53.9199 3.29204 53.9199 3.41557C53.9199 3.5391 54.0201 3.63925 54.1436 3.63925Z" fill="white" fill-opacity="0.3"/>
<path d="M59.0596 3.63681C59.1831 3.63681 59.2833 3.53666 59.2833 3.41313C59.2833 3.2896 59.1831 3.18945 59.0596 3.18945C58.9361 3.18945 58.8359 3.2896 58.8359 3.41313C58.8359 3.53666 58.9361 3.63681 59.0596 3.63681Z" fill="white" fill-opacity="0.3"/>
<path d="M63.9854 3.63925C64.1089 3.63925 64.2091 3.5391 64.2091 3.41557C64.2091 3.29204 64.1089 3.19189 63.9854 3.19189C63.8619 3.19189 63.7617 3.29204 63.7617 3.41557C63.7617 3.5391 63.8619 3.63925 63.9854 3.63925Z" fill="white" fill-opacity="0.3"/>
<path d="M68.9053 3.63778C69.0288 3.63778 69.129 3.53764 69.129 3.41411C69.129 3.29057 69.0288 3.19043 68.9053 3.19043C68.7818 3.19043 68.6816 3.29057 68.6816 3.41411C68.6816 3.53764 68.7818 3.63778 68.9053 3.63778Z" fill="white" fill-opacity="0.3"/>
<path d="M73.8252 3.63729C73.9488 3.63729 74.0489 3.53715 74.0489 3.41362C74.0489 3.29008 73.9488 3.18994 73.8252 3.18994C73.7017 3.18994 73.6016 3.29008 73.6016 3.41362C73.6016 3.53715 73.7017 3.63729 73.8252 3.63729Z" fill="white" fill-opacity="0.3"/>
<path d="M78.7432 3.63778C78.8667 3.63778 78.9669 3.53764 78.9669 3.41411C78.9669 3.29057 78.8667 3.19043 78.7432 3.19043C78.6197 3.19043 78.5195 3.29057 78.5195 3.41411C78.5195 3.53764 78.6197 3.63778 78.7432 3.63778Z" fill="white" fill-opacity="0.3"/>
<path d="M83.667 3.63925C83.7906 3.63925 83.8907 3.5391 83.8907 3.41557C83.8907 3.29204 83.7906 3.19189 83.667 3.19189C83.5435 3.19189 83.4434 3.29204 83.4434 3.41557C83.4434 3.5391 83.5435 3.63925 83.667 3.63925Z" fill="white" fill-opacity="0.3"/>
<path d="M14.7706 8.55917C14.8941 8.55917 14.9942 8.45903 14.9942 8.33549C14.9942 8.21196 14.8941 8.11182 14.7706 8.11182C14.647 8.11182 14.5469 8.21196 14.5469 8.33549C14.5469 8.45903 14.647 8.55917 14.7706 8.55917Z" fill="white" fill-opacity="0.3"/>
<path d="M19.6905 8.55917C19.814 8.55917 19.9141 8.45903 19.9141 8.33549C19.9141 8.21196 19.814 8.11182 19.6905 8.11182C19.5669 8.11182 19.4668 8.21196 19.4668 8.33549C19.4668 8.45903 19.5669 8.55917 19.6905 8.55917Z" fill="white" fill-opacity="0.3"/>
<path d="M24.6182 8.55917C24.7417 8.55917 24.8419 8.45903 24.8419 8.33549C24.8419 8.21196 24.7417 8.11182 24.6182 8.11182C24.4947 8.11182 24.3945 8.21196 24.3945 8.33549C24.3945 8.45903 24.4947 8.55917 24.6182 8.55917Z" fill="white" fill-opacity="0.3"/>
<path d="M29.5362 8.55917C29.6597 8.55917 29.7599 8.45903 29.7599 8.33549C29.7599 8.21196 29.6597 8.11182 29.5362 8.11182C29.4126 8.11182 29.3125 8.21196 29.3125 8.33549C29.3125 8.45903 29.4126 8.55917 29.5362 8.55917Z" fill="white" fill-opacity="0.3"/>
<path d="M34.4522 8.55917C34.5757 8.55917 34.6759 8.45903 34.6759 8.33549C34.6759 8.21196 34.5757 8.11182 34.4522 8.11182C34.3287 8.11182 34.2285 8.21196 34.2285 8.33549C34.2285 8.45903 34.3287 8.55917 34.4522 8.55917Z" fill="white" fill-opacity="0.3"/>
<path d="M39.378 8.55917C39.5015 8.55917 39.6016 8.45903 39.6016 8.33549C39.6016 8.21196 39.5015 8.11182 39.378 8.11182C39.2544 8.11182 39.1543 8.21196 39.1543 8.33549C39.1543 8.45903 39.2544 8.55917 39.378 8.55917Z" fill="white" fill-opacity="0.3"/>
<path d="M44.2979 8.55917C44.4214 8.55917 44.5216 8.45903 44.5216 8.33549C44.5216 8.21196 44.4214 8.11182 44.2979 8.11182C44.1744 8.11182 44.0742 8.21196 44.0742 8.33549C44.0742 8.45903 44.1744 8.55917 44.2979 8.55917Z" fill="white" fill-opacity="0.3"/>
<path d="M49.2178 8.55917C49.3413 8.55917 49.4415 8.45903 49.4415 8.33549C49.4415 8.21196 49.3413 8.11182 49.2178 8.11182C49.0943 8.11182 48.9941 8.21196 48.9941 8.33549C48.9941 8.45903 49.0943 8.55917 49.2178 8.55917Z" fill="white" fill-opacity="0.3"/>
<path d="M54.1436 8.55917C54.2671 8.55917 54.3673 8.45903 54.3673 8.33549C54.3673 8.21196 54.2671 8.11182 54.1436 8.11182C54.0201 8.11182 53.9199 8.21196 53.9199 8.33549C53.9199 8.45903 54.0201 8.55917 54.1436 8.55917Z" fill="white" fill-opacity="0.3"/>
<path d="M59.0596 8.55917C59.1831 8.55917 59.2833 8.45903 59.2833 8.33549C59.2833 8.21196 59.1831 8.11182 59.0596 8.11182C58.9361 8.11182 58.8359 8.21196 58.8359 8.33549C58.8359 8.45903 58.9361 8.55917 59.0596 8.55917Z" fill="white" fill-opacity="0.3"/>
<path d="M63.9854 8.55917C64.1089 8.55917 64.2091 8.45903 64.2091 8.33549C64.2091 8.21196 64.1089 8.11182 63.9854 8.11182C63.8619 8.11182 63.7617 8.21196 63.7617 8.33549C63.7617 8.45903 63.8619 8.55917 63.9854 8.55917Z" fill="white" fill-opacity="0.3"/>
<path d="M68.9053 8.55917C69.0288 8.55917 69.129 8.45903 69.129 8.33549C69.129 8.21196 69.0288 8.11182 68.9053 8.11182C68.7818 8.11182 68.6816 8.21196 68.6816 8.33549C68.6816 8.45903 68.7818 8.55917 68.9053 8.55917Z" fill="white" fill-opacity="0.3"/>
<path d="M73.8252 8.55917C73.9488 8.55917 74.0489 8.45903 74.0489 8.33549C74.0489 8.21196 73.9488 8.11182 73.8252 8.11182C73.7017 8.11182 73.6016 8.21196 73.6016 8.33549C73.6016 8.45903 73.7017 8.55917 73.8252 8.55917Z" fill="white" fill-opacity="0.3"/>
<path d="M78.7432 8.55917C78.8667 8.55917 78.9669 8.45903 78.9669 8.33549C78.9669 8.21196 78.8667 8.11182 78.7432 8.11182C78.6197 8.11182 78.5195 8.21196 78.5195 8.33549C78.5195 8.45903 78.6197 8.55917 78.7432 8.55917Z" fill="white" fill-opacity="0.3"/>
<path d="M83.667 8.55917C83.7906 8.55917 83.8907 8.45903 83.8907 8.33549C83.8907 8.21196 83.7906 8.11182 83.667 8.11182C83.5435 8.11182 83.4434 8.21196 83.4434 8.33549C83.4434 8.45903 83.5435 8.55917 83.667 8.55917Z" fill="white" fill-opacity="0.3"/>
<path d="M14.7706 13.481C14.8941 13.481 14.9942 13.3809 14.9942 13.2574C14.9942 13.1338 14.8941 13.0337 14.7706 13.0337C14.647 13.0337 14.5469 13.1338 14.5469 13.2574C14.5469 13.3809 14.647 13.481 14.7706 13.481Z" fill="white" fill-opacity="0.3"/>
<path d="M19.6905 13.4796C19.814 13.4796 19.9141 13.3794 19.9141 13.2559C19.9141 13.1324 19.814 13.0322 19.6905 13.0322C19.5669 13.0322 19.4668 13.1324 19.4668 13.2559C19.4668 13.3794 19.5669 13.4796 19.6905 13.4796Z" fill="white" fill-opacity="0.3"/>
<path d="M24.6182 13.4806C24.7417 13.4806 24.8419 13.3804 24.8419 13.2569C24.8419 13.1333 24.7417 13.0332 24.6182 13.0332C24.4947 13.0332 24.3945 13.1333 24.3945 13.2569C24.3945 13.3804 24.4947 13.4806 24.6182 13.4806Z" fill="white" fill-opacity="0.3"/>
<path d="M29.5362 13.4796C29.6597 13.4796 29.7599 13.3794 29.7599 13.2559C29.7599 13.1324 29.6597 13.0322 29.5362 13.0322C29.4126 13.0322 29.3125 13.1324 29.3125 13.2559C29.3125 13.3794 29.4126 13.4796 29.5362 13.4796Z" fill="white" fill-opacity="0.3"/>
<path d="M34.4522 13.4796C34.5757 13.4796 34.6759 13.3794 34.6759 13.2559C34.6759 13.1324 34.5757 13.0322 34.4522 13.0322C34.3287 13.0322 34.2285 13.1324 34.2285 13.2559C34.2285 13.3794 34.3287 13.4796 34.4522 13.4796Z" fill="white" fill-opacity="0.3"/>
<path d="M39.378 13.481C39.5015 13.481 39.6016 13.3809 39.6016 13.2574C39.6016 13.1338 39.5015 13.0337 39.378 13.0337C39.2544 13.0337 39.1543 13.1338 39.1543 13.2574C39.1543 13.3809 39.2544 13.481 39.378 13.481Z" fill="white" fill-opacity="0.3"/>
<path d="M44.2979 13.4806C44.4214 13.4806 44.5216 13.3804 44.5216 13.2569C44.5216 13.1333 44.4214 13.0332 44.2979 13.0332C44.1744 13.0332 44.0742 13.1333 44.0742 13.2569C44.0742 13.3804 44.1744 13.4806 44.2979 13.4806Z" fill="white" fill-opacity="0.3"/>
<path d="M49.2178 13.4796C49.3413 13.4796 49.4415 13.3794 49.4415 13.2559C49.4415 13.1324 49.3413 13.0322 49.2178 13.0322C49.0943 13.0322 48.9941 13.1324 48.9941 13.2559C48.9941 13.3794 49.0943 13.4796 49.2178 13.4796Z" fill="white" fill-opacity="0.3"/>
<path d="M54.1436 13.4796C54.2671 13.4796 54.3673 13.3794 54.3673 13.2559C54.3673 13.1324 54.2671 13.0322 54.1436 13.0322C54.0201 13.0322 53.9199 13.1324 53.9199 13.2559C53.9199 13.3794 54.0201 13.4796 54.1436 13.4796Z" fill="white" fill-opacity="0.3"/>
<path d="M59.0596 13.4806C59.1831 13.4806 59.2833 13.3804 59.2833 13.2569C59.2833 13.1333 59.1831 13.0332 59.0596 13.0332C58.9361 13.0332 58.8359 13.1333 58.8359 13.2569C58.8359 13.3804 58.9361 13.4806 59.0596 13.4806Z" fill="white" fill-opacity="0.3"/>
<path d="M63.9854 13.4796C64.1089 13.4796 64.2091 13.3794 64.2091 13.2559C64.2091 13.1324 64.1089 13.0322 63.9854 13.0322C63.8619 13.0322 63.7617 13.1324 63.7617 13.2559C63.7617 13.3794 63.8619 13.4796 63.9854 13.4796Z" fill="white" fill-opacity="0.3"/>
<path d="M68.9053 13.4806C69.0288 13.4806 69.129 13.3804 69.129 13.2569C69.129 13.1333 69.0288 13.0332 68.9053 13.0332C68.7818 13.0332 68.6816 13.1333 68.6816 13.2569C68.6816 13.3804 68.7818 13.4806 68.9053 13.4806Z" fill="white" fill-opacity="0.3"/>
<path d="M73.8252 13.481C73.9488 13.481 74.0489 13.3809 74.0489 13.2574C74.0489 13.1338 73.9488 13.0337 73.8252 13.0337C73.7017 13.0337 73.6016 13.1338 73.6016 13.2574C73.6016 13.3809 73.7017 13.481 73.8252 13.481Z" fill="white" fill-opacity="0.3"/>
<path d="M78.7432 13.4806C78.8667 13.4806 78.9669 13.3804 78.9669 13.2569C78.9669 13.1333 78.8667 13.0332 78.7432 13.0332C78.6197 13.0332 78.5195 13.1333 78.5195 13.2569C78.5195 13.3804 78.6197 13.4806 78.7432 13.4806Z" fill="white" fill-opacity="0.3"/>
<path d="M83.667 13.4796C83.7906 13.4796 83.8907 13.3794 83.8907 13.2559C83.8907 13.1324 83.7906 13.0322 83.667 13.0322C83.5435 13.0322 83.4434 13.1324 83.4434 13.2559C83.4434 13.3794 83.5435 13.4796 83.667 13.4796Z" fill="white" fill-opacity="0.3"/>
<path d="M14.7706 18.4015C14.8941 18.4015 14.9942 18.3013 14.9942 18.1778C14.9942 18.0542 14.8941 17.9541 14.7706 17.9541C14.647 17.9541 14.5469 18.0542 14.5469 18.1778C14.5469 18.3013 14.647 18.4015 14.7706 18.4015Z" fill="white" fill-opacity="0.3"/>
<path d="M19.6905 18.401C19.814 18.401 19.9141 18.3008 19.9141 18.1773C19.9141 18.0538 19.814 17.9536 19.6905 17.9536C19.5669 17.9536 19.4668 18.0538 19.4668 18.1773C19.4668 18.3008 19.5669 18.401 19.6905 18.401Z" fill="white" fill-opacity="0.3"/>
<path d="M24.6182 18.401C24.7417 18.401 24.8419 18.3008 24.8419 18.1773C24.8419 18.0538 24.7417 17.9536 24.6182 17.9536C24.4947 17.9536 24.3945 18.0538 24.3945 18.1773C24.3945 18.3008 24.4947 18.401 24.6182 18.401Z" fill="white" fill-opacity="0.3"/>
<path d="M29.5362 18.401C29.6597 18.401 29.7599 18.3008 29.7599 18.1773C29.7599 18.0538 29.6597 17.9536 29.5362 17.9536C29.4126 17.9536 29.3125 18.0538 29.3125 18.1773C29.3125 18.3008 29.4126 18.401 29.5362 18.401Z" fill="white" fill-opacity="0.3"/>
<path d="M34.4522 18.401C34.5757 18.401 34.6759 18.3008 34.6759 18.1773C34.6759 18.0538 34.5757 17.9536 34.4522 17.9536C34.3287 17.9536 34.2285 18.0538 34.2285 18.1773C34.2285 18.3008 34.3287 18.401 34.4522 18.401Z" fill="white" fill-opacity="0.3"/>
<path d="M39.378 18.4015C39.5015 18.4015 39.6016 18.3013 39.6016 18.1778C39.6016 18.0542 39.5015 17.9541 39.378 17.9541C39.2544 17.9541 39.1543 18.0542 39.1543 18.1778C39.1543 18.3013 39.2544 18.4015 39.378 18.4015Z" fill="white" fill-opacity="0.3"/>
<path d="M44.2979 18.4005C44.4214 18.4005 44.5216 18.3003 44.5216 18.1768C44.5216 18.0533 44.4214 17.9531 44.2979 17.9531C44.1744 17.9531 44.0742 18.0533 44.0742 18.1768C44.0742 18.3003 44.1744 18.4005 44.2979 18.4005Z" fill="white" fill-opacity="0.3"/>
<path d="M49.2178 18.4015C49.3413 18.4015 49.4415 18.3013 49.4415 18.1778C49.4415 18.0542 49.3413 17.9541 49.2178 17.9541C49.0943 17.9541 48.9941 18.0542 48.9941 18.1778C48.9941 18.3013 49.0943 18.4015 49.2178 18.4015Z" fill="white" fill-opacity="0.3"/>
<path d="M54.1436 18.401C54.2671 18.401 54.3673 18.3008 54.3673 18.1773C54.3673 18.0538 54.2671 17.9536 54.1436 17.9536C54.0201 17.9536 53.9199 18.0538 53.9199 18.1773C53.9199 18.3008 54.0201 18.401 54.1436 18.401Z" fill="white" fill-opacity="0.3"/>
<path d="M59.0596 18.4005C59.1831 18.4005 59.2833 18.3003 59.2833 18.1768C59.2833 18.0533 59.1831 17.9531 59.0596 17.9531C58.9361 17.9531 58.8359 18.0533 58.8359 18.1768C58.8359 18.3003 58.9361 18.4005 59.0596 18.4005Z" fill="white" fill-opacity="0.3"/>
<path d="M63.9854 18.401C64.1089 18.401 64.2091 18.3008 64.2091 18.1773C64.2091 18.0538 64.1089 17.9536 63.9854 17.9536C63.8619 17.9536 63.7617 18.0538 63.7617 18.1773C63.7617 18.3008 63.8619 18.401 63.9854 18.401Z" fill="white" fill-opacity="0.3"/>
<path d="M68.9053 18.401C69.0288 18.401 69.129 18.3008 69.129 18.1773C69.129 18.0538 69.0288 17.9536 68.9053 17.9536C68.7818 17.9536 68.6816 18.0538 68.6816 18.1773C68.6816 18.3008 68.7818 18.401 68.9053 18.401Z" fill="white" fill-opacity="0.3"/>
<path d="M73.8252 18.4005C73.9488 18.4005 74.0489 18.3003 74.0489 18.1768C74.0489 18.0533 73.9488 17.9531 73.8252 17.9531C73.7017 17.9531 73.6016 18.0533 73.6016 18.1768C73.6016 18.3003 73.7017 18.4005 73.8252 18.4005Z" fill="white" fill-opacity="0.3"/>
<path d="M78.7432 18.401C78.8667 18.401 78.9669 18.3008 78.9669 18.1773C78.9669 18.0538 78.8667 17.9536 78.7432 17.9536C78.6197 17.9536 78.5195 18.0538 78.5195 18.1773C78.5195 18.3008 78.6197 18.401 78.7432 18.401Z" fill="white" fill-opacity="0.3"/>
<path d="M83.667 18.4015C83.7906 18.4015 83.8907 18.3013 83.8907 18.1778C83.8907 18.0542 83.7906 17.9541 83.667 17.9541C83.5435 17.9541 83.4434 18.0542 83.4434 18.1778C83.4434 18.3013 83.5435 18.4015 83.667 18.4015Z" fill="white" fill-opacity="0.3"/>
<path d="M14.7706 23.3219C14.8941 23.3219 14.9942 23.2217 14.9942 23.0982C14.9942 22.9747 14.8941 22.8745 14.7706 22.8745C14.647 22.8745 14.5469 22.9747 14.5469 23.0982C14.5469 23.2217 14.647 23.3219 14.7706 23.3219Z" fill="white" fill-opacity="0.3"/>
<path d="M19.6905 23.3219C19.814 23.3219 19.9141 23.2217 19.9141 23.0982C19.9141 22.9747 19.814 22.8745 19.6905 22.8745C19.5669 22.8745 19.4668 22.9747 19.4668 23.0982C19.4668 23.2217 19.5669 23.3219 19.6905 23.3219Z" fill="white" fill-opacity="0.3"/>
<path d="M24.6182 23.3219C24.7417 23.3219 24.8419 23.2217 24.8419 23.0982C24.8419 22.9747 24.7417 22.8745 24.6182 22.8745C24.4947 22.8745 24.3945 22.9747 24.3945 23.0982C24.3945 23.2217 24.4947 23.3219 24.6182 23.3219Z" fill="white" fill-opacity="0.3"/>
<path d="M29.5362 23.3219C29.6597 23.3219 29.7599 23.2217 29.7599 23.0982C29.7599 22.9747 29.6597 22.8745 29.5362 22.8745C29.4126 22.8745 29.3125 22.9747 29.3125 23.0982C29.3125 23.2217 29.4126 23.3219 29.5362 23.3219Z" fill="white" fill-opacity="0.3"/>
<path d="M34.4522 23.3219C34.5757 23.3219 34.6759 23.2217 34.6759 23.0982C34.6759 22.9747 34.5757 22.8745 34.4522 22.8745C34.3287 22.8745 34.2285 22.9747 34.2285 23.0982C34.2285 23.2217 34.3287 23.3219 34.4522 23.3219Z" fill="white" fill-opacity="0.3"/>
<path d="M39.378 23.3219C39.5015 23.3219 39.6016 23.2217 39.6016 23.0982C39.6016 22.9747 39.5015 22.8745 39.378 22.8745C39.2544 22.8745 39.1543 22.9747 39.1543 23.0982C39.1543 23.2217 39.2544 23.3219 39.378 23.3219Z" fill="white" fill-opacity="0.3"/>
<path d="M44.2979 23.3219C44.4214 23.3219 44.5216 23.2217 44.5216 23.0982C44.5216 22.9747 44.4214 22.8745 44.2979 22.8745C44.1744 22.8745 44.0742 22.9747 44.0742 23.0982C44.0742 23.2217 44.1744 23.3219 44.2979 23.3219Z" fill="white" fill-opacity="0.3"/>
<path d="M49.2178 23.3219C49.3413 23.3219 49.4415 23.2217 49.4415 23.0982C49.4415 22.9747 49.3413 22.8745 49.2178 22.8745C49.0943 22.8745 48.9941 22.9747 48.9941 23.0982C48.9941 23.2217 49.0943 23.3219 49.2178 23.3219Z" fill="white" fill-opacity="0.3"/>
<path d="M54.1436 23.3219C54.2671 23.3219 54.3673 23.2217 54.3673 23.0982C54.3673 22.9747 54.2671 22.8745 54.1436 22.8745C54.0201 22.8745 53.9199 22.9747 53.9199 23.0982C53.9199 23.2217 54.0201 23.3219 54.1436 23.3219Z" fill="white" fill-opacity="0.3"/>
<path d="M59.0596 23.3219C59.1831 23.3219 59.2833 23.2217 59.2833 23.0982C59.2833 22.9747 59.1831 22.8745 59.0596 22.8745C58.9361 22.8745 58.8359 22.9747 58.8359 23.0982C58.8359 23.2217 58.9361 23.3219 59.0596 23.3219Z" fill="white" fill-opacity="0.3"/>
<path d="M63.9854 23.3219C64.1089 23.3219 64.2091 23.2217 64.2091 23.0982C64.2091 22.9747 64.1089 22.8745 63.9854 22.8745C63.8619 22.8745 63.7617 22.9747 63.7617 23.0982C63.7617 23.2217 63.8619 23.3219 63.9854 23.3219Z" fill="white" fill-opacity="0.3"/>
<path d="M68.9053 23.3219C69.0288 23.3219 69.129 23.2217 69.129 23.0982C69.129 22.9747 69.0288 22.8745 68.9053 22.8745C68.7818 22.8745 68.6816 22.9747 68.6816 23.0982C68.6816 23.2217 68.7818 23.3219 68.9053 23.3219Z" fill="white" fill-opacity="0.3"/>
<path d="M73.8252 23.3219C73.9488 23.3219 74.0489 23.2217 74.0489 23.0982C74.0489 22.9747 73.9488 22.8745 73.8252 22.8745C73.7017 22.8745 73.6016 22.9747 73.6016 23.0982C73.6016 23.2217 73.7017 23.3219 73.8252 23.3219Z" fill="white" fill-opacity="0.3"/>
<path d="M78.7432 23.3219C78.8667 23.3219 78.9669 23.2217 78.9669 23.0982C78.9669 22.9747 78.8667 22.8745 78.7432 22.8745C78.6197 22.8745 78.5195 22.9747 78.5195 23.0982C78.5195 23.2217 78.6197 23.3219 78.7432 23.3219Z" fill="white" fill-opacity="0.3"/>
<path d="M83.667 23.3219C83.7906 23.3219 83.8907 23.2217 83.8907 23.0982C83.8907 22.9747 83.7906 22.8745 83.667 22.8745C83.5435 22.8745 83.4434 22.9747 83.4434 23.0982C83.4434 23.2217 83.5435 23.3219 83.667 23.3219Z" fill="white" fill-opacity="0.3"/>
<path d="M14.7706 28.2423C14.8941 28.2423 14.9942 28.1421 14.9942 28.0186C14.9942 27.8951 14.8941 27.7949 14.7706 27.7949C14.647 27.7949 14.5469 27.8951 14.5469 28.0186C14.5469 28.1421 14.647 28.2423 14.7706 28.2423Z" fill="white" fill-opacity="0.3"/>
<path d="M19.6905 28.2423C19.814 28.2423 19.9141 28.1421 19.9141 28.0186C19.9141 27.8951 19.814 27.7949 19.6905 27.7949C19.5669 27.7949 19.4668 27.8951 19.4668 28.0186C19.4668 28.1421 19.5669 28.2423 19.6905 28.2423Z" fill="white" fill-opacity="0.3"/>
<path d="M24.6182 28.2423C24.7417 28.2423 24.8419 28.1421 24.8419 28.0186C24.8419 27.8951 24.7417 27.7949 24.6182 27.7949C24.4947 27.7949 24.3945 27.8951 24.3945 28.0186C24.3945 28.1421 24.4947 28.2423 24.6182 28.2423Z" fill="white" fill-opacity="0.3"/>
<path d="M29.5362 28.2423C29.6597 28.2423 29.7599 28.1421 29.7599 28.0186C29.7599 27.8951 29.6597 27.7949 29.5362 27.7949C29.4126 27.7949 29.3125 27.8951 29.3125 28.0186C29.3125 28.1421 29.4126 28.2423 29.5362 28.2423Z" fill="white" fill-opacity="0.3"/>
<path d="M34.4522 28.2423C34.5757 28.2423 34.6759 28.1421 34.6759 28.0186C34.6759 27.8951 34.5757 27.7949 34.4522 27.7949C34.3287 27.7949 34.2285 27.8951 34.2285 28.0186C34.2285 28.1421 34.3287 28.2423 34.4522 28.2423Z" fill="white" fill-opacity="0.3"/>
<path d="M39.378 28.2423C39.5015 28.2423 39.6016 28.1421 39.6016 28.0186C39.6016 27.8951 39.5015 27.7949 39.378 27.7949C39.2544 27.7949 39.1543 27.8951 39.1543 28.0186C39.1543 28.1421 39.2544 28.2423 39.378 28.2423Z" fill="white" fill-opacity="0.3"/>
<path d="M44.2979 28.2433C44.4214 28.2433 44.5216 28.1431 44.5216 28.0196C44.5216 27.896 44.4214 27.7959 44.2979 27.7959C44.1744 27.7959 44.0742 27.896 44.0742 28.0196C44.0742 28.1431 44.1744 28.2433 44.2979 28.2433Z" fill="white" fill-opacity="0.3"/>
<path d="M49.2178 28.2423C49.3413 28.2423 49.4415 28.1421 49.4415 28.0186C49.4415 27.8951 49.3413 27.7949 49.2178 27.7949C49.0943 27.7949 48.9941 27.8951 48.9941 28.0186C48.9941 28.1421 49.0943 28.2423 49.2178 28.2423Z" fill="white" fill-opacity="0.3"/>
<path d="M54.1436 28.2423C54.2671 28.2423 54.3673 28.1421 54.3673 28.0186C54.3673 27.8951 54.2671 27.7949 54.1436 27.7949C54.0201 27.7949 53.9199 27.8951 53.9199 28.0186C53.9199 28.1421 54.0201 28.2423 54.1436 28.2423Z" fill="white" fill-opacity="0.3"/>
<path d="M59.0596 28.2433C59.1831 28.2433 59.2833 28.1431 59.2833 28.0196C59.2833 27.896 59.1831 27.7959 59.0596 27.7959C58.9361 27.7959 58.8359 27.896 58.8359 28.0196C58.8359 28.1431 58.9361 28.2433 59.0596 28.2433Z" fill="white" fill-opacity="0.3"/>
<path d="M63.9854 28.2423C64.1089 28.2423 64.2091 28.1421 64.2091 28.0186C64.2091 27.8951 64.1089 27.7949 63.9854 27.7949C63.8619 27.7949 63.7617 27.8951 63.7617 28.0186C63.7617 28.1421 63.8619 28.2423 63.9854 28.2423Z" fill="white" fill-opacity="0.3"/>
<path d="M68.9053 28.2423C69.0288 28.2423 69.129 28.1421 69.129 28.0186C69.129 27.8951 69.0288 27.7949 68.9053 27.7949C68.7818 27.7949 68.6816 27.8951 68.6816 28.0186C68.6816 28.1421 68.7818 28.2423 68.9053 28.2423Z" fill="white" fill-opacity="0.3"/>
<path d="M73.8252 28.2428C73.9488 28.2428 74.0489 28.1426 74.0489 28.0191C74.0489 27.8956 73.9488 27.7954 73.8252 27.7954C73.7017 27.7954 73.6016 27.8956 73.6016 28.0191C73.6016 28.1426 73.7017 28.2428 73.8252 28.2428Z" fill="white" fill-opacity="0.3"/>
<path d="M78.7432 28.2423C78.8667 28.2423 78.9669 28.1421 78.9669 28.0186C78.9669 27.8951 78.8667 27.7949 78.7432 27.7949C78.6197 27.7949 78.5195 27.8951 78.5195 28.0186C78.5195 28.1421 78.6197 28.2423 78.7432 28.2423Z" fill="white" fill-opacity="0.3"/>
<path d="M83.667 28.2423C83.7906 28.2423 83.8907 28.1421 83.8907 28.0186C83.8907 27.8951 83.7906 27.7949 83.667 27.7949C83.5435 27.7949 83.4434 27.8951 83.4434 28.0186C83.4434 28.1421 83.5435 28.2423 83.667 28.2423Z" fill="white" fill-opacity="0.3"/>
<path d="M14.7706 33.1632C14.8941 33.1632 14.9942 33.063 14.9942 32.9395C14.9942 32.816 14.8941 32.7158 14.7706 32.7158C14.647 32.7158 14.5469 32.816 14.5469 32.9395C14.5469 33.063 14.647 33.1632 14.7706 33.1632Z" fill="white" fill-opacity="0.3"/>
<path d="M19.6905 33.1632C19.814 33.1632 19.9141 33.063 19.9141 32.9395C19.9141 32.816 19.814 32.7158 19.6905 32.7158C19.5669 32.7158 19.4668 32.816 19.4668 32.9395C19.4668 33.063 19.5669 33.1632 19.6905 33.1632Z" fill="white" fill-opacity="0.3"/>
<path d="M24.6182 33.1632C24.7417 33.1632 24.8419 33.063 24.8419 32.9395C24.8419 32.816 24.7417 32.7158 24.6182 32.7158C24.4947 32.7158 24.3945 32.816 24.3945 32.9395C24.3945 33.063 24.4947 33.1632 24.6182 33.1632Z" fill="white" fill-opacity="0.3"/>
<path d="M29.5362 33.1641C29.6597 33.1641 29.7599 33.064 29.7599 32.9405C29.7599 32.8169 29.6597 32.7168 29.5362 32.7168C29.4126 32.7168 29.3125 32.8169 29.3125 32.9405C29.3125 33.064 29.4126 33.1641 29.5362 33.1641Z" fill="white" fill-opacity="0.3"/>
<path d="M34.4522 33.1641C34.5757 33.1641 34.6759 33.064 34.6759 32.9405C34.6759 32.8169 34.5757 32.7168 34.4522 32.7168C34.3287 32.7168 34.2285 32.8169 34.2285 32.9405C34.2285 33.064 34.3287 33.1641 34.4522 33.1641Z" fill="white" fill-opacity="0.3"/>
<path d="M39.378 33.1632C39.5015 33.1632 39.6016 33.063 39.6016 32.9395C39.6016 32.816 39.5015 32.7158 39.378 32.7158C39.2544 32.7158 39.1543 32.816 39.1543 32.9395C39.1543 33.063 39.2544 33.1632 39.378 33.1632Z" fill="white" fill-opacity="0.3"/>
<path d="M44.2979 33.1632C44.4214 33.1632 44.5216 33.063 44.5216 32.9395C44.5216 32.816 44.4214 32.7158 44.2979 32.7158C44.1744 32.7158 44.0742 32.816 44.0742 32.9395C44.0742 33.063 44.1744 33.1632 44.2979 33.1632Z" fill="white" fill-opacity="0.3"/>
<path d="M49.2178 33.1637C49.3413 33.1637 49.4415 33.0635 49.4415 32.94C49.4415 32.8165 49.3413 32.7163 49.2178 32.7163C49.0943 32.7163 48.9941 32.8165 48.9941 32.94C48.9941 33.0635 49.0943 33.1637 49.2178 33.1637Z" fill="white" fill-opacity="0.3"/>
<path d="M54.1436 33.1632C54.2671 33.1632 54.3673 33.063 54.3673 32.9395C54.3673 32.816 54.2671 32.7158 54.1436 32.7158C54.0201 32.7158 53.9199 32.816 53.9199 32.9395C53.9199 33.063 54.0201 33.1632 54.1436 33.1632Z" fill="white" fill-opacity="0.3"/>
<path d="M59.0596 33.1632C59.1831 33.1632 59.2833 33.063 59.2833 32.9395C59.2833 32.816 59.1831 32.7158 59.0596 32.7158C58.9361 32.7158 58.8359 32.816 58.8359 32.9395C58.8359 33.063 58.9361 33.1632 59.0596 33.1632Z" fill="white" fill-opacity="0.3"/>
<path d="M63.9854 33.1641C64.1089 33.1641 64.2091 33.064 64.2091 32.9405C64.2091 32.8169 64.1089 32.7168 63.9854 32.7168C63.8619 32.7168 63.7617 32.8169 63.7617 32.9405C63.7617 33.064 63.8619 33.1641 63.9854 33.1641Z" fill="white" fill-opacity="0.3"/>
<path d="M68.9053 33.1632C69.0288 33.1632 69.129 33.063 69.129 32.9395C69.129 32.816 69.0288 32.7158 68.9053 32.7158C68.7818 32.7158 68.6816 32.816 68.6816 32.9395C68.6816 33.063 68.7818 33.1632 68.9053 33.1632Z" fill="white" fill-opacity="0.3"/>
<path d="M73.8252 33.1632C73.9488 33.1632 74.0489 33.063 74.0489 32.9395C74.0489 32.816 73.9488 32.7158 73.8252 32.7158C73.7017 32.7158 73.6016 32.816 73.6016 32.9395C73.6016 33.063 73.7017 33.1632 73.8252 33.1632Z" fill="white" fill-opacity="0.3"/>
<path d="M78.7432 33.1632C78.8667 33.1632 78.9669 33.063 78.9669 32.9395C78.9669 32.816 78.8667 32.7158 78.7432 32.7158C78.6197 32.7158 78.5195 32.816 78.5195 32.9395C78.5195 33.063 78.6197 33.1632 78.7432 33.1632Z" fill="white" fill-opacity="0.3"/>
<path d="M83.667 33.1637C83.7906 33.1637 83.8907 33.0635 83.8907 32.94C83.8907 32.8165 83.7906 32.7163 83.667 32.7163C83.5435 32.7163 83.4434 32.8165 83.4434 32.94C83.4434 33.0635 83.5435 33.1637 83.667 33.1637Z" fill="white" fill-opacity="0.3"/>
<path d="M14.7706 38.0841C14.8941 38.0841 14.9942 37.9839 14.9942 37.8604C14.9942 37.7369 14.8941 37.6367 14.7706 37.6367C14.647 37.6367 14.5469 37.7369 14.5469 37.8604C14.5469 37.9839 14.647 38.0841 14.7706 38.0841Z" fill="white" fill-opacity="0.3"/>
<path d="M19.6905 38.0841C19.814 38.0841 19.9141 37.9839 19.9141 37.8604C19.9141 37.7369 19.814 37.6367 19.6905 37.6367C19.5669 37.6367 19.4668 37.7369 19.4668 37.8604C19.4668 37.9839 19.5669 38.0841 19.6905 38.0841Z" fill="white" fill-opacity="0.3"/>
<path d="M24.6182 38.0846C24.7417 38.0846 24.8419 37.9844 24.8419 37.8609C24.8419 37.7374 24.7417 37.6372 24.6182 37.6372C24.4947 37.6372 24.3945 37.7374 24.3945 37.8609C24.3945 37.9844 24.4947 38.0846 24.6182 38.0846Z" fill="white" fill-opacity="0.3"/>
<path d="M29.5362 38.0846C29.6597 38.0846 29.7599 37.9844 29.7599 37.8609C29.7599 37.7374 29.6597 37.6372 29.5362 37.6372C29.4126 37.6372 29.3125 37.7374 29.3125 37.8609C29.3125 37.9844 29.4126 38.0846 29.5362 38.0846Z" fill="white" fill-opacity="0.3"/>
<path d="M34.4522 38.0841C34.5757 38.0841 34.6759 37.9839 34.6759 37.8604C34.6759 37.7369 34.5757 37.6367 34.4522 37.6367C34.3287 37.6367 34.2285 37.7369 34.2285 37.8604C34.2285 37.9839 34.3287 38.0841 34.4522 38.0841Z" fill="white" fill-opacity="0.3"/>
<path d="M39.378 38.0841C39.5015 38.0841 39.6016 37.9839 39.6016 37.8604C39.6016 37.7369 39.5015 37.6367 39.378 37.6367C39.2544 37.6367 39.1543 37.7369 39.1543 37.8604C39.1543 37.9839 39.2544 38.0841 39.378 38.0841Z" fill="white" fill-opacity="0.3"/>
<path d="M44.2979 38.0846C44.4214 38.0846 44.5216 37.9844 44.5216 37.8609C44.5216 37.7374 44.4214 37.6372 44.2979 37.6372C44.1744 37.6372 44.0742 37.7374 44.0742 37.8609C44.0742 37.9844 44.1744 38.0846 44.2979 38.0846Z" fill="white" fill-opacity="0.3"/>
<path d="M49.2178 38.0841C49.3413 38.0841 49.4415 37.9839 49.4415 37.8604C49.4415 37.7369 49.3413 37.6367 49.2178 37.6367C49.0943 37.6367 48.9941 37.7369 48.9941 37.8604C48.9941 37.9839 49.0943 38.0841 49.2178 38.0841Z" fill="white" fill-opacity="0.3"/>
<path d="M54.1436 38.0841C54.2671 38.0841 54.3673 37.9839 54.3673 37.8604C54.3673 37.7369 54.2671 37.6367 54.1436 37.6367C54.0201 37.6367 53.9199 37.7369 53.9199 37.8604C53.9199 37.9839 54.0201 38.0841 54.1436 38.0841Z" fill="white" fill-opacity="0.3"/>
<path d="M59.0596 38.0846C59.1831 38.0846 59.2833 37.9844 59.2833 37.8609C59.2833 37.7374 59.1831 37.6372 59.0596 37.6372C58.9361 37.6372 58.8359 37.7374 58.8359 37.8609C58.8359 37.9844 58.9361 38.0846 59.0596 38.0846Z" fill="white" fill-opacity="0.3"/>
<path d="M63.9854 38.0846C64.1089 38.0846 64.2091 37.9844 64.2091 37.8609C64.2091 37.7374 64.1089 37.6372 63.9854 37.6372C63.8619 37.6372 63.7617 37.7374 63.7617 37.8609C63.7617 37.9844 63.8619 38.0846 63.9854 38.0846Z" fill="white" fill-opacity="0.3"/>
<path d="M68.9053 38.0846C69.0288 38.0846 69.129 37.9844 69.129 37.8609C69.129 37.7374 69.0288 37.6372 68.9053 37.6372C68.7818 37.6372 68.6816 37.7374 68.6816 37.8609C68.6816 37.9844 68.7818 38.0846 68.9053 38.0846Z" fill="white" fill-opacity="0.3"/>
<path d="M73.8252 38.0841C73.9488 38.0841 74.0489 37.9839 74.0489 37.8604C74.0489 37.7369 73.9488 37.6367 73.8252 37.6367C73.7017 37.6367 73.6016 37.7369 73.6016 37.8604C73.6016 37.9839 73.7017 38.0841 73.8252 38.0841Z" fill="white" fill-opacity="0.3"/>
<path d="M78.7432 38.0846C78.8667 38.0846 78.9669 37.9844 78.9669 37.8609C78.9669 37.7374 78.8667 37.6372 78.7432 37.6372C78.6197 37.6372 78.5195 37.7374 78.5195 37.8609C78.5195 37.9844 78.6197 38.0846 78.7432 38.0846Z" fill="white" fill-opacity="0.3"/>
<path d="M83.667 38.0841C83.7906 38.0841 83.8907 37.9839 83.8907 37.8604C83.8907 37.7369 83.7906 37.6367 83.667 37.6367C83.5435 37.6367 83.4434 37.7369 83.4434 37.8604C83.4434 37.9839 83.5435 38.0841 83.667 38.0841Z" fill="white" fill-opacity="0.3"/>
<path d="M14.7706 43.004C14.8941 43.004 14.9942 42.9038 14.9942 42.7803C14.9942 42.6568 14.8941 42.5566 14.7706 42.5566C14.647 42.5566 14.5469 42.6568 14.5469 42.7803C14.5469 42.9038 14.647 43.004 14.7706 43.004Z" fill="white" fill-opacity="0.3"/>
<path d="M19.6905 43.0045C19.814 43.0045 19.9141 42.9043 19.9141 42.7808C19.9141 42.6573 19.814 42.5571 19.6905 42.5571C19.5669 42.5571 19.4668 42.6573 19.4668 42.7808C19.4668 42.9043 19.5669 43.0045 19.6905 43.0045Z" fill="white" fill-opacity="0.3"/>
<path d="M24.6182 43.0045C24.7417 43.0045 24.8419 42.9043 24.8419 42.7808C24.8419 42.6573 24.7417 42.5571 24.6182 42.5571C24.4947 42.5571 24.3945 42.6573 24.3945 42.7808C24.3945 42.9043 24.4947 43.0045 24.6182 43.0045Z" fill="white" fill-opacity="0.3"/>
<path d="M29.5362 43.0045C29.6597 43.0045 29.7599 42.9043 29.7599 42.7808C29.7599 42.6573 29.6597 42.5571 29.5362 42.5571C29.4126 42.5571 29.3125 42.6573 29.3125 42.7808C29.3125 42.9043 29.4126 43.0045 29.5362 43.0045Z" fill="white" fill-opacity="0.3"/>
<path d="M34.4522 43.0045C34.5757 43.0045 34.6759 42.9043 34.6759 42.7808C34.6759 42.6573 34.5757 42.5571 34.4522 42.5571C34.3287 42.5571 34.2285 42.6573 34.2285 42.7808C34.2285 42.9043 34.3287 43.0045 34.4522 43.0045Z" fill="white" fill-opacity="0.3"/>
<path d="M39.378 43.004C39.5015 43.004 39.6016 42.9038 39.6016 42.7803C39.6016 42.6568 39.5015 42.5566 39.378 42.5566C39.2544 42.5566 39.1543 42.6568 39.1543 42.7803C39.1543 42.9038 39.2544 43.004 39.378 43.004Z" fill="white" fill-opacity="0.3"/>
<path d="M44.2979 43.0045C44.4214 43.0045 44.5216 42.9043 44.5216 42.7808C44.5216 42.6573 44.4214 42.5571 44.2979 42.5571C44.1744 42.5571 44.0742 42.6573 44.0742 42.7808C44.0742 42.9043 44.1744 43.0045 44.2979 43.0045Z" fill="white" fill-opacity="0.3"/>
<path d="M49.2178 43.004C49.3413 43.004 49.4415 42.9038 49.4415 42.7803C49.4415 42.6568 49.3413 42.5566 49.2178 42.5566C49.0943 42.5566 48.9941 42.6568 48.9941 42.7803C48.9941 42.9038 49.0943 43.004 49.2178 43.004Z" fill="white" fill-opacity="0.3"/>
<path d="M54.1436 43.0045C54.2671 43.0045 54.3673 42.9043 54.3673 42.7808C54.3673 42.6573 54.2671 42.5571 54.1436 42.5571C54.0201 42.5571 53.9199 42.6573 53.9199 42.7808C53.9199 42.9043 54.0201 43.0045 54.1436 43.0045Z" fill="white" fill-opacity="0.3"/>
<path d="M59.0596 43.0045C59.1831 43.0045 59.2833 42.9043 59.2833 42.7808C59.2833 42.6573 59.1831 42.5571 59.0596 42.5571C58.9361 42.5571 58.8359 42.6573 58.8359 42.7808C58.8359 42.9043 58.9361 43.0045 59.0596 43.0045Z" fill="white" fill-opacity="0.3"/>
<path d="M63.9854 43.0045C64.1089 43.0045 64.2091 42.9043 64.2091 42.7808C64.2091 42.6573 64.1089 42.5571 63.9854 42.5571C63.8619 42.5571 63.7617 42.6573 63.7617 42.7808C63.7617 42.9043 63.8619 43.0045 63.9854 43.0045Z" fill="white" fill-opacity="0.3"/>
<path d="M68.9053 43.0045C69.0288 43.0045 69.129 42.9043 69.129 42.7808C69.129 42.6573 69.0288 42.5571 68.9053 42.5571C68.7818 42.5571 68.6816 42.6573 68.6816 42.7808C68.6816 42.9043 68.7818 43.0045 68.9053 43.0045Z" fill="white" fill-opacity="0.3"/>
<path d="M73.8252 43.005C73.9488 43.005 74.0489 42.9048 74.0489 42.7813C74.0489 42.6578 73.9488 42.5576 73.8252 42.5576C73.7017 42.5576 73.6016 42.6578 73.6016 42.7813C73.6016 42.9048 73.7017 43.005 73.8252 43.005Z" fill="white" fill-opacity="0.3"/>
<path d="M78.7432 43.0045C78.8667 43.0045 78.9669 42.9043 78.9669 42.7808C78.9669 42.6573 78.8667 42.5571 78.7432 42.5571C78.6197 42.5571 78.5195 42.6573 78.5195 42.7808C78.5195 42.9043 78.6197 43.0045 78.7432 43.0045Z" fill="white" fill-opacity="0.3"/>
<path d="M83.667 43.004C83.7906 43.004 83.8907 42.9038 83.8907 42.7803C83.8907 42.6568 83.7906 42.5566 83.667 42.5566C83.5435 42.5566 83.4434 42.6568 83.4434 42.7803C83.4434 42.9038 83.5435 43.004 83.667 43.004Z" fill="white" fill-opacity="0.3"/>
<path d="M14.7706 47.9254C14.8941 47.9254 14.9942 47.8252 14.9942 47.7017C14.9942 47.5782 14.8941 47.478 14.7706 47.478C14.647 47.478 14.5469 47.5782 14.5469 47.7017C14.5469 47.8252 14.647 47.9254 14.7706 47.9254Z" fill="white" fill-opacity="0.3"/>
<path d="M19.6905 47.9249C19.814 47.9249 19.9141 47.8247 19.9141 47.7012C19.9141 47.5777 19.814 47.4775 19.6905 47.4775C19.5669 47.4775 19.4668 47.5777 19.4668 47.7012C19.4668 47.8247 19.5669 47.9249 19.6905 47.9249Z" fill="white" fill-opacity="0.3"/>
<path d="M24.6182 47.9249C24.7417 47.9249 24.8419 47.8247 24.8419 47.7012C24.8419 47.5777 24.7417 47.4775 24.6182 47.4775C24.4947 47.4775 24.3945 47.5777 24.3945 47.7012C24.3945 47.8247 24.4947 47.9249 24.6182 47.9249Z" fill="white" fill-opacity="0.3"/>
<path d="M29.5362 47.9249C29.6597 47.9249 29.7599 47.8247 29.7599 47.7012C29.7599 47.5777 29.6597 47.4775 29.5362 47.4775C29.4126 47.4775 29.3125 47.5777 29.3125 47.7012C29.3125 47.8247 29.4126 47.9249 29.5362 47.9249Z" fill="white" fill-opacity="0.3"/>
<path d="M34.4522 47.9249C34.5757 47.9249 34.6759 47.8247 34.6759 47.7012C34.6759 47.5777 34.5757 47.4775 34.4522 47.4775C34.3287 47.4775 34.2285 47.5777 34.2285 47.7012C34.2285 47.8247 34.3287 47.9249 34.4522 47.9249Z" fill="white" fill-opacity="0.3"/>
<path d="M39.378 47.9254C39.5015 47.9254 39.6016 47.8252 39.6016 47.7017C39.6016 47.5782 39.5015 47.478 39.378 47.478C39.2544 47.478 39.1543 47.5782 39.1543 47.7017C39.1543 47.8252 39.2544 47.9254 39.378 47.9254Z" fill="white" fill-opacity="0.3"/>
<path d="M44.2979 47.9249C44.4214 47.9249 44.5216 47.8247 44.5216 47.7012C44.5216 47.5777 44.4214 47.4775 44.2979 47.4775C44.1744 47.4775 44.0742 47.5777 44.0742 47.7012C44.0742 47.8247 44.1744 47.9249 44.2979 47.9249Z" fill="white" fill-opacity="0.3"/>
<path d="M49.2178 47.9254C49.3413 47.9254 49.4415 47.8252 49.4415 47.7017C49.4415 47.5782 49.3413 47.478 49.2178 47.478C49.0943 47.478 48.9941 47.5782 48.9941 47.7017C48.9941 47.8252 49.0943 47.9254 49.2178 47.9254Z" fill="white" fill-opacity="0.3"/>
<path d="M54.1436 47.9249C54.2671 47.9249 54.3673 47.8247 54.3673 47.7012C54.3673 47.5777 54.2671 47.4775 54.1436 47.4775C54.0201 47.4775 53.9199 47.5777 53.9199 47.7012C53.9199 47.8247 54.0201 47.9249 54.1436 47.9249Z" fill="white" fill-opacity="0.3"/>
<path d="M59.0596 47.9249C59.1831 47.9249 59.2833 47.8247 59.2833 47.7012C59.2833 47.5777 59.1831 47.4775 59.0596 47.4775C58.9361 47.4775 58.8359 47.5777 58.8359 47.7012C58.8359 47.8247 58.9361 47.9249 59.0596 47.9249Z" fill="white" fill-opacity="0.3"/>
<path d="M63.9854 47.9249C64.1089 47.9249 64.2091 47.8247 64.2091 47.7012C64.2091 47.5777 64.1089 47.4775 63.9854 47.4775C63.8619 47.4775 63.7617 47.5777 63.7617 47.7012C63.7617 47.8247 63.8619 47.9249 63.9854 47.9249Z" fill="white" fill-opacity="0.3"/>
<path d="M68.9053 47.9249C69.0288 47.9249 69.129 47.8247 69.129 47.7012C69.129 47.5777 69.0288 47.4775 68.9053 47.4775C68.7818 47.4775 68.6816 47.5777 68.6816 47.7012C68.6816 47.8247 68.7818 47.9249 68.9053 47.9249Z" fill="white" fill-opacity="0.3"/>
<path d="M73.8252 47.9254C73.9488 47.9254 74.0489 47.8252 74.0489 47.7017C74.0489 47.5782 73.9488 47.478 73.8252 47.478C73.7017 47.478 73.6016 47.5782 73.6016 47.7017C73.6016 47.8252 73.7017 47.9254 73.8252 47.9254Z" fill="white" fill-opacity="0.3"/>
<path d="M78.7432 47.9249C78.8667 47.9249 78.9669 47.8247 78.9669 47.7012C78.9669 47.5777 78.8667 47.4775 78.7432 47.4775C78.6197 47.4775 78.5195 47.5777 78.5195 47.7012C78.5195 47.8247 78.6197 47.9249 78.7432 47.9249Z" fill="white" fill-opacity="0.3"/>
<path d="M83.667 47.9254C83.7906 47.9254 83.8907 47.8252 83.8907 47.7017C83.8907 47.5782 83.7906 47.478 83.667 47.478C83.5435 47.478 83.4434 47.5782 83.4434 47.7017C83.4434 47.8252 83.5435 47.9254 83.667 47.9254Z" fill="white" fill-opacity="0.3"/>
<path d="M14.7706 52.8473C14.8941 52.8473 14.9942 52.7471 14.9942 52.6236C14.9942 52.5 14.8941 52.3999 14.7706 52.3999C14.647 52.3999 14.5469 52.5 14.5469 52.6236C14.5469 52.7471 14.647 52.8473 14.7706 52.8473Z" fill="white" fill-opacity="0.3"/>
<path d="M19.6905 52.8473C19.814 52.8473 19.9141 52.7471 19.9141 52.6236C19.9141 52.5 19.814 52.3999 19.6905 52.3999C19.5669 52.3999 19.4668 52.5 19.4668 52.6236C19.4668 52.7471 19.5669 52.8473 19.6905 52.8473Z" fill="white" fill-opacity="0.3"/>
<path d="M24.6182 52.8473C24.7417 52.8473 24.8419 52.7471 24.8419 52.6236C24.8419 52.5 24.7417 52.3999 24.6182 52.3999C24.4947 52.3999 24.3945 52.5 24.3945 52.6236C24.3945 52.7471 24.4947 52.8473 24.6182 52.8473Z" fill="white" fill-opacity="0.3"/>
<path d="M29.5362 52.8473C29.6597 52.8473 29.7599 52.7471 29.7599 52.6236C29.7599 52.5 29.6597 52.3999 29.5362 52.3999C29.4126 52.3999 29.3125 52.5 29.3125 52.6236C29.3125 52.7471 29.4126 52.8473 29.5362 52.8473Z" fill="white" fill-opacity="0.3"/>
<path d="M34.4522 52.8473C34.5757 52.8473 34.6759 52.7471 34.6759 52.6236C34.6759 52.5 34.5757 52.3999 34.4522 52.3999C34.3287 52.3999 34.2285 52.5 34.2285 52.6236C34.2285 52.7471 34.3287 52.8473 34.4522 52.8473Z" fill="white" fill-opacity="0.3"/>
<path d="M39.378 52.8473C39.5015 52.8473 39.6016 52.7471 39.6016 52.6236C39.6016 52.5 39.5015 52.3999 39.378 52.3999C39.2544 52.3999 39.1543 52.5 39.1543 52.6236C39.1543 52.7471 39.2544 52.8473 39.378 52.8473Z" fill="white" fill-opacity="0.3"/>
<path d="M44.2979 52.8473C44.4214 52.8473 44.5216 52.7471 44.5216 52.6236C44.5216 52.5 44.4214 52.3999 44.2979 52.3999C44.1744 52.3999 44.0742 52.5 44.0742 52.6236C44.0742 52.7471 44.1744 52.8473 44.2979 52.8473Z" fill="white" fill-opacity="0.3"/>
<path d="M49.2178 52.8473C49.3413 52.8473 49.4415 52.7471 49.4415 52.6236C49.4415 52.5 49.3413 52.3999 49.2178 52.3999C49.0943 52.3999 48.9941 52.5 48.9941 52.6236C48.9941 52.7471 49.0943 52.8473 49.2178 52.8473Z" fill="white" fill-opacity="0.3"/>
<path d="M54.1436 52.8473C54.2671 52.8473 54.3673 52.7471 54.3673 52.6236C54.3673 52.5 54.2671 52.3999 54.1436 52.3999C54.0201 52.3999 53.9199 52.5 53.9199 52.6236C53.9199 52.7471 54.0201 52.8473 54.1436 52.8473Z" fill="white" fill-opacity="0.3"/>
<path d="M59.0596 52.8473C59.1831 52.8473 59.2833 52.7471 59.2833 52.6236C59.2833 52.5 59.1831 52.3999 59.0596 52.3999C58.9361 52.3999 58.8359 52.5 58.8359 52.6236C58.8359 52.7471 58.9361 52.8473 59.0596 52.8473Z" fill="white" fill-opacity="0.3"/>
<path d="M63.9854 52.8473C64.1089 52.8473 64.2091 52.7471 64.2091 52.6236C64.2091 52.5 64.1089 52.3999 63.9854 52.3999C63.8619 52.3999 63.7617 52.5 63.7617 52.6236C63.7617 52.7471 63.8619 52.8473 63.9854 52.8473Z" fill="white" fill-opacity="0.3"/>
<path d="M68.9053 52.8473C69.0288 52.8473 69.129 52.7471 69.129 52.6236C69.129 52.5 69.0288 52.3999 68.9053 52.3999C68.7818 52.3999 68.6816 52.5 68.6816 52.6236C68.6816 52.7471 68.7818 52.8473 68.9053 52.8473Z" fill="white" fill-opacity="0.3"/>
<path d="M73.8252 52.8473C73.9488 52.8473 74.0489 52.7471 74.0489 52.6236C74.0489 52.5 73.9488 52.3999 73.8252 52.3999C73.7017 52.3999 73.6016 52.5 73.6016 52.6236C73.6016 52.7471 73.7017 52.8473 73.8252 52.8473Z" fill="white" fill-opacity="0.3"/>
<path d="M78.7432 52.8473C78.8667 52.8473 78.9669 52.7471 78.9669 52.6236C78.9669 52.5 78.8667 52.3999 78.7432 52.3999C78.6197 52.3999 78.5195 52.5 78.5195 52.6236C78.5195 52.7471 78.6197 52.8473 78.7432 52.8473Z" fill="white" fill-opacity="0.3"/>
<path d="M83.667 52.8473C83.7906 52.8473 83.8907 52.7471 83.8907 52.6236C83.8907 52.5 83.7906 52.3999 83.667 52.3999C83.5435 52.3999 83.4434 52.5 83.4434 52.6236C83.4434 52.7471 83.5435 52.8473 83.667 52.8473Z" fill="white" fill-opacity="0.3"/>
<path d="M14.7706 57.7677C14.8941 57.7677 14.9942 57.6675 14.9942 57.544C14.9942 57.4205 14.8941 57.3203 14.7706 57.3203C14.647 57.3203 14.5469 57.4205 14.5469 57.544C14.5469 57.6675 14.647 57.7677 14.7706 57.7677Z" fill="white" fill-opacity="0.3"/>
<path d="M19.6905 57.7677C19.814 57.7677 19.9141 57.6675 19.9141 57.544C19.9141 57.4205 19.814 57.3203 19.6905 57.3203C19.5669 57.3203 19.4668 57.4205 19.4668 57.544C19.4668 57.6675 19.5669 57.7677 19.6905 57.7677Z" fill="white" fill-opacity="0.3"/>
<path d="M24.6182 57.7677C24.7417 57.7677 24.8419 57.6675 24.8419 57.544C24.8419 57.4205 24.7417 57.3203 24.6182 57.3203C24.4947 57.3203 24.3945 57.4205 24.3945 57.544C24.3945 57.6675 24.4947 57.7677 24.6182 57.7677Z" fill="white" fill-opacity="0.3"/>
<path d="M29.5362 57.7677C29.6597 57.7677 29.7599 57.6675 29.7599 57.544C29.7599 57.4205 29.6597 57.3203 29.5362 57.3203C29.4126 57.3203 29.3125 57.4205 29.3125 57.544C29.3125 57.6675 29.4126 57.7677 29.5362 57.7677Z" fill="white" fill-opacity="0.3"/>
<path d="M34.4522 57.7677C34.5757 57.7677 34.6759 57.6675 34.6759 57.544C34.6759 57.4205 34.5757 57.3203 34.4522 57.3203C34.3287 57.3203 34.2285 57.4205 34.2285 57.544C34.2285 57.6675 34.3287 57.7677 34.4522 57.7677Z" fill="white" fill-opacity="0.3"/>
<path d="M39.378 57.7677C39.5015 57.7677 39.6016 57.6675 39.6016 57.544C39.6016 57.4205 39.5015 57.3203 39.378 57.3203C39.2544 57.3203 39.1543 57.4205 39.1543 57.544C39.1543 57.6675 39.2544 57.7677 39.378 57.7677Z" fill="white" fill-opacity="0.3"/>
<path d="M44.2979 57.7686C44.4214 57.7686 44.5216 57.6685 44.5216 57.545C44.5216 57.4214 44.4214 57.3213 44.2979 57.3213C44.1744 57.3213 44.0742 57.4214 44.0742 57.545C44.0742 57.6685 44.1744 57.7686 44.2979 57.7686Z" fill="white" fill-opacity="0.3"/>
<path d="M49.2178 57.7677C49.3413 57.7677 49.4415 57.6675 49.4415 57.544C49.4415 57.4205 49.3413 57.3203 49.2178 57.3203C49.0943 57.3203 48.9941 57.4205 48.9941 57.544C48.9941 57.6675 49.0943 57.7677 49.2178 57.7677Z" fill="white" fill-opacity="0.3"/>
<path d="M54.1436 57.7677C54.2671 57.7677 54.3673 57.6675 54.3673 57.544C54.3673 57.4205 54.2671 57.3203 54.1436 57.3203C54.0201 57.3203 53.9199 57.4205 53.9199 57.544C53.9199 57.6675 54.0201 57.7677 54.1436 57.7677Z" fill="white" fill-opacity="0.3"/>
<path d="M59.0596 57.7686C59.1831 57.7686 59.2833 57.6685 59.2833 57.545C59.2833 57.4214 59.1831 57.3213 59.0596 57.3213C58.9361 57.3213 58.8359 57.4214 58.8359 57.545C58.8359 57.6685 58.9361 57.7686 59.0596 57.7686Z" fill="white" fill-opacity="0.3"/>
<path d="M63.9854 57.7677C64.1089 57.7677 64.2091 57.6675 64.2091 57.544C64.2091 57.4205 64.1089 57.3203 63.9854 57.3203C63.8619 57.3203 63.7617 57.4205 63.7617 57.544C63.7617 57.6675 63.8619 57.7677 63.9854 57.7677Z" fill="white" fill-opacity="0.3"/>
<path d="M68.9053 57.7677C69.0288 57.7677 69.129 57.6675 69.129 57.544C69.129 57.4205 69.0288 57.3203 68.9053 57.3203C68.7818 57.3203 68.6816 57.4205 68.6816 57.544C68.6816 57.6675 68.7818 57.7677 68.9053 57.7677Z" fill="white" fill-opacity="0.3"/>
<path d="M73.8252 57.7682C73.9488 57.7682 74.0489 57.668 74.0489 57.5445C74.0489 57.4209 73.9488 57.3208 73.8252 57.3208C73.7017 57.3208 73.6016 57.4209 73.6016 57.5445C73.6016 57.668 73.7017 57.7682 73.8252 57.7682Z" fill="white" fill-opacity="0.3"/>
<path d="M78.7432 57.7677C78.8667 57.7677 78.9669 57.6675 78.9669 57.544C78.9669 57.4205 78.8667 57.3203 78.7432 57.3203C78.6197 57.3203 78.5195 57.4205 78.5195 57.544C78.5195 57.6675 78.6197 57.7677 78.7432 57.7677Z" fill="white" fill-opacity="0.3"/>
<path d="M83.667 57.7677C83.7906 57.7677 83.8907 57.6675 83.8907 57.544C83.8907 57.4205 83.7906 57.3203 83.667 57.3203C83.5435 57.3203 83.4434 57.4205 83.4434 57.544C83.4434 57.6675 83.5435 57.7677 83.667 57.7677Z" fill="white" fill-opacity="0.3"/>
<path d="M14.7706 62.6886C14.8941 62.6886 14.9942 62.5884 14.9942 62.4649C14.9942 62.3414 14.8941 62.2412 14.7706 62.2412C14.647 62.2412 14.5469 62.3414 14.5469 62.4649C14.5469 62.5884 14.647 62.6886 14.7706 62.6886Z" fill="white" fill-opacity="0.3"/>
<path d="M19.6905 62.6891C19.814 62.6891 19.9141 62.5889 19.9141 62.4654C19.9141 62.3418 19.814 62.2417 19.6905 62.2417C19.5669 62.2417 19.4668 62.3418 19.4668 62.4654C19.4668 62.5889 19.5669 62.6891 19.6905 62.6891Z" fill="white" fill-opacity="0.3"/>
<path d="M24.6182 62.6891C24.7417 62.6891 24.8419 62.5889 24.8419 62.4654C24.8419 62.3418 24.7417 62.2417 24.6182 62.2417C24.4947 62.2417 24.3945 62.3418 24.3945 62.4654C24.3945 62.5889 24.4947 62.6891 24.6182 62.6891Z" fill="white" fill-opacity="0.3"/>
<path d="M29.5362 62.6891C29.6597 62.6891 29.7599 62.5889 29.7599 62.4654C29.7599 62.3418 29.6597 62.2417 29.5362 62.2417C29.4126 62.2417 29.3125 62.3418 29.3125 62.4654C29.3125 62.5889 29.4126 62.6891 29.5362 62.6891Z" fill="white" fill-opacity="0.3"/>
<path d="M34.4522 62.6891C34.5757 62.6891 34.6759 62.5889 34.6759 62.4654C34.6759 62.3418 34.5757 62.2417 34.4522 62.2417C34.3287 62.2417 34.2285 62.3418 34.2285 62.4654C34.2285 62.5889 34.3287 62.6891 34.4522 62.6891Z" fill="white" fill-opacity="0.3"/>
<path d="M39.378 62.6886C39.5015 62.6886 39.6016 62.5884 39.6016 62.4649C39.6016 62.3414 39.5015 62.2412 39.378 62.2412C39.2544 62.2412 39.1543 62.3414 39.1543 62.4649C39.1543 62.5884 39.2544 62.6886 39.378 62.6886Z" fill="white" fill-opacity="0.3"/>
<path d="M44.2979 62.6891C44.4214 62.6891 44.5216 62.5889 44.5216 62.4654C44.5216 62.3418 44.4214 62.2417 44.2979 62.2417C44.1744 62.2417 44.0742 62.3418 44.0742 62.4654C44.0742 62.5889 44.1744 62.6891 44.2979 62.6891Z" fill="white" fill-opacity="0.3"/>
<path d="M49.2178 62.6886C49.3413 62.6886 49.4415 62.5884 49.4415 62.4649C49.4415 62.3414 49.3413 62.2412 49.2178 62.2412C49.0943 62.2412 48.9941 62.3414 48.9941 62.4649C48.9941 62.5884 49.0943 62.6886 49.2178 62.6886Z" fill="white" fill-opacity="0.3"/>
<path d="M54.1436 62.6891C54.2671 62.6891 54.3673 62.5889 54.3673 62.4654C54.3673 62.3418 54.2671 62.2417 54.1436 62.2417C54.0201 62.2417 53.9199 62.3418 53.9199 62.4654C53.9199 62.5889 54.0201 62.6891 54.1436 62.6891Z" fill="white" fill-opacity="0.3"/>
<path d="M59.0596 62.6891C59.1831 62.6891 59.2833 62.5889 59.2833 62.4654C59.2833 62.3418 59.1831 62.2417 59.0596 62.2417C58.9361 62.2417 58.8359 62.3418 58.8359 62.4654C58.8359 62.5889 58.9361 62.6891 59.0596 62.6891Z" fill="white" fill-opacity="0.3"/>
<path d="M63.9854 62.6891C64.1089 62.6891 64.2091 62.5889 64.2091 62.4654C64.2091 62.3418 64.1089 62.2417 63.9854 62.2417C63.8619 62.2417 63.7617 62.3418 63.7617 62.4654C63.7617 62.5889 63.8619 62.6891 63.9854 62.6891Z" fill="white" fill-opacity="0.3"/>
<path d="M68.9053 62.6891C69.0288 62.6891 69.129 62.5889 69.129 62.4654C69.129 62.3418 69.0288 62.2417 68.9053 62.2417C68.7818 62.2417 68.6816 62.3418 68.6816 62.4654C68.6816 62.5889 68.7818 62.6891 68.9053 62.6891Z" fill="white" fill-opacity="0.3"/>
<path d="M73.8252 62.6886C73.9488 62.6886 74.0489 62.5884 74.0489 62.4649C74.0489 62.3414 73.9488 62.2412 73.8252 62.2412C73.7017 62.2412 73.6016 62.3414 73.6016 62.4649C73.6016 62.5884 73.7017 62.6886 73.8252 62.6886Z" fill="white" fill-opacity="0.3"/>
<path d="M78.7432 62.6891C78.8667 62.6891 78.9669 62.5889 78.9669 62.4654C78.9669 62.3418 78.8667 62.2417 78.7432 62.2417C78.6197 62.2417 78.5195 62.3418 78.5195 62.4654C78.5195 62.5889 78.6197 62.6891 78.7432 62.6891Z" fill="white" fill-opacity="0.3"/>
<path d="M83.667 62.6886C83.7906 62.6886 83.8907 62.5884 83.8907 62.4649C83.8907 62.3414 83.7906 62.2412 83.667 62.2412C83.5435 62.2412 83.4434 62.3414 83.4434 62.4649C83.4434 62.5884 83.5435 62.6886 83.667 62.6886Z" fill="white" fill-opacity="0.3"/>
<path d="M14.7706 67.6099C14.8941 67.6099 14.9942 67.5098 14.9942 67.3863C14.9942 67.2627 14.8941 67.1626 14.7706 67.1626C14.647 67.1626 14.5469 67.2627 14.5469 67.3863C14.5469 67.5098 14.647 67.6099 14.7706 67.6099Z" fill="white" fill-opacity="0.3"/>
<path d="M19.6905 67.6095C19.814 67.6095 19.9141 67.5093 19.9141 67.3858C19.9141 67.2623 19.814 67.1621 19.6905 67.1621C19.5669 67.1621 19.4668 67.2623 19.4668 67.3858C19.4668 67.5093 19.5669 67.6095 19.6905 67.6095Z" fill="white" fill-opacity="0.3"/>
<path d="M24.6182 67.6095C24.7417 67.6095 24.8419 67.5093 24.8419 67.3858C24.8419 67.2623 24.7417 67.1621 24.6182 67.1621C24.4947 67.1621 24.3945 67.2623 24.3945 67.3858C24.3945 67.5093 24.4947 67.6095 24.6182 67.6095Z" fill="white" fill-opacity="0.3"/>
<path d="M29.5362 67.6095C29.6597 67.6095 29.7599 67.5093 29.7599 67.3858C29.7599 67.2623 29.6597 67.1621 29.5362 67.1621C29.4126 67.1621 29.3125 67.2623 29.3125 67.3858C29.3125 67.5093 29.4126 67.6095 29.5362 67.6095Z" fill="white" fill-opacity="0.3"/>
<path d="M34.4522 67.6095C34.5757 67.6095 34.6759 67.5093 34.6759 67.3858C34.6759 67.2623 34.5757 67.1621 34.4522 67.1621C34.3287 67.1621 34.2285 67.2623 34.2285 67.3858C34.2285 67.5093 34.3287 67.6095 34.4522 67.6095Z" fill="white" fill-opacity="0.3"/>
<path d="M39.378 67.6099C39.5015 67.6099 39.6016 67.5098 39.6016 67.3863C39.6016 67.2627 39.5015 67.1626 39.378 67.1626C39.2544 67.1626 39.1543 67.2627 39.1543 67.3863C39.1543 67.5098 39.2544 67.6099 39.378 67.6099Z" fill="white" fill-opacity="0.3"/>
<path d="M44.2979 67.6095C44.4214 67.6095 44.5216 67.5093 44.5216 67.3858C44.5216 67.2623 44.4214 67.1621 44.2979 67.1621C44.1744 67.1621 44.0742 67.2623 44.0742 67.3858C44.0742 67.5093 44.1744 67.6095 44.2979 67.6095Z" fill="white" fill-opacity="0.3"/>
<path d="M49.2178 67.6099C49.3413 67.6099 49.4415 67.5098 49.4415 67.3863C49.4415 67.2627 49.3413 67.1626 49.2178 67.1626C49.0943 67.1626 48.9941 67.2627 48.9941 67.3863C48.9941 67.5098 49.0943 67.6099 49.2178 67.6099Z" fill="white" fill-opacity="0.3"/>
<path d="M54.1436 67.6095C54.2671 67.6095 54.3673 67.5093 54.3673 67.3858C54.3673 67.2623 54.2671 67.1621 54.1436 67.1621C54.0201 67.1621 53.9199 67.2623 53.9199 67.3858C53.9199 67.5093 54.0201 67.6095 54.1436 67.6095Z" fill="white" fill-opacity="0.3"/>
<path d="M59.0596 67.6095C59.1831 67.6095 59.2833 67.5093 59.2833 67.3858C59.2833 67.2623 59.1831 67.1621 59.0596 67.1621C58.9361 67.1621 58.8359 67.2623 58.8359 67.3858C58.8359 67.5093 58.9361 67.6095 59.0596 67.6095Z" fill="white" fill-opacity="0.3"/>
<path d="M63.9854 67.6095C64.1089 67.6095 64.2091 67.5093 64.2091 67.3858C64.2091 67.2623 64.1089 67.1621 63.9854 67.1621C63.8619 67.1621 63.7617 67.2623 63.7617 67.3858C63.7617 67.5093 63.8619 67.6095 63.9854 67.6095Z" fill="white" fill-opacity="0.3"/>
<path d="M68.9053 67.6095C69.0288 67.6095 69.129 67.5093 69.129 67.3858C69.129 67.2623 69.0288 67.1621 68.9053 67.1621C68.7818 67.1621 68.6816 67.2623 68.6816 67.3858C68.6816 67.5093 68.7818 67.6095 68.9053 67.6095Z" fill="white" fill-opacity="0.3"/>
<path d="M73.8252 67.6099C73.9488 67.6099 74.0489 67.5098 74.0489 67.3863C74.0489 67.2627 73.9488 67.1626 73.8252 67.1626C73.7017 67.1626 73.6016 67.2627 73.6016 67.3863C73.6016 67.5098 73.7017 67.6099 73.8252 67.6099Z" fill="white" fill-opacity="0.3"/>
<path d="M78.7432 67.6095C78.8667 67.6095 78.9669 67.5093 78.9669 67.3858C78.9669 67.2623 78.8667 67.1621 78.7432 67.1621C78.6197 67.1621 78.5195 67.2623 78.5195 67.3858C78.5195 67.5093 78.6197 67.6095 78.7432 67.6095Z" fill="white" fill-opacity="0.3"/>
<path d="M83.667 67.6099C83.7906 67.6099 83.8907 67.5098 83.8907 67.3863C83.8907 67.2627 83.7906 67.1626 83.667 67.1626C83.5435 67.1626 83.4434 67.2627 83.4434 67.3863C83.4434 67.5098 83.5435 67.6099 83.667 67.6099Z" fill="white" fill-opacity="0.3"/>
<path d="M14.7706 72.5304C14.8941 72.5304 14.9942 72.4302 14.9942 72.3067C14.9942 72.1832 14.8941 72.083 14.7706 72.083C14.647 72.083 14.5469 72.1832 14.5469 72.3067C14.5469 72.4302 14.647 72.5304 14.7706 72.5304Z" fill="white" fill-opacity="0.3"/>
<path d="M19.6905 72.5304C19.814 72.5304 19.9141 72.4302 19.9141 72.3067C19.9141 72.1832 19.814 72.083 19.6905 72.083C19.5669 72.083 19.4668 72.1832 19.4668 72.3067C19.4668 72.4302 19.5669 72.5304 19.6905 72.5304Z" fill="white" fill-opacity="0.3"/>
<path d="M24.6182 72.5304C24.7417 72.5304 24.8419 72.4302 24.8419 72.3067C24.8419 72.1832 24.7417 72.083 24.6182 72.083C24.4947 72.083 24.3945 72.1832 24.3945 72.3067C24.3945 72.4302 24.4947 72.5304 24.6182 72.5304Z" fill="white" fill-opacity="0.3"/>
<path d="M29.5362 72.5304C29.6597 72.5304 29.7599 72.4302 29.7599 72.3067C29.7599 72.1832 29.6597 72.083 29.5362 72.083C29.4126 72.083 29.3125 72.1832 29.3125 72.3067C29.3125 72.4302 29.4126 72.5304 29.5362 72.5304Z" fill="white" fill-opacity="0.3"/>
<path d="M34.4522 72.5304C34.5757 72.5304 34.6759 72.4302 34.6759 72.3067C34.6759 72.1832 34.5757 72.083 34.4522 72.083C34.3287 72.083 34.2285 72.1832 34.2285 72.3067C34.2285 72.4302 34.3287 72.5304 34.4522 72.5304Z" fill="white" fill-opacity="0.3"/>
<path d="M39.378 72.5304C39.5015 72.5304 39.6016 72.4302 39.6016 72.3067C39.6016 72.1832 39.5015 72.083 39.378 72.083C39.2544 72.083 39.1543 72.1832 39.1543 72.3067C39.1543 72.4302 39.2544 72.5304 39.378 72.5304Z" fill="white" fill-opacity="0.3"/>
<path d="M44.2979 72.5313C44.4214 72.5313 44.5216 72.4312 44.5216 72.3077C44.5216 72.1841 44.4214 72.084 44.2979 72.084C44.1744 72.084 44.0742 72.1841 44.0742 72.3077C44.0742 72.4312 44.1744 72.5313 44.2979 72.5313Z" fill="white" fill-opacity="0.3"/>
<path d="M49.2178 72.5304C49.3413 72.5304 49.4415 72.4302 49.4415 72.3067C49.4415 72.1832 49.3413 72.083 49.2178 72.083C49.0943 72.083 48.9941 72.1832 48.9941 72.3067C48.9941 72.4302 49.0943 72.5304 49.2178 72.5304Z" fill="white" fill-opacity="0.3"/>
<path d="M54.1436 72.5304C54.2671 72.5304 54.3673 72.4302 54.3673 72.3067C54.3673 72.1832 54.2671 72.083 54.1436 72.083C54.0201 72.083 53.9199 72.1832 53.9199 72.3067C53.9199 72.4302 54.0201 72.5304 54.1436 72.5304Z" fill="white" fill-opacity="0.3"/>
<path d="M59.0596 72.5313C59.1831 72.5313 59.2833 72.4312 59.2833 72.3077C59.2833 72.1841 59.1831 72.084 59.0596 72.084C58.9361 72.084 58.8359 72.1841 58.8359 72.3077C58.8359 72.4312 58.9361 72.5313 59.0596 72.5313Z" fill="white" fill-opacity="0.3"/>
<path d="M63.9854 72.5304C64.1089 72.5304 64.2091 72.4302 64.2091 72.3067C64.2091 72.1832 64.1089 72.083 63.9854 72.083C63.8619 72.083 63.7617 72.1832 63.7617 72.3067C63.7617 72.4302 63.8619 72.5304 63.9854 72.5304Z" fill="white" fill-opacity="0.3"/>
<path d="M68.9053 72.5304C69.0288 72.5304 69.129 72.4302 69.129 72.3067C69.129 72.1832 69.0288 72.083 68.9053 72.083C68.7818 72.083 68.6816 72.1832 68.6816 72.3067C68.6816 72.4302 68.7818 72.5304 68.9053 72.5304Z" fill="white" fill-opacity="0.3"/>
<path d="M73.8252 72.5308C73.9488 72.5308 74.0489 72.4307 74.0489 72.3072C74.0489 72.1836 73.9488 72.0835 73.8252 72.0835C73.7017 72.0835 73.6016 72.1836 73.6016 72.3072C73.6016 72.4307 73.7017 72.5308 73.8252 72.5308Z" fill="white" fill-opacity="0.3"/>
<path d="M78.7432 72.5304C78.8667 72.5304 78.9669 72.4302 78.9669 72.3067C78.9669 72.1832 78.8667 72.083 78.7432 72.083C78.6197 72.083 78.5195 72.1832 78.5195 72.3067C78.5195 72.4302 78.6197 72.5304 78.7432 72.5304Z" fill="white" fill-opacity="0.3"/>
<path d="M83.667 72.5304C83.7906 72.5304 83.8907 72.4302 83.8907 72.3067C83.8907 72.1832 83.7906 72.083 83.667 72.083C83.5435 72.083 83.4434 72.1832 83.4434 72.3067C83.4434 72.4302 83.5435 72.5304 83.667 72.5304Z" fill="white" fill-opacity="0.3"/>
<path d="M14.7706 77.4513C14.8941 77.4513 14.9942 77.3511 14.9942 77.2276C14.9942 77.104 14.8941 77.0039 14.7706 77.0039C14.647 77.0039 14.5469 77.104 14.5469 77.2276C14.5469 77.3511 14.647 77.4513 14.7706 77.4513Z" fill="white" fill-opacity="0.3"/>
<path d="M19.6905 77.4513C19.814 77.4513 19.9141 77.3511 19.9141 77.2276C19.9141 77.104 19.814 77.0039 19.6905 77.0039C19.5669 77.0039 19.4668 77.104 19.4668 77.2276C19.4668 77.3511 19.5669 77.4513 19.6905 77.4513Z" fill="white" fill-opacity="0.3"/>
<path d="M24.6182 77.4513C24.7417 77.4513 24.8419 77.3511 24.8419 77.2276C24.8419 77.104 24.7417 77.0039 24.6182 77.0039C24.4947 77.0039 24.3945 77.104 24.3945 77.2276C24.3945 77.3511 24.4947 77.4513 24.6182 77.4513Z" fill="white" fill-opacity="0.3"/>
<path d="M29.5362 77.4508C29.6597 77.4508 29.7599 77.3506 29.7599 77.2271C29.7599 77.1036 29.6597 77.0034 29.5362 77.0034C29.4126 77.0034 29.3125 77.1036 29.3125 77.2271C29.3125 77.3506 29.4126 77.4508 29.5362 77.4508Z" fill="white" fill-opacity="0.3"/>
<path d="M34.4522 77.4513C34.5757 77.4513 34.6759 77.3511 34.6759 77.2276C34.6759 77.104 34.5757 77.0039 34.4522 77.0039C34.3287 77.0039 34.2285 77.104 34.2285 77.2276C34.2285 77.3511 34.3287 77.4513 34.4522 77.4513Z" fill="white" fill-opacity="0.3"/>
<path d="M39.378 77.4513C39.5015 77.4513 39.6016 77.3511 39.6016 77.2276C39.6016 77.104 39.5015 77.0039 39.378 77.0039C39.2544 77.0039 39.1543 77.104 39.1543 77.2276C39.1543 77.3511 39.2544 77.4513 39.378 77.4513Z" fill="white" fill-opacity="0.3"/>
<path d="M44.2979 77.4513C44.4214 77.4513 44.5216 77.3511 44.5216 77.2276C44.5216 77.104 44.4214 77.0039 44.2979 77.0039C44.1744 77.0039 44.0742 77.104 44.0742 77.2276C44.0742 77.3511 44.1744 77.4513 44.2979 77.4513Z" fill="white" fill-opacity="0.3"/>
<path d="M49.2178 77.4508C49.3413 77.4508 49.4415 77.3506 49.4415 77.2271C49.4415 77.1036 49.3413 77.0034 49.2178 77.0034C49.0943 77.0034 48.9941 77.1036 48.9941 77.2271C48.9941 77.3506 49.0943 77.4508 49.2178 77.4508Z" fill="white" fill-opacity="0.3"/>
<path d="M54.1436 77.4508C54.2671 77.4508 54.3673 77.3506 54.3673 77.2271C54.3673 77.1036 54.2671 77.0034 54.1436 77.0034C54.0201 77.0034 53.9199 77.1036 53.9199 77.2271C53.9199 77.3506 54.0201 77.4508 54.1436 77.4508Z" fill="white" fill-opacity="0.3"/>
<path d="M59.0596 77.4513C59.1831 77.4513 59.2833 77.3511 59.2833 77.2276C59.2833 77.104 59.1831 77.0039 59.0596 77.0039C58.9361 77.0039 58.8359 77.104 58.8359 77.2276C58.8359 77.3511 58.9361 77.4513 59.0596 77.4513Z" fill="white" fill-opacity="0.3"/>
<path d="M63.9854 77.4513C64.1089 77.4513 64.2091 77.3511 64.2091 77.2276C64.2091 77.104 64.1089 77.0039 63.9854 77.0039C63.8619 77.0039 63.7617 77.104 63.7617 77.2276C63.7617 77.3511 63.8619 77.4513 63.9854 77.4513Z" fill="white" fill-opacity="0.3"/>
<path d="M68.9053 77.4513C69.0288 77.4513 69.129 77.3511 69.129 77.2276C69.129 77.104 69.0288 77.0039 68.9053 77.0039C68.7818 77.0039 68.6816 77.104 68.6816 77.2276C68.6816 77.3511 68.7818 77.4513 68.9053 77.4513Z" fill="white" fill-opacity="0.3"/>
<path d="M73.8252 77.4508C73.9488 77.4508 74.0489 77.3506 74.0489 77.2271C74.0489 77.1036 73.9488 77.0034 73.8252 77.0034C73.7017 77.0034 73.6016 77.1036 73.6016 77.2271C73.6016 77.3506 73.7017 77.4508 73.8252 77.4508Z" fill="white" fill-opacity="0.3"/>
<path d="M78.7432 77.4513C78.8667 77.4513 78.9669 77.3511 78.9669 77.2276C78.9669 77.104 78.8667 77.0039 78.7432 77.0039C78.6197 77.0039 78.5195 77.104 78.5195 77.2276C78.5195 77.3511 78.6197 77.4513 78.7432 77.4513Z" fill="white" fill-opacity="0.3"/>
<path d="M83.667 77.4513C83.7906 77.4513 83.8907 77.3511 83.8907 77.2276C83.8907 77.104 83.7906 77.0039 83.667 77.0039C83.5435 77.0039 83.4434 77.104 83.4434 77.2276C83.4434 77.3511 83.5435 77.4513 83.667 77.4513Z" fill="white" fill-opacity="0.3"/>
<path d="M14.7706 82.3717C14.8941 82.3717 14.9942 82.2715 14.9942 82.148C14.9942 82.0245 14.8941 81.9243 14.7706 81.9243C14.647 81.9243 14.5469 82.0245 14.5469 82.148C14.5469 82.2715 14.647 82.3717 14.7706 82.3717Z" fill="white" fill-opacity="0.3"/>
<path d="M19.6905 82.3717C19.814 82.3717 19.9141 82.2715 19.9141 82.148C19.9141 82.0245 19.814 81.9243 19.6905 81.9243C19.5669 81.9243 19.4668 82.0245 19.4668 82.148C19.4668 82.2715 19.5669 82.3717 19.6905 82.3717Z" fill="white" fill-opacity="0.3"/>
<path d="M24.6182 82.3717C24.7417 82.3717 24.8419 82.2715 24.8419 82.148C24.8419 82.0245 24.7417 81.9243 24.6182 81.9243C24.4947 81.9243 24.3945 82.0245 24.3945 82.148C24.3945 82.2715 24.4947 82.3717 24.6182 82.3717Z" fill="white" fill-opacity="0.3"/>
<path d="M29.5362 82.3717C29.6597 82.3717 29.7599 82.2715 29.7599 82.148C29.7599 82.0245 29.6597 81.9243 29.5362 81.9243C29.4126 81.9243 29.3125 82.0245 29.3125 82.148C29.3125 82.2715 29.4126 82.3717 29.5362 82.3717Z" fill="white" fill-opacity="0.3"/>
<path d="M34.4522 82.3717C34.5757 82.3717 34.6759 82.2715 34.6759 82.148C34.6759 82.0245 34.5757 81.9243 34.4522 81.9243C34.3287 81.9243 34.2285 82.0245 34.2285 82.148C34.2285 82.2715 34.3287 82.3717 34.4522 82.3717Z" fill="white" fill-opacity="0.3"/>
<path d="M39.378 82.3717C39.5015 82.3717 39.6016 82.2715 39.6016 82.148C39.6016 82.0245 39.5015 81.9243 39.378 81.9243C39.2544 81.9243 39.1543 82.0245 39.1543 82.148C39.1543 82.2715 39.2544 82.3717 39.378 82.3717Z" fill="white" fill-opacity="0.3"/>
<path d="M44.2979 82.3717C44.4214 82.3717 44.5216 82.2715 44.5216 82.148C44.5216 82.0245 44.4214 81.9243 44.2979 81.9243C44.1744 81.9243 44.0742 82.0245 44.0742 82.148C44.0742 82.2715 44.1744 82.3717 44.2979 82.3717Z" fill="white" fill-opacity="0.3"/>
<path d="M49.2178 82.3717C49.3413 82.3717 49.4415 82.2715 49.4415 82.148C49.4415 82.0245 49.3413 81.9243 49.2178 81.9243C49.0943 81.9243 48.9941 82.0245 48.9941 82.148C48.9941 82.2715 49.0943 82.3717 49.2178 82.3717Z" fill="white" fill-opacity="0.3"/>
<path d="M54.1436 82.3717C54.2671 82.3717 54.3673 82.2715 54.3673 82.148C54.3673 82.0245 54.2671 81.9243 54.1436 81.9243C54.0201 81.9243 53.9199 82.0245 53.9199 82.148C53.9199 82.2715 54.0201 82.3717 54.1436 82.3717Z" fill="white" fill-opacity="0.3"/>
<path d="M59.0596 82.3717C59.1831 82.3717 59.2833 82.2715 59.2833 82.148C59.2833 82.0245 59.1831 81.9243 59.0596 81.9243C58.9361 81.9243 58.8359 82.0245 58.8359 82.148C58.8359 82.2715 58.9361 82.3717 59.0596 82.3717Z" fill="white" fill-opacity="0.3"/>
<path d="M63.9854 82.3717C64.1089 82.3717 64.2091 82.2715 64.2091 82.148C64.2091 82.0245 64.1089 81.9243 63.9854 81.9243C63.8619 81.9243 63.7617 82.0245 63.7617 82.148C63.7617 82.2715 63.8619 82.3717 63.9854 82.3717Z" fill="white" fill-opacity="0.3"/>
<path d="M68.9053 82.3717C69.0288 82.3717 69.129 82.2715 69.129 82.148C69.129 82.0245 69.0288 81.9243 68.9053 81.9243C68.7818 81.9243 68.6816 82.0245 68.6816 82.148C68.6816 82.2715 68.7818 82.3717 68.9053 82.3717Z" fill="white" fill-opacity="0.3"/>
<path d="M73.8252 82.3717C73.9488 82.3717 74.0489 82.2715 74.0489 82.148C74.0489 82.0245 73.9488 81.9243 73.8252 81.9243C73.7017 81.9243 73.6016 82.0245 73.6016 82.148C73.6016 82.2715 73.7017 82.3717 73.8252 82.3717Z" fill="white" fill-opacity="0.3"/>
<path d="M78.7432 82.3717C78.8667 82.3717 78.9669 82.2715 78.9669 82.148C78.9669 82.0245 78.8667 81.9243 78.7432 81.9243C78.6197 81.9243 78.5195 82.0245 78.5195 82.148C78.5195 82.2715 78.6197 82.3717 78.7432 82.3717Z" fill="white" fill-opacity="0.3"/>
<path d="M83.667 82.3717C83.7906 82.3717 83.8907 82.2715 83.8907 82.148C83.8907 82.0245 83.7906 81.9243 83.667 81.9243C83.5435 81.9243 83.4434 82.0245 83.4434 82.148C83.4434 82.2715 83.5435 82.3717 83.667 82.3717Z" fill="white" fill-opacity="0.3"/>
<path d="M14.7706 87.2921C14.8941 87.2921 14.9942 87.1919 14.9942 87.0684C14.9942 86.9449 14.8941 86.8447 14.7706 86.8447C14.647 86.8447 14.5469 86.9449 14.5469 87.0684C14.5469 87.1919 14.647 87.2921 14.7706 87.2921Z" fill="white" fill-opacity="0.3"/>
<path d="M19.6905 87.2926C19.814 87.2926 19.9141 87.1924 19.9141 87.0689C19.9141 86.9454 19.814 86.8452 19.6905 86.8452C19.5669 86.8452 19.4668 86.9454 19.4668 87.0689C19.4668 87.1924 19.5669 87.2926 19.6905 87.2926Z" fill="white" fill-opacity="0.3"/>
<path d="M24.6182 87.2926C24.7417 87.2926 24.8419 87.1924 24.8419 87.0689C24.8419 86.9454 24.7417 86.8452 24.6182 86.8452C24.4947 86.8452 24.3945 86.9454 24.3945 87.0689C24.3945 87.1924 24.4947 87.2926 24.6182 87.2926Z" fill="white" fill-opacity="0.3"/>
<path d="M29.5362 87.2926C29.6597 87.2926 29.7599 87.1924 29.7599 87.0689C29.7599 86.9454 29.6597 86.8452 29.5362 86.8452C29.4126 86.8452 29.3125 86.9454 29.3125 87.0689C29.3125 87.1924 29.4126 87.2926 29.5362 87.2926Z" fill="white" fill-opacity="0.3"/>
<path d="M34.4522 87.2926C34.5757 87.2926 34.6759 87.1924 34.6759 87.0689C34.6759 86.9454 34.5757 86.8452 34.4522 86.8452C34.3287 86.8452 34.2285 86.9454 34.2285 87.0689C34.2285 87.1924 34.3287 87.2926 34.4522 87.2926Z" fill="white" fill-opacity="0.3"/>
<path d="M39.378 87.2921C39.5015 87.2921 39.6016 87.1919 39.6016 87.0684C39.6016 86.9449 39.5015 86.8447 39.378 86.8447C39.2544 86.8447 39.1543 86.9449 39.1543 87.0684C39.1543 87.1919 39.2544 87.2921 39.378 87.2921Z" fill="white" fill-opacity="0.3"/>
<path d="M44.2979 87.2926C44.4214 87.2926 44.5216 87.1924 44.5216 87.0689C44.5216 86.9454 44.4214 86.8452 44.2979 86.8452C44.1744 86.8452 44.0742 86.9454 44.0742 87.0689C44.0742 87.1924 44.1744 87.2926 44.2979 87.2926Z" fill="white" fill-opacity="0.3"/>
<path d="M49.2178 87.2921C49.3413 87.2921 49.4415 87.1919 49.4415 87.0684C49.4415 86.9449 49.3413 86.8447 49.2178 86.8447C49.0943 86.8447 48.9941 86.9449 48.9941 87.0684C48.9941 87.1919 49.0943 87.2921 49.2178 87.2921Z" fill="white" fill-opacity="0.3"/>
<path d="M54.1436 87.2926C54.2671 87.2926 54.3673 87.1924 54.3673 87.0689C54.3673 86.9454 54.2671 86.8452 54.1436 86.8452C54.0201 86.8452 53.9199 86.9454 53.9199 87.0689C53.9199 87.1924 54.0201 87.2926 54.1436 87.2926Z" fill="white" fill-opacity="0.3"/>
<path d="M59.0596 87.2926C59.1831 87.2926 59.2833 87.1924 59.2833 87.0689C59.2833 86.9454 59.1831 86.8452 59.0596 86.8452C58.9361 86.8452 58.8359 86.9454 58.8359 87.0689C58.8359 87.1924 58.9361 87.2926 59.0596 87.2926Z" fill="white" fill-opacity="0.3"/>
<path d="M63.9854 87.2926C64.1089 87.2926 64.2091 87.1924 64.2091 87.0689C64.2091 86.9454 64.1089 86.8452 63.9854 86.8452C63.8619 86.8452 63.7617 86.9454 63.7617 87.0689C63.7617 87.1924 63.8619 87.2926 63.9854 87.2926Z" fill="white" fill-opacity="0.3"/>
<path d="M68.9053 87.2926C69.0288 87.2926 69.129 87.1924 69.129 87.0689C69.129 86.9454 69.0288 86.8452 68.9053 86.8452C68.7818 86.8452 68.6816 86.9454 68.6816 87.0689C68.6816 87.1924 68.7818 87.2926 68.9053 87.2926Z" fill="white" fill-opacity="0.3"/>
<path d="M73.8252 87.2921C73.9488 87.2921 74.0489 87.1919 74.0489 87.0684C74.0489 86.9449 73.9488 86.8447 73.8252 86.8447C73.7017 86.8447 73.6016 86.9449 73.6016 87.0684C73.6016 87.1919 73.7017 87.2921 73.8252 87.2921Z" fill="white" fill-opacity="0.3"/>
<path d="M78.7432 87.2926C78.8667 87.2926 78.9669 87.1924 78.9669 87.0689C78.9669 86.9454 78.8667 86.8452 78.7432 86.8452C78.6197 86.8452 78.5195 86.9454 78.5195 87.0689C78.5195 87.1924 78.6197 87.2926 78.7432 87.2926Z" fill="white" fill-opacity="0.3"/>
<path d="M83.667 87.2921C83.7906 87.2921 83.8907 87.1919 83.8907 87.0684C83.8907 86.9449 83.7906 86.8447 83.667 86.8447C83.5435 86.8447 83.4434 86.9449 83.4434 87.0684C83.4434 87.1919 83.5435 87.2921 83.667 87.2921Z" fill="white" fill-opacity="0.3"/>
<path d="M14.7706 92.2154C14.8941 92.2154 14.9942 92.1153 14.9942 91.9917C14.9942 91.8682 14.8941 91.7681 14.7706 91.7681C14.647 91.7681 14.5469 91.8682 14.5469 91.9917C14.5469 92.1153 14.647 92.2154 14.7706 92.2154Z" fill="white" fill-opacity="0.3"/>
<path d="M19.6905 92.213C19.814 92.213 19.9141 92.1128 19.9141 91.9893C19.9141 91.8658 19.814 91.7656 19.6905 91.7656C19.5669 91.7656 19.4668 91.8658 19.4668 91.9893C19.4668 92.1128 19.5669 92.213 19.6905 92.213Z" fill="white" fill-opacity="0.3"/>
<path d="M24.6182 92.2154C24.7417 92.2154 24.8419 92.1153 24.8419 91.9917C24.8419 91.8682 24.7417 91.7681 24.6182 91.7681C24.4947 91.7681 24.3945 91.8682 24.3945 91.9917C24.3945 92.1153 24.4947 92.2154 24.6182 92.2154Z" fill="white" fill-opacity="0.3"/>
<path d="M29.5362 92.213C29.6597 92.213 29.7599 92.1128 29.7599 91.9893C29.7599 91.8658 29.6597 91.7656 29.5362 91.7656C29.4126 91.7656 29.3125 91.8658 29.3125 91.9893C29.3125 92.1128 29.4126 92.213 29.5362 92.213Z" fill="white" fill-opacity="0.3"/>
<path d="M34.4522 92.213C34.5757 92.213 34.6759 92.1128 34.6759 91.9893C34.6759 91.8658 34.5757 91.7656 34.4522 91.7656C34.3287 91.7656 34.2285 91.8658 34.2285 91.9893C34.2285 92.1128 34.3287 92.213 34.4522 92.213Z" fill="white" fill-opacity="0.3"/>
<path d="M39.378 92.2154C39.5015 92.2154 39.6016 92.1153 39.6016 91.9917C39.6016 91.8682 39.5015 91.7681 39.378 91.7681C39.2544 91.7681 39.1543 91.8682 39.1543 91.9917C39.1543 92.1153 39.2544 92.2154 39.378 92.2154Z" fill="white" fill-opacity="0.3"/>
<path d="M44.2979 92.2135C44.4214 92.2135 44.5216 92.1133 44.5216 91.9898C44.5216 91.8663 44.4214 91.7661 44.2979 91.7661C44.1744 91.7661 44.0742 91.8663 44.0742 91.9898C44.0742 92.1133 44.1744 92.2135 44.2979 92.2135Z" fill="white" fill-opacity="0.3"/>
<path d="M49.2178 92.2135C49.3413 92.2135 49.4415 92.1133 49.4415 91.9898C49.4415 91.8663 49.3413 91.7661 49.2178 91.7661C49.0943 91.7661 48.9941 91.8663 48.9941 91.9898C48.9941 92.1133 49.0943 92.2135 49.2178 92.2135Z" fill="white" fill-opacity="0.3"/>
<path d="M54.1436 92.213C54.2671 92.213 54.3673 92.1128 54.3673 91.9893C54.3673 91.8658 54.2671 91.7656 54.1436 91.7656C54.0201 91.7656 53.9199 91.8658 53.9199 91.9893C53.9199 92.1128 54.0201 92.213 54.1436 92.213Z" fill="white" fill-opacity="0.3"/>
<path d="M59.0596 92.2135C59.1831 92.2135 59.2833 92.1133 59.2833 91.9898C59.2833 91.8663 59.1831 91.7661 59.0596 91.7661C58.9361 91.7661 58.8359 91.8663 58.8359 91.9898C58.8359 92.1133 58.9361 92.2135 59.0596 92.2135Z" fill="white" fill-opacity="0.3"/>
<path d="M63.9854 92.213C64.1089 92.213 64.2091 92.1128 64.2091 91.9893C64.2091 91.8658 64.1089 91.7656 63.9854 91.7656C63.8619 91.7656 63.7617 91.8658 63.7617 91.9893C63.7617 92.1128 63.8619 92.213 63.9854 92.213Z" fill="white" fill-opacity="0.3"/>
<path d="M68.9053 92.2154C69.0288 92.2154 69.129 92.1153 69.129 91.9917C69.129 91.8682 69.0288 91.7681 68.9053 91.7681C68.7818 91.7681 68.6816 91.8682 68.6816 91.9917C68.6816 92.1153 68.7818 92.2154 68.9053 92.2154Z" fill="white" fill-opacity="0.3"/>
<path d="M73.8252 92.2149C73.9488 92.2149 74.0489 92.1148 74.0489 91.9913C74.0489 91.8677 73.9488 91.7676 73.8252 91.7676C73.7017 91.7676 73.6016 91.8677 73.6016 91.9913C73.6016 92.1148 73.7017 92.2149 73.8252 92.2149Z" fill="white" fill-opacity="0.3"/>
<path d="M78.7432 92.2154C78.8667 92.2154 78.9669 92.1153 78.9669 91.9917C78.9669 91.8682 78.8667 91.7681 78.7432 91.7681C78.6197 91.7681 78.5195 91.8682 78.5195 91.9917C78.5195 92.1153 78.6197 92.2154 78.7432 92.2154Z" fill="white" fill-opacity="0.3"/>
<path d="M83.667 92.2135C83.7906 92.2135 83.8907 92.1133 83.8907 91.9898C83.8907 91.8663 83.7906 91.7661 83.667 91.7661C83.5435 91.7661 83.4434 91.8663 83.4434 91.9898C83.4434 92.1133 83.5435 92.2135 83.667 92.2135Z" fill="white" fill-opacity="0.3"/>
<path d="M14.7706 97.1344C14.8941 97.1344 14.9942 97.0342 14.9942 96.9107C14.9942 96.7872 14.8941 96.687 14.7706 96.687C14.647 96.687 14.5469 96.7872 14.5469 96.9107C14.5469 97.0342 14.647 97.1344 14.7706 97.1344Z" fill="white" fill-opacity="0.3"/>
<path d="M19.6905 97.1344C19.814 97.1344 19.9141 97.0342 19.9141 96.9107C19.9141 96.7872 19.814 96.687 19.6905 96.687C19.5669 96.687 19.4668 96.7872 19.4668 96.9107C19.4668 97.0342 19.5669 97.1344 19.6905 97.1344Z" fill="white" fill-opacity="0.3"/>
<path d="M24.6182 97.1344C24.7417 97.1344 24.8419 97.0342 24.8419 96.9107C24.8419 96.7872 24.7417 96.687 24.6182 96.687C24.4947 96.687 24.3945 96.7872 24.3945 96.9107C24.3945 97.0342 24.4947 97.1344 24.6182 97.1344Z" fill="white" fill-opacity="0.3"/>
<path d="M29.5362 97.1353C29.6597 97.1353 29.7599 97.0352 29.7599 96.9117C29.7599 96.7881 29.6597 96.688 29.5362 96.688C29.4126 96.688 29.3125 96.7881 29.3125 96.9117C29.3125 97.0352 29.4126 97.1353 29.5362 97.1353Z" fill="white" fill-opacity="0.3"/>
<path d="M34.4522 97.1344C34.5757 97.1344 34.6759 97.0342 34.6759 96.9107C34.6759 96.7872 34.5757 96.687 34.4522 96.687C34.3287 96.687 34.2285 96.7872 34.2285 96.9107C34.2285 97.0342 34.3287 97.1344 34.4522 97.1344Z" fill="white" fill-opacity="0.3"/>
<path d="M39.378 97.1344C39.5015 97.1344 39.6016 97.0342 39.6016 96.9107C39.6016 96.7872 39.5015 96.687 39.378 96.687C39.2544 96.687 39.1543 96.7872 39.1543 96.9107C39.1543 97.0342 39.2544 97.1344 39.378 97.1344Z" fill="white" fill-opacity="0.3"/>
<path d="M44.2979 97.1344C44.4214 97.1344 44.5216 97.0342 44.5216 96.9107C44.5216 96.7872 44.4214 96.687 44.2979 96.687C44.1744 96.687 44.0742 96.7872 44.0742 96.9107C44.0742 97.0342 44.1744 97.1344 44.2979 97.1344Z" fill="white" fill-opacity="0.3"/>
<path d="M49.2178 97.1353C49.3413 97.1353 49.4415 97.0352 49.4415 96.9117C49.4415 96.7881 49.3413 96.688 49.2178 96.688C49.0943 96.688 48.9941 96.7881 48.9941 96.9117C48.9941 97.0352 49.0943 97.1353 49.2178 97.1353Z" fill="white" fill-opacity="0.3"/>
<path d="M54.1436 97.1349C54.2671 97.1349 54.3673 97.0347 54.3673 96.9112C54.3673 96.7876 54.2671 96.6875 54.1436 96.6875C54.0201 96.6875 53.9199 96.7876 53.9199 96.9112C53.9199 97.0347 54.0201 97.1349 54.1436 97.1349Z" fill="white" fill-opacity="0.3"/>
<path d="M59.0596 97.1344C59.1831 97.1344 59.2833 97.0342 59.2833 96.9107C59.2833 96.7872 59.1831 96.687 59.0596 96.687C58.9361 96.687 58.8359 96.7872 58.8359 96.9107C58.8359 97.0342 58.9361 97.1344 59.0596 97.1344Z" fill="white" fill-opacity="0.3"/>
<path d="M63.9854 97.1344C64.1089 97.1344 64.2091 97.0342 64.2091 96.9107C64.2091 96.7872 64.1089 96.687 63.9854 96.687C63.8619 96.687 63.7617 96.7872 63.7617 96.9107C63.7617 97.0342 63.8619 97.1344 63.9854 97.1344Z" fill="white" fill-opacity="0.3"/>
<path d="M68.9053 97.1344C69.0288 97.1344 69.129 97.0342 69.129 96.9107C69.129 96.7872 69.0288 96.687 68.9053 96.687C68.7818 96.687 68.6816 96.7872 68.6816 96.9107C68.6816 97.0342 68.7818 97.1344 68.9053 97.1344Z" fill="white" fill-opacity="0.3"/>
<path d="M73.8252 97.1353C73.9488 97.1353 74.0489 97.0352 74.0489 96.9117C74.0489 96.7881 73.9488 96.688 73.8252 96.688C73.7017 96.688 73.6016 96.7881 73.6016 96.9117C73.6016 97.0352 73.7017 97.1353 73.8252 97.1353Z" fill="white" fill-opacity="0.3"/>
<path d="M78.7432 97.1344C78.8667 97.1344 78.9669 97.0342 78.9669 96.9107C78.9669 96.7872 78.8667 96.687 78.7432 96.687C78.6197 96.687 78.5195 96.7872 78.5195 96.9107C78.5195 97.0342 78.6197 97.1344 78.7432 97.1344Z" fill="white" fill-opacity="0.3"/>
<path d="M83.667 97.1344C83.7906 97.1344 83.8907 97.0342 83.8907 96.9107C83.8907 96.7872 83.7906 96.687 83.667 96.687C83.5435 96.687 83.4434 96.7872 83.4434 96.9107C83.4434 97.0342 83.5435 97.1344 83.667 97.1344Z" fill="white" fill-opacity="0.3"/>
<path d="M38.55 57.9244C37.6707 57.0664 37.2327 55.7652 37.2327 54.0146C37.2327 52.3551 37.7267 51.1074 38.7116 50.2776C39.6965 49.4479 41.1785 49.033 43.1514 49.033H47.1655V48.3196C47.2028 47.6313 46.9201 46.9681 46.3981 46.5218C45.8824 46.1007 45.1584 45.8932 44.2201 45.8932C43.5957 45.8932 42.9743 45.997 42.384 46.2012C41.7998 46.393 41.253 46.6821 40.7652 47.0593L38.0467 44.3595C38.7644 43.5549 39.6623 42.942 40.6689 42.5712C41.8247 42.1311 43.0488 41.9143 44.2823 41.9331C45.5592 41.8954 46.8269 42.1469 47.992 42.6686C48.9737 43.118 49.7909 43.866 50.3377 44.8058C50.9 45.8367 51.1766 47.0027 51.1424 48.1781V58.971H47.1624V57.3932C47.0288 57.6038 46.8641 57.7924 46.6715 57.9527C46.1402 58.399 45.5157 58.7227 44.8477 58.8987C44.0959 59.1124 43.3191 59.2161 42.5362 59.213C40.759 59.213 39.4262 58.7824 38.5438 57.9244H38.55ZM41.6818 52.8108C41.3338 53.1094 41.1505 53.5557 41.1847 54.0177C41.1536 54.5112 41.3928 54.9795 41.8061 55.2403C42.3871 55.542 43.0395 55.6803 43.6889 55.6363C44.8664 55.6363 45.7425 55.5012 46.3049 55.234C46.8269 55.0392 47.1717 54.5332 47.1624 53.9706V52.418H43.1638C42.6387 52.3771 42.1168 52.5185 41.6787 52.814L41.6818 52.8108ZM13.8126 58.9427C12.9085 58.773 12.0261 58.5121 11.178 58.157C10.4012 57.8395 9.6711 57.4184 9 56.9092L11.7061 53.496C12.486 54.0052 13.3311 54.4106 14.2165 54.6935C15.0212 54.9637 15.8632 55.1052 16.7083 55.1146C17.5161 55.1492 18.3239 55.0297 19.0913 54.7657C19.6599 54.5332 19.9426 54.2126 19.9426 53.804C19.9644 53.474 19.8276 53.1566 19.5729 52.946C19.2933 52.7386 18.9701 52.5971 18.6284 52.5343C18.094 52.4305 17.5534 52.3583 17.0128 52.3143C16.8232 52.2923 16.6244 52.2703 16.4287 52.2483L15.8259 52.1823C15.7824 52.1697 15.7358 52.1634 15.6923 52.1571C15.6457 52.154 15.5991 52.1477 15.5587 52.1477C14.5521 52.0345 13.5579 51.8334 12.5823 51.5474C11.8242 51.3022 11.1624 50.8245 10.6871 50.1802C10.1682 49.5076 9.91033 48.527 9.90722 47.2447C9.87926 46.2232 10.1589 45.2206 10.7088 44.3658C11.2836 43.536 12.0945 42.9012 13.0297 42.546C14.2041 42.1029 15.4531 41.8923 16.7083 41.9237C17.5534 41.9237 18.3985 42.0117 19.228 42.1814C20.0513 42.3511 20.8591 42.5994 21.6359 42.9263C22.3815 43.2375 23.0961 43.6303 23.761 44.0923L21.1512 47.3138C20.4335 46.9053 19.6723 46.5847 18.88 46.3584C18.1437 46.1384 17.3794 46.0252 16.612 46.019C15.9098 45.9907 15.2108 46.0944 14.549 46.327C14.0581 46.5313 13.8126 46.8173 13.8095 47.185C13.8095 47.4616 13.9587 47.713 14.201 47.8419C14.5024 48.0147 14.8348 48.1279 15.1766 48.1813C15.568 48.2504 16.1366 48.329 16.8823 48.417C16.9786 48.4264 17.0749 48.439 17.1681 48.4484C17.2613 48.4579 17.3607 48.4704 17.4571 48.4799C17.5037 48.4924 17.5534 48.4956 17.6031 48.4956C17.6497 48.4956 17.6994 48.5019 17.746 48.5113C18.8086 48.6182 19.8649 48.813 20.8964 49.0927C21.7167 49.3379 22.4406 49.8345 22.9688 50.5165C23.5435 51.2299 23.8232 52.2734 23.8232 53.6563C23.8542 54.7155 23.5653 55.7589 22.9967 56.6484C22.394 57.5158 21.5458 58.179 20.564 58.5498C19.3336 59.015 18.0225 59.2381 16.7083 59.2067C15.7358 59.2067 14.7665 59.1219 13.8095 58.9427H13.8126ZM31.9851 59.0464C30.5341 59.0464 29.4716 58.6724 28.7911 57.9213C28.1169 57.1732 27.7783 56.0638 27.7783 54.596V45.9561H26.0664V42.1689H27.7783V37.2847H32.159V42.172H34.1941V45.9592H32.159V53.4991C32.1404 53.8323 32.2243 54.1623 32.4014 54.4452C32.5661 54.6683 32.8332 54.794 33.1098 54.7783H34.1972V59.0496H31.9882L31.9851 59.0464Z" fill="white"/>
<path d="M57.3159 42.1312L61.1499 53.3106L64.6048 42.1312H69.0601L63.0171 60.4042C61.4637 65.0872 59.9444 66.2375 55.1069 66.2375V62.2554C57.4899 62.2554 58.422 61.8719 59.149 59.8447L52.6897 42.1312H57.319H57.3159Z" fill="white"/>
<path d="M86.0079 34L82.6439 38.0496L84.9987 40.9421L90.7344 34H86.0079Z" fill="white"/>
<path d="M77.1522 34H72.3753L79.0024 42.1161L72.3753 50.2663H77.1522L83.8297 42.1161L77.1522 34Z" fill="white"/>
<path d="M84.9987 43.3241L82.6439 46.2166L85.9743 50.2662H90.768L84.9987 43.3241Z" fill="white"/>
</g>
<defs>
<linearGradient id="paint0_linear_759_35588" x1="50" y1="-33" x2="50" y2="133" gradientUnits="userSpaceOnUse">
<stop stop-color="#2939D1"/>
<stop offset="1" stop-color="#A980FF"/>
</linearGradient>
<clipPath id="clip0_759_35588">
<rect width="100" height="100" rx="20" fill="white"/>
</clipPath>
</defs>
</svg>
