<svg width="393" height="259" viewBox="0 0 393 259" fill="none" xmlns="http://www.w3.org/2000/svg">
    <g clip-path="url(#clip0_793_1607)">
        <path fill-rule="evenodd" clip-rule="evenodd"
            d="M-61.6292 360.894C-86.5445 300.505 -80.6694 235.603 -47.1311 175.138C-10.2393 108.628 38.2737 28.7447 130.653 14.2396C220.846 0.0778846 277.969 75.482 352.229 112.432C409.857 141.107 494.464 151.868 510.664 203.325C526.568 253.845 457.038 296.137 425.204 344.229C392.7 393.333 386.982 454.728 325.111 483.642C253.313 517.196 162.084 525.558 87.706 501.952C10.8941 477.572 -36.6829 421.358 -61.6292 360.894Z"
            fill="url(#paint0_linear_793_1607)" fill-opacity="0.5" />
        <path fill-rule="evenodd" clip-rule="evenodd"
            d="M-58.2473 355.01C-81.6637 298.254 -76.1421 237.256 -44.6215 180.43C-9.94916 117.921 35.6451 42.8434 122.467 29.2109C207.233 15.9013 260.92 86.7689 330.712 121.496C384.874 148.446 464.39 158.559 479.615 206.921C494.563 254.401 429.215 294.149 399.297 339.348C368.748 385.498 363.374 443.199 305.226 470.373C237.747 501.908 152.007 509.768 82.1035 487.581C9.91282 464.668 -34.8019 411.836 -58.2473 355.01Z"
            fill="url(#paint1_linear_793_1607)" />
        <mask id="mask0_793_1607" style="mask-type:alpha" maskUnits="userSpaceOnUse" x="-73" y="27" width="555"
            height="474">
            <path fill-rule="evenodd" clip-rule="evenodd"
                d="M-58.2493 355.011C-81.6657 298.255 -76.144 237.257 -44.6234 180.43C-9.95111 117.921 35.6432 42.8439 122.465 29.2114C207.231 15.9017 260.918 86.7694 330.71 121.497C384.872 148.446 464.388 158.56 479.613 206.921C494.561 254.402 429.213 294.149 399.295 339.348C368.746 385.498 363.372 443.199 305.224 470.374C237.745 501.909 152.005 509.768 82.1016 487.582C9.91087 464.669 -34.8038 411.837 -58.2493 355.011Z"
                fill="url(#paint2_linear_793_1607)" />
        </mask>
        <g mask="url(#mask0_793_1607)">
            <g style="mix-blend-mode:soft-light">
                <path
                    d="M-207.387 311.762C-207.387 311.762 -158.67 350.528 -108.349 362.321C-58.0284 374.114 -6.73641 360.176 65.3624 363.589C140.276 367.136 162.433 398.879 183.818 423.599C213.534 457.948 233.27 589.215 233.27 589.215L322.143 487.471C322.143 487.471 310.893 438.895 259.037 391.182C201.442 338.186 160.194 336.722 83.7916 334.684C26.8745 333.168 -0.499018 344.516 -55.4217 308.114C-110.345 271.713 -165.672 184.049 -165.672 184.049L-207.387 311.762Z"
                    fill="white" fill-opacity="0.37" />
            </g>
            <g style="mix-blend-mode:soft-light">
                <path
                    d="M-44.5711 137.992C-44.5711 137.992 0.697832 181.371 54.3985 193.013C108.099 204.655 169.215 186.045 249.469 186.895C332.857 187.778 349.978 224.075 367.957 252.162C392.94 291.188 382.883 444.438 382.883 444.438L507.844 321.093C507.844 321.093 507.126 264.555 460.525 210.808C408.768 151.11 362.733 151.198 277.3 152.151C213.655 152.865 180.078 167.386 127.248 127.054C74.4184 86.7218 33.7295 -13.777 33.7295 -13.777L-44.5711 137.992Z"
                    fill="white" fill-opacity="0.37" />
            </g>
        </g>
    </g>
    <defs>
        <linearGradient id="paint0_linear_793_1607" x1="47.9716" y1="52.3866" x2="216.213" y2="522.78"
            gradientUnits="userSpaceOnUse">
            <stop stop-color="#2939D1" />
            <stop offset="1" stop-color="#A980FF" />
        </linearGradient>
        <linearGradient id="paint1_linear_793_1607" x1="44.7596" y1="65.0629" x2="202.879" y2="507.157"
            gradientUnits="userSpaceOnUse">
            <stop stop-color="#2939D1" />
            <stop offset="1" stop-color="#A980FF" />
        </linearGradient>
        <linearGradient id="paint2_linear_793_1607" x1="44.7577" y1="65.0634" x2="202.877" y2="507.157"
            gradientUnits="userSpaceOnUse">
            <stop stop-color="#2939D1" />
            <stop offset="1" stop-color="#A980FF" />
        </linearGradient>
        <clipPath id="clip0_793_1607">
            <rect width="393" height="259" fill="white" />
        </clipPath>
    </defs>
</svg>