<svg width="393" height="852" viewBox="0 0 393 852" fill="none" xmlns="http://www.w3.org/2000/svg">
<g clip-path="url(#clip0_758_2710)">
<path d="M25.7525 8.5871C26.4669 8.5871 27.0461 8.00796 27.0461 7.29355C27.0461 6.57914 26.4669 6 25.7525 6C25.0381 6 24.459 6.57914 24.459 7.29355C24.459 8.00796 25.0381 8.5871 25.7525 8.5871Z" fill="white" fill-opacity="0.3"/>
<path d="M54.2096 8.5871C54.924 8.5871 55.5031 8.00796 55.5031 7.29355C55.5031 6.57914 54.924 6 54.2096 6C53.4952 6 52.916 6.57914 52.916 7.29355C52.916 8.00796 53.4952 8.5871 54.2096 8.5871Z" fill="white" fill-opacity="0.3"/>
<path d="M82.6685 8.5871C83.383 8.5871 83.9621 8.00796 83.9621 7.29355C83.9621 6.57914 83.383 6 82.6685 6C81.9541 6 81.375 6.57914 81.375 7.29355C81.375 8.00796 81.9541 8.5871 82.6685 8.5871Z" fill="white" fill-opacity="0.3"/>
<path d="M111.126 8.5871C111.84 8.5871 112.419 8.00796 112.419 7.29355C112.419 6.57914 111.84 6 111.126 6C110.411 6 109.832 6.57914 109.832 7.29355C109.832 8.00796 110.411 8.5871 111.126 8.5871Z" fill="white" fill-opacity="0.3"/>
<path d="M139.585 8.5871C140.299 8.5871 140.878 8.00796 140.878 7.29355C140.878 6.57914 140.299 6 139.585 6C138.87 6 138.291 6.57914 138.291 7.29355C138.291 8.00796 138.87 8.5871 139.585 8.5871Z" fill="white" fill-opacity="0.3"/>
<path d="M168.042 8.5871C168.756 8.5871 169.335 8.00796 169.335 7.29355C169.335 6.57914 168.756 6 168.042 6C167.327 6 166.748 6.57914 166.748 7.29355C166.748 8.00796 167.327 8.5871 168.042 8.5871Z" fill="white" fill-opacity="0.3"/>
<path d="M196.501 8.5871C197.215 8.5871 197.794 8.00796 197.794 7.29355C197.794 6.57914 197.215 6 196.501 6C195.786 6 195.207 6.57914 195.207 7.29355C195.207 8.00796 195.786 8.5871 196.501 8.5871Z" fill="white" fill-opacity="0.3"/>
<path d="M224.958 8.5871C225.672 8.5871 226.251 8.00796 226.251 7.29355C226.251 6.57914 225.672 6 224.958 6C224.243 6 223.664 6.57914 223.664 7.29355C223.664 8.00796 224.243 8.5871 224.958 8.5871Z" fill="white" fill-opacity="0.3"/>
<path d="M253.417 8.5871C254.131 8.5871 254.71 8.00796 254.71 7.29355C254.71 6.57914 254.131 6 253.417 6C252.702 6 252.123 6.57914 252.123 7.29355C252.123 8.00796 252.702 8.5871 253.417 8.5871Z" fill="white" fill-opacity="0.3"/>
<path d="M281.874 8.5871C282.588 8.5871 283.167 8.00796 283.167 7.29355C283.167 6.57914 282.588 6 281.874 6C281.159 6 280.58 6.57914 280.58 7.29355C280.58 8.00796 281.159 8.5871 281.874 8.5871Z" fill="white" fill-opacity="0.3"/>
<path d="M310.333 8.5871C311.047 8.5871 311.626 8.00796 311.626 7.29355C311.626 6.57914 311.047 6 310.333 6C309.618 6 309.039 6.57914 309.039 7.29355C309.039 8.00796 309.618 8.5871 310.333 8.5871Z" fill="white" fill-opacity="0.3"/>
<path d="M338.79 8.5871C339.504 8.5871 340.083 8.00796 340.083 7.29355C340.083 6.57914 339.504 6 338.79 6C338.075 6 337.496 6.57914 337.496 7.29355C337.496 8.00796 338.075 8.5871 338.79 8.5871Z" fill="white" fill-opacity="0.3"/>
<path d="M367.249 8.5871C367.963 8.5871 368.542 8.00796 368.542 7.29355C368.542 6.57914 367.963 6 367.249 6C366.534 6 365.955 6.57914 365.955 7.29355C365.955 8.00796 366.534 8.5871 367.249 8.5871Z" fill="white" fill-opacity="0.3"/>
<path d="M25.7525 37.0451C26.4669 37.0451 27.0461 36.466 27.0461 35.7516C27.0461 35.0371 26.4669 34.458 25.7525 34.458C25.0381 34.458 24.459 35.0371 24.459 35.7516C24.459 36.466 25.0381 37.0451 25.7525 37.0451Z" fill="white" fill-opacity="0.3"/>
<path d="M54.2096 37.0451C54.924 37.0451 55.5031 36.466 55.5031 35.7516C55.5031 35.0371 54.924 34.458 54.2096 34.458C53.4952 34.458 52.916 35.0371 52.916 35.7516C52.916 36.466 53.4952 37.0451 54.2096 37.0451Z" fill="white" fill-opacity="0.3"/>
<path d="M82.6685 37.0451C83.383 37.0451 83.9621 36.466 83.9621 35.7516C83.9621 35.0371 83.383 34.458 82.6685 34.458C81.9541 34.458 81.375 35.0371 81.375 35.7516C81.375 36.466 81.9541 37.0451 82.6685 37.0451Z" fill="white" fill-opacity="0.3"/>
<path d="M111.126 37.0451C111.84 37.0451 112.419 36.466 112.419 35.7516C112.419 35.0371 111.84 34.458 111.126 34.458C110.411 34.458 109.832 35.0371 109.832 35.7516C109.832 36.466 110.411 37.0451 111.126 37.0451Z" fill="white" fill-opacity="0.3"/>
<path d="M139.585 37.0451C140.299 37.0451 140.878 36.466 140.878 35.7516C140.878 35.0371 140.299 34.458 139.585 34.458C138.87 34.458 138.291 35.0371 138.291 35.7516C138.291 36.466 138.87 37.0451 139.585 37.0451Z" fill="white" fill-opacity="0.3"/>
<path d="M168.042 37.0451C168.756 37.0451 169.335 36.466 169.335 35.7516C169.335 35.0371 168.756 34.458 168.042 34.458C167.327 34.458 166.748 35.0371 166.748 35.7516C166.748 36.466 167.327 37.0451 168.042 37.0451Z" fill="white" fill-opacity="0.3"/>
<path d="M196.501 37.0451C197.215 37.0451 197.794 36.466 197.794 35.7516C197.794 35.0371 197.215 34.458 196.501 34.458C195.786 34.458 195.207 35.0371 195.207 35.7516C195.207 36.466 195.786 37.0451 196.501 37.0451Z" fill="white" fill-opacity="0.3"/>
<path d="M224.958 37.0451C225.672 37.0451 226.251 36.466 226.251 35.7516C226.251 35.0371 225.672 34.458 224.958 34.458C224.243 34.458 223.664 35.0371 223.664 35.7516C223.664 36.466 224.243 37.0451 224.958 37.0451Z" fill="white" fill-opacity="0.3"/>
<path d="M253.417 37.0451C254.131 37.0451 254.71 36.466 254.71 35.7516C254.71 35.0371 254.131 34.458 253.417 34.458C252.702 34.458 252.123 35.0371 252.123 35.7516C252.123 36.466 252.702 37.0451 253.417 37.0451Z" fill="white" fill-opacity="0.3"/>
<path d="M281.874 37.0451C282.588 37.0451 283.167 36.466 283.167 35.7516C283.167 35.0371 282.588 34.458 281.874 34.458C281.159 34.458 280.58 35.0371 280.58 35.7516C280.58 36.466 281.159 37.0451 281.874 37.0451Z" fill="white" fill-opacity="0.3"/>
<path d="M310.333 37.0451C311.047 37.0451 311.626 36.466 311.626 35.7516C311.626 35.0371 311.047 34.458 310.333 34.458C309.618 34.458 309.039 35.0371 309.039 35.7516C309.039 36.466 309.618 37.0451 310.333 37.0451Z" fill="white" fill-opacity="0.3"/>
<path d="M338.79 37.0451C339.504 37.0451 340.083 36.466 340.083 35.7516C340.083 35.0371 339.504 34.458 338.79 34.458C338.075 34.458 337.496 35.0371 337.496 35.7516C337.496 36.466 338.075 37.0451 338.79 37.0451Z" fill="white" fill-opacity="0.3"/>
<path d="M367.249 37.0451C367.963 37.0451 368.542 36.466 368.542 35.7516C368.542 35.0371 367.963 34.458 367.249 34.458C366.534 34.458 365.955 35.0371 365.955 35.7516C365.955 36.466 366.534 37.0451 367.249 37.0451Z" fill="white" fill-opacity="0.3"/>
<path d="M25.7525 65.5031C26.4669 65.5031 27.0461 64.924 27.0461 64.2096C27.0461 63.4952 26.4669 62.916 25.7525 62.916C25.0381 62.916 24.459 63.4952 24.459 64.2096C24.459 64.924 25.0381 65.5031 25.7525 65.5031Z" fill="white" fill-opacity="0.3"/>
<path d="M54.2096 65.5031C54.924 65.5031 55.5031 64.924 55.5031 64.2096C55.5031 63.4952 54.924 62.916 54.2096 62.916C53.4952 62.916 52.916 63.4952 52.916 64.2096C52.916 64.924 53.4952 65.5031 54.2096 65.5031Z" fill="white" fill-opacity="0.3"/>
<path d="M82.6685 65.5031C83.383 65.5031 83.9621 64.924 83.9621 64.2096C83.9621 63.4952 83.383 62.916 82.6685 62.916C81.9541 62.916 81.375 63.4952 81.375 64.2096C81.375 64.924 81.9541 65.5031 82.6685 65.5031Z" fill="white" fill-opacity="0.3"/>
<path d="M111.126 65.5031C111.84 65.5031 112.419 64.924 112.419 64.2096C112.419 63.4952 111.84 62.916 111.126 62.916C110.411 62.916 109.832 63.4952 109.832 64.2096C109.832 64.924 110.411 65.5031 111.126 65.5031Z" fill="white" fill-opacity="0.3"/>
<path d="M139.585 65.5031C140.299 65.5031 140.878 64.924 140.878 64.2096C140.878 63.4952 140.299 62.916 139.585 62.916C138.87 62.916 138.291 63.4952 138.291 64.2096C138.291 64.924 138.87 65.5031 139.585 65.5031Z" fill="white" fill-opacity="0.3"/>
<path d="M168.042 65.5031C168.756 65.5031 169.335 64.924 169.335 64.2096C169.335 63.4952 168.756 62.916 168.042 62.916C167.327 62.916 166.748 63.4952 166.748 64.2096C166.748 64.924 167.327 65.5031 168.042 65.5031Z" fill="white" fill-opacity="0.3"/>
<path d="M196.501 65.5031C197.215 65.5031 197.794 64.924 197.794 64.2096C197.794 63.4952 197.215 62.916 196.501 62.916C195.786 62.916 195.207 63.4952 195.207 64.2096C195.207 64.924 195.786 65.5031 196.501 65.5031Z" fill="white" fill-opacity="0.3"/>
<path d="M224.958 65.5031C225.672 65.5031 226.251 64.924 226.251 64.2096C226.251 63.4952 225.672 62.916 224.958 62.916C224.243 62.916 223.664 63.4952 223.664 64.2096C223.664 64.924 224.243 65.5031 224.958 65.5031Z" fill="white" fill-opacity="0.3"/>
<path d="M253.417 65.5031C254.131 65.5031 254.71 64.924 254.71 64.2096C254.71 63.4952 254.131 62.916 253.417 62.916C252.702 62.916 252.123 63.4952 252.123 64.2096C252.123 64.924 252.702 65.5031 253.417 65.5031Z" fill="white" fill-opacity="0.3"/>
<path d="M281.874 65.5031C282.588 65.5031 283.167 64.924 283.167 64.2096C283.167 63.4952 282.588 62.916 281.874 62.916C281.159 62.916 280.58 63.4952 280.58 64.2096C280.58 64.924 281.159 65.5031 281.874 65.5031Z" fill="white" fill-opacity="0.3"/>
<path d="M310.333 65.5031C311.047 65.5031 311.626 64.924 311.626 64.2096C311.626 63.4952 311.047 62.916 310.333 62.916C309.618 62.916 309.039 63.4952 309.039 64.2096C309.039 64.924 309.618 65.5031 310.333 65.5031Z" fill="white" fill-opacity="0.3"/>
<path d="M338.79 65.5031C339.504 65.5031 340.083 64.924 340.083 64.2096C340.083 63.4952 339.504 62.916 338.79 62.916C338.075 62.916 337.496 63.4952 337.496 64.2096C337.496 64.924 338.075 65.5031 338.79 65.5031Z" fill="white" fill-opacity="0.3"/>
<path d="M367.249 65.5031C367.963 65.5031 368.542 64.924 368.542 64.2096C368.542 63.4952 367.963 62.916 367.249 62.916C366.534 62.916 365.955 63.4952 365.955 64.2096C365.955 64.924 366.534 65.5031 367.249 65.5031Z" fill="white" fill-opacity="0.3"/>
<path d="M25.7525 93.9611C26.4669 93.9611 27.0461 93.382 27.0461 92.6676C27.0461 91.9532 26.4669 91.374 25.7525 91.374C25.0381 91.374 24.459 91.9532 24.459 92.6676C24.459 93.382 25.0381 93.9611 25.7525 93.9611Z" fill="white" fill-opacity="0.3"/>
<path d="M54.2096 93.9611C54.924 93.9611 55.5031 93.382 55.5031 92.6676C55.5031 91.9532 54.924 91.374 54.2096 91.374C53.4952 91.374 52.916 91.9532 52.916 92.6676C52.916 93.382 53.4952 93.9611 54.2096 93.9611Z" fill="white" fill-opacity="0.3"/>
<path d="M82.6685 93.9611C83.383 93.9611 83.9621 93.382 83.9621 92.6676C83.9621 91.9532 83.383 91.374 82.6685 91.374C81.9541 91.374 81.375 91.9532 81.375 92.6676C81.375 93.382 81.9541 93.9611 82.6685 93.9611Z" fill="white" fill-opacity="0.3"/>
<path d="M111.126 93.9611C111.84 93.9611 112.419 93.382 112.419 92.6676C112.419 91.9532 111.84 91.374 111.126 91.374C110.411 91.374 109.832 91.9532 109.832 92.6676C109.832 93.382 110.411 93.9611 111.126 93.9611Z" fill="white" fill-opacity="0.3"/>
<path d="M139.585 93.9611C140.299 93.9611 140.878 93.382 140.878 92.6676C140.878 91.9532 140.299 91.374 139.585 91.374C138.87 91.374 138.291 91.9532 138.291 92.6676C138.291 93.382 138.87 93.9611 139.585 93.9611Z" fill="white" fill-opacity="0.3"/>
<path d="M168.042 93.9611C168.756 93.9611 169.335 93.382 169.335 92.6676C169.335 91.9532 168.756 91.374 168.042 91.374C167.327 91.374 166.748 91.9532 166.748 92.6676C166.748 93.382 167.327 93.9611 168.042 93.9611Z" fill="white" fill-opacity="0.3"/>
<path d="M196.501 93.9611C197.215 93.9611 197.794 93.382 197.794 92.6676C197.794 91.9532 197.215 91.374 196.501 91.374C195.786 91.374 195.207 91.9532 195.207 92.6676C195.207 93.382 195.786 93.9611 196.501 93.9611Z" fill="white" fill-opacity="0.3"/>
<path d="M224.958 93.9611C225.672 93.9611 226.251 93.382 226.251 92.6676C226.251 91.9532 225.672 91.374 224.958 91.374C224.243 91.374 223.664 91.9532 223.664 92.6676C223.664 93.382 224.243 93.9611 224.958 93.9611Z" fill="white" fill-opacity="0.3"/>
<path d="M253.417 93.9611C254.131 93.9611 254.71 93.382 254.71 92.6676C254.71 91.9532 254.131 91.374 253.417 91.374C252.702 91.374 252.123 91.9532 252.123 92.6676C252.123 93.382 252.702 93.9611 253.417 93.9611Z" fill="white" fill-opacity="0.3"/>
<path d="M281.874 93.9611C282.588 93.9611 283.167 93.382 283.167 92.6676C283.167 91.9532 282.588 91.374 281.874 91.374C281.159 91.374 280.58 91.9532 280.58 92.6676C280.58 93.382 281.159 93.9611 281.874 93.9611Z" fill="white" fill-opacity="0.3"/>
<path d="M310.333 93.9611C311.047 93.9611 311.626 93.382 311.626 92.6676C311.626 91.9532 311.047 91.374 310.333 91.374C309.618 91.374 309.039 91.9532 309.039 92.6676C309.039 93.382 309.618 93.9611 310.333 93.9611Z" fill="white" fill-opacity="0.3"/>
<path d="M338.79 93.9611C339.504 93.9611 340.083 93.382 340.083 92.6676C340.083 91.9532 339.504 91.374 338.79 91.374C338.075 91.374 337.496 91.9532 337.496 92.6676C337.496 93.382 338.075 93.9611 338.79 93.9611Z" fill="white" fill-opacity="0.3"/>
<path d="M367.249 93.9611C367.963 93.9611 368.542 93.382 368.542 92.6676C368.542 91.9532 367.963 91.374 367.249 91.374C366.534 91.374 365.955 91.9532 365.955 92.6676C365.955 93.382 366.534 93.9611 367.249 93.9611Z" fill="white" fill-opacity="0.3"/>
<path d="M25.7525 122.419C26.4669 122.419 27.0461 121.84 27.0461 121.126C27.0461 120.411 26.4669 119.832 25.7525 119.832C25.0381 119.832 24.459 120.411 24.459 121.126C24.459 121.84 25.0381 122.419 25.7525 122.419Z" fill="white" fill-opacity="0.3"/>
<path d="M54.2096 122.419C54.924 122.419 55.5031 121.84 55.5031 121.126C55.5031 120.411 54.924 119.832 54.2096 119.832C53.4952 119.832 52.916 120.411 52.916 121.126C52.916 121.84 53.4952 122.419 54.2096 122.419Z" fill="white" fill-opacity="0.3"/>
<path d="M82.6685 122.419C83.383 122.419 83.9621 121.84 83.9621 121.126C83.9621 120.411 83.383 119.832 82.6685 119.832C81.9541 119.832 81.375 120.411 81.375 121.126C81.375 121.84 81.9541 122.419 82.6685 122.419Z" fill="white" fill-opacity="0.3"/>
<path d="M111.126 122.419C111.84 122.419 112.419 121.84 112.419 121.126C112.419 120.411 111.84 119.832 111.126 119.832C110.411 119.832 109.832 120.411 109.832 121.126C109.832 121.84 110.411 122.419 111.126 122.419Z" fill="white" fill-opacity="0.3"/>
<path d="M139.585 122.419C140.299 122.419 140.878 121.84 140.878 121.126C140.878 120.411 140.299 119.832 139.585 119.832C138.87 119.832 138.291 120.411 138.291 121.126C138.291 121.84 138.87 122.419 139.585 122.419Z" fill="white" fill-opacity="0.3"/>
<path d="M168.042 122.419C168.756 122.419 169.335 121.84 169.335 121.126C169.335 120.411 168.756 119.832 168.042 119.832C167.327 119.832 166.748 120.411 166.748 121.126C166.748 121.84 167.327 122.419 168.042 122.419Z" fill="white" fill-opacity="0.3"/>
<path d="M196.501 122.419C197.215 122.419 197.794 121.84 197.794 121.126C197.794 120.411 197.215 119.832 196.501 119.832C195.786 119.832 195.207 120.411 195.207 121.126C195.207 121.84 195.786 122.419 196.501 122.419Z" fill="white" fill-opacity="0.3"/>
<path d="M224.958 122.419C225.672 122.419 226.251 121.84 226.251 121.126C226.251 120.411 225.672 119.832 224.958 119.832C224.243 119.832 223.664 120.411 223.664 121.126C223.664 121.84 224.243 122.419 224.958 122.419Z" fill="white" fill-opacity="0.3"/>
<path d="M253.417 122.419C254.131 122.419 254.71 121.84 254.71 121.126C254.71 120.411 254.131 119.832 253.417 119.832C252.702 119.832 252.123 120.411 252.123 121.126C252.123 121.84 252.702 122.419 253.417 122.419Z" fill="white" fill-opacity="0.3"/>
<path d="M281.874 122.419C282.588 122.419 283.167 121.84 283.167 121.126C283.167 120.411 282.588 119.832 281.874 119.832C281.159 119.832 280.58 120.411 280.58 121.126C280.58 121.84 281.159 122.419 281.874 122.419Z" fill="white" fill-opacity="0.3"/>
<path d="M310.333 122.419C311.047 122.419 311.626 121.84 311.626 121.126C311.626 120.411 311.047 119.832 310.333 119.832C309.618 119.832 309.039 120.411 309.039 121.126C309.039 121.84 309.618 122.419 310.333 122.419Z" fill="white" fill-opacity="0.3"/>
<path d="M338.79 122.419C339.504 122.419 340.083 121.84 340.083 121.126C340.083 120.411 339.504 119.832 338.79 119.832C338.075 119.832 337.496 120.411 337.496 121.126C337.496 121.84 338.075 122.419 338.79 122.419Z" fill="white" fill-opacity="0.3"/>
<path d="M367.249 122.419C367.963 122.419 368.542 121.84 368.542 121.126C368.542 120.411 367.963 119.832 367.249 119.832C366.534 119.832 365.955 120.411 365.955 121.126C365.955 121.84 366.534 122.419 367.249 122.419Z" fill="white" fill-opacity="0.3"/>
<path d="M25.7525 150.878C26.4669 150.878 27.0461 150.298 27.0461 149.584C27.0461 148.87 26.4669 148.291 25.7525 148.291C25.0381 148.291 24.459 148.87 24.459 149.584C24.459 150.298 25.0381 150.878 25.7525 150.878Z" fill="white" fill-opacity="0.3"/>
<path d="M54.2096 150.878C54.924 150.878 55.5031 150.298 55.5031 149.584C55.5031 148.87 54.924 148.291 54.2096 148.291C53.4952 148.291 52.916 148.87 52.916 149.584C52.916 150.298 53.4952 150.878 54.2096 150.878Z" fill="white" fill-opacity="0.3"/>
<path d="M82.6685 150.878C83.383 150.878 83.9621 150.298 83.9621 149.584C83.9621 148.87 83.383 148.291 82.6685 148.291C81.9541 148.291 81.375 148.87 81.375 149.584C81.375 150.298 81.9541 150.878 82.6685 150.878Z" fill="white" fill-opacity="0.3"/>
<path d="M111.126 150.877C111.84 150.877 112.419 150.298 112.419 149.584C112.419 148.869 111.84 148.29 111.126 148.29C110.411 148.29 109.832 148.869 109.832 149.584C109.832 150.298 110.411 150.877 111.126 150.877Z" fill="white" fill-opacity="0.3"/>
<path d="M139.585 150.878C140.299 150.878 140.878 150.298 140.878 149.584C140.878 148.87 140.299 148.291 139.585 148.291C138.87 148.291 138.291 148.87 138.291 149.584C138.291 150.298 138.87 150.878 139.585 150.878Z" fill="white" fill-opacity="0.3"/>
<path d="M168.042 150.878C168.756 150.878 169.335 150.298 169.335 149.584C169.335 148.87 168.756 148.291 168.042 148.291C167.327 148.291 166.748 148.87 166.748 149.584C166.748 150.298 167.327 150.878 168.042 150.878Z" fill="white" fill-opacity="0.3"/>
<path d="M196.501 150.878C197.215 150.878 197.794 150.298 197.794 149.584C197.794 148.87 197.215 148.291 196.501 148.291C195.786 148.291 195.207 148.87 195.207 149.584C195.207 150.298 195.786 150.878 196.501 150.878Z" fill="white" fill-opacity="0.3"/>
<path d="M224.958 150.878C225.672 150.878 226.251 150.298 226.251 149.584C226.251 148.87 225.672 148.291 224.958 148.291C224.243 148.291 223.664 148.87 223.664 149.584C223.664 150.298 224.243 150.878 224.958 150.878Z" fill="white" fill-opacity="0.3"/>
<path d="M253.417 150.878C254.131 150.878 254.71 150.298 254.71 149.584C254.71 148.87 254.131 148.291 253.417 148.291C252.702 148.291 252.123 148.87 252.123 149.584C252.123 150.298 252.702 150.878 253.417 150.878Z" fill="white" fill-opacity="0.3"/>
<path d="M281.874 150.878C282.588 150.878 283.167 150.298 283.167 149.584C283.167 148.87 282.588 148.291 281.874 148.291C281.159 148.291 280.58 148.87 280.58 149.584C280.58 150.298 281.159 150.878 281.874 150.878Z" fill="white" fill-opacity="0.3"/>
<path d="M310.333 150.878C311.047 150.878 311.626 150.298 311.626 149.584C311.626 148.87 311.047 148.291 310.333 148.291C309.618 148.291 309.039 148.87 309.039 149.584C309.039 150.298 309.618 150.878 310.333 150.878Z" fill="white" fill-opacity="0.3"/>
<path d="M338.79 150.878C339.504 150.878 340.083 150.298 340.083 149.584C340.083 148.87 339.504 148.291 338.79 148.291C338.075 148.291 337.496 148.87 337.496 149.584C337.496 150.298 338.075 150.878 338.79 150.878Z" fill="white" fill-opacity="0.3"/>
<path d="M367.249 150.877C367.963 150.877 368.542 150.298 368.542 149.584C368.542 148.869 367.963 148.29 367.249 148.29C366.534 148.29 365.955 148.869 365.955 149.584C365.955 150.298 366.534 150.877 367.249 150.877Z" fill="white" fill-opacity="0.3"/>
<path d="M25.7525 179.336C26.4669 179.336 27.0461 178.756 27.0461 178.042C27.0461 177.328 26.4669 176.749 25.7525 176.749C25.0381 176.749 24.459 177.328 24.459 178.042C24.459 178.756 25.0381 179.336 25.7525 179.336Z" fill="white" fill-opacity="0.3"/>
<path d="M54.2096 179.336C54.924 179.336 55.5031 178.756 55.5031 178.042C55.5031 177.328 54.924 176.749 54.2096 176.749C53.4952 176.749 52.916 177.328 52.916 178.042C52.916 178.756 53.4952 179.336 54.2096 179.336Z" fill="white" fill-opacity="0.3"/>
<path d="M82.6685 179.336C83.383 179.336 83.9621 178.756 83.9621 178.042C83.9621 177.328 83.383 176.749 82.6685 176.749C81.9541 176.749 81.375 177.328 81.375 178.042C81.375 178.756 81.9541 179.336 82.6685 179.336Z" fill="white" fill-opacity="0.3"/>
<path d="M111.126 179.335C111.84 179.335 112.419 178.756 112.419 178.042C112.419 177.327 111.84 176.748 111.126 176.748C110.411 176.748 109.832 177.327 109.832 178.042C109.832 178.756 110.411 179.335 111.126 179.335Z" fill="white" fill-opacity="0.3"/>
<path d="M139.585 179.336C140.299 179.336 140.878 178.756 140.878 178.042C140.878 177.328 140.299 176.749 139.585 176.749C138.87 176.749 138.291 177.328 138.291 178.042C138.291 178.756 138.87 179.336 139.585 179.336Z" fill="white" fill-opacity="0.3"/>
<path d="M168.042 179.336C168.756 179.336 169.335 178.756 169.335 178.042C169.335 177.328 168.756 176.749 168.042 176.749C167.327 176.749 166.748 177.328 166.748 178.042C166.748 178.756 167.327 179.336 168.042 179.336Z" fill="white" fill-opacity="0.3"/>
<path d="M196.501 179.336C197.215 179.336 197.794 178.756 197.794 178.042C197.794 177.328 197.215 176.749 196.501 176.749C195.786 176.749 195.207 177.328 195.207 178.042C195.207 178.756 195.786 179.336 196.501 179.336Z" fill="white" fill-opacity="0.3"/>
<path d="M224.958 179.336C225.672 179.336 226.251 178.756 226.251 178.042C226.251 177.328 225.672 176.749 224.958 176.749C224.243 176.749 223.664 177.328 223.664 178.042C223.664 178.756 224.243 179.336 224.958 179.336Z" fill="white" fill-opacity="0.3"/>
<path d="M253.417 179.336C254.131 179.336 254.71 178.756 254.71 178.042C254.71 177.328 254.131 176.749 253.417 176.749C252.702 176.749 252.123 177.328 252.123 178.042C252.123 178.756 252.702 179.336 253.417 179.336Z" fill="white" fill-opacity="0.3"/>
<path d="M281.874 179.336C282.588 179.336 283.167 178.756 283.167 178.042C283.167 177.328 282.588 176.749 281.874 176.749C281.159 176.749 280.58 177.328 280.58 178.042C280.58 178.756 281.159 179.336 281.874 179.336Z" fill="white" fill-opacity="0.3"/>
<path d="M310.333 179.336C311.047 179.336 311.626 178.756 311.626 178.042C311.626 177.328 311.047 176.749 310.333 176.749C309.618 176.749 309.039 177.328 309.039 178.042C309.039 178.756 309.618 179.336 310.333 179.336Z" fill="white" fill-opacity="0.3"/>
<path d="M338.79 179.336C339.504 179.336 340.083 178.756 340.083 178.042C340.083 177.328 339.504 176.749 338.79 176.749C338.075 176.749 337.496 177.328 337.496 178.042C337.496 178.756 338.075 179.336 338.79 179.336Z" fill="white" fill-opacity="0.3"/>
<path d="M367.249 179.335C367.963 179.335 368.542 178.756 368.542 178.042C368.542 177.327 367.963 176.748 367.249 176.748C366.534 176.748 365.955 177.327 365.955 178.042C365.955 178.756 366.534 179.335 367.249 179.335Z" fill="white" fill-opacity="0.3"/>
<path d="M25.7525 207.794C26.4669 207.794 27.0461 207.214 27.0461 206.5C27.0461 205.786 26.4669 205.207 25.7525 205.207C25.0381 205.207 24.459 205.786 24.459 206.5C24.459 207.214 25.0381 207.794 25.7525 207.794Z" fill="white" fill-opacity="0.3"/>
<path d="M54.2096 207.794C54.924 207.794 55.5031 207.214 55.5031 206.5C55.5031 205.786 54.924 205.207 54.2096 205.207C53.4952 205.207 52.916 205.786 52.916 206.5C52.916 207.214 53.4952 207.794 54.2096 207.794Z" fill="white" fill-opacity="0.3"/>
<path d="M82.6685 207.794C83.383 207.794 83.9621 207.214 83.9621 206.5C83.9621 205.786 83.383 205.207 82.6685 205.207C81.9541 205.207 81.375 205.786 81.375 206.5C81.375 207.214 81.9541 207.794 82.6685 207.794Z" fill="white" fill-opacity="0.3"/>
<path d="M111.126 207.794C111.84 207.794 112.419 207.214 112.419 206.5C112.419 205.786 111.84 205.207 111.126 205.207C110.411 205.207 109.832 205.786 109.832 206.5C109.832 207.214 110.411 207.794 111.126 207.794Z" fill="white" fill-opacity="0.3"/>
<path d="M139.585 207.794C140.299 207.794 140.878 207.214 140.878 206.5C140.878 205.786 140.299 205.207 139.585 205.207C138.87 205.207 138.291 205.786 138.291 206.5C138.291 207.214 138.87 207.794 139.585 207.794Z" fill="white" fill-opacity="0.3"/>
<path d="M168.042 207.794C168.756 207.794 169.335 207.214 169.335 206.5C169.335 205.786 168.756 205.207 168.042 205.207C167.327 205.207 166.748 205.786 166.748 206.5C166.748 207.214 167.327 207.794 168.042 207.794Z" fill="white" fill-opacity="0.3"/>
<path d="M196.501 207.794C197.215 207.794 197.794 207.214 197.794 206.5C197.794 205.786 197.215 205.207 196.501 205.207C195.786 205.207 195.207 205.786 195.207 206.5C195.207 207.214 195.786 207.794 196.501 207.794Z" fill="white" fill-opacity="0.3"/>
<path d="M224.958 207.794C225.672 207.794 226.251 207.214 226.251 206.5C226.251 205.786 225.672 205.207 224.958 205.207C224.243 205.207 223.664 205.786 223.664 206.5C223.664 207.214 224.243 207.794 224.958 207.794Z" fill="white" fill-opacity="0.3"/>
<path d="M253.417 207.794C254.131 207.794 254.71 207.214 254.71 206.5C254.71 205.786 254.131 205.207 253.417 205.207C252.702 205.207 252.123 205.786 252.123 206.5C252.123 207.214 252.702 207.794 253.417 207.794Z" fill="white" fill-opacity="0.3"/>
<path d="M281.874 207.794C282.588 207.794 283.167 207.214 283.167 206.5C283.167 205.786 282.588 205.207 281.874 205.207C281.159 205.207 280.58 205.786 280.58 206.5C280.58 207.214 281.159 207.794 281.874 207.794Z" fill="white" fill-opacity="0.3"/>
<path d="M310.333 207.794C311.047 207.794 311.626 207.214 311.626 206.5C311.626 205.786 311.047 205.207 310.333 205.207C309.618 205.207 309.039 205.786 309.039 206.5C309.039 207.214 309.618 207.794 310.333 207.794Z" fill="white" fill-opacity="0.3"/>
<path d="M338.79 207.794C339.504 207.794 340.083 207.214 340.083 206.5C340.083 205.786 339.504 205.207 338.79 205.207C338.075 205.207 337.496 205.786 337.496 206.5C337.496 207.214 338.075 207.794 338.79 207.794Z" fill="white" fill-opacity="0.3"/>
<path d="M367.249 207.794C367.963 207.794 368.542 207.214 368.542 206.5C368.542 205.786 367.963 205.207 367.249 205.207C366.534 205.207 365.955 205.786 365.955 206.5C365.955 207.214 366.534 207.794 367.249 207.794Z" fill="white" fill-opacity="0.3"/>
<path d="M25.7525 236.252C26.4669 236.252 27.0461 235.673 27.0461 234.958C27.0461 234.244 26.4669 233.665 25.7525 233.665C25.0381 233.665 24.459 234.244 24.459 234.958C24.459 235.673 25.0381 236.252 25.7525 236.252Z" fill="white" fill-opacity="0.3"/>
<path d="M54.2096 236.252C54.924 236.252 55.5031 235.673 55.5031 234.958C55.5031 234.244 54.924 233.665 54.2096 233.665C53.4952 233.665 52.916 234.244 52.916 234.958C52.916 235.673 53.4952 236.252 54.2096 236.252Z" fill="white" fill-opacity="0.3"/>
<path d="M82.6685 236.252C83.383 236.252 83.9621 235.673 83.9621 234.958C83.9621 234.244 83.383 233.665 82.6685 233.665C81.9541 233.665 81.375 234.244 81.375 234.958C81.375 235.673 81.9541 236.252 82.6685 236.252Z" fill="white" fill-opacity="0.3"/>
<path d="M111.126 236.252C111.84 236.252 112.419 235.673 112.419 234.958C112.419 234.244 111.84 233.665 111.126 233.665C110.411 233.665 109.832 234.244 109.832 234.958C109.832 235.673 110.411 236.252 111.126 236.252Z" fill="white" fill-opacity="0.3"/>
<path d="M139.585 236.252C140.299 236.252 140.878 235.673 140.878 234.958C140.878 234.244 140.299 233.665 139.585 233.665C138.87 233.665 138.291 234.244 138.291 234.958C138.291 235.673 138.87 236.252 139.585 236.252Z" fill="white" fill-opacity="0.3"/>
<path d="M168.042 236.252C168.756 236.252 169.335 235.673 169.335 234.958C169.335 234.244 168.756 233.665 168.042 233.665C167.327 233.665 166.748 234.244 166.748 234.958C166.748 235.673 167.327 236.252 168.042 236.252Z" fill="white" fill-opacity="0.3"/>
<path d="M196.501 236.252C197.215 236.252 197.794 235.673 197.794 234.958C197.794 234.244 197.215 233.665 196.501 233.665C195.786 233.665 195.207 234.244 195.207 234.958C195.207 235.673 195.786 236.252 196.501 236.252Z" fill="white" fill-opacity="0.3"/>
<path d="M224.958 236.252C225.672 236.252 226.251 235.673 226.251 234.958C226.251 234.244 225.672 233.665 224.958 233.665C224.243 233.665 223.664 234.244 223.664 234.958C223.664 235.673 224.243 236.252 224.958 236.252Z" fill="white" fill-opacity="0.3"/>
<path d="M253.417 236.252C254.131 236.252 254.71 235.673 254.71 234.958C254.71 234.244 254.131 233.665 253.417 233.665C252.702 233.665 252.123 234.244 252.123 234.958C252.123 235.673 252.702 236.252 253.417 236.252Z" fill="white" fill-opacity="0.3"/>
<path d="M281.874 236.252C282.588 236.252 283.167 235.673 283.167 234.958C283.167 234.244 282.588 233.665 281.874 233.665C281.159 233.665 280.58 234.244 280.58 234.958C280.58 235.673 281.159 236.252 281.874 236.252Z" fill="white" fill-opacity="0.3"/>
<path d="M310.333 236.252C311.047 236.252 311.626 235.673 311.626 234.958C311.626 234.244 311.047 233.665 310.333 233.665C309.618 233.665 309.039 234.244 309.039 234.958C309.039 235.673 309.618 236.252 310.333 236.252Z" fill="white" fill-opacity="0.3"/>
<path d="M338.79 236.252C339.504 236.252 340.083 235.673 340.083 234.958C340.083 234.244 339.504 233.665 338.79 233.665C338.075 233.665 337.496 234.244 337.496 234.958C337.496 235.673 338.075 236.252 338.79 236.252Z" fill="white" fill-opacity="0.3"/>
<path d="M367.249 236.252C367.963 236.252 368.542 235.673 368.542 234.958C368.542 234.244 367.963 233.665 367.249 233.665C366.534 233.665 365.955 234.244 365.955 234.958C365.955 235.673 366.534 236.252 367.249 236.252Z" fill="white" fill-opacity="0.3"/>
<path d="M25.7525 264.71C26.4669 264.71 27.0461 264.131 27.0461 263.416C27.0461 262.702 26.4669 262.123 25.7525 262.123C25.0381 262.123 24.459 262.702 24.459 263.416C24.459 264.131 25.0381 264.71 25.7525 264.71Z" fill="white" fill-opacity="0.3"/>
<path d="M54.2096 264.71C54.924 264.71 55.5031 264.131 55.5031 263.416C55.5031 262.702 54.924 262.123 54.2096 262.123C53.4952 262.123 52.916 262.702 52.916 263.416C52.916 264.131 53.4952 264.71 54.2096 264.71Z" fill="white" fill-opacity="0.3"/>
<path d="M82.6685 264.71C83.383 264.71 83.9621 264.131 83.9621 263.416C83.9621 262.702 83.383 262.123 82.6685 262.123C81.9541 262.123 81.375 262.702 81.375 263.416C81.375 264.131 81.9541 264.71 82.6685 264.71Z" fill="white" fill-opacity="0.3"/>
<path d="M111.126 264.71C111.84 264.71 112.419 264.131 112.419 263.416C112.419 262.702 111.84 262.123 111.126 262.123C110.411 262.123 109.832 262.702 109.832 263.416C109.832 264.131 110.411 264.71 111.126 264.71Z" fill="white" fill-opacity="0.3"/>
<path d="M139.585 264.71C140.299 264.71 140.878 264.131 140.878 263.416C140.878 262.702 140.299 262.123 139.585 262.123C138.87 262.123 138.291 262.702 138.291 263.416C138.291 264.131 138.87 264.71 139.585 264.71Z" fill="white" fill-opacity="0.3"/>
<path d="M168.042 264.71C168.756 264.71 169.335 264.131 169.335 263.416C169.335 262.702 168.756 262.123 168.042 262.123C167.327 262.123 166.748 262.702 166.748 263.416C166.748 264.131 167.327 264.71 168.042 264.71Z" fill="white" fill-opacity="0.3"/>
<path d="M196.501 264.71C197.215 264.71 197.794 264.131 197.794 263.416C197.794 262.702 197.215 262.123 196.501 262.123C195.786 262.123 195.207 262.702 195.207 263.416C195.207 264.131 195.786 264.71 196.501 264.71Z" fill="white" fill-opacity="0.3"/>
<path d="M224.958 264.71C225.672 264.71 226.251 264.131 226.251 263.416C226.251 262.702 225.672 262.123 224.958 262.123C224.243 262.123 223.664 262.702 223.664 263.416C223.664 264.131 224.243 264.71 224.958 264.71Z" fill="white" fill-opacity="0.3"/>
<path d="M253.417 264.71C254.131 264.71 254.71 264.131 254.71 263.416C254.71 262.702 254.131 262.123 253.417 262.123C252.702 262.123 252.123 262.702 252.123 263.416C252.123 264.131 252.702 264.71 253.417 264.71Z" fill="white" fill-opacity="0.3"/>
<path d="M281.874 264.71C282.588 264.71 283.167 264.131 283.167 263.416C283.167 262.702 282.588 262.123 281.874 262.123C281.159 262.123 280.58 262.702 280.58 263.416C280.58 264.131 281.159 264.71 281.874 264.71Z" fill="white" fill-opacity="0.3"/>
<path d="M310.333 264.71C311.047 264.71 311.626 264.131 311.626 263.416C311.626 262.702 311.047 262.123 310.333 262.123C309.618 262.123 309.039 262.702 309.039 263.416C309.039 264.131 309.618 264.71 310.333 264.71Z" fill="white" fill-opacity="0.3"/>
<path d="M338.79 264.71C339.504 264.71 340.083 264.131 340.083 263.416C340.083 262.702 339.504 262.123 338.79 262.123C338.075 262.123 337.496 262.702 337.496 263.416C337.496 264.131 338.075 264.71 338.79 264.71Z" fill="white" fill-opacity="0.3"/>
<path d="M367.249 264.71C367.963 264.71 368.542 264.131 368.542 263.416C368.542 262.702 367.963 262.123 367.249 262.123C366.534 262.123 365.955 262.702 365.955 263.416C365.955 264.131 366.534 264.71 367.249 264.71Z" fill="white" fill-opacity="0.3"/>
<path d="M25.7525 293.168C26.4669 293.168 27.0461 292.589 27.0461 291.874C27.0461 291.16 26.4669 290.581 25.7525 290.581C25.0381 290.581 24.459 291.16 24.459 291.874C24.459 292.589 25.0381 293.168 25.7525 293.168Z" fill="white" fill-opacity="0.3"/>
<path d="M54.2096 293.168C54.924 293.168 55.5031 292.589 55.5031 291.874C55.5031 291.16 54.924 290.581 54.2096 290.581C53.4952 290.581 52.916 291.16 52.916 291.874C52.916 292.589 53.4952 293.168 54.2096 293.168Z" fill="white" fill-opacity="0.3"/>
<path d="M82.6685 293.168C83.383 293.168 83.9621 292.589 83.9621 291.874C83.9621 291.16 83.383 290.581 82.6685 290.581C81.9541 290.581 81.375 291.16 81.375 291.874C81.375 292.589 81.9541 293.168 82.6685 293.168Z" fill="white" fill-opacity="0.3"/>
<path d="M111.126 293.168C111.84 293.168 112.419 292.589 112.419 291.874C112.419 291.16 111.84 290.581 111.126 290.581C110.411 290.581 109.832 291.16 109.832 291.874C109.832 292.589 110.411 293.168 111.126 293.168Z" fill="white" fill-opacity="0.3"/>
<path d="M139.585 293.168C140.299 293.168 140.878 292.589 140.878 291.874C140.878 291.16 140.299 290.581 139.585 290.581C138.87 290.581 138.291 291.16 138.291 291.874C138.291 292.589 138.87 293.168 139.585 293.168Z" fill="white" fill-opacity="0.3"/>
<path d="M168.042 293.168C168.756 293.168 169.335 292.589 169.335 291.874C169.335 291.16 168.756 290.581 168.042 290.581C167.327 290.581 166.748 291.16 166.748 291.874C166.748 292.589 167.327 293.168 168.042 293.168Z" fill="white" fill-opacity="0.3"/>
<path d="M196.501 293.168C197.215 293.168 197.794 292.589 197.794 291.874C197.794 291.16 197.215 290.581 196.501 290.581C195.786 290.581 195.207 291.16 195.207 291.874C195.207 292.589 195.786 293.168 196.501 293.168Z" fill="white" fill-opacity="0.3"/>
<path d="M224.958 293.168C225.672 293.168 226.251 292.589 226.251 291.874C226.251 291.16 225.672 290.581 224.958 290.581C224.243 290.581 223.664 291.16 223.664 291.874C223.664 292.589 224.243 293.168 224.958 293.168Z" fill="white" fill-opacity="0.3"/>
<path d="M253.417 293.168C254.131 293.168 254.71 292.589 254.71 291.874C254.71 291.16 254.131 290.581 253.417 290.581C252.702 290.581 252.123 291.16 252.123 291.874C252.123 292.589 252.702 293.168 253.417 293.168Z" fill="white" fill-opacity="0.3"/>
<path d="M281.874 293.168C282.588 293.168 283.167 292.589 283.167 291.874C283.167 291.16 282.588 290.581 281.874 290.581C281.159 290.581 280.58 291.16 280.58 291.874C280.58 292.589 281.159 293.168 281.874 293.168Z" fill="white" fill-opacity="0.3"/>
<path d="M310.333 293.168C311.047 293.168 311.626 292.589 311.626 291.874C311.626 291.16 311.047 290.581 310.333 290.581C309.618 290.581 309.039 291.16 309.039 291.874C309.039 292.589 309.618 293.168 310.333 293.168Z" fill="white" fill-opacity="0.3"/>
<path d="M338.79 293.168C339.504 293.168 340.083 292.589 340.083 291.874C340.083 291.16 339.504 290.581 338.79 290.581C338.075 290.581 337.496 291.16 337.496 291.874C337.496 292.589 338.075 293.168 338.79 293.168Z" fill="white" fill-opacity="0.3"/>
<path d="M367.249 293.168C367.963 293.168 368.542 292.589 368.542 291.874C368.542 291.16 367.963 290.581 367.249 290.581C366.534 290.581 365.955 291.16 365.955 291.874C365.955 292.589 366.534 293.168 367.249 293.168Z" fill="white" fill-opacity="0.3"/>
<path d="M25.7525 321.626C26.4669 321.626 27.0461 321.047 27.0461 320.332C27.0461 319.618 26.4669 319.039 25.7525 319.039C25.0381 319.039 24.459 319.618 24.459 320.332C24.459 321.047 25.0381 321.626 25.7525 321.626Z" fill="white" fill-opacity="0.3"/>
<path d="M54.2096 321.626C54.924 321.626 55.5031 321.047 55.5031 320.332C55.5031 319.618 54.924 319.039 54.2096 319.039C53.4952 319.039 52.916 319.618 52.916 320.332C52.916 321.047 53.4952 321.626 54.2096 321.626Z" fill="white" fill-opacity="0.3"/>
<path d="M82.6685 321.626C83.383 321.626 83.9621 321.047 83.9621 320.332C83.9621 319.618 83.383 319.039 82.6685 319.039C81.9541 319.039 81.375 319.618 81.375 320.332C81.375 321.047 81.9541 321.626 82.6685 321.626Z" fill="white" fill-opacity="0.3"/>
<path d="M111.126 321.626C111.84 321.626 112.419 321.047 112.419 320.332C112.419 319.618 111.84 319.039 111.126 319.039C110.411 319.039 109.832 319.618 109.832 320.332C109.832 321.047 110.411 321.626 111.126 321.626Z" fill="white" fill-opacity="0.3"/>
<path d="M139.585 321.626C140.299 321.626 140.878 321.047 140.878 320.332C140.878 319.618 140.299 319.039 139.585 319.039C138.87 319.039 138.291 319.618 138.291 320.332C138.291 321.047 138.87 321.626 139.585 321.626Z" fill="white" fill-opacity="0.3"/>
<path d="M168.042 321.626C168.756 321.626 169.335 321.047 169.335 320.332C169.335 319.618 168.756 319.039 168.042 319.039C167.327 319.039 166.748 319.618 166.748 320.332C166.748 321.047 167.327 321.626 168.042 321.626Z" fill="white" fill-opacity="0.3"/>
<path d="M196.501 321.626C197.215 321.626 197.794 321.047 197.794 320.332C197.794 319.618 197.215 319.039 196.501 319.039C195.786 319.039 195.207 319.618 195.207 320.332C195.207 321.047 195.786 321.626 196.501 321.626Z" fill="white" fill-opacity="0.3"/>
<path d="M224.958 321.626C225.672 321.626 226.251 321.047 226.251 320.332C226.251 319.618 225.672 319.039 224.958 319.039C224.243 319.039 223.664 319.618 223.664 320.332C223.664 321.047 224.243 321.626 224.958 321.626Z" fill="white" fill-opacity="0.3"/>
<path d="M253.417 321.626C254.131 321.626 254.71 321.047 254.71 320.332C254.71 319.618 254.131 319.039 253.417 319.039C252.702 319.039 252.123 319.618 252.123 320.332C252.123 321.047 252.702 321.626 253.417 321.626Z" fill="white" fill-opacity="0.3"/>
<path d="M281.874 321.626C282.588 321.626 283.167 321.047 283.167 320.332C283.167 319.618 282.588 319.039 281.874 319.039C281.159 319.039 280.58 319.618 280.58 320.332C280.58 321.047 281.159 321.626 281.874 321.626Z" fill="white" fill-opacity="0.3"/>
<path d="M310.333 321.626C311.047 321.626 311.626 321.047 311.626 320.332C311.626 319.618 311.047 319.039 310.333 319.039C309.618 319.039 309.039 319.618 309.039 320.332C309.039 321.047 309.618 321.626 310.333 321.626Z" fill="white" fill-opacity="0.3"/>
<path d="M338.79 321.626C339.504 321.626 340.083 321.047 340.083 320.332C340.083 319.618 339.504 319.039 338.79 319.039C338.075 319.039 337.496 319.618 337.496 320.332C337.496 321.047 338.075 321.626 338.79 321.626Z" fill="white" fill-opacity="0.3"/>
<path d="M367.249 321.626C367.963 321.626 368.542 321.047 368.542 320.332C368.542 319.618 367.963 319.039 367.249 319.039C366.534 319.039 365.955 319.618 365.955 320.332C365.955 321.047 366.534 321.626 367.249 321.626Z" fill="white" fill-opacity="0.3"/>
<path d="M25.7525 350.084C26.4669 350.084 27.0461 349.505 27.0461 348.79C27.0461 348.076 26.4669 347.497 25.7525 347.497C25.0381 347.497 24.459 348.076 24.459 348.79C24.459 349.505 25.0381 350.084 25.7525 350.084Z" fill="white" fill-opacity="0.3"/>
<path d="M54.2096 350.084C54.924 350.084 55.5031 349.505 55.5031 348.79C55.5031 348.076 54.924 347.497 54.2096 347.497C53.4952 347.497 52.916 348.076 52.916 348.79C52.916 349.505 53.4952 350.084 54.2096 350.084Z" fill="white" fill-opacity="0.3"/>
<path d="M82.6685 350.084C83.383 350.084 83.9621 349.505 83.9621 348.79C83.9621 348.076 83.383 347.497 82.6685 347.497C81.9541 347.497 81.375 348.076 81.375 348.79C81.375 349.505 81.9541 350.084 82.6685 350.084Z" fill="white" fill-opacity="0.3"/>
<path d="M111.126 350.084C111.84 350.084 112.419 349.505 112.419 348.791C112.419 348.076 111.84 347.497 111.126 347.497C110.411 347.497 109.832 348.076 109.832 348.791C109.832 349.505 110.411 350.084 111.126 350.084Z" fill="white" fill-opacity="0.3"/>
<path d="M139.585 350.084C140.299 350.084 140.878 349.505 140.878 348.79C140.878 348.076 140.299 347.497 139.585 347.497C138.87 347.497 138.291 348.076 138.291 348.79C138.291 349.505 138.87 350.084 139.585 350.084Z" fill="white" fill-opacity="0.3"/>
<path d="M168.042 350.084C168.756 350.084 169.335 349.505 169.335 348.79C169.335 348.076 168.756 347.497 168.042 347.497C167.327 347.497 166.748 348.076 166.748 348.79C166.748 349.505 167.327 350.084 168.042 350.084Z" fill="white" fill-opacity="0.3"/>
<path d="M196.501 350.084C197.215 350.084 197.794 349.505 197.794 348.79C197.794 348.076 197.215 347.497 196.501 347.497C195.786 347.497 195.207 348.076 195.207 348.79C195.207 349.505 195.786 350.084 196.501 350.084Z" fill="white" fill-opacity="0.3"/>
<path d="M224.958 350.084C225.672 350.084 226.251 349.505 226.251 348.79C226.251 348.076 225.672 347.497 224.958 347.497C224.243 347.497 223.664 348.076 223.664 348.79C223.664 349.505 224.243 350.084 224.958 350.084Z" fill="white" fill-opacity="0.3"/>
<path d="M253.417 350.084C254.131 350.084 254.71 349.505 254.71 348.79C254.71 348.076 254.131 347.497 253.417 347.497C252.702 347.497 252.123 348.076 252.123 348.79C252.123 349.505 252.702 350.084 253.417 350.084Z" fill="white" fill-opacity="0.3"/>
<path d="M281.874 350.084C282.588 350.084 283.167 349.505 283.167 348.79C283.167 348.076 282.588 347.497 281.874 347.497C281.159 347.497 280.58 348.076 280.58 348.79C280.58 349.505 281.159 350.084 281.874 350.084Z" fill="white" fill-opacity="0.3"/>
<path d="M310.333 350.084C311.047 350.084 311.626 349.505 311.626 348.79C311.626 348.076 311.047 347.497 310.333 347.497C309.618 347.497 309.039 348.076 309.039 348.79C309.039 349.505 309.618 350.084 310.333 350.084Z" fill="white" fill-opacity="0.3"/>
<path d="M338.79 350.084C339.504 350.084 340.083 349.505 340.083 348.79C340.083 348.076 339.504 347.497 338.79 347.497C338.075 347.497 337.496 348.076 337.496 348.79C337.496 349.505 338.075 350.084 338.79 350.084Z" fill="white" fill-opacity="0.3"/>
<path d="M367.249 350.084C367.963 350.084 368.542 349.505 368.542 348.791C368.542 348.076 367.963 347.497 367.249 347.497C366.534 347.497 365.955 348.076 365.955 348.791C365.955 349.505 366.534 350.084 367.249 350.084Z" fill="white" fill-opacity="0.3"/>
<path d="M25.7525 378.542C26.4669 378.542 27.0461 377.963 27.0461 377.249C27.0461 376.534 26.4669 375.955 25.7525 375.955C25.0381 375.955 24.459 376.534 24.459 377.249C24.459 377.963 25.0381 378.542 25.7525 378.542Z" fill="white" fill-opacity="0.3"/>
<path d="M54.2096 378.542C54.924 378.542 55.5031 377.963 55.5031 377.249C55.5031 376.534 54.924 375.955 54.2096 375.955C53.4952 375.955 52.916 376.534 52.916 377.249C52.916 377.963 53.4952 378.542 54.2096 378.542Z" fill="white" fill-opacity="0.3"/>
<path d="M82.6685 378.542C83.383 378.542 83.9621 377.963 83.9621 377.249C83.9621 376.534 83.383 375.955 82.6685 375.955C81.9541 375.955 81.375 376.534 81.375 377.249C81.375 377.963 81.9541 378.542 82.6685 378.542Z" fill="white" fill-opacity="0.3"/>
<path d="M111.126 378.542C111.84 378.542 112.419 377.963 112.419 377.249C112.419 376.534 111.84 375.955 111.126 375.955C110.411 375.955 109.832 376.534 109.832 377.249C109.832 377.963 110.411 378.542 111.126 378.542Z" fill="white" fill-opacity="0.3"/>
<path d="M139.585 378.542C140.299 378.542 140.878 377.963 140.878 377.249C140.878 376.534 140.299 375.955 139.585 375.955C138.87 375.955 138.291 376.534 138.291 377.249C138.291 377.963 138.87 378.542 139.585 378.542Z" fill="white" fill-opacity="0.3"/>
<path d="M168.042 378.542C168.756 378.542 169.335 377.963 169.335 377.249C169.335 376.534 168.756 375.955 168.042 375.955C167.327 375.955 166.748 376.534 166.748 377.249C166.748 377.963 167.327 378.542 168.042 378.542Z" fill="white" fill-opacity="0.3"/>
<path d="M196.501 378.542C197.215 378.542 197.794 377.963 197.794 377.249C197.794 376.534 197.215 375.955 196.501 375.955C195.786 375.955 195.207 376.534 195.207 377.249C195.207 377.963 195.786 378.542 196.501 378.542Z" fill="white" fill-opacity="0.3"/>
<path d="M224.958 378.542C225.672 378.542 226.251 377.963 226.251 377.249C226.251 376.534 225.672 375.955 224.958 375.955C224.243 375.955 223.664 376.534 223.664 377.249C223.664 377.963 224.243 378.542 224.958 378.542Z" fill="white" fill-opacity="0.3"/>
<path d="M253.417 378.542C254.131 378.542 254.71 377.963 254.71 377.249C254.71 376.534 254.131 375.955 253.417 375.955C252.702 375.955 252.123 376.534 252.123 377.249C252.123 377.963 252.702 378.542 253.417 378.542Z" fill="white" fill-opacity="0.3"/>
<path d="M281.874 378.542C282.588 378.542 283.167 377.963 283.167 377.249C283.167 376.534 282.588 375.955 281.874 375.955C281.159 375.955 280.58 376.534 280.58 377.249C280.58 377.963 281.159 378.542 281.874 378.542Z" fill="white" fill-opacity="0.3"/>
<path d="M310.333 378.542C311.047 378.542 311.626 377.963 311.626 377.249C311.626 376.534 311.047 375.955 310.333 375.955C309.618 375.955 309.039 376.534 309.039 377.249C309.039 377.963 309.618 378.542 310.333 378.542Z" fill="white" fill-opacity="0.3"/>
<path d="M338.79 378.542C339.504 378.542 340.083 377.963 340.083 377.249C340.083 376.534 339.504 375.955 338.79 375.955C338.075 375.955 337.496 376.534 337.496 377.249C337.496 377.963 338.075 378.542 338.79 378.542Z" fill="white" fill-opacity="0.3"/>
<path d="M367.249 378.542C367.963 378.542 368.542 377.963 368.542 377.249C368.542 376.534 367.963 375.955 367.249 375.955C366.534 375.955 365.955 376.534 365.955 377.249C365.955 377.963 366.534 378.542 367.249 378.542Z" fill="white" fill-opacity="0.3"/>
<path d="M25.7525 407C26.4669 407 27.0461 406.421 27.0461 405.707C27.0461 404.992 26.4669 404.413 25.7525 404.413C25.0381 404.413 24.459 404.992 24.459 405.707C24.459 406.421 25.0381 407 25.7525 407Z" fill="white" fill-opacity="0.3"/>
<path d="M54.2096 407C54.924 407 55.5031 406.421 55.5031 405.707C55.5031 404.992 54.924 404.413 54.2096 404.413C53.4952 404.413 52.916 404.992 52.916 405.707C52.916 406.421 53.4952 407 54.2096 407Z" fill="white" fill-opacity="0.3"/>
<path d="M82.6685 407C83.383 407 83.9621 406.421 83.9621 405.707C83.9621 404.992 83.383 404.413 82.6685 404.413C81.9541 404.413 81.375 404.992 81.375 405.707C81.375 406.421 81.9541 407 82.6685 407Z" fill="white" fill-opacity="0.3"/>
<path d="M111.126 407C111.84 407 112.419 406.421 112.419 405.707C112.419 404.992 111.84 404.413 111.126 404.413C110.411 404.413 109.832 404.992 109.832 405.707C109.832 406.421 110.411 407 111.126 407Z" fill="white" fill-opacity="0.3"/>
<path d="M139.585 407C140.299 407 140.878 406.421 140.878 405.707C140.878 404.992 140.299 404.413 139.585 404.413C138.87 404.413 138.291 404.992 138.291 405.707C138.291 406.421 138.87 407 139.585 407Z" fill="white" fill-opacity="0.3"/>
<path d="M168.042 407C168.756 407 169.335 406.421 169.335 405.707C169.335 404.992 168.756 404.413 168.042 404.413C167.327 404.413 166.748 404.992 166.748 405.707C166.748 406.421 167.327 407 168.042 407Z" fill="white" fill-opacity="0.3"/>
<path d="M196.501 407C197.215 407 197.794 406.421 197.794 405.707C197.794 404.992 197.215 404.413 196.501 404.413C195.786 404.413 195.207 404.992 195.207 405.707C195.207 406.421 195.786 407 196.501 407Z" fill="white" fill-opacity="0.3"/>
<path d="M224.958 407C225.672 407 226.251 406.421 226.251 405.707C226.251 404.992 225.672 404.413 224.958 404.413C224.243 404.413 223.664 404.992 223.664 405.707C223.664 406.421 224.243 407 224.958 407Z" fill="white" fill-opacity="0.3"/>
<path d="M253.417 407C254.131 407 254.71 406.421 254.71 405.707C254.71 404.992 254.131 404.413 253.417 404.413C252.702 404.413 252.123 404.992 252.123 405.707C252.123 406.421 252.702 407 253.417 407Z" fill="white" fill-opacity="0.3"/>
<path d="M281.874 407C282.588 407 283.167 406.421 283.167 405.707C283.167 404.992 282.588 404.413 281.874 404.413C281.159 404.413 280.58 404.992 280.58 405.707C280.58 406.421 281.159 407 281.874 407Z" fill="white" fill-opacity="0.3"/>
<path d="M310.333 407C311.047 407 311.626 406.421 311.626 405.707C311.626 404.992 311.047 404.413 310.333 404.413C309.618 404.413 309.039 404.992 309.039 405.707C309.039 406.421 309.618 407 310.333 407Z" fill="white" fill-opacity="0.3"/>
<path d="M338.79 407C339.504 407 340.083 406.421 340.083 405.707C340.083 404.992 339.504 404.413 338.79 404.413C338.075 404.413 337.496 404.992 337.496 405.707C337.496 406.421 338.075 407 338.79 407Z" fill="white" fill-opacity="0.3"/>
<path d="M367.249 407C367.963 407 368.542 406.421 368.542 405.707C368.542 404.992 367.963 404.413 367.249 404.413C366.534 404.413 365.955 404.992 365.955 405.707C365.955 406.421 366.534 407 367.249 407Z" fill="white" fill-opacity="0.3"/>
<path d="M25.7525 435.458C26.4669 435.458 27.0461 434.879 27.0461 434.165C27.0461 433.45 26.4669 432.871 25.7525 432.871C25.0381 432.871 24.459 433.45 24.459 434.165C24.459 434.879 25.0381 435.458 25.7525 435.458Z" fill="white" fill-opacity="0.3"/>
<path d="M54.2096 435.458C54.924 435.458 55.5031 434.879 55.5031 434.165C55.5031 433.45 54.924 432.871 54.2096 432.871C53.4952 432.871 52.916 433.45 52.916 434.165C52.916 434.879 53.4952 435.458 54.2096 435.458Z" fill="white" fill-opacity="0.3"/>
<path d="M82.6685 435.458C83.383 435.458 83.9621 434.879 83.9621 434.165C83.9621 433.45 83.383 432.871 82.6685 432.871C81.9541 432.871 81.375 433.45 81.375 434.165C81.375 434.879 81.9541 435.458 82.6685 435.458Z" fill="white" fill-opacity="0.3"/>
<path d="M111.126 435.458C111.84 435.458 112.419 434.879 112.419 434.165C112.419 433.45 111.84 432.871 111.126 432.871C110.411 432.871 109.832 433.45 109.832 434.165C109.832 434.879 110.411 435.458 111.126 435.458Z" fill="white" fill-opacity="0.3"/>
<path d="M139.585 435.458C140.299 435.458 140.878 434.879 140.878 434.165C140.878 433.45 140.299 432.871 139.585 432.871C138.87 432.871 138.291 433.45 138.291 434.165C138.291 434.879 138.87 435.458 139.585 435.458Z" fill="white" fill-opacity="0.3"/>
<path d="M168.042 435.458C168.756 435.458 169.335 434.879 169.335 434.165C169.335 433.45 168.756 432.871 168.042 432.871C167.327 432.871 166.748 433.45 166.748 434.165C166.748 434.879 167.327 435.458 168.042 435.458Z" fill="white" fill-opacity="0.3"/>
<path d="M196.501 435.458C197.215 435.458 197.794 434.879 197.794 434.165C197.794 433.45 197.215 432.871 196.501 432.871C195.786 432.871 195.207 433.45 195.207 434.165C195.207 434.879 195.786 435.458 196.501 435.458Z" fill="white" fill-opacity="0.3"/>
<path d="M224.958 435.458C225.672 435.458 226.251 434.879 226.251 434.165C226.251 433.45 225.672 432.871 224.958 432.871C224.243 432.871 223.664 433.45 223.664 434.165C223.664 434.879 224.243 435.458 224.958 435.458Z" fill="white" fill-opacity="0.3"/>
<path d="M253.417 435.458C254.131 435.458 254.71 434.879 254.71 434.165C254.71 433.45 254.131 432.871 253.417 432.871C252.702 432.871 252.123 433.45 252.123 434.165C252.123 434.879 252.702 435.458 253.417 435.458Z" fill="white" fill-opacity="0.3"/>
<path d="M281.874 435.458C282.588 435.458 283.167 434.879 283.167 434.165C283.167 433.45 282.588 432.871 281.874 432.871C281.159 432.871 280.58 433.45 280.58 434.165C280.58 434.879 281.159 435.458 281.874 435.458Z" fill="white" fill-opacity="0.3"/>
<path d="M310.333 435.458C311.047 435.458 311.626 434.879 311.626 434.165C311.626 433.45 311.047 432.871 310.333 432.871C309.618 432.871 309.039 433.45 309.039 434.165C309.039 434.879 309.618 435.458 310.333 435.458Z" fill="white" fill-opacity="0.3"/>
<path d="M338.79 435.458C339.504 435.458 340.083 434.879 340.083 434.165C340.083 433.45 339.504 432.871 338.79 432.871C338.075 432.871 337.496 433.45 337.496 434.165C337.496 434.879 338.075 435.458 338.79 435.458Z" fill="white" fill-opacity="0.3"/>
<path d="M367.249 435.458C367.963 435.458 368.542 434.879 368.542 434.165C368.542 433.45 367.963 432.871 367.249 432.871C366.534 432.871 365.955 433.45 365.955 434.165C365.955 434.879 366.534 435.458 367.249 435.458Z" fill="white" fill-opacity="0.3"/>
<path d="M25.7525 463.916C26.4669 463.916 27.0461 463.337 27.0461 462.623C27.0461 461.908 26.4669 461.329 25.7525 461.329C25.0381 461.329 24.459 461.908 24.459 462.623C24.459 463.337 25.0381 463.916 25.7525 463.916Z" fill="white" fill-opacity="0.3"/>
<path d="M54.2096 463.916C54.924 463.916 55.5031 463.337 55.5031 462.623C55.5031 461.908 54.924 461.329 54.2096 461.329C53.4952 461.329 52.916 461.908 52.916 462.623C52.916 463.337 53.4952 463.916 54.2096 463.916Z" fill="white" fill-opacity="0.3"/>
<path d="M82.6685 463.916C83.383 463.916 83.9621 463.337 83.9621 462.623C83.9621 461.908 83.383 461.329 82.6685 461.329C81.9541 461.329 81.375 461.908 81.375 462.623C81.375 463.337 81.9541 463.916 82.6685 463.916Z" fill="white" fill-opacity="0.3"/>
<path d="M111.126 463.916C111.84 463.916 112.419 463.337 112.419 462.623C112.419 461.908 111.84 461.329 111.126 461.329C110.411 461.329 109.832 461.908 109.832 462.623C109.832 463.337 110.411 463.916 111.126 463.916Z" fill="white" fill-opacity="0.3"/>
<path d="M139.585 463.916C140.299 463.916 140.878 463.337 140.878 462.623C140.878 461.908 140.299 461.329 139.585 461.329C138.87 461.329 138.291 461.908 138.291 462.623C138.291 463.337 138.87 463.916 139.585 463.916Z" fill="white" fill-opacity="0.3"/>
<path d="M168.042 463.916C168.756 463.916 169.335 463.337 169.335 462.623C169.335 461.908 168.756 461.329 168.042 461.329C167.327 461.329 166.748 461.908 166.748 462.623C166.748 463.337 167.327 463.916 168.042 463.916Z" fill="white" fill-opacity="0.3"/>
<path d="M196.501 463.916C197.215 463.916 197.794 463.337 197.794 462.623C197.794 461.908 197.215 461.329 196.501 461.329C195.786 461.329 195.207 461.908 195.207 462.623C195.207 463.337 195.786 463.916 196.501 463.916Z" fill="white" fill-opacity="0.3"/>
<path d="M224.958 463.916C225.672 463.916 226.251 463.337 226.251 462.623C226.251 461.908 225.672 461.329 224.958 461.329C224.243 461.329 223.664 461.908 223.664 462.623C223.664 463.337 224.243 463.916 224.958 463.916Z" fill="white" fill-opacity="0.3"/>
<path d="M253.417 463.916C254.131 463.916 254.71 463.337 254.71 462.623C254.71 461.908 254.131 461.329 253.417 461.329C252.702 461.329 252.123 461.908 252.123 462.623C252.123 463.337 252.702 463.916 253.417 463.916Z" fill="white" fill-opacity="0.3"/>
<path d="M281.874 463.916C282.588 463.916 283.167 463.337 283.167 462.623C283.167 461.908 282.588 461.329 281.874 461.329C281.159 461.329 280.58 461.908 280.58 462.623C280.58 463.337 281.159 463.916 281.874 463.916Z" fill="white" fill-opacity="0.3"/>
<path d="M310.333 463.916C311.047 463.916 311.626 463.337 311.626 462.623C311.626 461.908 311.047 461.329 310.333 461.329C309.618 461.329 309.039 461.908 309.039 462.623C309.039 463.337 309.618 463.916 310.333 463.916Z" fill="white" fill-opacity="0.3"/>
<path d="M338.79 463.916C339.504 463.916 340.083 463.337 340.083 462.623C340.083 461.908 339.504 461.329 338.79 461.329C338.075 461.329 337.496 461.908 337.496 462.623C337.496 463.337 338.075 463.916 338.79 463.916Z" fill="white" fill-opacity="0.3"/>
<path d="M367.249 463.916C367.963 463.916 368.542 463.337 368.542 462.623C368.542 461.908 367.963 461.329 367.249 461.329C366.534 461.329 365.955 461.908 365.955 462.623C365.955 463.337 366.534 463.916 367.249 463.916Z" fill="white" fill-opacity="0.3"/>
<path d="M25.7525 492.374C26.4669 492.374 27.0461 491.795 27.0461 491.081C27.0461 490.366 26.4669 489.787 25.7525 489.787C25.0381 489.787 24.459 490.366 24.459 491.081C24.459 491.795 25.0381 492.374 25.7525 492.374Z" fill="white" fill-opacity="0.3"/>
<path d="M54.2096 492.374C54.924 492.374 55.5031 491.795 55.5031 491.081C55.5031 490.366 54.924 489.787 54.2096 489.787C53.4952 489.787 52.916 490.366 52.916 491.081C52.916 491.795 53.4952 492.374 54.2096 492.374Z" fill="white" fill-opacity="0.3"/>
<path d="M82.6685 492.374C83.383 492.374 83.9621 491.795 83.9621 491.081C83.9621 490.366 83.383 489.787 82.6685 489.787C81.9541 489.787 81.375 490.366 81.375 491.081C81.375 491.795 81.9541 492.374 82.6685 492.374Z" fill="white" fill-opacity="0.3"/>
<path d="M111.126 492.374C111.84 492.374 112.419 491.795 112.419 491.081C112.419 490.366 111.84 489.787 111.126 489.787C110.411 489.787 109.832 490.366 109.832 491.081C109.832 491.795 110.411 492.374 111.126 492.374Z" fill="white" fill-opacity="0.3"/>
<path d="M139.585 492.374C140.299 492.374 140.878 491.795 140.878 491.081C140.878 490.366 140.299 489.787 139.585 489.787C138.87 489.787 138.291 490.366 138.291 491.081C138.291 491.795 138.87 492.374 139.585 492.374Z" fill="white" fill-opacity="0.3"/>
<path d="M168.042 492.374C168.756 492.374 169.335 491.795 169.335 491.081C169.335 490.366 168.756 489.787 168.042 489.787C167.327 489.787 166.748 490.366 166.748 491.081C166.748 491.795 167.327 492.374 168.042 492.374Z" fill="white" fill-opacity="0.3"/>
<path d="M196.501 492.374C197.215 492.374 197.794 491.795 197.794 491.081C197.794 490.366 197.215 489.787 196.501 489.787C195.786 489.787 195.207 490.366 195.207 491.081C195.207 491.795 195.786 492.374 196.501 492.374Z" fill="white" fill-opacity="0.3"/>
<path d="M224.958 492.374C225.672 492.374 226.251 491.795 226.251 491.081C226.251 490.366 225.672 489.787 224.958 489.787C224.243 489.787 223.664 490.366 223.664 491.081C223.664 491.795 224.243 492.374 224.958 492.374Z" fill="white" fill-opacity="0.3"/>
<path d="M253.417 492.374C254.131 492.374 254.71 491.795 254.71 491.081C254.71 490.366 254.131 489.787 253.417 489.787C252.702 489.787 252.123 490.366 252.123 491.081C252.123 491.795 252.702 492.374 253.417 492.374Z" fill="white" fill-opacity="0.3"/>
<path d="M281.874 492.374C282.588 492.374 283.167 491.795 283.167 491.081C283.167 490.366 282.588 489.787 281.874 489.787C281.159 489.787 280.58 490.366 280.58 491.081C280.58 491.795 281.159 492.374 281.874 492.374Z" fill="white" fill-opacity="0.3"/>
<path d="M310.333 492.374C311.047 492.374 311.626 491.795 311.626 491.081C311.626 490.366 311.047 489.787 310.333 489.787C309.618 489.787 309.039 490.366 309.039 491.081C309.039 491.795 309.618 492.374 310.333 492.374Z" fill="white" fill-opacity="0.3"/>
<path d="M338.79 492.374C339.504 492.374 340.083 491.795 340.083 491.081C340.083 490.366 339.504 489.787 338.79 489.787C338.075 489.787 337.496 490.366 337.496 491.081C337.496 491.795 338.075 492.374 338.79 492.374Z" fill="white" fill-opacity="0.3"/>
<path d="M367.249 492.374C367.963 492.374 368.542 491.795 368.542 491.081C368.542 490.366 367.963 489.787 367.249 489.787C366.534 489.787 365.955 490.366 365.955 491.081C365.955 491.795 366.534 492.374 367.249 492.374Z" fill="white" fill-opacity="0.3"/>
<path d="M25.7525 520.832C26.4669 520.832 27.0461 520.253 27.0461 519.539C27.0461 518.824 26.4669 518.245 25.7525 518.245C25.0381 518.245 24.459 518.824 24.459 519.539C24.459 520.253 25.0381 520.832 25.7525 520.832Z" fill="white" fill-opacity="0.3"/>
<path d="M54.2096 520.832C54.924 520.832 55.5031 520.253 55.5031 519.539C55.5031 518.824 54.924 518.245 54.2096 518.245C53.4952 518.245 52.916 518.824 52.916 519.539C52.916 520.253 53.4952 520.832 54.2096 520.832Z" fill="white" fill-opacity="0.3"/>
<path d="M82.6685 520.832C83.383 520.832 83.9621 520.253 83.9621 519.539C83.9621 518.824 83.383 518.245 82.6685 518.245C81.9541 518.245 81.375 518.824 81.375 519.539C81.375 520.253 81.9541 520.832 82.6685 520.832Z" fill="white" fill-opacity="0.3"/>
<path d="M111.126 520.832C111.84 520.832 112.419 520.253 112.419 519.539C112.419 518.824 111.84 518.245 111.126 518.245C110.411 518.245 109.832 518.824 109.832 519.539C109.832 520.253 110.411 520.832 111.126 520.832Z" fill="white" fill-opacity="0.3"/>
<path d="M139.585 520.832C140.299 520.832 140.878 520.253 140.878 519.539C140.878 518.824 140.299 518.245 139.585 518.245C138.87 518.245 138.291 518.824 138.291 519.539C138.291 520.253 138.87 520.832 139.585 520.832Z" fill="white" fill-opacity="0.3"/>
<path d="M168.042 520.832C168.756 520.832 169.335 520.253 169.335 519.539C169.335 518.824 168.756 518.245 168.042 518.245C167.327 518.245 166.748 518.824 166.748 519.539C166.748 520.253 167.327 520.832 168.042 520.832Z" fill="white" fill-opacity="0.3"/>
<path d="M196.501 520.832C197.215 520.832 197.794 520.253 197.794 519.539C197.794 518.824 197.215 518.245 196.501 518.245C195.786 518.245 195.207 518.824 195.207 519.539C195.207 520.253 195.786 520.832 196.501 520.832Z" fill="white" fill-opacity="0.3"/>
<path d="M224.958 520.832C225.672 520.832 226.251 520.253 226.251 519.539C226.251 518.824 225.672 518.245 224.958 518.245C224.243 518.245 223.664 518.824 223.664 519.539C223.664 520.253 224.243 520.832 224.958 520.832Z" fill="white" fill-opacity="0.3"/>
<path d="M253.417 520.832C254.131 520.832 254.71 520.253 254.71 519.539C254.71 518.824 254.131 518.245 253.417 518.245C252.702 518.245 252.123 518.824 252.123 519.539C252.123 520.253 252.702 520.832 253.417 520.832Z" fill="white" fill-opacity="0.3"/>
<path d="M281.874 520.832C282.588 520.832 283.167 520.253 283.167 519.539C283.167 518.824 282.588 518.245 281.874 518.245C281.159 518.245 280.58 518.824 280.58 519.539C280.58 520.253 281.159 520.832 281.874 520.832Z" fill="white" fill-opacity="0.3"/>
<path d="M310.333 520.832C311.047 520.832 311.626 520.253 311.626 519.539C311.626 518.824 311.047 518.245 310.333 518.245C309.618 518.245 309.039 518.824 309.039 519.539C309.039 520.253 309.618 520.832 310.333 520.832Z" fill="white" fill-opacity="0.3"/>
<path d="M338.79 520.832C339.504 520.832 340.083 520.253 340.083 519.539C340.083 518.824 339.504 518.245 338.79 518.245C338.075 518.245 337.496 518.824 337.496 519.539C337.496 520.253 338.075 520.832 338.79 520.832Z" fill="white" fill-opacity="0.3"/>
<path d="M367.249 520.832C367.963 520.832 368.542 520.253 368.542 519.539C368.542 518.824 367.963 518.245 367.249 518.245C366.534 518.245 365.955 518.824 365.955 519.539C365.955 520.253 366.534 520.832 367.249 520.832Z" fill="white" fill-opacity="0.3"/>
<path d="M25.7525 549.29C26.4669 549.29 27.0461 548.711 27.0461 547.997C27.0461 547.282 26.4669 546.703 25.7525 546.703C25.0381 546.703 24.459 547.282 24.459 547.997C24.459 548.711 25.0381 549.29 25.7525 549.29Z" fill="white" fill-opacity="0.3"/>
<path d="M54.2096 549.29C54.924 549.29 55.5031 548.711 55.5031 547.997C55.5031 547.282 54.924 546.703 54.2096 546.703C53.4952 546.703 52.916 547.282 52.916 547.997C52.916 548.711 53.4952 549.29 54.2096 549.29Z" fill="white" fill-opacity="0.3"/>
<path d="M82.6685 549.29C83.383 549.29 83.9621 548.711 83.9621 547.997C83.9621 547.282 83.383 546.703 82.6685 546.703C81.9541 546.703 81.375 547.282 81.375 547.997C81.375 548.711 81.9541 549.29 82.6685 549.29Z" fill="white" fill-opacity="0.3"/>
<path d="M111.126 549.29C111.84 549.29 112.419 548.711 112.419 547.997C112.419 547.282 111.84 546.703 111.126 546.703C110.411 546.703 109.832 547.282 109.832 547.997C109.832 548.711 110.411 549.29 111.126 549.29Z" fill="white" fill-opacity="0.3"/>
<path d="M139.585 549.29C140.299 549.29 140.878 548.711 140.878 547.997C140.878 547.282 140.299 546.703 139.585 546.703C138.87 546.703 138.291 547.282 138.291 547.997C138.291 548.711 138.87 549.29 139.585 549.29Z" fill="white" fill-opacity="0.3"/>
<path d="M168.042 549.29C168.756 549.29 169.335 548.711 169.335 547.997C169.335 547.282 168.756 546.703 168.042 546.703C167.327 546.703 166.748 547.282 166.748 547.997C166.748 548.711 167.327 549.29 168.042 549.29Z" fill="white" fill-opacity="0.3"/>
<path d="M196.501 549.29C197.215 549.29 197.794 548.711 197.794 547.997C197.794 547.282 197.215 546.703 196.501 546.703C195.786 546.703 195.207 547.282 195.207 547.997C195.207 548.711 195.786 549.29 196.501 549.29Z" fill="white" fill-opacity="0.3"/>
<path d="M224.958 549.29C225.672 549.29 226.251 548.711 226.251 547.997C226.251 547.282 225.672 546.703 224.958 546.703C224.243 546.703 223.664 547.282 223.664 547.997C223.664 548.711 224.243 549.29 224.958 549.29Z" fill="white" fill-opacity="0.3"/>
<path d="M253.417 549.29C254.131 549.29 254.71 548.711 254.71 547.997C254.71 547.282 254.131 546.703 253.417 546.703C252.702 546.703 252.123 547.282 252.123 547.997C252.123 548.711 252.702 549.29 253.417 549.29Z" fill="white" fill-opacity="0.3"/>
<path d="M281.874 549.29C282.588 549.29 283.167 548.711 283.167 547.997C283.167 547.282 282.588 546.703 281.874 546.703C281.159 546.703 280.58 547.282 280.58 547.997C280.58 548.711 281.159 549.29 281.874 549.29Z" fill="white" fill-opacity="0.3"/>
<path d="M310.333 549.29C311.047 549.29 311.626 548.711 311.626 547.997C311.626 547.282 311.047 546.703 310.333 546.703C309.618 546.703 309.039 547.282 309.039 547.997C309.039 548.711 309.618 549.29 310.333 549.29Z" fill="white" fill-opacity="0.3"/>
<path d="M338.79 549.29C339.504 549.29 340.083 548.711 340.083 547.997C340.083 547.282 339.504 546.703 338.79 546.703C338.075 546.703 337.496 547.282 337.496 547.997C337.496 548.711 338.075 549.29 338.79 549.29Z" fill="white" fill-opacity="0.3"/>
<path d="M367.249 549.29C367.963 549.29 368.542 548.711 368.542 547.997C368.542 547.282 367.963 546.703 367.249 546.703C366.534 546.703 365.955 547.282 365.955 547.997C365.955 548.711 366.534 549.29 367.249 549.29Z" fill="white" fill-opacity="0.3"/>
<path d="M25.7525 577.748C26.4669 577.748 27.0461 577.169 27.0461 576.455C27.0461 575.74 26.4669 575.161 25.7525 575.161C25.0381 575.161 24.459 575.74 24.459 576.455C24.459 577.169 25.0381 577.748 25.7525 577.748Z" fill="white" fill-opacity="0.3"/>
<path d="M54.2096 577.748C54.924 577.748 55.5031 577.169 55.5031 576.455C55.5031 575.74 54.924 575.161 54.2096 575.161C53.4952 575.161 52.916 575.74 52.916 576.455C52.916 577.169 53.4952 577.748 54.2096 577.748Z" fill="white" fill-opacity="0.3"/>
<path d="M82.6685 577.748C83.383 577.748 83.9621 577.169 83.9621 576.455C83.9621 575.74 83.383 575.161 82.6685 575.161C81.9541 575.161 81.375 575.74 81.375 576.455C81.375 577.169 81.9541 577.748 82.6685 577.748Z" fill="white" fill-opacity="0.3"/>
<path d="M111.126 577.748C111.84 577.748 112.419 577.169 112.419 576.455C112.419 575.74 111.84 575.161 111.126 575.161C110.411 575.161 109.832 575.74 109.832 576.455C109.832 577.169 110.411 577.748 111.126 577.748Z" fill="white" fill-opacity="0.3"/>
<path d="M139.585 577.748C140.299 577.748 140.878 577.169 140.878 576.455C140.878 575.74 140.299 575.161 139.585 575.161C138.87 575.161 138.291 575.74 138.291 576.455C138.291 577.169 138.87 577.748 139.585 577.748Z" fill="white" fill-opacity="0.3"/>
<path d="M168.042 577.748C168.756 577.748 169.335 577.169 169.335 576.455C169.335 575.74 168.756 575.161 168.042 575.161C167.327 575.161 166.748 575.74 166.748 576.455C166.748 577.169 167.327 577.748 168.042 577.748Z" fill="white" fill-opacity="0.3"/>
<path d="M196.501 577.748C197.215 577.748 197.794 577.169 197.794 576.455C197.794 575.74 197.215 575.161 196.501 575.161C195.786 575.161 195.207 575.74 195.207 576.455C195.207 577.169 195.786 577.748 196.501 577.748Z" fill="white" fill-opacity="0.3"/>
<path d="M224.958 577.748C225.672 577.748 226.251 577.169 226.251 576.455C226.251 575.74 225.672 575.161 224.958 575.161C224.243 575.161 223.664 575.74 223.664 576.455C223.664 577.169 224.243 577.748 224.958 577.748Z" fill="white" fill-opacity="0.3"/>
<path d="M253.417 577.748C254.131 577.748 254.71 577.169 254.71 576.455C254.71 575.74 254.131 575.161 253.417 575.161C252.702 575.161 252.123 575.74 252.123 576.455C252.123 577.169 252.702 577.748 253.417 577.748Z" fill="white" fill-opacity="0.3"/>
<path d="M281.874 577.748C282.588 577.748 283.167 577.169 283.167 576.455C283.167 575.74 282.588 575.161 281.874 575.161C281.159 575.161 280.58 575.74 280.58 576.455C280.58 577.169 281.159 577.748 281.874 577.748Z" fill="white" fill-opacity="0.3"/>
<path d="M310.333 577.748C311.047 577.748 311.626 577.169 311.626 576.455C311.626 575.74 311.047 575.161 310.333 575.161C309.618 575.161 309.039 575.74 309.039 576.455C309.039 577.169 309.618 577.748 310.333 577.748Z" fill="white" fill-opacity="0.3"/>
<path d="M338.79 577.748C339.504 577.748 340.083 577.169 340.083 576.455C340.083 575.74 339.504 575.161 338.79 575.161C338.075 575.161 337.496 575.74 337.496 576.455C337.496 577.169 338.075 577.748 338.79 577.748Z" fill="white" fill-opacity="0.3"/>
<path d="M367.249 577.748C367.963 577.748 368.542 577.169 368.542 576.455C368.542 575.74 367.963 575.161 367.249 575.161C366.534 575.161 365.955 575.74 365.955 576.455C365.955 577.169 366.534 577.748 367.249 577.748Z" fill="white" fill-opacity="0.3"/>
<path d="M25.7525 606.206C26.4669 606.206 27.0461 605.627 27.0461 604.913C27.0461 604.198 26.4669 603.619 25.7525 603.619C25.0381 603.619 24.459 604.198 24.459 604.913C24.459 605.627 25.0381 606.206 25.7525 606.206Z" fill="white" fill-opacity="0.3"/>
<path d="M54.2096 606.206C54.924 606.206 55.5031 605.627 55.5031 604.913C55.5031 604.198 54.924 603.619 54.2096 603.619C53.4952 603.619 52.916 604.198 52.916 604.913C52.916 605.627 53.4952 606.206 54.2096 606.206Z" fill="white" fill-opacity="0.3"/>
<path d="M82.6685 606.206C83.383 606.206 83.9621 605.627 83.9621 604.913C83.9621 604.198 83.383 603.619 82.6685 603.619C81.9541 603.619 81.375 604.198 81.375 604.913C81.375 605.627 81.9541 606.206 82.6685 606.206Z" fill="white" fill-opacity="0.3"/>
<path d="M111.126 606.206C111.84 606.206 112.419 605.627 112.419 604.913C112.419 604.198 111.84 603.619 111.126 603.619C110.411 603.619 109.832 604.198 109.832 604.913C109.832 605.627 110.411 606.206 111.126 606.206Z" fill="white" fill-opacity="0.3"/>
<path d="M139.585 606.206C140.299 606.206 140.878 605.627 140.878 604.913C140.878 604.198 140.299 603.619 139.585 603.619C138.87 603.619 138.291 604.198 138.291 604.913C138.291 605.627 138.87 606.206 139.585 606.206Z" fill="white" fill-opacity="0.3"/>
<path d="M168.042 606.206C168.756 606.206 169.335 605.627 169.335 604.913C169.335 604.198 168.756 603.619 168.042 603.619C167.327 603.619 166.748 604.198 166.748 604.913C166.748 605.627 167.327 606.206 168.042 606.206Z" fill="white" fill-opacity="0.3"/>
<path d="M196.501 606.206C197.215 606.206 197.794 605.627 197.794 604.913C197.794 604.198 197.215 603.619 196.501 603.619C195.786 603.619 195.207 604.198 195.207 604.913C195.207 605.627 195.786 606.206 196.501 606.206Z" fill="white" fill-opacity="0.3"/>
<path d="M224.958 606.206C225.672 606.206 226.251 605.627 226.251 604.913C226.251 604.198 225.672 603.619 224.958 603.619C224.243 603.619 223.664 604.198 223.664 604.913C223.664 605.627 224.243 606.206 224.958 606.206Z" fill="white" fill-opacity="0.3"/>
<path d="M253.417 606.206C254.131 606.206 254.71 605.627 254.71 604.913C254.71 604.198 254.131 603.619 253.417 603.619C252.702 603.619 252.123 604.198 252.123 604.913C252.123 605.627 252.702 606.206 253.417 606.206Z" fill="white" fill-opacity="0.3"/>
<path d="M281.874 606.206C282.588 606.206 283.167 605.627 283.167 604.913C283.167 604.198 282.588 603.619 281.874 603.619C281.159 603.619 280.58 604.198 280.58 604.913C280.58 605.627 281.159 606.206 281.874 606.206Z" fill="white" fill-opacity="0.3"/>
<path d="M310.333 606.206C311.047 606.206 311.626 605.627 311.626 604.913C311.626 604.198 311.047 603.619 310.333 603.619C309.618 603.619 309.039 604.198 309.039 604.913C309.039 605.627 309.618 606.206 310.333 606.206Z" fill="white" fill-opacity="0.3"/>
<path d="M338.79 606.206C339.504 606.206 340.083 605.627 340.083 604.913C340.083 604.198 339.504 603.619 338.79 603.619C338.075 603.619 337.496 604.198 337.496 604.913C337.496 605.627 338.075 606.206 338.79 606.206Z" fill="white" fill-opacity="0.3"/>
<path d="M367.249 606.206C367.963 606.206 368.542 605.627 368.542 604.913C368.542 604.198 367.963 603.619 367.249 603.619C366.534 603.619 365.955 604.198 365.955 604.913C365.955 605.627 366.534 606.206 367.249 606.206Z" fill="white" fill-opacity="0.3"/>
<path d="M25.7525 634.664C26.4669 634.664 27.0461 634.085 27.0461 633.371C27.0461 632.656 26.4669 632.077 25.7525 632.077C25.0381 632.077 24.459 632.656 24.459 633.371C24.459 634.085 25.0381 634.664 25.7525 634.664Z" fill="white" fill-opacity="0.3"/>
<path d="M54.2096 634.664C54.924 634.664 55.5031 634.085 55.5031 633.371C55.5031 632.656 54.924 632.077 54.2096 632.077C53.4952 632.077 52.916 632.656 52.916 633.371C52.916 634.085 53.4952 634.664 54.2096 634.664Z" fill="white" fill-opacity="0.3"/>
<path d="M82.6685 634.664C83.383 634.664 83.9621 634.085 83.9621 633.371C83.9621 632.656 83.383 632.077 82.6685 632.077C81.9541 632.077 81.375 632.656 81.375 633.371C81.375 634.085 81.9541 634.664 82.6685 634.664Z" fill="white" fill-opacity="0.3"/>
<path d="M111.126 634.664C111.84 634.664 112.419 634.085 112.419 633.371C112.419 632.656 111.84 632.077 111.126 632.077C110.411 632.077 109.832 632.656 109.832 633.371C109.832 634.085 110.411 634.664 111.126 634.664Z" fill="white" fill-opacity="0.3"/>
<path d="M139.585 634.664C140.299 634.664 140.878 634.085 140.878 633.371C140.878 632.656 140.299 632.077 139.585 632.077C138.87 632.077 138.291 632.656 138.291 633.371C138.291 634.085 138.87 634.664 139.585 634.664Z" fill="white" fill-opacity="0.3"/>
<path d="M168.042 634.664C168.756 634.664 169.335 634.085 169.335 633.371C169.335 632.656 168.756 632.077 168.042 632.077C167.327 632.077 166.748 632.656 166.748 633.371C166.748 634.085 167.327 634.664 168.042 634.664Z" fill="white" fill-opacity="0.3"/>
<path d="M196.501 634.664C197.215 634.664 197.794 634.085 197.794 633.371C197.794 632.656 197.215 632.077 196.501 632.077C195.786 632.077 195.207 632.656 195.207 633.371C195.207 634.085 195.786 634.664 196.501 634.664Z" fill="white" fill-opacity="0.3"/>
<path d="M224.958 634.664C225.672 634.664 226.251 634.085 226.251 633.371C226.251 632.656 225.672 632.077 224.958 632.077C224.243 632.077 223.664 632.656 223.664 633.371C223.664 634.085 224.243 634.664 224.958 634.664Z" fill="white" fill-opacity="0.3"/>
<path d="M253.417 634.664C254.131 634.664 254.71 634.085 254.71 633.371C254.71 632.656 254.131 632.077 253.417 632.077C252.702 632.077 252.123 632.656 252.123 633.371C252.123 634.085 252.702 634.664 253.417 634.664Z" fill="white" fill-opacity="0.3"/>
<path d="M281.874 634.664C282.588 634.664 283.167 634.085 283.167 633.371C283.167 632.656 282.588 632.077 281.874 632.077C281.159 632.077 280.58 632.656 280.58 633.371C280.58 634.085 281.159 634.664 281.874 634.664Z" fill="white" fill-opacity="0.3"/>
<path d="M310.333 634.664C311.047 634.664 311.626 634.085 311.626 633.371C311.626 632.656 311.047 632.077 310.333 632.077C309.618 632.077 309.039 632.656 309.039 633.371C309.039 634.085 309.618 634.664 310.333 634.664Z" fill="white" fill-opacity="0.3"/>
<path d="M338.79 634.664C339.504 634.664 340.083 634.085 340.083 633.371C340.083 632.656 339.504 632.077 338.79 632.077C338.075 632.077 337.496 632.656 337.496 633.371C337.496 634.085 338.075 634.664 338.79 634.664Z" fill="white" fill-opacity="0.3"/>
<path d="M367.249 634.664C367.963 634.664 368.542 634.085 368.542 633.371C368.542 632.656 367.963 632.077 367.249 632.077C366.534 632.077 365.955 632.656 365.955 633.371C365.955 634.085 366.534 634.664 367.249 634.664Z" fill="white" fill-opacity="0.3"/>
<path d="M25.7525 663.123C26.4669 663.123 27.0461 662.544 27.0461 661.829C27.0461 661.115 26.4669 660.536 25.7525 660.536C25.0381 660.536 24.459 661.115 24.459 661.829C24.459 662.544 25.0381 663.123 25.7525 663.123Z" fill="white" fill-opacity="0.3"/>
<path d="M54.2096 663.123C54.924 663.123 55.5031 662.544 55.5031 661.829C55.5031 661.115 54.924 660.536 54.2096 660.536C53.4952 660.536 52.916 661.115 52.916 661.829C52.916 662.544 53.4952 663.123 54.2096 663.123Z" fill="white" fill-opacity="0.3"/>
<path d="M82.6685 663.123C83.383 663.123 83.9621 662.544 83.9621 661.829C83.9621 661.115 83.383 660.536 82.6685 660.536C81.9541 660.536 81.375 661.115 81.375 661.829C81.375 662.544 81.9541 663.123 82.6685 663.123Z" fill="white" fill-opacity="0.3"/>
<path d="M111.126 663.122C111.84 663.122 112.419 662.543 112.419 661.829C112.419 661.114 111.84 660.535 111.126 660.535C110.411 660.535 109.832 661.114 109.832 661.829C109.832 662.543 110.411 663.122 111.126 663.122Z" fill="white" fill-opacity="0.3"/>
<path d="M139.585 663.123C140.299 663.123 140.878 662.544 140.878 661.829C140.878 661.115 140.299 660.536 139.585 660.536C138.87 660.536 138.291 661.115 138.291 661.829C138.291 662.544 138.87 663.123 139.585 663.123Z" fill="white" fill-opacity="0.3"/>
<path d="M168.042 663.123C168.756 663.123 169.335 662.544 169.335 661.829C169.335 661.115 168.756 660.536 168.042 660.536C167.327 660.536 166.748 661.115 166.748 661.829C166.748 662.544 167.327 663.123 168.042 663.123Z" fill="white" fill-opacity="0.3"/>
<path d="M196.501 663.123C197.215 663.123 197.794 662.544 197.794 661.829C197.794 661.115 197.215 660.536 196.501 660.536C195.786 660.536 195.207 661.115 195.207 661.829C195.207 662.544 195.786 663.123 196.501 663.123Z" fill="white" fill-opacity="0.3"/>
<path d="M224.958 663.123C225.672 663.123 226.251 662.544 226.251 661.829C226.251 661.115 225.672 660.536 224.958 660.536C224.243 660.536 223.664 661.115 223.664 661.829C223.664 662.544 224.243 663.123 224.958 663.123Z" fill="white" fill-opacity="0.3"/>
<path d="M253.417 663.123C254.131 663.123 254.71 662.544 254.71 661.829C254.71 661.115 254.131 660.536 253.417 660.536C252.702 660.536 252.123 661.115 252.123 661.829C252.123 662.544 252.702 663.123 253.417 663.123Z" fill="white" fill-opacity="0.3"/>
<path d="M281.874 663.123C282.588 663.123 283.167 662.544 283.167 661.829C283.167 661.115 282.588 660.536 281.874 660.536C281.159 660.536 280.58 661.115 280.58 661.829C280.58 662.544 281.159 663.123 281.874 663.123Z" fill="white" fill-opacity="0.3"/>
<path d="M310.333 663.123C311.047 663.123 311.626 662.544 311.626 661.829C311.626 661.115 311.047 660.536 310.333 660.536C309.618 660.536 309.039 661.115 309.039 661.829C309.039 662.544 309.618 663.123 310.333 663.123Z" fill="white" fill-opacity="0.3"/>
<path d="M338.79 663.123C339.504 663.123 340.083 662.544 340.083 661.829C340.083 661.115 339.504 660.536 338.79 660.536C338.075 660.536 337.496 661.115 337.496 661.829C337.496 662.544 338.075 663.123 338.79 663.123Z" fill="white" fill-opacity="0.3"/>
<path d="M367.249 663.122C367.963 663.122 368.542 662.543 368.542 661.829C368.542 661.114 367.963 660.535 367.249 660.535C366.534 660.535 365.955 661.114 365.955 661.829C365.955 662.543 366.534 663.122 367.249 663.122Z" fill="white" fill-opacity="0.3"/>
<path d="M25.7525 691.581C26.4669 691.581 27.0461 691.002 27.0461 690.287C27.0461 689.573 26.4669 688.994 25.7525 688.994C25.0381 688.994 24.459 689.573 24.459 690.287C24.459 691.002 25.0381 691.581 25.7525 691.581Z" fill="white" fill-opacity="0.3"/>
<path d="M54.2096 691.581C54.924 691.581 55.5031 691.002 55.5031 690.287C55.5031 689.573 54.924 688.994 54.2096 688.994C53.4952 688.994 52.916 689.573 52.916 690.287C52.916 691.002 53.4952 691.581 54.2096 691.581Z" fill="white" fill-opacity="0.3"/>
<path d="M82.6685 691.581C83.383 691.581 83.9621 691.002 83.9621 690.287C83.9621 689.573 83.383 688.994 82.6685 688.994C81.9541 688.994 81.375 689.573 81.375 690.287C81.375 691.002 81.9541 691.581 82.6685 691.581Z" fill="white" fill-opacity="0.3"/>
<path d="M111.126 691.581C111.84 691.581 112.419 691.002 112.419 690.287C112.419 689.573 111.84 688.994 111.126 688.994C110.411 688.994 109.832 689.573 109.832 690.287C109.832 691.002 110.411 691.581 111.126 691.581Z" fill="white" fill-opacity="0.3"/>
<path d="M139.585 691.581C140.299 691.581 140.878 691.002 140.878 690.287C140.878 689.573 140.299 688.994 139.585 688.994C138.87 688.994 138.291 689.573 138.291 690.287C138.291 691.002 138.87 691.581 139.585 691.581Z" fill="white" fill-opacity="0.3"/>
<path d="M168.042 691.581C168.756 691.581 169.335 691.002 169.335 690.287C169.335 689.573 168.756 688.994 168.042 688.994C167.327 688.994 166.748 689.573 166.748 690.287C166.748 691.002 167.327 691.581 168.042 691.581Z" fill="white" fill-opacity="0.3"/>
<path d="M196.501 691.581C197.215 691.581 197.794 691.002 197.794 690.287C197.794 689.573 197.215 688.994 196.501 688.994C195.786 688.994 195.207 689.573 195.207 690.287C195.207 691.002 195.786 691.581 196.501 691.581Z" fill="white" fill-opacity="0.3"/>
<path d="M224.958 691.581C225.672 691.581 226.251 691.002 226.251 690.287C226.251 689.573 225.672 688.994 224.958 688.994C224.243 688.994 223.664 689.573 223.664 690.287C223.664 691.002 224.243 691.581 224.958 691.581Z" fill="white" fill-opacity="0.3"/>
<path d="M253.417 691.581C254.131 691.581 254.71 691.002 254.71 690.287C254.71 689.573 254.131 688.994 253.417 688.994C252.702 688.994 252.123 689.573 252.123 690.287C252.123 691.002 252.702 691.581 253.417 691.581Z" fill="white" fill-opacity="0.3"/>
<path d="M281.874 691.581C282.588 691.581 283.167 691.002 283.167 690.287C283.167 689.573 282.588 688.994 281.874 688.994C281.159 688.994 280.58 689.573 280.58 690.287C280.58 691.002 281.159 691.581 281.874 691.581Z" fill="white" fill-opacity="0.3"/>
<path d="M310.333 691.581C311.047 691.581 311.626 691.002 311.626 690.287C311.626 689.573 311.047 688.994 310.333 688.994C309.618 688.994 309.039 689.573 309.039 690.287C309.039 691.002 309.618 691.581 310.333 691.581Z" fill="white" fill-opacity="0.3"/>
<path d="M338.79 691.581C339.504 691.581 340.083 691.002 340.083 690.287C340.083 689.573 339.504 688.994 338.79 688.994C338.075 688.994 337.496 689.573 337.496 690.287C337.496 691.002 338.075 691.581 338.79 691.581Z" fill="white" fill-opacity="0.3"/>
<path d="M367.249 691.581C367.963 691.581 368.542 691.002 368.542 690.287C368.542 689.573 367.963 688.994 367.249 688.994C366.534 688.994 365.955 689.573 365.955 690.287C365.955 691.002 366.534 691.581 367.249 691.581Z" fill="white" fill-opacity="0.3"/>
<path d="M25.7525 720.039C26.4669 720.039 27.0461 719.46 27.0461 718.745C27.0461 718.031 26.4669 717.452 25.7525 717.452C25.0381 717.452 24.459 718.031 24.459 718.745C24.459 719.46 25.0381 720.039 25.7525 720.039Z" fill="white" fill-opacity="0.3"/>
<path d="M54.2096 720.039C54.924 720.039 55.5031 719.46 55.5031 718.745C55.5031 718.031 54.924 717.452 54.2096 717.452C53.4952 717.452 52.916 718.031 52.916 718.745C52.916 719.46 53.4952 720.039 54.2096 720.039Z" fill="white" fill-opacity="0.3"/>
<path d="M82.6685 720.039C83.383 720.039 83.9621 719.46 83.9621 718.745C83.9621 718.031 83.383 717.452 82.6685 717.452C81.9541 717.452 81.375 718.031 81.375 718.745C81.375 719.46 81.9541 720.039 82.6685 720.039Z" fill="white" fill-opacity="0.3"/>
<path d="M111.126 720.039C111.84 720.039 112.419 719.46 112.419 718.745C112.419 718.031 111.84 717.452 111.126 717.452C110.411 717.452 109.832 718.031 109.832 718.745C109.832 719.46 110.411 720.039 111.126 720.039Z" fill="white" fill-opacity="0.3"/>
<path d="M139.585 720.039C140.299 720.039 140.878 719.46 140.878 718.745C140.878 718.031 140.299 717.452 139.585 717.452C138.87 717.452 138.291 718.031 138.291 718.745C138.291 719.46 138.87 720.039 139.585 720.039Z" fill="white" fill-opacity="0.3"/>
<path d="M168.042 720.039C168.756 720.039 169.335 719.46 169.335 718.745C169.335 718.031 168.756 717.452 168.042 717.452C167.327 717.452 166.748 718.031 166.748 718.745C166.748 719.46 167.327 720.039 168.042 720.039Z" fill="white" fill-opacity="0.3"/>
<path d="M196.501 720.039C197.215 720.039 197.794 719.46 197.794 718.745C197.794 718.031 197.215 717.452 196.501 717.452C195.786 717.452 195.207 718.031 195.207 718.745C195.207 719.46 195.786 720.039 196.501 720.039Z" fill="white" fill-opacity="0.3"/>
<path d="M224.958 720.039C225.672 720.039 226.251 719.46 226.251 718.745C226.251 718.031 225.672 717.452 224.958 717.452C224.243 717.452 223.664 718.031 223.664 718.745C223.664 719.46 224.243 720.039 224.958 720.039Z" fill="white" fill-opacity="0.3"/>
<path d="M253.417 720.039C254.131 720.039 254.71 719.46 254.71 718.745C254.71 718.031 254.131 717.452 253.417 717.452C252.702 717.452 252.123 718.031 252.123 718.745C252.123 719.46 252.702 720.039 253.417 720.039Z" fill="white" fill-opacity="0.3"/>
<path d="M281.874 720.039C282.588 720.039 283.167 719.46 283.167 718.745C283.167 718.031 282.588 717.452 281.874 717.452C281.159 717.452 280.58 718.031 280.58 718.745C280.58 719.46 281.159 720.039 281.874 720.039Z" fill="white" fill-opacity="0.3"/>
<path d="M310.333 720.039C311.047 720.039 311.626 719.46 311.626 718.745C311.626 718.031 311.047 717.452 310.333 717.452C309.618 717.452 309.039 718.031 309.039 718.745C309.039 719.46 309.618 720.039 310.333 720.039Z" fill="white" fill-opacity="0.3"/>
<path d="M338.79 720.039C339.504 720.039 340.083 719.46 340.083 718.745C340.083 718.031 339.504 717.452 338.79 717.452C338.075 717.452 337.496 718.031 337.496 718.745C337.496 719.46 338.075 720.039 338.79 720.039Z" fill="white" fill-opacity="0.3"/>
<path d="M367.249 720.039C367.963 720.039 368.542 719.46 368.542 718.745C368.542 718.031 367.963 717.452 367.249 717.452C366.534 717.452 365.955 718.031 365.955 718.745C365.955 719.46 366.534 720.039 367.249 720.039Z" fill="white" fill-opacity="0.3"/>
<path d="M25.7525 748.497C26.4669 748.497 27.0461 747.918 27.0461 747.203C27.0461 746.489 26.4669 745.91 25.7525 745.91C25.0381 745.91 24.459 746.489 24.459 747.203C24.459 747.918 25.0381 748.497 25.7525 748.497Z" fill="white" fill-opacity="0.3"/>
<path d="M54.2096 748.497C54.924 748.497 55.5031 747.918 55.5031 747.203C55.5031 746.489 54.924 745.91 54.2096 745.91C53.4952 745.91 52.916 746.489 52.916 747.203C52.916 747.918 53.4952 748.497 54.2096 748.497Z" fill="white" fill-opacity="0.3"/>
<path d="M82.6685 748.497C83.383 748.497 83.9621 747.918 83.9621 747.203C83.9621 746.489 83.383 745.91 82.6685 745.91C81.9541 745.91 81.375 746.489 81.375 747.203C81.375 747.918 81.9541 748.497 82.6685 748.497Z" fill="white" fill-opacity="0.3"/>
<path d="M111.126 748.497C111.84 748.497 112.419 747.918 112.419 747.203C112.419 746.489 111.84 745.91 111.126 745.91C110.411 745.91 109.832 746.489 109.832 747.203C109.832 747.918 110.411 748.497 111.126 748.497Z" fill="white" fill-opacity="0.3"/>
<path d="M139.585 748.497C140.299 748.497 140.878 747.918 140.878 747.203C140.878 746.489 140.299 745.91 139.585 745.91C138.87 745.91 138.291 746.489 138.291 747.203C138.291 747.918 138.87 748.497 139.585 748.497Z" fill="white" fill-opacity="0.3"/>
<path d="M168.042 748.497C168.756 748.497 169.335 747.918 169.335 747.203C169.335 746.489 168.756 745.91 168.042 745.91C167.327 745.91 166.748 746.489 166.748 747.203C166.748 747.918 167.327 748.497 168.042 748.497Z" fill="white" fill-opacity="0.3"/>
<path d="M196.501 748.497C197.215 748.497 197.794 747.918 197.794 747.203C197.794 746.489 197.215 745.91 196.501 745.91C195.786 745.91 195.207 746.489 195.207 747.203C195.207 747.918 195.786 748.497 196.501 748.497Z" fill="white" fill-opacity="0.3"/>
<path d="M224.958 748.497C225.672 748.497 226.251 747.918 226.251 747.203C226.251 746.489 225.672 745.91 224.958 745.91C224.243 745.91 223.664 746.489 223.664 747.203C223.664 747.918 224.243 748.497 224.958 748.497Z" fill="white" fill-opacity="0.3"/>
<path d="M253.417 748.497C254.131 748.497 254.71 747.918 254.71 747.203C254.71 746.489 254.131 745.91 253.417 745.91C252.702 745.91 252.123 746.489 252.123 747.203C252.123 747.918 252.702 748.497 253.417 748.497Z" fill="white" fill-opacity="0.3"/>
<path d="M281.874 748.497C282.588 748.497 283.167 747.918 283.167 747.203C283.167 746.489 282.588 745.91 281.874 745.91C281.159 745.91 280.58 746.489 280.58 747.203C280.58 747.918 281.159 748.497 281.874 748.497Z" fill="white" fill-opacity="0.3"/>
<path d="M310.333 748.497C311.047 748.497 311.626 747.918 311.626 747.203C311.626 746.489 311.047 745.91 310.333 745.91C309.618 745.91 309.039 746.489 309.039 747.203C309.039 747.918 309.618 748.497 310.333 748.497Z" fill="white" fill-opacity="0.3"/>
<path d="M338.79 748.497C339.504 748.497 340.083 747.918 340.083 747.203C340.083 746.489 339.504 745.91 338.79 745.91C338.075 745.91 337.496 746.489 337.496 747.203C337.496 747.918 338.075 748.497 338.79 748.497Z" fill="white" fill-opacity="0.3"/>
<path d="M367.249 748.497C367.963 748.497 368.542 747.918 368.542 747.203C368.542 746.489 367.963 745.91 367.249 745.91C366.534 745.91 365.955 746.489 365.955 747.203C365.955 747.918 366.534 748.497 367.249 748.497Z" fill="white" fill-opacity="0.3"/>
<path d="M25.7525 776.955C26.4669 776.955 27.0461 776.376 27.0461 775.661C27.0461 774.947 26.4669 774.368 25.7525 774.368C25.0381 774.368 24.459 774.947 24.459 775.661C24.459 776.376 25.0381 776.955 25.7525 776.955Z" fill="white" fill-opacity="0.3"/>
<path d="M54.2096 776.955C54.924 776.955 55.5031 776.376 55.5031 775.661C55.5031 774.947 54.924 774.368 54.2096 774.368C53.4952 774.368 52.916 774.947 52.916 775.661C52.916 776.376 53.4952 776.955 54.2096 776.955Z" fill="white" fill-opacity="0.3"/>
<path d="M82.6685 776.955C83.383 776.955 83.9621 776.376 83.9621 775.661C83.9621 774.947 83.383 774.368 82.6685 774.368C81.9541 774.368 81.375 774.947 81.375 775.661C81.375 776.376 81.9541 776.955 82.6685 776.955Z" fill="white" fill-opacity="0.3"/>
<path d="M111.126 776.955C111.84 776.955 112.419 776.376 112.419 775.661C112.419 774.947 111.84 774.368 111.126 774.368C110.411 774.368 109.832 774.947 109.832 775.661C109.832 776.376 110.411 776.955 111.126 776.955Z" fill="white" fill-opacity="0.3"/>
<path d="M139.585 776.955C140.299 776.955 140.878 776.376 140.878 775.661C140.878 774.947 140.299 774.368 139.585 774.368C138.87 774.368 138.291 774.947 138.291 775.661C138.291 776.376 138.87 776.955 139.585 776.955Z" fill="white" fill-opacity="0.3"/>
<path d="M168.042 776.955C168.756 776.955 169.335 776.376 169.335 775.661C169.335 774.947 168.756 774.368 168.042 774.368C167.327 774.368 166.748 774.947 166.748 775.661C166.748 776.376 167.327 776.955 168.042 776.955Z" fill="white" fill-opacity="0.3"/>
<path d="M196.501 776.955C197.215 776.955 197.794 776.376 197.794 775.661C197.794 774.947 197.215 774.368 196.501 774.368C195.786 774.368 195.207 774.947 195.207 775.661C195.207 776.376 195.786 776.955 196.501 776.955Z" fill="white" fill-opacity="0.3"/>
<path d="M224.958 776.955C225.672 776.955 226.251 776.376 226.251 775.661C226.251 774.947 225.672 774.368 224.958 774.368C224.243 774.368 223.664 774.947 223.664 775.661C223.664 776.376 224.243 776.955 224.958 776.955Z" fill="white" fill-opacity="0.3"/>
<path d="M253.417 776.955C254.131 776.955 254.71 776.376 254.71 775.661C254.71 774.947 254.131 774.368 253.417 774.368C252.702 774.368 252.123 774.947 252.123 775.661C252.123 776.376 252.702 776.955 253.417 776.955Z" fill="white" fill-opacity="0.3"/>
<path d="M281.874 776.955C282.588 776.955 283.167 776.376 283.167 775.661C283.167 774.947 282.588 774.368 281.874 774.368C281.159 774.368 280.58 774.947 280.58 775.661C280.58 776.376 281.159 776.955 281.874 776.955Z" fill="white" fill-opacity="0.3"/>
<path d="M310.333 776.955C311.047 776.955 311.626 776.376 311.626 775.661C311.626 774.947 311.047 774.368 310.333 774.368C309.618 774.368 309.039 774.947 309.039 775.661C309.039 776.376 309.618 776.955 310.333 776.955Z" fill="white" fill-opacity="0.3"/>
<path d="M338.79 776.955C339.504 776.955 340.083 776.376 340.083 775.661C340.083 774.947 339.504 774.368 338.79 774.368C338.075 774.368 337.496 774.947 337.496 775.661C337.496 776.376 338.075 776.955 338.79 776.955Z" fill="white" fill-opacity="0.3"/>
<path d="M367.249 776.955C367.963 776.955 368.542 776.376 368.542 775.661C368.542 774.947 367.963 774.368 367.249 774.368C366.534 774.368 365.955 774.947 365.955 775.661C365.955 776.376 366.534 776.955 367.249 776.955Z" fill="white" fill-opacity="0.3"/>
<path d="M25.7525 805.413C26.4669 805.413 27.0461 804.834 27.0461 804.119C27.0461 803.405 26.4669 802.826 25.7525 802.826C25.0381 802.826 24.459 803.405 24.459 804.119C24.459 804.834 25.0381 805.413 25.7525 805.413Z" fill="white" fill-opacity="0.3"/>
<path d="M54.2096 805.413C54.924 805.413 55.5031 804.834 55.5031 804.119C55.5031 803.405 54.924 802.826 54.2096 802.826C53.4952 802.826 52.916 803.405 52.916 804.119C52.916 804.834 53.4952 805.413 54.2096 805.413Z" fill="white" fill-opacity="0.3"/>
<path d="M82.6685 805.413C83.383 805.413 83.9621 804.834 83.9621 804.119C83.9621 803.405 83.383 802.826 82.6685 802.826C81.9541 802.826 81.375 803.405 81.375 804.119C81.375 804.834 81.9541 805.413 82.6685 805.413Z" fill="white" fill-opacity="0.3"/>
<path d="M111.126 805.413C111.84 805.413 112.419 804.834 112.419 804.12C112.419 803.405 111.84 802.826 111.126 802.826C110.411 802.826 109.832 803.405 109.832 804.12C109.832 804.834 110.411 805.413 111.126 805.413Z" fill="white" fill-opacity="0.3"/>
<path d="M139.585 805.413C140.299 805.413 140.878 804.834 140.878 804.119C140.878 803.405 140.299 802.826 139.585 802.826C138.87 802.826 138.291 803.405 138.291 804.119C138.291 804.834 138.87 805.413 139.585 805.413Z" fill="white" fill-opacity="0.3"/>
<path d="M168.042 805.413C168.756 805.413 169.335 804.834 169.335 804.119C169.335 803.405 168.756 802.826 168.042 802.826C167.327 802.826 166.748 803.405 166.748 804.119C166.748 804.834 167.327 805.413 168.042 805.413Z" fill="white" fill-opacity="0.3"/>
<path d="M196.501 805.413C197.215 805.413 197.794 804.834 197.794 804.119C197.794 803.405 197.215 802.826 196.501 802.826C195.786 802.826 195.207 803.405 195.207 804.119C195.207 804.834 195.786 805.413 196.501 805.413Z" fill="white" fill-opacity="0.3"/>
<path d="M224.958 805.413C225.672 805.413 226.251 804.834 226.251 804.119C226.251 803.405 225.672 802.826 224.958 802.826C224.243 802.826 223.664 803.405 223.664 804.119C223.664 804.834 224.243 805.413 224.958 805.413Z" fill="white" fill-opacity="0.3"/>
<path d="M253.417 805.413C254.131 805.413 254.71 804.834 254.71 804.119C254.71 803.405 254.131 802.826 253.417 802.826C252.702 802.826 252.123 803.405 252.123 804.119C252.123 804.834 252.702 805.413 253.417 805.413Z" fill="white" fill-opacity="0.3"/>
<path d="M281.874 805.413C282.588 805.413 283.167 804.834 283.167 804.119C283.167 803.405 282.588 802.826 281.874 802.826C281.159 802.826 280.58 803.405 280.58 804.119C280.58 804.834 281.159 805.413 281.874 805.413Z" fill="white" fill-opacity="0.3"/>
<path d="M310.333 805.413C311.047 805.413 311.626 804.834 311.626 804.119C311.626 803.405 311.047 802.826 310.333 802.826C309.618 802.826 309.039 803.405 309.039 804.119C309.039 804.834 309.618 805.413 310.333 805.413Z" fill="white" fill-opacity="0.3"/>
<path d="M338.79 805.413C339.504 805.413 340.083 804.834 340.083 804.119C340.083 803.405 339.504 802.826 338.79 802.826C338.075 802.826 337.496 803.405 337.496 804.119C337.496 804.834 338.075 805.413 338.79 805.413Z" fill="white" fill-opacity="0.3"/>
<path d="M367.249 805.413C367.963 805.413 368.542 804.834 368.542 804.12C368.542 803.405 367.963 802.826 367.249 802.826C366.534 802.826 365.955 803.405 365.955 804.12C365.955 804.834 366.534 805.413 367.249 805.413Z" fill="white" fill-opacity="0.3"/>
<path d="M25.7525 833.871C26.4669 833.871 27.0461 833.292 27.0461 832.578C27.0461 831.863 26.4669 831.284 25.7525 831.284C25.0381 831.284 24.459 831.863 24.459 832.578C24.459 833.292 25.0381 833.871 25.7525 833.871Z" fill="white" fill-opacity="0.3"/>
<path d="M54.2096 833.871C54.924 833.871 55.5031 833.292 55.5031 832.578C55.5031 831.863 54.924 831.284 54.2096 831.284C53.4952 831.284 52.916 831.863 52.916 832.578C52.916 833.292 53.4952 833.871 54.2096 833.871Z" fill="white" fill-opacity="0.3"/>
<path d="M82.6685 833.871C83.383 833.871 83.9621 833.292 83.9621 832.578C83.9621 831.863 83.383 831.284 82.6685 831.284C81.9541 831.284 81.375 831.863 81.375 832.578C81.375 833.292 81.9541 833.871 82.6685 833.871Z" fill="white" fill-opacity="0.3"/>
<path d="M111.126 833.871C111.84 833.871 112.419 833.292 112.419 832.578C112.419 831.863 111.84 831.284 111.126 831.284C110.411 831.284 109.832 831.863 109.832 832.578C109.832 833.292 110.411 833.871 111.126 833.871Z" fill="white" fill-opacity="0.3"/>
<path d="M139.585 833.871C140.299 833.871 140.878 833.292 140.878 832.578C140.878 831.863 140.299 831.284 139.585 831.284C138.87 831.284 138.291 831.863 138.291 832.578C138.291 833.292 138.87 833.871 139.585 833.871Z" fill="white" fill-opacity="0.3"/>
<path d="M168.042 833.871C168.756 833.871 169.335 833.292 169.335 832.578C169.335 831.863 168.756 831.284 168.042 831.284C167.327 831.284 166.748 831.863 166.748 832.578C166.748 833.292 167.327 833.871 168.042 833.871Z" fill="white" fill-opacity="0.3"/>
<path d="M196.501 833.871C197.215 833.871 197.794 833.292 197.794 832.578C197.794 831.863 197.215 831.284 196.501 831.284C195.786 831.284 195.207 831.863 195.207 832.578C195.207 833.292 195.786 833.871 196.501 833.871Z" fill="white" fill-opacity="0.3"/>
<path d="M224.958 833.871C225.672 833.871 226.251 833.292 226.251 832.578C226.251 831.863 225.672 831.284 224.958 831.284C224.243 831.284 223.664 831.863 223.664 832.578C223.664 833.292 224.243 833.871 224.958 833.871Z" fill="white" fill-opacity="0.3"/>
<path d="M253.417 833.871C254.131 833.871 254.71 833.292 254.71 832.578C254.71 831.863 254.131 831.284 253.417 831.284C252.702 831.284 252.123 831.863 252.123 832.578C252.123 833.292 252.702 833.871 253.417 833.871Z" fill="white" fill-opacity="0.3"/>
<path d="M281.874 833.871C282.588 833.871 283.167 833.292 283.167 832.578C283.167 831.863 282.588 831.284 281.874 831.284C281.159 831.284 280.58 831.863 280.58 832.578C280.58 833.292 281.159 833.871 281.874 833.871Z" fill="white" fill-opacity="0.3"/>
<path d="M310.333 833.871C311.047 833.871 311.626 833.292 311.626 832.578C311.626 831.863 311.047 831.284 310.333 831.284C309.618 831.284 309.039 831.863 309.039 832.578C309.039 833.292 309.618 833.871 310.333 833.871Z" fill="white" fill-opacity="0.3"/>
<path d="M338.79 833.871C339.504 833.871 340.083 833.292 340.083 832.578C340.083 831.863 339.504 831.284 338.79 831.284C338.075 831.284 337.496 831.863 337.496 832.578C337.496 833.292 338.075 833.871 338.79 833.871Z" fill="white" fill-opacity="0.3"/>
<path d="M367.249 833.871C367.963 833.871 368.542 833.292 368.542 832.578C368.542 831.863 367.963 831.284 367.249 831.284C366.534 831.284 365.955 831.863 365.955 832.578C365.955 833.292 366.534 833.871 367.249 833.871Z" fill="white" fill-opacity="0.3"/>
</g>
<defs>
<clipPath id="clip0_758_2710">
<rect width="393" height="852" fill="white"/>
</clipPath>
</defs>
</svg>
