<svg width="393" height="243" viewBox="0 0 393 243" fill="none" xmlns="http://www.w3.org/2000/svg">
<g clip-path="url(#clip0_791_1595)">
<path fill-rule="evenodd" clip-rule="evenodd" d="M-16.6979 455.5C-63.5814 410.008 -84.0116 348.125 -77.2963 279.309C-69.9095 203.612 -57.1811 111.022 21.8026 60.9627C98.9163 12.0885 181.323 58.5431 264.153 62.9004C328.433 66.2818 410.336 42.495 445.671 83.2602C480.361 123.282 433.395 189.745 423.321 246.532C413.035 304.515 432.214 363.117 386.953 414.258C334.43 473.606 254.059 517.572 176.428 525.504C96.2575 533.695 30.2438 501.049 -16.6979 455.5Z" fill="url(#paint0_linear_791_1595)" fill-opacity="0.5"/>
<path fill-rule="evenodd" clip-rule="evenodd" d="M-15.9351 448.757C-59.998 406.001 -79.1991 347.842 -72.8878 283.166C-65.9454 212.023 -53.9828 125.003 20.2491 77.9556C92.7234 32.0218 170.172 75.6817 248.019 79.7768C308.432 82.9548 385.408 60.5991 418.616 98.9117C451.22 136.526 407.079 198.99 397.611 252.361C387.944 306.855 405.969 361.931 363.431 409.996C314.068 465.773 238.532 507.094 165.572 514.549C90.2246 522.247 28.1825 491.565 -15.9351 448.757Z" fill="url(#paint1_linear_791_1595)"/>
<mask id="mask0_791_1595" style="mask-type:alpha" maskUnits="userSpaceOnUse" x="-75" y="57" width="506" height="459">
<path fill-rule="evenodd" clip-rule="evenodd" d="M-15.9351 448.757C-59.998 406.001 -79.1991 347.842 -72.8878 283.166C-65.9454 212.023 -53.9828 125.003 20.2491 77.9557C92.7235 32.0219 170.172 75.6817 248.019 79.7768C308.432 82.9548 385.408 60.5991 418.616 98.9118C451.22 136.526 407.079 198.99 397.611 252.361C387.944 306.855 405.969 361.931 363.431 409.996C314.068 465.773 238.532 507.094 165.572 514.549C90.2246 522.247 28.1825 491.565 -15.9351 448.757Z" fill="url(#paint2_linear_791_1595)"/>
</mask>
<g mask="url(#mask0_791_1595)">
<g style="mix-blend-mode:soft-light">
<path d="M-169.969 468.411C-169.969 468.411 -109.851 484.595 -58.9924 475.396C-8.13366 466.196 33.3796 433.003 100.885 407.451C171.026 380.902 203.982 401.21 233.437 415.382C274.365 435.074 344.695 547.655 344.695 547.655L385.755 418.952C385.755 418.952 356.108 378.861 289.55 355.716C215.626 330.007 177.2 345.074 106.294 373.6C53.4716 394.853 32.872 416.154 -31.999 404.607C-96.8702 393.06 -182.506 334.643 -182.506 334.643L-169.969 468.411Z" fill="white" fill-opacity="0.37"/>
</g>
<g style="mix-blend-mode:soft-light">
<path d="M-89.7234 244.21C-89.7234 244.21 -30.9335 265.999 22.9663 255.316C76.8659 244.633 125.533 203.246 199.502 172.097C276.358 139.732 306.506 166.223 334.175 184.839C372.621 210.704 424.362 355.305 424.362 355.305L489.938 192.429C489.938 192.429 466.787 140.843 402.65 110.072C331.415 75.892 289.215 94.2866 211.213 129.149C153.105 155.124 128.077 181.805 63.5623 165.819C-0.952436 149.834 -78.2645 73.8175 -78.2645 73.8175L-89.7234 244.21Z" fill="white" fill-opacity="0.37"/>
</g>
</g>
</g>
<defs>
<linearGradient id="paint0_linear_791_1595" x1="-38.8782" y1="128.854" x2="302.614" y2="493.489" gradientUnits="userSpaceOnUse">
<stop stop-color="#2939D1"/>
<stop offset="1" stop-color="#A980FF"/>
</linearGradient>
<linearGradient id="paint1_linear_791_1595" x1="-36.781" y1="141.763" x2="284.166" y2="484.461" gradientUnits="userSpaceOnUse">
<stop stop-color="#2939D1"/>
<stop offset="1" stop-color="#A980FF"/>
</linearGradient>
<linearGradient id="paint2_linear_791_1595" x1="-36.781" y1="141.763" x2="284.166" y2="484.461" gradientUnits="userSpaceOnUse">
<stop stop-color="#2939D1"/>
<stop offset="1" stop-color="#A980FF"/>
</linearGradient>
<clipPath id="clip0_791_1595">
<rect width="393" height="243" fill="white"/>
</clipPath>
</defs>
</svg>
