<svg width="131" height="131" viewBox="0 0 131 131" fill="none" xmlns="http://www.w3.org/2000/svg">
<g clip-path="url(#clip0_652_257)">
<mask id="mask0_652_257" style="mask-type:luminance" maskUnits="userSpaceOnUse" x="0" y="0" width="131" height="131">
<path d="M131 0H0V131H131V0Z" fill="white"/>
</mask>
<g mask="url(#mask0_652_257)">
<path d="M87.1523 18.8059C51.7756 18.8059 23.0996 45.7837 23.0996 79.0612V131.158H151.286V79.0612C151.286 45.7837 122.609 18.8059 87.2323 18.8059H87.1523Z" fill="url(#paint0_linear_652_257)"/>
<path d="M100.54 16.6854L95.5874 19.495L92.8786 24.6321L90.1697 19.495L85.2168 16.6854L90.1697 13.8757L92.8786 8.73853L95.5874 13.8757L100.54 16.6854Z" fill="#CCF261"/>
<path d="M107.39 24.6321L104.362 26.3499L102.706 29.4907L101.05 26.3499L98.0215 24.6321L101.05 22.9144L102.706 19.7734L104.362 22.9144L107.39 24.6321Z" fill="#CCF261"/>
<path d="M23.1818 49.5477L20.6773 50.9683L19.3077 53.566L17.9379 50.9683L15.4336 49.5477L17.9379 48.1272L19.3077 45.5295L20.6773 48.1272L23.1818 49.5477Z" fill="#CCF261"/>
<path d="M30.9974 39.4667L27.2186 41.6102L25.152 45.5295L23.0853 41.6102L19.3066 39.4667L23.0853 37.3232L25.152 33.4038L27.2186 37.3232L30.9974 39.4667Z" fill="#CCF261"/>
<path d="M18.7505 123.889L16.3198 125.268L14.9905 127.789L13.6611 125.268L11.2305 123.889L13.6611 122.51L14.9905 119.989L16.3198 122.51L18.7505 123.889Z" fill="#CCF261"/>
</g>
<g filter="url(#filter0_d_652_257)">
<path d="M53.1855 27.4631C40.9227 27.4631 30.998 36.2116 30.998 47.0212V47.6554V104.532H70.5159V105.167C70.5159 112.26 75.0254 118.177 81.4297 121.606C87.8102 118.173 92.2837 112.245 92.2837 105.167V104.532V47.6554H110.034V47.0212C110.034 36.2116 100.109 27.4631 87.8462 27.4631H53.1855Z" fill="#E8ECF1"/>
<path d="M101.13 31.3447C95.8568 34.9188 92.2832 40.6979 92.2832 47.0211V47.6554H110.033V47.0211C110.033 40.6979 106.501 34.8007 101.13 31.3447Z" fill="url(#paint1_linear_652_257)"/>
<path d="M60.0312 42.8098C60.0312 42.5812 60.1699 42.396 60.3408 42.396H85.7872C85.9582 42.396 86.0968 42.5812 86.0968 42.8098V45.22C86.0968 45.4487 85.9582 45.6339 85.7872 45.6339H60.3408C60.1699 45.6339 60.0312 45.4487 60.0312 45.22V42.8098Z" fill="#71C4E9"/>
<path d="M36.8906 80.7278C36.8906 80.4993 37.1524 80.314 37.4751 80.314H85.5131C85.836 80.314 86.0976 80.4993 86.0976 80.7278V83.138C86.0976 83.3666 85.836 83.5519 85.5131 83.5519H37.4751C37.1524 83.5519 36.8906 83.3666 36.8906 83.138V80.7278Z" fill="#71C4E9"/>
<path d="M36.8906 90.2073C36.8906 89.9788 37.0938 89.7935 37.3445 89.7935H74.6402C74.8909 89.7935 75.094 89.9788 75.094 90.2073V92.6176C75.094 92.8461 74.8909 93.0314 74.6402 93.0314H37.3445C37.0938 93.0314 36.8906 92.8461 36.8906 92.6176V90.2073Z" fill="#71C4E9"/>
<path d="M36.8906 99.6868C36.8906 99.4583 37.1368 99.2729 37.4405 99.2729H82.6238C82.9274 99.2729 83.1735 99.4583 83.1735 99.6868V102.097C83.1735 102.326 82.9274 102.511 82.6238 102.511H37.4405C37.1368 102.511 36.8906 102.326 36.8906 102.097V99.6868Z" fill="#71C4E9"/>
<path d="M60.0312 52.2893C60.0312 52.0607 60.1699 51.8755 60.3408 51.8755H85.7872C85.9582 51.8755 86.0968 52.0607 86.0968 52.2893V54.6995C86.0968 54.9281 85.9582 55.1134 85.7872 55.1134H60.3408C60.1699 55.1134 60.0312 54.9281 60.0312 54.6995V52.2893Z" fill="#71C4E9"/>
<path d="M36.8906 61.7688C36.8906 61.5402 37.1524 61.355 37.4751 61.355H85.5131C85.836 61.355 86.0976 61.5402 86.0976 61.7688V64.179C86.0976 64.4076 85.836 64.5929 85.5131 64.5929H37.4751C37.1524 64.5929 36.8906 64.4076 36.8906 64.179V61.7688Z" fill="#71C4E9"/>
<path d="M36.8906 71.2483C36.8906 71.0198 37.0453 70.8345 37.2362 70.8345H65.6279C65.8187 70.8345 65.9734 71.0198 65.9734 71.2483V73.6585C65.9734 73.8871 65.8187 74.0724 65.6279 74.0724H37.2362C37.0453 74.0724 36.8906 73.8871 36.8906 73.6585V71.2483Z" fill="#71C4E9"/>
<path d="M13.2461 104.532V105.167C13.2461 115.976 23.1709 124.725 35.4337 124.725H70.0942C74.3275 124.725 78.064 123.416 81.4279 121.606C75.0236 118.178 70.5141 112.26 70.5141 105.167V104.532H30.9962H13.2461Z" fill="url(#paint2_linear_652_257)"/>
<path d="M101 31V31C95.9531 34.7011 92.7479 40.3992 92.2057 46.6341L92 49" stroke="#7F9EC6"/>
<path d="M69.9911 104V104C70.4805 110.514 73.7417 116.504 78.9468 120.45L80.9911 122" stroke="#7F9EC6"/>
<line x1="13" y1="104.5" x2="70" y2="104.5" stroke="#7F9EC6"/>
<path opacity="0.986512" d="M46.6687 40.8945H48.9719C49.6487 40.8945 50.1972 41.6125 50.1972 42.4983V48.2602C50.1972 49.146 49.6487 49.8641 48.9719 49.8641H46.6687C45.9919 49.8641 45.4434 49.146 45.4434 48.2602V42.4983C45.4434 41.6125 45.9919 40.8945 46.6687 40.8945Z" fill="#C88711"/>
<path opacity="0.986512" d="M50.588 42.886V48.7453C50.588 49.6701 49.9495 50.4194 49.1613 50.4194H46.4785C45.6903 50.4194 45.0508 49.6701 45.0508 48.7453V42.8873C44.3516 43.1682 43.6842 43.3841 43.044 43.6476V47.9621C43.044 48.7077 42.5658 49.3128 41.9753 49.3128H39.9652C39.7256 49.3128 39.5052 49.2122 39.3283 49.0431C39.153 50.0461 39.0425 51.0599 38.9492 51.9142H46.6691H56.6896C56.5903 51.0043 56.4747 49.9921 56.2916 49.0054C56.1091 49.1957 55.877 49.3128 55.6209 49.3128H53.611C53.0205 49.3128 52.5423 48.7077 52.5423 47.9621V43.6461C51.8949 43.3754 51.2173 43.1385 50.588 42.886ZM52.8918 43.7958V47.3111C52.8918 48.0566 53.3701 48.6603 53.9605 48.6603H55.9705C56.0534 48.6603 56.1325 48.6431 56.2095 48.6199C55.9012 47.1253 55.4263 45.726 54.5902 44.8862C54.1354 44.4295 53.5377 44.0884 52.8918 43.7958ZM42.6945 43.7985C42.1035 44.0666 41.5376 44.3947 40.9971 44.8862C40.1762 45.6329 39.7104 47.0928 39.4104 48.6321C39.4768 48.6491 39.5451 48.6603 39.6157 48.6603H41.6258C42.2162 48.6603 42.6945 48.0566 42.6945 47.3111V43.7985Z" fill="#C88711"/>
<path opacity="0.986512" d="M38.949 52.4468H56.6894C56.6894 52.4468 61.3334 54.3706 56.6894 54.9992C54.3722 55.3128 51.1037 55.4795 47.8347 55.4895C44.5523 55.4997 41.2695 55.3519 38.949 55.037C34.3177 54.4085 38.949 52.4468 38.949 52.4468Z" fill="#C88711"/>
<path opacity="0.986512" d="M46.6687 40.6011H48.9719C49.6487 40.6011 50.1972 41.319 50.1972 42.2048V47.9668C50.1972 48.8525 49.6487 49.5706 48.9719 49.5706H46.6687C45.9919 49.5706 45.4434 48.8525 45.4434 47.9668V42.2048C45.4434 41.319 45.9919 40.6011 46.6687 40.6011Z" fill="#FFB900"/>
<path opacity="0.986512" d="M50.588 42.5925V48.4518C50.588 49.3766 49.9495 50.1259 49.1613 50.1259H46.4785C45.6903 50.1259 45.0508 49.3766 45.0508 48.4518V42.5938C44.3516 42.8747 43.6842 43.0907 43.044 43.3541V47.6687C43.044 48.4142 42.5658 49.0193 41.9753 49.0193H39.9652C39.7256 49.0193 39.5052 48.9188 39.3283 48.7497C39.153 49.7526 39.0425 50.7665 38.9492 51.6208H46.6691H56.6896C56.5903 50.7108 56.4747 49.6986 56.2916 48.7119C56.1091 48.9023 55.877 49.0193 55.6209 49.0193H53.611C53.0205 49.0193 52.5423 48.4142 52.5423 47.6687V43.3527C51.8949 43.082 51.2173 42.8451 50.588 42.5925ZM52.8918 43.5024V47.0176C52.8918 47.7632 53.3701 48.3669 53.9605 48.3669H55.9705C56.0534 48.3669 56.1325 48.3496 56.2095 48.3265C55.9012 46.8319 55.4263 45.4326 54.5902 44.5928C54.1354 44.136 53.5377 43.7949 52.8918 43.5024ZM42.6945 43.5051C42.1035 43.7732 41.5376 44.1012 40.9971 44.5928C40.1762 45.3394 39.7104 46.7994 39.4104 48.3386C39.4768 48.3556 39.5451 48.3669 39.6157 48.3669H41.6258C42.2162 48.3669 42.6945 47.7632 42.6945 47.0176V43.5051Z" fill="#FFB900"/>
<path opacity="0.986512" d="M38.949 52.1533H56.6894C56.6894 52.1533 61.3334 54.0771 56.6894 54.7058C54.3722 55.0193 51.1037 55.186 47.8347 55.196C44.5523 55.2062 41.2695 55.0586 38.949 54.7436C34.3177 54.115 38.949 52.1533 38.949 52.1533Z" fill="#FFB900"/>
</g>
<g filter="url(#filter1_d_652_257)">
<mask id="mask1_652_257" style="mask-type:luminance" maskUnits="userSpaceOnUse" x="0" y="0" width="131" height="131">
<path d="M131 0H0V131H131V0Z" fill="white"/>
</mask>
<g mask="url(#mask1_652_257)">
<path d="M90.6992 49.4321C79.1924 54.0491 72.4527 66.339 75.3476 78.56C77.617 88.1403 85.2049 95.0724 94.3269 97.1348L96.4412 106.071C97.8816 112.151 103.98 115.915 110.06 114.475L110.146 114.452C116.227 113.011 119.987 106.914 118.547 100.834L116.429 91.8996C123.657 85.9645 127.329 76.3627 125.06 66.7824C121.865 53.2972 108.147 45.0018 94.4199 48.2535C93.1329 48.5583 91.8895 48.9545 90.6992 49.4321Z" fill="url(#paint3_linear_652_257)"/>
<g style="mix-blend-mode:multiply">
<path d="M105.724 106.429C103.576 97.3612 101.83 89.307 95.9105 77.15C93.5156 72.2322 84.9607 62.2129 85.5635 70.2567C86.0323 76.5102 93.7999 76.8561 100.776 75.0954C107.8 73.5398 114.587 69.7463 112.201 63.947C109.131 56.4874 105.98 69.2799 106.046 74.7492C106.208 88.27 108.261 96.2515 110.409 105.319" stroke="#FECB46" stroke-width="1.56407" stroke-miterlimit="10" stroke-linecap="round" stroke-linejoin="round"/>
</g>
<path d="M117.921 98.1938C115.233 100.369 111.636 102.149 107.49 103.131L107.351 103.164C103.207 104.146 99.1958 104.171 95.8184 103.433L97.1727 109.151C97.9397 112.388 100.026 114.968 102.727 116.455C105.099 117.761 107.945 118.225 110.788 117.551L110.873 117.531C116.953 116.091 120.717 109.995 119.276 103.915L117.921 98.1938Z" fill="#A1D2E9"/>
<mask id="mask2_652_257" style="mask-type:luminance" maskUnits="userSpaceOnUse" x="95" y="98" width="25" height="20">
<path d="M117.921 98.1938C115.233 100.369 111.636 102.149 107.49 103.131L107.351 103.164C103.207 104.146 99.1958 104.171 95.8184 103.433L97.1727 109.151C97.9397 112.388 100.026 114.968 102.727 116.455C105.099 117.761 107.945 118.225 110.788 117.551L110.873 117.531C116.953 116.091 120.717 109.995 119.276 103.915L117.921 98.1938Z" fill="white"/>
</mask>
<g mask="url(#mask2_652_257)">
<path d="M118.632 101.194C115.944 103.369 112.347 105.149 108.201 106.131L108.062 106.164C103.918 107.146 99.9068 107.171 96.5293 106.433L96.9529 108.221C100.33 108.959 104.341 108.934 108.486 107.952L108.625 107.919C112.77 106.937 116.368 105.157 119.056 102.982L118.632 101.194Z" fill="#70A1B7"/>
<path d="M119.396 104.419C116.708 106.595 113.11 108.375 108.965 109.356L108.826 109.389C104.681 110.371 100.67 110.396 97.293 109.658L97.7164 111.446C101.094 112.185 105.105 112.159 109.249 111.178L109.389 111.145C113.534 110.163 117.131 108.383 119.819 106.207L119.396 104.419Z" fill="#70A1B7"/>
<path d="M120.177 107.722C117.489 109.897 113.892 111.677 109.746 112.659L109.607 112.692C105.463 113.674 101.452 113.699 98.0742 112.961L98.4978 114.749C101.875 115.487 105.886 115.462 110.031 114.48L110.17 114.447C111.844 114.051 113.429 113.524 114.9 112.894C117.073 111.963 118.998 110.807 120.6 109.51L120.177 107.722Z" fill="#70A1B7"/>
</g>
</g>
</g>
<path d="M125.335 43.3146C125.821 42.7517 126.672 42.6898 127.235 43.1763L127.33 43.2585C127.893 43.7451 127.955 44.5959 127.469 45.1589L120.608 53.0967C120.122 53.6597 119.271 53.7216 118.708 53.2351L118.613 53.1528C118.05 52.6663 117.988 51.8156 118.474 51.2525L125.335 43.3146Z" fill="#FFF48B"/>
<path d="M115.189 41.4764C115.457 40.7744 116.244 40.4226 116.946 40.6908L117.038 40.726C117.74 40.9941 118.092 41.7808 117.824 42.483L115.478 48.6216C115.21 49.3236 114.423 49.6755 113.721 49.4072L113.63 49.372C112.927 49.1039 112.576 48.3172 112.844 47.615L115.189 41.4764Z" fill="#FFF48B"/>
<path d="M127.759 53.4123C128.421 53.0321 129.266 53.2608 129.647 53.9232L129.674 53.9706C130.054 54.6329 129.825 55.4781 129.163 55.8583L124.89 58.311C124.227 58.6912 123.382 58.4624 123.002 57.8L122.975 57.7527C122.595 57.0903 122.823 56.2452 123.486 55.865L127.759 53.4123Z" fill="#FFF48B"/>
<mask id="mask3_652_257" style="mask-type:luminance" maskUnits="userSpaceOnUse" x="0" y="0" width="131" height="131">
<path d="M131 0H0V131H131V0Z" fill="white"/>
</mask>
<g mask="url(#mask3_652_257)">
<g filter="url(#filter2_d_652_257)">
<path d="M36.0871 98.7465C35.0914 99.7871 35.1314 101.437 36.1721 102.432L94.3029 158.052C95.3436 159.047 96.9895 159.012 97.9852 157.97L104.941 150.701C105.936 149.66 105.9 148.015 104.859 147.018L46.7286 91.3991C45.6881 90.4035 44.0383 90.4362 43.0426 91.4769L36.0871 98.7465ZM42.9555 98.2879C43.9025 97.298 45.4726 97.2634 46.4624 98.2104C47.4522 99.1574 47.4869 100.728 46.5398 101.717C45.5927 102.707 44.0227 102.742 43.0329 101.795C42.0431 100.848 42.0084 99.2777 42.9555 98.2879Z" fill="#2C7BE2"/>
<path d="M50.123 102.77L54.1802 98.5293L50.123 102.77Z" fill="#2C7BE2"/>
<path d="M50.123 102.77L54.1802 98.5293" stroke="#13406B" stroke-width="0.749914" stroke-miterlimit="10" stroke-linejoin="round"/>
<path d="M56.166 104.49L58.1946 102.37L56.166 104.49Z" fill="#2C7BE2"/>
<path d="M56.166 104.49L58.1946 102.37" stroke="#13406B" stroke-width="0.749914" stroke-miterlimit="10" stroke-linejoin="round"/>
<path d="M60.1816 108.331L62.2103 106.211L60.1816 108.331Z" fill="#2C7BE2"/>
<path d="M60.1816 108.331L62.2103 106.211" stroke="#13406B" stroke-width="0.749914" stroke-miterlimit="10" stroke-linejoin="round"/>
<path d="M64.1953 112.172L66.2239 110.052L64.1953 112.172Z" fill="#2C7BE2"/>
<path d="M64.1953 112.172L66.2239 110.052" stroke="#13406B" stroke-width="0.749914" stroke-miterlimit="10" stroke-linejoin="round"/>
<path d="M66.1816 118.134L70.2388 113.893L66.1816 118.134Z" fill="#2C7BE2"/>
<path d="M66.1816 118.134L70.2388 113.893" stroke="#13406B" stroke-width="0.749914" stroke-miterlimit="10" stroke-linejoin="round"/>
<path d="M72.2246 119.854L74.2532 117.734L72.2246 119.854Z" fill="#2C7BE2"/>
<path d="M72.2246 119.854L74.2532 117.734" stroke="#13406B" stroke-width="0.749914" stroke-miterlimit="10" stroke-linejoin="round"/>
<path d="M76.2383 123.695L78.2669 121.575L76.2383 123.695Z" fill="#2C7BE2"/>
<path d="M76.2383 123.695L78.2669 121.575" stroke="#13406B" stroke-width="0.749914" stroke-miterlimit="10" stroke-linejoin="round"/>
<path d="M80.252 127.536L82.2807 125.416L80.252 127.536Z" fill="#2C7BE2"/>
<path d="M80.252 127.536L82.2807 125.416" stroke="#13406B" stroke-width="0.749914" stroke-miterlimit="10" stroke-linejoin="round"/>
<path d="M82.2383 133.497L86.2954 129.256L82.2383 133.497Z" fill="#2C7BE2"/>
<path d="M82.2383 133.497L86.2954 129.256" stroke="#13406B" stroke-width="0.749914" stroke-miterlimit="10" stroke-linejoin="round"/>
<g filter="url(#filter3_d_652_257)">
<path d="M121.253 103.933L127.797 104.612L121.015 169.987L114.471 169.309L121.253 103.933Z" fill="#545454"/>
<path d="M123.171 103.484L116.322 169.501" stroke="#303030" stroke-width="0.508159" stroke-miterlimit="10" stroke-linejoin="round"/>
<path d="M126.011 103.778L119.162 169.795" stroke="#303030" stroke-width="0.508159" stroke-miterlimit="10" stroke-linejoin="round"/>
<path d="M125.717 93.0312L121.305 103.938L127.796 104.611L125.717 93.0312Z" fill="#FFCB7C"/>
<mask id="mask4_652_257" style="mask-type:luminance" maskUnits="userSpaceOnUse" x="121" y="93" width="7" height="12">
<path d="M125.717 93.0312L121.305 103.938L127.796 104.611L125.717 93.0312Z" fill="white"/>
</mask>
<g mask="url(#mask4_652_257)">
<path d="M122.596 90.9834C122.621 90.7396 122.857 90.5642 123.123 90.5917L128.705 91.1708C128.97 91.1984 129.166 91.4184 129.14 91.6622L128.491 97.9112C128.466 98.155 128.23 98.3304 127.964 98.3028L122.383 97.7238C122.117 97.6962 121.922 97.4762 121.948 97.2324L122.596 90.9834Z" fill="#545454"/>
</g>
</g>
</g>
</g>
<g filter="url(#filter4_d_652_257)">
<path d="M101.019 136.1L76.116 93.7961C75.6773 93.0406 75.4182 92.1944 75.3588 91.3228C75.2994 90.4512 75.4413 89.5777 75.7735 88.7698C76.7652 86.3068 76.3722 83.7525 75.0099 81.4384C73.1872 78.342 66.6062 76.1209 64.9007 77.1249C64.8365 77.1627 64.7642 77.2082 64.6855 77.2612C64.5878 77.3267 64.5055 77.4128 64.4445 77.5134C64.3835 77.614 64.3452 77.7267 64.3323 77.8437C64.3194 77.9606 64.3321 78.079 64.3697 78.1905C64.4073 78.302 64.4687 78.4039 64.5498 78.4892L69.2485 83.4383C69.3447 83.5397 69.4201 83.6591 69.4702 83.7897C69.5203 83.9202 69.5442 84.0594 69.5405 84.1992C69.5369 84.339 69.5057 84.4767 69.4488 84.6044C69.392 84.7322 69.3105 84.8475 69.209 84.9437L64.92 89.0148C64.7152 89.2091 64.4416 89.3142 64.1593 89.3069C63.8771 89.2995 63.6093 89.1804 63.4148 88.9757L58.715 84.0248C58.6227 83.9274 58.5066 83.8557 58.3782 83.8167C58.2498 83.7778 58.1134 83.7729 57.9825 83.8027C57.8516 83.8324 57.7308 83.8957 57.6318 83.9863C57.5328 84.0769 57.459 84.1917 57.4179 84.3195C56.7355 86.4674 57.2337 89.0679 58.9711 92.0193C59.5833 93.0512 60.4365 93.9194 61.4575 94.5496C62.4786 95.1798 63.6371 95.5532 64.8339 95.6378C65.7019 95.7063 66.5413 95.98 67.2827 96.4365C68.0242 96.8931 68.6465 97.5193 69.0985 98.2635L93.8541 140.318C94.1311 140.788 94.498 141.2 94.934 141.529C95.3699 141.857 95.8663 142.097 96.3949 142.234C96.9234 142.371 97.4738 142.402 98.0144 142.326C98.5551 142.25 99.0756 142.069 99.5461 141.792C100.017 141.515 100.428 141.148 100.757 140.712C101.085 140.276 101.325 139.78 101.462 139.251C101.599 138.723 101.63 138.172 101.554 137.632C101.478 137.091 101.297 136.57 101.02 136.1L101.019 136.1ZM95.7299 138.794C95.5647 138.514 95.4864 138.191 95.5049 137.866C95.5233 137.541 95.6377 137.229 95.8336 136.969C96.0294 136.709 96.298 136.513 96.6052 136.406C96.9125 136.298 97.2447 136.285 97.5598 136.366C97.8748 136.448 98.1587 136.621 98.3753 136.864C98.592 137.107 98.7318 137.408 98.777 137.731C98.8223 138.053 98.7709 138.381 98.6295 138.674C98.488 138.968 98.2628 139.212 97.9824 139.377C97.6064 139.599 97.1579 139.662 96.7355 139.552C96.3131 139.443 95.9514 139.17 95.7299 138.794Z" fill="#78A4AD"/>
</g>
</g>
<defs>
<filter id="filter0_d_652_257" x="12.4883" y="27.4631" width="98.0566" height="98.2852" filterUnits="userSpaceOnUse" color-interpolation-filters="sRGB">
<feFlood flood-opacity="0" result="BackgroundImageFix"/>
<feColorMatrix in="SourceAlpha" type="matrix" values="0 0 0 0 0 0 0 0 0 0 0 0 0 0 0 0 0 0 127 0" result="hardAlpha"/>
<feOffset dy="0.511719"/>
<feGaussianBlur stdDeviation="0.255859"/>
<feComposite in2="hardAlpha" operator="out"/>
<feColorMatrix type="matrix" values="0 0 0 0 0 0 0 0 0 0 0 0 0 0 0 0 0 0 0.25 0"/>
<feBlend mode="normal" in2="BackgroundImageFix" result="effect1_dropShadow_652_257"/>
<feBlend mode="normal" in="SourceGraphic" in2="effect1_dropShadow_652_257" result="shape"/>
</filter>
<filter id="filter1_d_652_257" x="74.166" y="47.5479" width="52.0742" height="71.334" filterUnits="userSpaceOnUse" color-interpolation-filters="sRGB">
<feFlood flood-opacity="0" result="BackgroundImageFix"/>
<feColorMatrix in="SourceAlpha" type="matrix" values="0 0 0 0 0 0 0 0 0 0 0 0 0 0 0 0 0 0 127 0" result="hardAlpha"/>
<feOffset dy="0.511719"/>
<feGaussianBlur stdDeviation="0.255859"/>
<feComposite in2="hardAlpha" operator="out"/>
<feColorMatrix type="matrix" values="0 0 0 0 0 0 0 0 0 0 0 0 0 0 0 0 0 0 0.25 0"/>
<feBlend mode="normal" in2="BackgroundImageFix" result="effect1_dropShadow_652_257"/>
<feBlend mode="normal" in="SourceGraphic" in2="effect1_dropShadow_652_257" result="shape"/>
</filter>
<filter id="filter2_d_652_257" x="34.8535" y="90.6738" width="93.4551" height="80.3362" filterUnits="userSpaceOnUse" color-interpolation-filters="sRGB">
<feFlood flood-opacity="0" result="BackgroundImageFix"/>
<feColorMatrix in="SourceAlpha" type="matrix" values="0 0 0 0 0 0 0 0 0 0 0 0 0 0 0 0 0 0 127 0" result="hardAlpha"/>
<feOffset dy="0.511719"/>
<feGaussianBlur stdDeviation="0.255859"/>
<feComposite in2="hardAlpha" operator="out"/>
<feColorMatrix type="matrix" values="0 0 0 0 0 0 0 0 0 0 0 0 0 0 0 0 0 0 0.25 0"/>
<feBlend mode="normal" in2="BackgroundImageFix" result="effect1_dropShadow_652_257"/>
<feBlend mode="normal" in="SourceGraphic" in2="effect1_dropShadow_652_257" result="shape"/>
</filter>
<filter id="filter3_d_652_257" x="113.959" y="93.0312" width="14.3496" height="77.9788" filterUnits="userSpaceOnUse" color-interpolation-filters="sRGB">
<feFlood flood-opacity="0" result="BackgroundImageFix"/>
<feColorMatrix in="SourceAlpha" type="matrix" values="0 0 0 0 0 0 0 0 0 0 0 0 0 0 0 0 0 0 127 0" result="hardAlpha"/>
<feOffset dy="0.511719"/>
<feGaussianBlur stdDeviation="0.255859"/>
<feComposite in2="hardAlpha" operator="out"/>
<feColorMatrix type="matrix" values="0 0 0 0 0 0 0 0 0 0 0 0 0 0 0 0 0 0 0.25 0"/>
<feBlend mode="normal" in2="BackgroundImageFix" result="effect1_dropShadow_652_257"/>
<feBlend mode="normal" in="SourceGraphic" in2="effect1_dropShadow_652_257" result="shape"/>
</filter>
<filter id="filter4_d_652_257" x="56.6113" y="76.8809" width="45.4941" height="66.509" filterUnits="userSpaceOnUse" color-interpolation-filters="sRGB">
<feFlood flood-opacity="0" result="BackgroundImageFix"/>
<feColorMatrix in="SourceAlpha" type="matrix" values="0 0 0 0 0 0 0 0 0 0 0 0 0 0 0 0 0 0 127 0" result="hardAlpha"/>
<feOffset dy="0.511719"/>
<feGaussianBlur stdDeviation="0.255859"/>
<feComposite in2="hardAlpha" operator="out"/>
<feColorMatrix type="matrix" values="0 0 0 0 0 0 0 0 0 0 0 0 0 0 0 0 0 0 0.25 0"/>
<feBlend mode="normal" in2="BackgroundImageFix" result="effect1_dropShadow_652_257"/>
<feBlend mode="normal" in="SourceGraphic" in2="effect1_dropShadow_652_257" result="shape"/>
</filter>
<linearGradient id="paint0_linear_652_257" x1="87.4732" y1="16.6766" x2="97.0357" y2="145.264" gradientUnits="userSpaceOnUse">
<stop stop-color="#9BE976"/>
<stop offset="1" stop-color="#0E7583"/>
</linearGradient>
<linearGradient id="paint1_linear_652_257" x1="101.126" y1="36.708" x2="101.269" y2="48.0069" gradientUnits="userSpaceOnUse">
<stop stop-color="#B0C8EA"/>
<stop offset="1" stop-color="#E8ECF1"/>
</linearGradient>
<linearGradient id="paint2_linear_652_257" x1="43.1941" y1="104.488" x2="39.3426" y2="135.212" gradientUnits="userSpaceOnUse">
<stop stop-color="#B0C8EA"/>
<stop offset="1" stop-color="#E8ECF1"/>
</linearGradient>
<linearGradient id="paint3_linear_652_257" x1="94.3027" y1="48.7256" x2="111.357" y2="112.799" gradientUnits="userSpaceOnUse">
<stop stop-color="#FFF065"/>
<stop offset="1" stop-color="#FFBE3F"/>
</linearGradient>
<clipPath id="clip0_652_257">
<path d="M0 0H131V92.5865C131 113.802 113.802 131 92.5865 131H0V0Z" fill="white"/>
</clipPath>
</defs>
</svg>
