<svg width="393" height="303" viewBox="0 0 393 303" fill="none" xmlns="http://www.w3.org/2000/svg">
<circle cx="195.5" cy="22.5" r="270.5" fill="url(#paint0_linear_652_966)"/>
<path d="M21 302C21 301.448 20.5523 301 20 301C19.4477 301 19 301.448 19 302C19 302.552 19.4477 303 20 303C20.5523 303 21 302.552 21 302Z" fill="white" fill-opacity="0.3"/>
<path d="M21 280C21 279.448 20.5523 279 20 279C19.4477 279 19 279.448 19 280C19 280.552 19.4477 281 20 281C20.5523 281 21 280.552 21 280Z" fill="white" fill-opacity="0.3"/>
<path d="M21 258C21 257.448 20.5523 257 20 257C19.4477 257 19 257.448 19 258C19 258.552 19.4477 259 20 259C20.5523 259 21 258.552 21 258Z" fill="white" fill-opacity="0.3"/>
<path d="M21 236C21 235.448 20.5523 235 20 235C19.4477 235 19 235.448 19 236C19 236.552 19.4477 237 20 237C20.5523 237 21 236.552 21 236Z" fill="white" fill-opacity="0.3"/>
<path d="M21 214C21 213.448 20.5523 213 20 213C19.4477 213 19 213.448 19 214C19 214.552 19.4477 215 20 215C20.5523 215 21 214.552 21 214Z" fill="white" fill-opacity="0.3"/>
<path d="M21 192C21 191.448 20.5523 191 20 191C19.4477 191 19 191.448 19 192C19 192.552 19.4477 193 20 193C20.5523 193 21 192.552 21 192Z" fill="white" fill-opacity="0.3"/>
<path d="M21 170C21 169.448 20.5523 169 20 169C19.4477 169 19 169.448 19 170C19 170.552 19.4477 171 20 171C20.5523 171 21 170.552 21 170Z" fill="white" fill-opacity="0.3"/>
<path d="M21 148C21 147.448 20.5523 147 20 147C19.4477 147 19 147.448 19 148C19 148.552 19.4477 149 20 149C20.5523 149 21 148.552 21 148Z" fill="white" fill-opacity="0.3"/>
<path d="M21 126C21 125.448 20.5523 125 20 125C19.4477 125 19 125.448 19 126C19 126.552 19.4477 127 20 127C20.5523 127 21 126.552 21 126Z" fill="white" fill-opacity="0.3"/>
<path d="M21 104C21 103.448 20.5523 103 20 103C19.4477 103 19 103.448 19 104C19 104.552 19.4477 105 20 105C20.5523 105 21 104.552 21 104Z" fill="white" fill-opacity="0.3"/>
<path d="M21 82C21 81.4477 20.5523 81 20 81C19.4477 81 19 81.4477 19 82C19 82.5523 19.4477 83 20 83C20.5523 83 21 82.5523 21 82Z" fill="white" fill-opacity="0.3"/>
<path d="M21 60C21 59.4477 20.5523 59 20 59C19.4477 59 19 59.4477 19 60C19 60.5523 19.4477 61 20 61C20.5523 61 21 60.5523 21 60Z" fill="white" fill-opacity="0.3"/>
<path d="M21 38C21 37.4477 20.5523 37 20 37C19.4477 37 19 37.4477 19 38C19 38.5523 19.4477 39 20 39C20.5523 39 21 38.5523 21 38Z" fill="white" fill-opacity="0.3"/>
<path d="M21 16C21 15.4477 20.5523 15 20 15C19.4477 15 19 15.4477 19 16C19 16.5523 19.4477 17 20 17C20.5523 17 21 16.5523 21 16Z" fill="white" fill-opacity="0.3"/>
<path d="M43 302C43 301.448 42.5523 301 42 301C41.4477 301 41 301.448 41 302C41 302.552 41.4477 303 42 303C42.5523 303 43 302.552 43 302Z" fill="white" fill-opacity="0.3"/>
<path d="M43 280C43 279.448 42.5523 279 42 279C41.4477 279 41 279.448 41 280C41 280.552 41.4477 281 42 281C42.5523 281 43 280.552 43 280Z" fill="white" fill-opacity="0.3"/>
<path d="M43 258C43 257.448 42.5523 257 42 257C41.4477 257 41 257.448 41 258C41 258.552 41.4477 259 42 259C42.5523 259 43 258.552 43 258Z" fill="white" fill-opacity="0.3"/>
<path d="M43 236C43 235.448 42.5523 235 42 235C41.4477 235 41 235.448 41 236C41 236.552 41.4477 237 42 237C42.5523 237 43 236.552 43 236Z" fill="white" fill-opacity="0.3"/>
<path d="M43 214C43 213.448 42.5523 213 42 213C41.4477 213 41 213.448 41 214C41 214.552 41.4477 215 42 215C42.5523 215 43 214.552 43 214Z" fill="white" fill-opacity="0.3"/>
<path d="M43 192C43 191.448 42.5523 191 42 191C41.4477 191 41 191.448 41 192C41 192.552 41.4477 193 42 193C42.5523 193 43 192.552 43 192Z" fill="white" fill-opacity="0.3"/>
<path d="M43 170C43 169.448 42.5523 169 42 169C41.4477 169 41 169.448 41 170C41 170.552 41.4477 171 42 171C42.5523 171 43 170.552 43 170Z" fill="white" fill-opacity="0.3"/>
<path d="M43 148C43 147.448 42.5523 147 42 147C41.4477 147 41 147.448 41 148C41 148.552 41.4477 149 42 149C42.5523 149 43 148.552 43 148Z" fill="white" fill-opacity="0.3"/>
<path d="M43 126C43 125.448 42.5523 125 42 125C41.4477 125 41 125.448 41 126C41 126.552 41.4477 127 42 127C42.5523 127 43 126.552 43 126Z" fill="white" fill-opacity="0.3"/>
<path d="M43 104C43 103.448 42.5523 103 42 103C41.4477 103 41 103.448 41 104C41 104.552 41.4477 105 42 105C42.5523 105 43 104.552 43 104Z" fill="white" fill-opacity="0.3"/>
<path d="M43 82C43 81.4477 42.5523 81 42 81C41.4477 81 41 81.4477 41 82C41 82.5523 41.4477 83 42 83C42.5523 83 43 82.5523 43 82Z" fill="white" fill-opacity="0.3"/>
<path d="M43 60C43 59.4477 42.5523 59 42 59C41.4477 59 41 59.4477 41 60C41 60.5523 41.4477 61 42 61C42.5523 61 43 60.5523 43 60Z" fill="white" fill-opacity="0.3"/>
<path d="M43 38C43 37.4477 42.5523 37 42 37C41.4477 37 41 37.4477 41 38C41 38.5523 41.4477 39 42 39C42.5523 39 43 38.5523 43 38Z" fill="white" fill-opacity="0.3"/>
<path d="M43 16C43 15.4477 42.5523 15 42 15C41.4477 15 41 15.4477 41 16C41 16.5523 41.4477 17 42 17C42.5523 17 43 16.5523 43 16Z" fill="white" fill-opacity="0.3"/>
<path d="M65 302C65 301.448 64.5523 301 64 301C63.4477 301 63 301.448 63 302C63 302.552 63.4477 303 64 303C64.5523 303 65 302.552 65 302Z" fill="white" fill-opacity="0.3"/>
<path d="M65 280C65 279.448 64.5523 279 64 279C63.4477 279 63 279.448 63 280C63 280.552 63.4477 281 64 281C64.5523 281 65 280.552 65 280Z" fill="white" fill-opacity="0.3"/>
<path d="M65 258C65 257.448 64.5523 257 64 257C63.4477 257 63 257.448 63 258C63 258.552 63.4477 259 64 259C64.5523 259 65 258.552 65 258Z" fill="white" fill-opacity="0.3"/>
<path d="M65 236C65 235.448 64.5523 235 64 235C63.4477 235 63 235.448 63 236C63 236.552 63.4477 237 64 237C64.5523 237 65 236.552 65 236Z" fill="white" fill-opacity="0.3"/>
<path d="M65 214C65 213.448 64.5523 213 64 213C63.4477 213 63 213.448 63 214C63 214.552 63.4477 215 64 215C64.5523 215 65 214.552 65 214Z" fill="white" fill-opacity="0.3"/>
<path d="M65 192C65 191.448 64.5523 191 64 191C63.4477 191 63 191.448 63 192C63 192.552 63.4477 193 64 193C64.5523 193 65 192.552 65 192Z" fill="white" fill-opacity="0.3"/>
<path d="M65 170C65 169.448 64.5523 169 64 169C63.4477 169 63 169.448 63 170C63 170.552 63.4477 171 64 171C64.5523 171 65 170.552 65 170Z" fill="white" fill-opacity="0.3"/>
<path d="M65 148C65 147.448 64.5523 147 64 147C63.4477 147 63 147.448 63 148C63 148.552 63.4477 149 64 149C64.5523 149 65 148.552 65 148Z" fill="white" fill-opacity="0.3"/>
<path d="M65 126C65 125.448 64.5523 125 64 125C63.4477 125 63 125.448 63 126C63 126.552 63.4477 127 64 127C64.5523 127 65 126.552 65 126Z" fill="white" fill-opacity="0.3"/>
<path d="M65 104C65 103.448 64.5523 103 64 103C63.4477 103 63 103.448 63 104C63 104.552 63.4477 105 64 105C64.5523 105 65 104.552 65 104Z" fill="white" fill-opacity="0.3"/>
<path d="M65 82C65 81.4477 64.5523 81 64 81C63.4477 81 63 81.4477 63 82C63 82.5523 63.4477 83 64 83C64.5523 83 65 82.5523 65 82Z" fill="white" fill-opacity="0.3"/>
<path d="M65 60C65 59.4477 64.5523 59 64 59C63.4477 59 63 59.4477 63 60C63 60.5523 63.4477 61 64 61C64.5523 61 65 60.5523 65 60Z" fill="white" fill-opacity="0.3"/>
<path d="M65 38C65 37.4477 64.5523 37 64 37C63.4477 37 63 37.4477 63 38C63 38.5523 63.4477 39 64 39C64.5523 39 65 38.5523 65 38Z" fill="white" fill-opacity="0.3"/>
<path d="M65 16C65 15.4477 64.5523 15 64 15C63.4477 15 63 15.4477 63 16C63 16.5523 63.4477 17 64 17C64.5523 17 65 16.5523 65 16Z" fill="white" fill-opacity="0.3"/>
<path d="M87 302C87 301.448 86.5523 301 86 301C85.4477 301 85 301.448 85 302C85 302.552 85.4477 303 86 303C86.5523 303 87 302.552 87 302Z" fill="white" fill-opacity="0.3"/>
<path d="M87 280C87 279.448 86.5523 279 86 279C85.4477 279 85 279.448 85 280C85 280.552 85.4477 281 86 281C86.5523 281 87 280.552 87 280Z" fill="white" fill-opacity="0.3"/>
<path d="M87 258C87 257.448 86.5523 257 86 257C85.4477 257 85 257.448 85 258C85 258.552 85.4477 259 86 259C86.5523 259 87 258.552 87 258Z" fill="white" fill-opacity="0.3"/>
<path d="M87 236C87 235.448 86.5523 235 86 235C85.4477 235 85 235.448 85 236C85 236.552 85.4477 237 86 237C86.5523 237 87 236.552 87 236Z" fill="white" fill-opacity="0.3"/>
<path d="M87 214C87 213.448 86.5523 213 86 213C85.4477 213 85 213.448 85 214C85 214.552 85.4477 215 86 215C86.5523 215 87 214.552 87 214Z" fill="white" fill-opacity="0.3"/>
<path d="M87 192C87 191.448 86.5523 191 86 191C85.4477 191 85 191.448 85 192C85 192.552 85.4477 193 86 193C86.5523 193 87 192.552 87 192Z" fill="white" fill-opacity="0.3"/>
<path d="M87 170C87 169.448 86.5523 169 86 169C85.4477 169 85 169.448 85 170C85 170.552 85.4477 171 86 171C86.5523 171 87 170.552 87 170Z" fill="white" fill-opacity="0.3"/>
<path d="M87 148C87 147.448 86.5523 147 86 147C85.4477 147 85 147.448 85 148C85 148.552 85.4477 149 86 149C86.5523 149 87 148.552 87 148Z" fill="white" fill-opacity="0.3"/>
<path d="M87 126C87 125.448 86.5523 125 86 125C85.4477 125 85 125.448 85 126C85 126.552 85.4477 127 86 127C86.5523 127 87 126.552 87 126Z" fill="white" fill-opacity="0.3"/>
<path d="M87 104C87 103.448 86.5523 103 86 103C85.4477 103 85 103.448 85 104C85 104.552 85.4477 105 86 105C86.5523 105 87 104.552 87 104Z" fill="white" fill-opacity="0.3"/>
<path d="M87 82C87 81.4477 86.5523 81 86 81C85.4477 81 85 81.4477 85 82C85 82.5523 85.4477 83 86 83C86.5523 83 87 82.5523 87 82Z" fill="white" fill-opacity="0.3"/>
<path d="M87 60C87 59.4477 86.5523 59 86 59C85.4477 59 85 59.4477 85 60C85 60.5523 85.4477 61 86 61C86.5523 61 87 60.5523 87 60Z" fill="white" fill-opacity="0.3"/>
<path d="M87 38C87 37.4477 86.5523 37 86 37C85.4477 37 85 37.4477 85 38C85 38.5523 85.4477 39 86 39C86.5523 39 87 38.5523 87 38Z" fill="white" fill-opacity="0.3"/>
<path d="M87 16C87 15.4477 86.5523 15 86 15C85.4477 15 85 15.4477 85 16C85 16.5523 85.4477 17 86 17C86.5523 17 87 16.5523 87 16Z" fill="white" fill-opacity="0.3"/>
<path d="M109 302C109 301.448 108.552 301 108 301C107.448 301 107 301.448 107 302C107 302.552 107.448 303 108 303C108.552 303 109 302.552 109 302Z" fill="white" fill-opacity="0.3"/>
<path d="M109 280C109 279.448 108.552 279 108 279C107.448 279 107 279.448 107 280C107 280.552 107.448 281 108 281C108.552 281 109 280.552 109 280Z" fill="white" fill-opacity="0.3"/>
<path d="M109 258C109 257.448 108.552 257 108 257C107.448 257 107 257.448 107 258C107 258.552 107.448 259 108 259C108.552 259 109 258.552 109 258Z" fill="white" fill-opacity="0.3"/>
<path d="M109 236C109 235.448 108.552 235 108 235C107.448 235 107 235.448 107 236C107 236.552 107.448 237 108 237C108.552 237 109 236.552 109 236Z" fill="white" fill-opacity="0.3"/>
<path d="M109 214C109 213.448 108.552 213 108 213C107.448 213 107 213.448 107 214C107 214.552 107.448 215 108 215C108.552 215 109 214.552 109 214Z" fill="white" fill-opacity="0.3"/>
<path d="M109 192C109 191.448 108.552 191 108 191C107.448 191 107 191.448 107 192C107 192.552 107.448 193 108 193C108.552 193 109 192.552 109 192Z" fill="white" fill-opacity="0.3"/>
<path d="M109 170C109 169.448 108.552 169 108 169C107.448 169 107 169.448 107 170C107 170.552 107.448 171 108 171C108.552 171 109 170.552 109 170Z" fill="white" fill-opacity="0.3"/>
<path d="M109 148C109 147.448 108.552 147 108 147C107.448 147 107 147.448 107 148C107 148.552 107.448 149 108 149C108.552 149 109 148.552 109 148Z" fill="white" fill-opacity="0.3"/>
<path d="M109 126C109 125.448 108.552 125 108 125C107.448 125 107 125.448 107 126C107 126.552 107.448 127 108 127C108.552 127 109 126.552 109 126Z" fill="white" fill-opacity="0.3"/>
<path d="M109 104C109 103.448 108.552 103 108 103C107.448 103 107 103.448 107 104C107 104.552 107.448 105 108 105C108.552 105 109 104.552 109 104Z" fill="white" fill-opacity="0.3"/>
<path d="M109 82C109 81.4477 108.552 81 108 81C107.448 81 107 81.4477 107 82C107 82.5523 107.448 83 108 83C108.552 83 109 82.5523 109 82Z" fill="white" fill-opacity="0.3"/>
<path d="M109 60C109 59.4477 108.552 59 108 59C107.448 59 107 59.4477 107 60C107 60.5523 107.448 61 108 61C108.552 61 109 60.5523 109 60Z" fill="white" fill-opacity="0.3"/>
<path d="M109 38C109 37.4477 108.552 37 108 37C107.448 37 107 37.4477 107 38C107 38.5523 107.448 39 108 39C108.552 39 109 38.5523 109 38Z" fill="white" fill-opacity="0.3"/>
<path d="M109 16C109 15.4477 108.552 15 108 15C107.448 15 107 15.4477 107 16C107 16.5523 107.448 17 108 17C108.552 17 109 16.5523 109 16Z" fill="white" fill-opacity="0.3"/>
<path d="M131 302C131 301.448 130.552 301 130 301C129.448 301 129 301.448 129 302C129 302.552 129.448 303 130 303C130.552 303 131 302.552 131 302Z" fill="white" fill-opacity="0.3"/>
<path d="M131 280C131 279.448 130.552 279 130 279C129.448 279 129 279.448 129 280C129 280.552 129.448 281 130 281C130.552 281 131 280.552 131 280Z" fill="white" fill-opacity="0.3"/>
<path d="M131 258C131 257.448 130.552 257 130 257C129.448 257 129 257.448 129 258C129 258.552 129.448 259 130 259C130.552 259 131 258.552 131 258Z" fill="white" fill-opacity="0.3"/>
<path d="M131 236C131 235.448 130.552 235 130 235C129.448 235 129 235.448 129 236C129 236.552 129.448 237 130 237C130.552 237 131 236.552 131 236Z" fill="white" fill-opacity="0.3"/>
<path d="M131 214C131 213.448 130.552 213 130 213C129.448 213 129 213.448 129 214C129 214.552 129.448 215 130 215C130.552 215 131 214.552 131 214Z" fill="white" fill-opacity="0.3"/>
<path d="M131 192C131 191.448 130.552 191 130 191C129.448 191 129 191.448 129 192C129 192.552 129.448 193 130 193C130.552 193 131 192.552 131 192Z" fill="white" fill-opacity="0.3"/>
<path d="M131 170C131 169.448 130.552 169 130 169C129.448 169 129 169.448 129 170C129 170.552 129.448 171 130 171C130.552 171 131 170.552 131 170Z" fill="white" fill-opacity="0.3"/>
<path d="M131 148C131 147.448 130.552 147 130 147C129.448 147 129 147.448 129 148C129 148.552 129.448 149 130 149C130.552 149 131 148.552 131 148Z" fill="white" fill-opacity="0.3"/>
<path d="M131 126C131 125.448 130.552 125 130 125C129.448 125 129 125.448 129 126C129 126.552 129.448 127 130 127C130.552 127 131 126.552 131 126Z" fill="white" fill-opacity="0.3"/>
<path d="M131 104C131 103.448 130.552 103 130 103C129.448 103 129 103.448 129 104C129 104.552 129.448 105 130 105C130.552 105 131 104.552 131 104Z" fill="white" fill-opacity="0.3"/>
<path d="M131 82C131 81.4477 130.552 81 130 81C129.448 81 129 81.4477 129 82C129 82.5523 129.448 83 130 83C130.552 83 131 82.5523 131 82Z" fill="white" fill-opacity="0.3"/>
<path d="M131 60C131 59.4477 130.552 59 130 59C129.448 59 129 59.4477 129 60C129 60.5523 129.448 61 130 61C130.552 61 131 60.5523 131 60Z" fill="white" fill-opacity="0.3"/>
<path d="M131 38C131 37.4477 130.552 37 130 37C129.448 37 129 37.4477 129 38C129 38.5523 129.448 39 130 39C130.552 39 131 38.5523 131 38Z" fill="white" fill-opacity="0.3"/>
<path d="M131 16C131 15.4477 130.552 15 130 15C129.448 15 129 15.4477 129 16C129 16.5523 129.448 17 130 17C130.552 17 131 16.5523 131 16Z" fill="white" fill-opacity="0.3"/>
<path d="M153 302C153 301.448 152.552 301 152 301C151.448 301 151 301.448 151 302C151 302.552 151.448 303 152 303C152.552 303 153 302.552 153 302Z" fill="white" fill-opacity="0.3"/>
<path d="M153 280C153 279.448 152.552 279 152 279C151.448 279 151 279.448 151 280C151 280.552 151.448 281 152 281C152.552 281 153 280.552 153 280Z" fill="white" fill-opacity="0.3"/>
<path d="M153 258C153 257.448 152.552 257 152 257C151.448 257 151 257.448 151 258C151 258.552 151.448 259 152 259C152.552 259 153 258.552 153 258Z" fill="white" fill-opacity="0.3"/>
<path d="M153 236C153 235.448 152.552 235 152 235C151.448 235 151 235.448 151 236C151 236.552 151.448 237 152 237C152.552 237 153 236.552 153 236Z" fill="white" fill-opacity="0.3"/>
<path d="M153 214C153 213.448 152.552 213 152 213C151.448 213 151 213.448 151 214C151 214.552 151.448 215 152 215C152.552 215 153 214.552 153 214Z" fill="white" fill-opacity="0.3"/>
<path d="M153 192C153 191.448 152.552 191 152 191C151.448 191 151 191.448 151 192C151 192.552 151.448 193 152 193C152.552 193 153 192.552 153 192Z" fill="white" fill-opacity="0.3"/>
<path d="M153 170C153 169.448 152.552 169 152 169C151.448 169 151 169.448 151 170C151 170.552 151.448 171 152 171C152.552 171 153 170.552 153 170Z" fill="white" fill-opacity="0.3"/>
<path d="M153 148C153 147.448 152.552 147 152 147C151.448 147 151 147.448 151 148C151 148.552 151.448 149 152 149C152.552 149 153 148.552 153 148Z" fill="white" fill-opacity="0.3"/>
<path d="M153 126C153 125.448 152.552 125 152 125C151.448 125 151 125.448 151 126C151 126.552 151.448 127 152 127C152.552 127 153 126.552 153 126Z" fill="white" fill-opacity="0.3"/>
<path d="M153 104C153 103.448 152.552 103 152 103C151.448 103 151 103.448 151 104C151 104.552 151.448 105 152 105C152.552 105 153 104.552 153 104Z" fill="white" fill-opacity="0.3"/>
<path d="M153 82C153 81.4477 152.552 81 152 81C151.448 81 151 81.4477 151 82C151 82.5523 151.448 83 152 83C152.552 83 153 82.5523 153 82Z" fill="white" fill-opacity="0.3"/>
<path d="M153 60C153 59.4477 152.552 59 152 59C151.448 59 151 59.4477 151 60C151 60.5523 151.448 61 152 61C152.552 61 153 60.5523 153 60Z" fill="white" fill-opacity="0.3"/>
<path d="M153 38C153 37.4477 152.552 37 152 37C151.448 37 151 37.4477 151 38C151 38.5523 151.448 39 152 39C152.552 39 153 38.5523 153 38Z" fill="white" fill-opacity="0.3"/>
<path d="M153 16C153 15.4477 152.552 15 152 15C151.448 15 151 15.4477 151 16C151 16.5523 151.448 17 152 17C152.552 17 153 16.5523 153 16Z" fill="white" fill-opacity="0.3"/>
<path d="M175 302C175 301.448 174.552 301 174 301C173.448 301 173 301.448 173 302C173 302.552 173.448 303 174 303C174.552 303 175 302.552 175 302Z" fill="white" fill-opacity="0.3"/>
<path d="M175 280C175 279.448 174.552 279 174 279C173.448 279 173 279.448 173 280C173 280.552 173.448 281 174 281C174.552 281 175 280.552 175 280Z" fill="white" fill-opacity="0.3"/>
<path d="M175 258C175 257.448 174.552 257 174 257C173.448 257 173 257.448 173 258C173 258.552 173.448 259 174 259C174.552 259 175 258.552 175 258Z" fill="white" fill-opacity="0.3"/>
<path d="M175 236C175 235.448 174.552 235 174 235C173.448 235 173 235.448 173 236C173 236.552 173.448 237 174 237C174.552 237 175 236.552 175 236Z" fill="white" fill-opacity="0.3"/>
<path d="M175 214C175 213.448 174.552 213 174 213C173.448 213 173 213.448 173 214C173 214.552 173.448 215 174 215C174.552 215 175 214.552 175 214Z" fill="white" fill-opacity="0.3"/>
<path d="M175 192C175 191.448 174.552 191 174 191C173.448 191 173 191.448 173 192C173 192.552 173.448 193 174 193C174.552 193 175 192.552 175 192Z" fill="white" fill-opacity="0.3"/>
<path d="M175 170C175 169.448 174.552 169 174 169C173.448 169 173 169.448 173 170C173 170.552 173.448 171 174 171C174.552 171 175 170.552 175 170Z" fill="white" fill-opacity="0.3"/>
<path d="M175 148C175 147.448 174.552 147 174 147C173.448 147 173 147.448 173 148C173 148.552 173.448 149 174 149C174.552 149 175 148.552 175 148Z" fill="white" fill-opacity="0.3"/>
<path d="M175 126C175 125.448 174.552 125 174 125C173.448 125 173 125.448 173 126C173 126.552 173.448 127 174 127C174.552 127 175 126.552 175 126Z" fill="white" fill-opacity="0.3"/>
<path d="M175 104C175 103.448 174.552 103 174 103C173.448 103 173 103.448 173 104C173 104.552 173.448 105 174 105C174.552 105 175 104.552 175 104Z" fill="white" fill-opacity="0.3"/>
<path d="M175 82C175 81.4477 174.552 81 174 81C173.448 81 173 81.4477 173 82C173 82.5523 173.448 83 174 83C174.552 83 175 82.5523 175 82Z" fill="white" fill-opacity="0.3"/>
<path d="M175 60C175 59.4477 174.552 59 174 59C173.448 59 173 59.4477 173 60C173 60.5523 173.448 61 174 61C174.552 61 175 60.5523 175 60Z" fill="white" fill-opacity="0.3"/>
<path d="M175 38C175 37.4477 174.552 37 174 37C173.448 37 173 37.4477 173 38C173 38.5523 173.448 39 174 39C174.552 39 175 38.5523 175 38Z" fill="white" fill-opacity="0.3"/>
<path d="M175 16C175 15.4477 174.552 15 174 15C173.448 15 173 15.4477 173 16C173 16.5523 173.448 17 174 17C174.552 17 175 16.5523 175 16Z" fill="white" fill-opacity="0.3"/>
<path d="M197 302C197 301.448 196.552 301 196 301C195.448 301 195 301.448 195 302C195 302.552 195.448 303 196 303C196.552 303 197 302.552 197 302Z" fill="white" fill-opacity="0.3"/>
<path d="M197 280C197 279.448 196.552 279 196 279C195.448 279 195 279.448 195 280C195 280.552 195.448 281 196 281C196.552 281 197 280.552 197 280Z" fill="white" fill-opacity="0.3"/>
<path d="M197 258C197 257.448 196.552 257 196 257C195.448 257 195 257.448 195 258C195 258.552 195.448 259 196 259C196.552 259 197 258.552 197 258Z" fill="white" fill-opacity="0.3"/>
<path d="M197 236C197 235.448 196.552 235 196 235C195.448 235 195 235.448 195 236C195 236.552 195.448 237 196 237C196.552 237 197 236.552 197 236Z" fill="white" fill-opacity="0.3"/>
<path d="M197 214C197 213.448 196.552 213 196 213C195.448 213 195 213.448 195 214C195 214.552 195.448 215 196 215C196.552 215 197 214.552 197 214Z" fill="white" fill-opacity="0.3"/>
<path d="M197 192C197 191.448 196.552 191 196 191C195.448 191 195 191.448 195 192C195 192.552 195.448 193 196 193C196.552 193 197 192.552 197 192Z" fill="white" fill-opacity="0.3"/>
<path d="M197 170C197 169.448 196.552 169 196 169C195.448 169 195 169.448 195 170C195 170.552 195.448 171 196 171C196.552 171 197 170.552 197 170Z" fill="white" fill-opacity="0.3"/>
<path d="M197 148C197 147.448 196.552 147 196 147C195.448 147 195 147.448 195 148C195 148.552 195.448 149 196 149C196.552 149 197 148.552 197 148Z" fill="white" fill-opacity="0.3"/>
<path d="M197 126C197 125.448 196.552 125 196 125C195.448 125 195 125.448 195 126C195 126.552 195.448 127 196 127C196.552 127 197 126.552 197 126Z" fill="white" fill-opacity="0.3"/>
<path d="M197 104C197 103.448 196.552 103 196 103C195.448 103 195 103.448 195 104C195 104.552 195.448 105 196 105C196.552 105 197 104.552 197 104Z" fill="white" fill-opacity="0.3"/>
<path d="M197 82C197 81.4477 196.552 81 196 81C195.448 81 195 81.4477 195 82C195 82.5523 195.448 83 196 83C196.552 83 197 82.5523 197 82Z" fill="white" fill-opacity="0.3"/>
<path d="M197 60C197 59.4477 196.552 59 196 59C195.448 59 195 59.4477 195 60C195 60.5523 195.448 61 196 61C196.552 61 197 60.5523 197 60Z" fill="white" fill-opacity="0.3"/>
<path d="M197 38C197 37.4477 196.552 37 196 37C195.448 37 195 37.4477 195 38C195 38.5523 195.448 39 196 39C196.552 39 197 38.5523 197 38Z" fill="white" fill-opacity="0.3"/>
<path d="M197 16C197 15.4477 196.552 15 196 15C195.448 15 195 15.4477 195 16C195 16.5523 195.448 17 196 17C196.552 17 197 16.5523 197 16Z" fill="white" fill-opacity="0.3"/>
<path d="M219 302C219 301.448 218.552 301 218 301C217.448 301 217 301.448 217 302C217 302.552 217.448 303 218 303C218.552 303 219 302.552 219 302Z" fill="white" fill-opacity="0.3"/>
<path d="M219 280C219 279.448 218.552 279 218 279C217.448 279 217 279.448 217 280C217 280.552 217.448 281 218 281C218.552 281 219 280.552 219 280Z" fill="white" fill-opacity="0.3"/>
<path d="M219 258C219 257.448 218.552 257 218 257C217.448 257 217 257.448 217 258C217 258.552 217.448 259 218 259C218.552 259 219 258.552 219 258Z" fill="white" fill-opacity="0.3"/>
<path d="M219 236C219 235.448 218.552 235 218 235C217.448 235 217 235.448 217 236C217 236.552 217.448 237 218 237C218.552 237 219 236.552 219 236Z" fill="white" fill-opacity="0.3"/>
<path d="M219 214C219 213.448 218.552 213 218 213C217.448 213 217 213.448 217 214C217 214.552 217.448 215 218 215C218.552 215 219 214.552 219 214Z" fill="white" fill-opacity="0.3"/>
<path d="M219 192C219 191.448 218.552 191 218 191C217.448 191 217 191.448 217 192C217 192.552 217.448 193 218 193C218.552 193 219 192.552 219 192Z" fill="white" fill-opacity="0.3"/>
<path d="M219 170C219 169.448 218.552 169 218 169C217.448 169 217 169.448 217 170C217 170.552 217.448 171 218 171C218.552 171 219 170.552 219 170Z" fill="white" fill-opacity="0.3"/>
<path d="M219 148C219 147.448 218.552 147 218 147C217.448 147 217 147.448 217 148C217 148.552 217.448 149 218 149C218.552 149 219 148.552 219 148Z" fill="white" fill-opacity="0.3"/>
<path d="M219 126C219 125.448 218.552 125 218 125C217.448 125 217 125.448 217 126C217 126.552 217.448 127 218 127C218.552 127 219 126.552 219 126Z" fill="white" fill-opacity="0.3"/>
<path d="M219 104C219 103.448 218.552 103 218 103C217.448 103 217 103.448 217 104C217 104.552 217.448 105 218 105C218.552 105 219 104.552 219 104Z" fill="white" fill-opacity="0.3"/>
<path d="M219 82C219 81.4477 218.552 81 218 81C217.448 81 217 81.4477 217 82C217 82.5523 217.448 83 218 83C218.552 83 219 82.5523 219 82Z" fill="white" fill-opacity="0.3"/>
<path d="M219 60C219 59.4477 218.552 59 218 59C217.448 59 217 59.4477 217 60C217 60.5523 217.448 61 218 61C218.552 61 219 60.5523 219 60Z" fill="white" fill-opacity="0.3"/>
<path d="M219 38C219 37.4477 218.552 37 218 37C217.448 37 217 37.4477 217 38C217 38.5523 217.448 39 218 39C218.552 39 219 38.5523 219 38Z" fill="white" fill-opacity="0.3"/>
<path d="M219 16C219 15.4477 218.552 15 218 15C217.448 15 217 15.4477 217 16C217 16.5523 217.448 17 218 17C218.552 17 219 16.5523 219 16Z" fill="white" fill-opacity="0.3"/>
<path d="M241 302C241 301.448 240.552 301 240 301C239.448 301 239 301.448 239 302C239 302.552 239.448 303 240 303C240.552 303 241 302.552 241 302Z" fill="white" fill-opacity="0.3"/>
<path d="M241 280C241 279.448 240.552 279 240 279C239.448 279 239 279.448 239 280C239 280.552 239.448 281 240 281C240.552 281 241 280.552 241 280Z" fill="white" fill-opacity="0.3"/>
<path d="M241 258C241 257.448 240.552 257 240 257C239.448 257 239 257.448 239 258C239 258.552 239.448 259 240 259C240.552 259 241 258.552 241 258Z" fill="white" fill-opacity="0.3"/>
<path d="M241 236C241 235.448 240.552 235 240 235C239.448 235 239 235.448 239 236C239 236.552 239.448 237 240 237C240.552 237 241 236.552 241 236Z" fill="white" fill-opacity="0.3"/>
<path d="M241 214C241 213.448 240.552 213 240 213C239.448 213 239 213.448 239 214C239 214.552 239.448 215 240 215C240.552 215 241 214.552 241 214Z" fill="white" fill-opacity="0.3"/>
<path d="M241 192C241 191.448 240.552 191 240 191C239.448 191 239 191.448 239 192C239 192.552 239.448 193 240 193C240.552 193 241 192.552 241 192Z" fill="white" fill-opacity="0.3"/>
<path d="M241 170C241 169.448 240.552 169 240 169C239.448 169 239 169.448 239 170C239 170.552 239.448 171 240 171C240.552 171 241 170.552 241 170Z" fill="white" fill-opacity="0.3"/>
<path d="M241 148C241 147.448 240.552 147 240 147C239.448 147 239 147.448 239 148C239 148.552 239.448 149 240 149C240.552 149 241 148.552 241 148Z" fill="white" fill-opacity="0.3"/>
<path d="M241 126C241 125.448 240.552 125 240 125C239.448 125 239 125.448 239 126C239 126.552 239.448 127 240 127C240.552 127 241 126.552 241 126Z" fill="white" fill-opacity="0.3"/>
<path d="M241 104C241 103.448 240.552 103 240 103C239.448 103 239 103.448 239 104C239 104.552 239.448 105 240 105C240.552 105 241 104.552 241 104Z" fill="white" fill-opacity="0.3"/>
<path d="M241 82C241 81.4477 240.552 81 240 81C239.448 81 239 81.4477 239 82C239 82.5523 239.448 83 240 83C240.552 83 241 82.5523 241 82Z" fill="white" fill-opacity="0.3"/>
<path d="M241 60C241 59.4477 240.552 59 240 59C239.448 59 239 59.4477 239 60C239 60.5523 239.448 61 240 61C240.552 61 241 60.5523 241 60Z" fill="white" fill-opacity="0.3"/>
<path d="M241 38C241 37.4477 240.552 37 240 37C239.448 37 239 37.4477 239 38C239 38.5523 239.448 39 240 39C240.552 39 241 38.5523 241 38Z" fill="white" fill-opacity="0.3"/>
<path d="M241 16C241 15.4477 240.552 15 240 15C239.448 15 239 15.4477 239 16C239 16.5523 239.448 17 240 17C240.552 17 241 16.5523 241 16Z" fill="white" fill-opacity="0.3"/>
<path d="M263 302C263 301.448 262.552 301 262 301C261.448 301 261 301.448 261 302C261 302.552 261.448 303 262 303C262.552 303 263 302.552 263 302Z" fill="white" fill-opacity="0.3"/>
<path d="M263 280C263 279.448 262.552 279 262 279C261.448 279 261 279.448 261 280C261 280.552 261.448 281 262 281C262.552 281 263 280.552 263 280Z" fill="white" fill-opacity="0.3"/>
<path d="M263 258C263 257.448 262.552 257 262 257C261.448 257 261 257.448 261 258C261 258.552 261.448 259 262 259C262.552 259 263 258.552 263 258Z" fill="white" fill-opacity="0.3"/>
<path d="M263 236C263 235.448 262.552 235 262 235C261.448 235 261 235.448 261 236C261 236.552 261.448 237 262 237C262.552 237 263 236.552 263 236Z" fill="white" fill-opacity="0.3"/>
<path d="M263 214C263 213.448 262.552 213 262 213C261.448 213 261 213.448 261 214C261 214.552 261.448 215 262 215C262.552 215 263 214.552 263 214Z" fill="white" fill-opacity="0.3"/>
<path d="M263 192C263 191.448 262.552 191 262 191C261.448 191 261 191.448 261 192C261 192.552 261.448 193 262 193C262.552 193 263 192.552 263 192Z" fill="white" fill-opacity="0.3"/>
<path d="M263 170C263 169.448 262.552 169 262 169C261.448 169 261 169.448 261 170C261 170.552 261.448 171 262 171C262.552 171 263 170.552 263 170Z" fill="white" fill-opacity="0.3"/>
<path d="M263 148C263 147.448 262.552 147 262 147C261.448 147 261 147.448 261 148C261 148.552 261.448 149 262 149C262.552 149 263 148.552 263 148Z" fill="white" fill-opacity="0.3"/>
<path d="M263 126C263 125.448 262.552 125 262 125C261.448 125 261 125.448 261 126C261 126.552 261.448 127 262 127C262.552 127 263 126.552 263 126Z" fill="white" fill-opacity="0.3"/>
<path d="M263 104C263 103.448 262.552 103 262 103C261.448 103 261 103.448 261 104C261 104.552 261.448 105 262 105C262.552 105 263 104.552 263 104Z" fill="white" fill-opacity="0.3"/>
<path d="M263 82C263 81.4477 262.552 81 262 81C261.448 81 261 81.4477 261 82C261 82.5523 261.448 83 262 83C262.552 83 263 82.5523 263 82Z" fill="white" fill-opacity="0.3"/>
<path d="M263 60C263 59.4477 262.552 59 262 59C261.448 59 261 59.4477 261 60C261 60.5523 261.448 61 262 61C262.552 61 263 60.5523 263 60Z" fill="white" fill-opacity="0.3"/>
<path d="M263 38C263 37.4477 262.552 37 262 37C261.448 37 261 37.4477 261 38C261 38.5523 261.448 39 262 39C262.552 39 263 38.5523 263 38Z" fill="white" fill-opacity="0.3"/>
<path d="M263 16C263 15.4477 262.552 15 262 15C261.448 15 261 15.4477 261 16C261 16.5523 261.448 17 262 17C262.552 17 263 16.5523 263 16Z" fill="white" fill-opacity="0.3"/>
<path d="M285 302C285 301.448 284.552 301 284 301C283.448 301 283 301.448 283 302C283 302.552 283.448 303 284 303C284.552 303 285 302.552 285 302Z" fill="white" fill-opacity="0.3"/>
<path d="M285 280C285 279.448 284.552 279 284 279C283.448 279 283 279.448 283 280C283 280.552 283.448 281 284 281C284.552 281 285 280.552 285 280Z" fill="white" fill-opacity="0.3"/>
<path d="M285 258C285 257.448 284.552 257 284 257C283.448 257 283 257.448 283 258C283 258.552 283.448 259 284 259C284.552 259 285 258.552 285 258Z" fill="white" fill-opacity="0.3"/>
<path d="M285 236C285 235.448 284.552 235 284 235C283.448 235 283 235.448 283 236C283 236.552 283.448 237 284 237C284.552 237 285 236.552 285 236Z" fill="white" fill-opacity="0.3"/>
<path d="M285 214C285 213.448 284.552 213 284 213C283.448 213 283 213.448 283 214C283 214.552 283.448 215 284 215C284.552 215 285 214.552 285 214Z" fill="white" fill-opacity="0.3"/>
<path d="M285 192C285 191.448 284.552 191 284 191C283.448 191 283 191.448 283 192C283 192.552 283.448 193 284 193C284.552 193 285 192.552 285 192Z" fill="white" fill-opacity="0.3"/>
<path d="M285 170C285 169.448 284.552 169 284 169C283.448 169 283 169.448 283 170C283 170.552 283.448 171 284 171C284.552 171 285 170.552 285 170Z" fill="white" fill-opacity="0.3"/>
<path d="M285 148C285 147.448 284.552 147 284 147C283.448 147 283 147.448 283 148C283 148.552 283.448 149 284 149C284.552 149 285 148.552 285 148Z" fill="white" fill-opacity="0.3"/>
<path d="M285 126C285 125.448 284.552 125 284 125C283.448 125 283 125.448 283 126C283 126.552 283.448 127 284 127C284.552 127 285 126.552 285 126Z" fill="white" fill-opacity="0.3"/>
<path d="M285 104C285 103.448 284.552 103 284 103C283.448 103 283 103.448 283 104C283 104.552 283.448 105 284 105C284.552 105 285 104.552 285 104Z" fill="white" fill-opacity="0.3"/>
<path d="M285 82C285 81.4477 284.552 81 284 81C283.448 81 283 81.4477 283 82C283 82.5523 283.448 83 284 83C284.552 83 285 82.5523 285 82Z" fill="white" fill-opacity="0.3"/>
<path d="M285 60C285 59.4477 284.552 59 284 59C283.448 59 283 59.4477 283 60C283 60.5523 283.448 61 284 61C284.552 61 285 60.5523 285 60Z" fill="white" fill-opacity="0.3"/>
<path d="M285 38C285 37.4477 284.552 37 284 37C283.448 37 283 37.4477 283 38C283 38.5523 283.448 39 284 39C284.552 39 285 38.5523 285 38Z" fill="white" fill-opacity="0.3"/>
<path d="M285 16C285 15.4477 284.552 15 284 15C283.448 15 283 15.4477 283 16C283 16.5523 283.448 17 284 17C284.552 17 285 16.5523 285 16Z" fill="white" fill-opacity="0.3"/>
<path d="M307 302C307 301.448 306.552 301 306 301C305.448 301 305 301.448 305 302C305 302.552 305.448 303 306 303C306.552 303 307 302.552 307 302Z" fill="white" fill-opacity="0.3"/>
<path d="M307 280C307 279.448 306.552 279 306 279C305.448 279 305 279.448 305 280C305 280.552 305.448 281 306 281C306.552 281 307 280.552 307 280Z" fill="white" fill-opacity="0.3"/>
<path d="M307 258C307 257.448 306.552 257 306 257C305.448 257 305 257.448 305 258C305 258.552 305.448 259 306 259C306.552 259 307 258.552 307 258Z" fill="white" fill-opacity="0.3"/>
<path d="M307 236C307 235.448 306.552 235 306 235C305.448 235 305 235.448 305 236C305 236.552 305.448 237 306 237C306.552 237 307 236.552 307 236Z" fill="white" fill-opacity="0.3"/>
<path d="M307 214C307 213.448 306.552 213 306 213C305.448 213 305 213.448 305 214C305 214.552 305.448 215 306 215C306.552 215 307 214.552 307 214Z" fill="white" fill-opacity="0.3"/>
<path d="M307 192C307 191.448 306.552 191 306 191C305.448 191 305 191.448 305 192C305 192.552 305.448 193 306 193C306.552 193 307 192.552 307 192Z" fill="white" fill-opacity="0.3"/>
<path d="M307 170C307 169.448 306.552 169 306 169C305.448 169 305 169.448 305 170C305 170.552 305.448 171 306 171C306.552 171 307 170.552 307 170Z" fill="white" fill-opacity="0.3"/>
<path d="M307 148C307 147.448 306.552 147 306 147C305.448 147 305 147.448 305 148C305 148.552 305.448 149 306 149C306.552 149 307 148.552 307 148Z" fill="white" fill-opacity="0.3"/>
<path d="M307 126C307 125.448 306.552 125 306 125C305.448 125 305 125.448 305 126C305 126.552 305.448 127 306 127C306.552 127 307 126.552 307 126Z" fill="white" fill-opacity="0.3"/>
<path d="M307 104C307 103.448 306.552 103 306 103C305.448 103 305 103.448 305 104C305 104.552 305.448 105 306 105C306.552 105 307 104.552 307 104Z" fill="white" fill-opacity="0.3"/>
<path d="M307 82C307 81.4477 306.552 81 306 81C305.448 81 305 81.4477 305 82C305 82.5523 305.448 83 306 83C306.552 83 307 82.5523 307 82Z" fill="white" fill-opacity="0.3"/>
<path d="M307 60C307 59.4477 306.552 59 306 59C305.448 59 305 59.4477 305 60C305 60.5523 305.448 61 306 61C306.552 61 307 60.5523 307 60Z" fill="white" fill-opacity="0.3"/>
<path d="M307 38C307 37.4477 306.552 37 306 37C305.448 37 305 37.4477 305 38C305 38.5523 305.448 39 306 39C306.552 39 307 38.5523 307 38Z" fill="white" fill-opacity="0.3"/>
<path d="M307 16C307 15.4477 306.552 15 306 15C305.448 15 305 15.4477 305 16C305 16.5523 305.448 17 306 17C306.552 17 307 16.5523 307 16Z" fill="white" fill-opacity="0.3"/>
<path d="M329 302C329 301.448 328.552 301 328 301C327.448 301 327 301.448 327 302C327 302.552 327.448 303 328 303C328.552 303 329 302.552 329 302Z" fill="white" fill-opacity="0.3"/>
<path d="M329 280C329 279.448 328.552 279 328 279C327.448 279 327 279.448 327 280C327 280.552 327.448 281 328 281C328.552 281 329 280.552 329 280Z" fill="white" fill-opacity="0.3"/>
<path d="M329 258C329 257.448 328.552 257 328 257C327.448 257 327 257.448 327 258C327 258.552 327.448 259 328 259C328.552 259 329 258.552 329 258Z" fill="white" fill-opacity="0.3"/>
<path d="M329 236C329 235.448 328.552 235 328 235C327.448 235 327 235.448 327 236C327 236.552 327.448 237 328 237C328.552 237 329 236.552 329 236Z" fill="white" fill-opacity="0.3"/>
<path d="M329 214C329 213.448 328.552 213 328 213C327.448 213 327 213.448 327 214C327 214.552 327.448 215 328 215C328.552 215 329 214.552 329 214Z" fill="white" fill-opacity="0.3"/>
<path d="M329 192C329 191.448 328.552 191 328 191C327.448 191 327 191.448 327 192C327 192.552 327.448 193 328 193C328.552 193 329 192.552 329 192Z" fill="white" fill-opacity="0.3"/>
<path d="M329 170C329 169.448 328.552 169 328 169C327.448 169 327 169.448 327 170C327 170.552 327.448 171 328 171C328.552 171 329 170.552 329 170Z" fill="white" fill-opacity="0.3"/>
<path d="M329 148C329 147.448 328.552 147 328 147C327.448 147 327 147.448 327 148C327 148.552 327.448 149 328 149C328.552 149 329 148.552 329 148Z" fill="white" fill-opacity="0.3"/>
<path d="M329 126C329 125.448 328.552 125 328 125C327.448 125 327 125.448 327 126C327 126.552 327.448 127 328 127C328.552 127 329 126.552 329 126Z" fill="white" fill-opacity="0.3"/>
<path d="M329 104C329 103.448 328.552 103 328 103C327.448 103 327 103.448 327 104C327 104.552 327.448 105 328 105C328.552 105 329 104.552 329 104Z" fill="white" fill-opacity="0.3"/>
<path d="M329 82C329 81.4477 328.552 81 328 81C327.448 81 327 81.4477 327 82C327 82.5523 327.448 83 328 83C328.552 83 329 82.5523 329 82Z" fill="white" fill-opacity="0.3"/>
<path d="M329 60C329 59.4477 328.552 59 328 59C327.448 59 327 59.4477 327 60C327 60.5523 327.448 61 328 61C328.552 61 329 60.5523 329 60Z" fill="white" fill-opacity="0.3"/>
<path d="M329 38C329 37.4477 328.552 37 328 37C327.448 37 327 37.4477 327 38C327 38.5523 327.448 39 328 39C328.552 39 329 38.5523 329 38Z" fill="white" fill-opacity="0.3"/>
<path d="M329 16C329 15.4477 328.552 15 328 15C327.448 15 327 15.4477 327 16C327 16.5523 327.448 17 328 17C328.552 17 329 16.5523 329 16Z" fill="white" fill-opacity="0.3"/>
<path d="M351 302C351 301.448 350.552 301 350 301C349.448 301 349 301.448 349 302C349 302.552 349.448 303 350 303C350.552 303 351 302.552 351 302Z" fill="white" fill-opacity="0.3"/>
<path d="M351 280C351 279.448 350.552 279 350 279C349.448 279 349 279.448 349 280C349 280.552 349.448 281 350 281C350.552 281 351 280.552 351 280Z" fill="white" fill-opacity="0.3"/>
<path d="M351 258C351 257.448 350.552 257 350 257C349.448 257 349 257.448 349 258C349 258.552 349.448 259 350 259C350.552 259 351 258.552 351 258Z" fill="white" fill-opacity="0.3"/>
<path d="M351 236C351 235.448 350.552 235 350 235C349.448 235 349 235.448 349 236C349 236.552 349.448 237 350 237C350.552 237 351 236.552 351 236Z" fill="white" fill-opacity="0.3"/>
<path d="M351 214C351 213.448 350.552 213 350 213C349.448 213 349 213.448 349 214C349 214.552 349.448 215 350 215C350.552 215 351 214.552 351 214Z" fill="white" fill-opacity="0.3"/>
<path d="M351 192C351 191.448 350.552 191 350 191C349.448 191 349 191.448 349 192C349 192.552 349.448 193 350 193C350.552 193 351 192.552 351 192Z" fill="white" fill-opacity="0.3"/>
<path d="M351 170C351 169.448 350.552 169 350 169C349.448 169 349 169.448 349 170C349 170.552 349.448 171 350 171C350.552 171 351 170.552 351 170Z" fill="white" fill-opacity="0.3"/>
<path d="M351 148C351 147.448 350.552 147 350 147C349.448 147 349 147.448 349 148C349 148.552 349.448 149 350 149C350.552 149 351 148.552 351 148Z" fill="white" fill-opacity="0.3"/>
<path d="M351 126C351 125.448 350.552 125 350 125C349.448 125 349 125.448 349 126C349 126.552 349.448 127 350 127C350.552 127 351 126.552 351 126Z" fill="white" fill-opacity="0.3"/>
<path d="M351 104C351 103.448 350.552 103 350 103C349.448 103 349 103.448 349 104C349 104.552 349.448 105 350 105C350.552 105 351 104.552 351 104Z" fill="white" fill-opacity="0.3"/>
<path d="M351 82C351 81.4477 350.552 81 350 81C349.448 81 349 81.4477 349 82C349 82.5523 349.448 83 350 83C350.552 83 351 82.5523 351 82Z" fill="white" fill-opacity="0.3"/>
<path d="M351 60C351 59.4477 350.552 59 350 59C349.448 59 349 59.4477 349 60C349 60.5523 349.448 61 350 61C350.552 61 351 60.5523 351 60Z" fill="white" fill-opacity="0.3"/>
<path d="M351 38C351 37.4477 350.552 37 350 37C349.448 37 349 37.4477 349 38C349 38.5523 349.448 39 350 39C350.552 39 351 38.5523 351 38Z" fill="white" fill-opacity="0.3"/>
<path d="M351 16C351 15.4477 350.552 15 350 15C349.448 15 349 15.4477 349 16C349 16.5523 349.448 17 350 17C350.552 17 351 16.5523 351 16Z" fill="white" fill-opacity="0.3"/>
<path d="M373 302C373 301.448 372.552 301 372 301C371.448 301 371 301.448 371 302C371 302.552 371.448 303 372 303C372.552 303 373 302.552 373 302Z" fill="white" fill-opacity="0.3"/>
<path d="M373 280C373 279.448 372.552 279 372 279C371.448 279 371 279.448 371 280C371 280.552 371.448 281 372 281C372.552 281 373 280.552 373 280Z" fill="white" fill-opacity="0.3"/>
<path d="M373 258C373 257.448 372.552 257 372 257C371.448 257 371 257.448 371 258C371 258.552 371.448 259 372 259C372.552 259 373 258.552 373 258Z" fill="white" fill-opacity="0.3"/>
<path d="M373 236C373 235.448 372.552 235 372 235C371.448 235 371 235.448 371 236C371 236.552 371.448 237 372 237C372.552 237 373 236.552 373 236Z" fill="white" fill-opacity="0.3"/>
<path d="M373 214C373 213.448 372.552 213 372 213C371.448 213 371 213.448 371 214C371 214.552 371.448 215 372 215C372.552 215 373 214.552 373 214Z" fill="white" fill-opacity="0.3"/>
<path d="M373 192C373 191.448 372.552 191 372 191C371.448 191 371 191.448 371 192C371 192.552 371.448 193 372 193C372.552 193 373 192.552 373 192Z" fill="white" fill-opacity="0.3"/>
<path d="M373 170C373 169.448 372.552 169 372 169C371.448 169 371 169.448 371 170C371 170.552 371.448 171 372 171C372.552 171 373 170.552 373 170Z" fill="white" fill-opacity="0.3"/>
<path d="M373 148C373 147.448 372.552 147 372 147C371.448 147 371 147.448 371 148C371 148.552 371.448 149 372 149C372.552 149 373 148.552 373 148Z" fill="white" fill-opacity="0.3"/>
<path d="M373 126C373 125.448 372.552 125 372 125C371.448 125 371 125.448 371 126C371 126.552 371.448 127 372 127C372.552 127 373 126.552 373 126Z" fill="white" fill-opacity="0.3"/>
<path d="M373 104C373 103.448 372.552 103 372 103C371.448 103 371 103.448 371 104C371 104.552 371.448 105 372 105C372.552 105 373 104.552 373 104Z" fill="white" fill-opacity="0.3"/>
<path d="M373 82C373 81.4477 372.552 81 372 81C371.448 81 371 81.4477 371 82C371 82.5523 371.448 83 372 83C372.552 83 373 82.5523 373 82Z" fill="white" fill-opacity="0.3"/>
<path d="M373 60C373 59.4477 372.552 59 372 59C371.448 59 371 59.4477 371 60C371 60.5523 371.448 61 372 61C372.552 61 373 60.5523 373 60Z" fill="white" fill-opacity="0.3"/>
<path d="M373 38C373 37.4477 372.552 37 372 37C371.448 37 371 37.4477 371 38C371 38.5523 371.448 39 372 39C372.552 39 373 38.5523 373 38Z" fill="white" fill-opacity="0.3"/>
<path d="M373 16C373 15.4477 372.552 15 372 15C371.448 15 371 15.4477 371 16C371 16.5523 371.448 17 372 17C372.552 17 373 16.5523 373 16Z" fill="white" fill-opacity="0.3"/>
<defs>
<linearGradient id="paint0_linear_652_966" x1="195.5" y1="-248" x2="195.5" y2="293" gradientUnits="userSpaceOnUse">
<stop stop-color="#3595FB"/>
<stop offset="0.916667" stop-color="#5771EC"/>
</linearGradient>
</defs>
</svg>
