<svg width="129" height="129" viewBox="0 0 129 129" fill="none" xmlns="http://www.w3.org/2000/svg">
<g clip-path="url(#clip0_652_583)">
<mask id="mask0_652_583" style="mask-type:luminance" maskUnits="userSpaceOnUse" x="0" y="0" width="129" height="129">
<path d="M129 0H0V129H129V0Z" fill="white"/>
</mask>
<g mask="url(#mask0_652_583)">
<path d="M85.8209 18.5193C50.9842 18.5193 22.7461 45.0852 22.7461 77.8546V129.157H148.975V77.8546C148.975 45.0852 120.736 18.5193 85.8997 18.5193H85.8209Z" fill="url(#paint0_linear_652_583)"/>
<path d="M99.0056 16.431L94.1283 19.1977L91.4609 24.2564L88.7933 19.1977L83.916 16.431L88.7933 13.6642L91.4609 8.60547L94.1283 13.6642L99.0056 16.431Z" fill="#90F9FF"/>
<path d="M105.751 24.2564L102.769 25.948L101.138 29.0409L99.5073 25.948L96.5254 24.2564L99.5073 22.5649L101.138 19.4719L102.769 22.5649L105.751 24.2564Z" fill="#90F9FF"/>
<path d="M30.3759 43.8731L27.9097 45.272L26.5609 47.83L25.2122 45.272L22.7461 43.8731L25.2122 42.4741L26.5609 39.9163L27.9097 42.4741L30.3759 43.8731Z" fill="#90F9FF"/>
<path d="M38.0747 33.9461L34.3538 36.057L32.3186 39.9164L30.2836 36.057L26.5625 33.9461L30.2836 31.8354L32.3186 27.9758L34.3538 31.8354L38.0747 33.9461Z" fill="#90F9FF"/>
<path d="M18.4638 121.998L16.0703 123.356L14.7612 125.839L13.4521 123.356L11.0586 121.998L13.4521 120.64L14.7612 118.158L16.0703 120.64L18.4638 121.998Z" fill="#90F9FF"/>
</g>
<mask id="mask1_652_583" style="mask-type:luminance" maskUnits="userSpaceOnUse" x="0" y="0" width="129" height="129">
<path d="M129 0H0V129H129V0Z" fill="white"/>
</mask>
<g mask="url(#mask1_652_583)">
<g filter="url(#filter0_d_652_583)">
<path d="M83.2248 76.9729C83.2248 76.9729 82.3203 85.7504 85.2634 92.5813C88.2063 99.4121 92.0281 102.454 95.3884 104.343C101.014 107.507 107.566 106.269 107.566 106.269C110.843 106.149 110.582 107.163 114.842 102.394C117.575 99.3354 124.837 86.6972 124.837 86.6972" fill="#FF9874"/>
<path d="M91.6507 100.768C91.6807 100.549 91.8326 100.382 91.9902 100.396L113.06 102.181C113.218 102.194 113.321 102.382 113.291 102.601L109.23 132.259C109.2 132.477 109.048 132.643 108.89 132.631L87.8203 130.846C87.6627 130.832 87.5593 130.644 87.5891 130.425L91.6507 100.768Z" fill="#FF9874"/>
<g opacity="0.916667" filter="url(#filter1_d_652_583)">
<path d="M91.5456 40.8823C91.8366 38.19 93.9936 36.2385 96.3633 36.5235L118.672 39.2059C121.042 39.4909 122.727 41.9043 122.436 44.5964L116.99 94.9685C116.699 97.6607 114.542 99.6122 112.172 99.3272L89.8628 96.6448C87.493 96.36 85.808 93.9465 86.0991 91.2542L91.5456 40.8823Z" fill="#1D3250"/>
</g>
<path opacity="0.916667" d="M92.4179 40.8739C92.7024 38.2435 94.8004 36.3357 97.104 36.6126L118.792 39.2204C121.096 39.4974 122.733 41.8543 122.448 44.4847L117.127 93.7001C116.842 96.3304 114.744 98.2382 112.441 97.9612L90.7528 95.3536C88.4491 95.0766 86.8121 92.7197 87.0966 90.0893L92.4179 40.8739Z" fill="#425C80"/>
<path d="M95.3189 43.766C95.4813 42.2645 96.7593 41.1852 98.1737 41.3553L116.736 43.5872C118.151 43.7573 119.166 45.1123 119.003 46.6137L114.602 87.3216C114.439 88.823 113.161 89.9022 111.747 89.7322L93.1843 87.5002C91.77 87.3302 90.7552 85.9752 90.9174 84.4738L95.3189 43.766Z" fill="white"/>
<path opacity="0.916667" d="M98.9167 92.2115C98.9914 91.5209 99.5423 91.02 100.147 91.0927L104.196 91.5796C104.801 91.6523 105.231 92.2711 105.156 92.9617L105.156 92.9627C105.081 93.6533 104.53 94.1542 103.926 94.0815L99.8766 93.5947C99.2717 93.5219 98.842 92.9031 98.9166 92.2125L98.9167 92.2115Z" fill="#213653"/>
<path opacity="0.916667" d="M97.1525 44.8398L97.5771 44.8909L97.4011 46.5185L96.9766 46.4673L97.1525 44.8398Z" fill="#9D9D9D"/>
<path opacity="0.916667" d="M98.0733 44.3484L98.498 44.3995L98.2587 46.6129L97.834 46.5619L98.0733 44.3484Z" fill="#9D9D9D"/>
<path opacity="0.916667" d="M98.9978 43.821L99.4223 43.8722L99.112 46.7419L98.6875 46.6909L98.9978 43.821Z" fill="#9D9D9D"/>
<path opacity="0.916667" d="M115.607 47.2718C115.653 46.8433 115.995 46.5325 116.37 46.5776C116.746 46.6227 117.012 47.0067 116.966 47.4352C116.92 47.8638 116.578 48.1746 116.202 48.1295C115.827 48.0844 115.56 47.7004 115.607 47.2718Z" fill="#9D9D9D"/>
<path d="M97.6176 64.6612C98.1174 60.0392 102.14 56.7272 106.603 57.2638C111.066 57.8004 114.279 61.9824 113.779 66.6046C113.28 71.2266 109.256 74.5386 104.794 74.002C100.331 73.4654 97.1179 69.2835 97.6176 64.6612Z" fill="#FFCEB9"/>
<path d="M106.979 53.7741C100.656 53.0137 94.9565 57.708 94.2484 64.2574C93.5402 70.8067 98.0913 76.7307 104.415 77.4911C110.739 78.2514 116.44 73.5601 117.148 67.0109C117.857 60.4615 113.303 54.5344 106.979 53.7741ZM106.504 55.0053C112.149 55.6841 116.212 60.9757 115.58 66.8223C114.948 72.6687 109.86 76.8573 104.215 76.1786C98.5698 75.4998 94.504 70.2107 95.1362 64.3641C95.7683 58.5176 100.859 54.3267 106.504 55.0053Z" fill="#FFCEB9"/>
<path d="M106.044 55.5308C111.384 56.1729 115.227 61.1776 114.629 66.7078C114.031 72.2382 109.219 76.1998 103.879 75.5578C98.5391 74.9157 94.6938 69.9132 95.2918 64.3828C95.8898 58.8525 100.704 54.8889 106.044 55.5308ZM106.213 56.6392C101.446 56.066 97.1499 59.6052 96.616 64.5421C96.0823 69.479 99.5132 73.9449 104.28 74.518C109.047 75.0912 113.345 71.5545 113.879 66.6178C114.413 61.6809 110.98 57.2122 106.213 56.6392Z" fill="#FFCEB9"/>
<path opacity="0.986512" d="M105.303 58.5412L107.592 58.8164C108.264 58.8971 108.732 59.6755 108.637 60.5549L108.018 66.2752C107.923 67.1545 107.301 67.8019 106.629 67.721L104.341 67.4459C103.668 67.3651 103.2 66.5867 103.295 65.7074L103.914 59.9871C104.009 59.1076 104.631 58.4604 105.303 58.5412Z" fill="#C88711"/>
<path opacity="0.986512" d="M108.985 60.9863L108.356 66.8033C108.257 67.7214 107.542 68.3889 106.759 68.2948L104.094 67.9743C103.311 67.8802 102.756 67.06 102.855 66.1419L103.484 60.3262C102.759 60.5216 102.073 60.6561 101.409 60.8412L100.945 65.1246C100.865 65.8647 100.325 66.4083 99.7387 66.3378L97.7419 66.0977C97.5036 66.0691 97.2955 65.943 97.1379 65.754C96.8561 66.7287 96.6376 67.722 96.4531 68.559L104.123 69.4811L114.077 70.6782C114.076 69.7628 114.07 68.7443 113.994 67.7428C113.793 67.91 113.549 67.9984 113.295 67.9678L111.298 67.7277C110.712 67.6571 110.301 66.9993 110.381 66.2592L110.845 61.9745C110.231 61.6283 109.583 61.3122 108.985 60.9863ZM111.176 62.1647L110.799 65.6546C110.719 66.3947 111.129 67.0513 111.716 67.1219L113.712 67.3618C113.795 67.3718 113.875 67.3641 113.954 67.3502C113.808 65.8296 113.487 64.3838 112.746 63.4501C112.343 62.9425 111.786 62.5324 111.176 62.1647ZM101.045 60.9493C100.429 61.1449 99.8318 61.403 99.2421 61.8264C98.3464 62.4697 97.7269 63.8635 97.2637 65.3557C97.3278 65.3805 97.3944 65.3999 97.4646 65.4083L99.4614 65.6484C100.048 65.7188 100.588 65.1766 100.668 64.4365L101.045 60.9493Z" fill="#C88711"/>
<path opacity="0.986512" d="M96.3952 69.0879L114.02 71.2071C114.02 71.2071 118.427 73.6717 113.746 73.741C111.41 73.7756 108.145 73.5506 104.896 73.17C101.634 72.7881 98.3887 72.2493 96.1172 71.6595C91.5835 70.4822 96.3952 69.0879 96.3952 69.0879Z" fill="#C88711"/>
<path opacity="0.986512" d="M105.335 58.2495L107.623 58.5246C108.295 58.6055 108.763 59.3838 108.668 60.2632L108.05 65.9835C107.954 66.8629 107.332 67.5102 106.66 67.4293L104.372 67.1542C103.7 67.0734 103.232 66.295 103.327 65.4157L103.945 59.6953C104.04 58.816 104.662 58.1686 105.335 58.2495Z" fill="#FFB900"/>
<path opacity="0.986512" d="M109.016 60.695L108.387 66.512C108.288 67.4301 107.573 68.0978 106.79 68.0036L104.125 67.6832C103.342 67.589 102.787 66.7687 102.886 65.8506L103.515 60.0349C102.79 60.2303 102.104 60.3648 101.44 60.5499L100.977 64.8334C100.897 65.5735 100.357 66.1171 99.77 66.0466L97.7731 65.8065C97.5349 65.7778 97.3268 65.6517 97.1692 65.4627C96.8874 66.4375 96.6688 67.4309 96.4844 68.2677L104.154 69.1899L114.109 70.3869C114.108 69.4716 114.102 68.453 114.026 67.4517C113.824 67.6187 113.581 67.7071 113.326 67.6765L111.329 67.4365C110.743 67.366 110.333 66.7081 110.413 65.968L110.876 61.6832C110.262 61.3371 109.614 61.0209 109.016 60.695ZM111.207 61.8735L110.83 65.3635C110.75 66.1035 111.16 66.76 111.747 66.8306L113.744 67.0707C113.826 67.0805 113.906 67.0728 113.985 67.0591C113.84 65.5383 113.518 64.0925 112.777 63.1589C112.375 62.6512 111.817 62.2411 111.207 61.8735ZM101.076 60.6581C100.46 60.8536 99.8631 61.1118 99.2734 61.5352C98.3777 62.1784 97.7581 63.5722 97.2949 65.0644C97.359 65.0892 97.4257 65.1086 97.4958 65.1171L99.4927 65.3572C100.079 65.4277 100.619 64.8854 100.699 64.1453L101.076 60.6581Z" fill="#FFB900"/>
<path opacity="0.986512" d="M96.4265 68.7966L114.051 70.9157C114.051 70.9157 118.458 73.3803 113.777 73.4497C111.441 73.4842 108.176 73.2592 104.927 72.8788C101.665 72.4967 98.4199 71.958 96.1484 71.3681C91.6148 70.1908 96.4265 68.7966 96.4265 68.7966Z" fill="#FFB900"/>
<path d="M115.986 58.9069L114.561 59.5065L113.676 60.8098L113.092 59.3299L111.832 58.4074L113.257 57.8079L114.142 56.5046L114.725 57.9844L115.986 58.9069Z" fill="#BBFFBD"/>
<path d="M112.457 55.1907L111.73 55.4963L111.28 56.1604L110.982 55.4063L110.34 54.9362L111.066 54.6307L111.517 53.9666L111.814 54.7207L112.457 55.1907Z" fill="#BBFFBD"/>
<path d="M101.236 74.6855L100.51 74.9912L100.059 75.6553L99.7614 74.9012L99.1191 74.4311L99.8451 74.1256L100.296 73.4614L100.594 74.2155L101.236 74.6855Z" fill="#BBFFBD"/>
<path d="M101.433 57.7805L100.223 58.2899L99.4711 59.3971L98.9751 58.1399L97.9043 57.3562L99.1149 56.8467L99.8665 55.7395L100.362 56.9967L101.433 57.7805Z" fill="#BBFFBD"/>
<path d="M83.2199 76.6698C83.4525 74.5187 85.2488 72.9682 87.2319 73.2066L93.8302 74C95.8134 74.2384 97.2326 76.1756 96.9999 78.3266L96.9983 78.3417C96.7657 80.4929 94.9695 82.0434 92.9863 81.805L86.388 81.0116C84.4049 80.7732 82.9858 78.8361 83.2183 76.6849L83.2199 76.6698Z" fill="#FF9874"/>
<path d="M111.322 84.0021C111.554 81.8509 113.35 80.3004 115.333 80.5389L121.932 81.3323C123.915 81.5706 125.334 83.5077 125.102 85.6589L125.1 85.674C124.867 87.8251 123.071 89.3756 121.088 89.1373L114.49 88.3439C112.506 88.1054 111.087 86.1682 111.32 84.0172L111.322 84.0021Z" fill="#FF9874"/>
<path d="M110.421 76.2056C110.649 74.0962 112.411 72.5758 114.355 72.8096L124.992 74.0885C126.937 74.3223 128.328 76.2218 128.1 78.3312L128.082 78.4976C127.854 80.6069 126.093 82.1273 124.148 81.8935L113.512 80.6146C111.567 80.3808 110.175 78.4812 110.403 76.3719L110.421 76.2056Z" fill="#FF9874"/>
<path d="M111.296 68.1093C111.524 66 113.286 64.4796 115.23 64.7134L125.867 65.9923C127.812 66.2262 129.204 68.1256 128.976 70.235L128.957 70.4014C128.729 72.5107 126.968 74.0312 125.023 73.7973L114.386 72.5184C112.442 72.2845 111.05 70.385 111.278 68.2757L111.296 68.1093Z" fill="#FF9874"/>
<path d="M113.862 60.5114C114.09 58.4021 115.574 56.8482 117.176 57.0408L125.938 58.0943C127.539 58.287 128.653 60.153 128.425 62.2624L128.407 62.4288C128.179 64.5382 126.695 66.092 125.094 65.8993L116.332 64.8458C114.73 64.6532 113.616 62.7871 113.844 60.6777L113.862 60.5114Z" fill="#FF9874"/>
<path d="M116.062 64.8135L125.259 65.9193" stroke="#D07351" stroke-width="0.584728" stroke-miterlimit="10" stroke-linejoin="round"/>
<path d="M114.375 80.4233L122.793 81.4356" stroke="#D07351" stroke-width="0.584728" stroke-miterlimit="10" stroke-linejoin="round"/>
<path d="M114.512 72.5334L125.303 73.831" stroke="#D07351" stroke-width="0.584728" stroke-miterlimit="10" stroke-linejoin="round"/>
<path d="M91.529 101.63C91.529 101.63 93.3083 102.592 95.1201 103.188C96.9319 103.784 100.044 104.652 100.044 104.652C100.044 104.652 97.7214 105.05 95.8193 104.954C93.917 104.857 91.1953 104.092 91.1953 104.092L91.529 101.63Z" fill="#D07351"/>
<path opacity="0.916667" d="M91.8495 53.0815C91.8762 52.8342 92.0915 52.6569 92.3302 52.6857L92.3543 52.6886C92.593 52.7173 92.765 52.941 92.7383 53.1883L91.747 62.3568C91.7201 62.6041 91.505 62.7812 91.2661 62.7525L91.2422 62.7497C91.0033 62.721 90.8315 62.4972 90.8582 62.2498L91.8495 53.0815Z" fill="#577CAF"/>
<path opacity="0.916667" d="M92.2172 49.6845C92.244 49.4372 92.4592 49.26 92.698 49.2887L92.722 49.2916C92.9608 49.3203 93.1326 49.544 93.1059 49.7913L92.9735 51.0162C92.9468 51.2635 92.7315 51.4406 92.4927 51.4119L92.4687 51.409C92.2299 51.3803 92.0581 51.1565 92.0848 50.9093L92.2172 49.6845Z" fill="#577CAF"/>
</g>
<g filter="url(#filter2_d_652_583)">
<path d="M10.2539 99.3815C10.2539 99.3815 12.4062 107.928 17.4865 113.227C22.5669 118.526 27.174 119.955 30.9569 120.477C37.2904 121.351 42.9857 117.766 42.9857 117.766C46.0042 116.439 46.1069 117.484 48.457 111.444C49.9647 107.57 52.4298 93.0571 52.4298 93.0571" fill="#C07668"/>
<path d="M26.0999 118.452C26.0547 118.269 26.1411 118.087 26.293 118.047L46.6107 112.667C46.7626 112.627 46.9224 112.743 46.9677 112.927L53.1098 137.843C53.155 138.026 53.0686 138.209 52.9167 138.249L32.5992 143.628C32.4472 143.668 32.2872 143.553 32.242 143.369L26.0999 118.452Z" fill="#C07668"/>
<g opacity="0.916667" filter="url(#filter3_d_652_583)">
<path d="M5.70132 62.5379C5.05393 59.9117 6.40174 57.2868 8.71176 56.6752L30.4592 50.917C32.7692 50.3052 35.1667 51.9384 35.8141 54.5646L47.9271 103.702C48.5745 106.329 47.2267 108.953 44.9166 109.565L23.1692 115.323C20.8591 115.935 18.4617 114.302 17.8143 111.676L5.70132 62.5379Z" fill="#1D3250"/>
</g>
<path opacity="0.916667" d="M6.51281 62.2069C5.88028 59.641 7.188 57.0789 9.43367 56.4843L30.5753 50.8864C32.821 50.2918 35.1542 51.8898 35.7867 54.4557L47.6217 102.465C48.2543 105.031 46.9465 107.593 44.7008 108.188L23.5592 113.786C21.3134 114.38 18.9802 112.782 18.3477 110.216L6.51281 62.2069Z" fill="#425C80"/>
<path d="M10.2098 63.837C9.84876 62.3724 10.6737 60.8891 12.0523 60.5242L30.1476 55.7329C31.5262 55.3678 32.9366 56.2592 33.2976 57.7238L43.0866 97.4342C43.4477 98.8988 42.6228 100.382 41.2441 100.747L23.1489 105.538C21.7702 105.903 20.3599 105.012 19.9989 103.547L10.2098 63.837Z" fill="white"/>
<path opacity="0.916667" d="M30.1102 107.821C29.9441 107.147 30.2874 106.475 30.8771 106.318L34.8241 105.273C35.4137 105.117 36.0263 105.537 36.1923 106.21L36.1926 106.211C36.3586 106.885 36.0153 107.558 35.4258 107.714L31.4788 108.759C30.8891 108.915 30.2766 108.496 30.1104 107.822L30.1102 107.821Z" fill="#213653"/>
<path opacity="0.916667" d="M12.2871 64.1626L12.701 64.053L13.0923 65.6407L12.6785 65.7503L12.2871 64.1626Z" fill="#9D9D9D"/>
<path opacity="0.916667" d="M12.9805 63.3613L13.3943 63.2517L13.9267 65.4111L13.5127 65.5207L12.9805 63.3613Z" fill="#9D9D9D"/>
<path opacity="0.916667" d="M13.6641 62.5255L14.078 62.416L14.7681 65.2155L14.3542 65.3251L13.6641 62.5255Z" fill="#9D9D9D"/>
<path opacity="0.916667" d="M30.3502 59.5981C30.2471 59.18 30.4602 58.7626 30.826 58.6657C31.1918 58.5689 31.572 58.8293 31.6751 59.2472C31.7781 59.6652 31.5651 60.0827 31.1991 60.1796C30.8333 60.2765 30.4532 60.0161 30.3502 59.5981Z" fill="#9D9D9D"/>
<path d="M19.4894 82.5312C18.3779 78.0223 21.0036 73.4334 25.3541 72.2813C29.7047 71.1294 34.1325 73.8508 35.244 78.3596C36.3555 82.8685 33.7296 87.4575 29.3791 88.6094C25.0287 89.7613 20.6008 87.04 19.4894 82.5312Z" fill="#C3FFC2"/>
<path d="M24.5155 68.8773C18.351 70.5096 14.6322 77.0128 16.2071 83.4017C17.7821 89.7904 24.0543 93.6454 30.2189 92.0132C36.3833 90.3809 40.1054 83.8797 38.5305 77.4908C36.9556 71.1019 30.6801 67.245 24.5155 68.8773ZM24.4923 70.2051C29.9952 68.7481 35.5958 72.1924 37.0017 77.8956C38.4076 83.5989 35.0868 89.4026 29.5838 90.8596C24.0809 92.3166 18.4785 88.8757 17.0726 83.1725C15.6667 77.4692 18.9893 71.6623 24.4923 70.2051Z" fill="#C3FFC2"/>
<path d="M24.241 70.8676C29.4464 69.4893 34.7433 72.7468 36.0731 78.1416C37.403 83.5364 34.2622 89.0255 29.0568 90.4038C23.8515 91.7821 18.5529 88.5275 17.223 83.1327C15.8932 77.7379 19.0355 72.2459 24.241 70.8676ZM24.7772 71.8418C20.1304 73.0721 17.3268 77.9751 18.514 82.7909C19.7012 87.6067 24.4297 90.5129 29.0765 89.2826C33.7233 88.0522 36.5295 83.151 35.3423 78.3351C34.1552 73.5192 29.4239 70.6114 24.7772 71.8418Z" fill="#C3FFC2"/>
<path opacity="0.986512" d="M24.5792 73.9577L26.8098 73.367C27.4651 73.1935 28.1678 73.7482 28.3793 74.6059L29.7549 80.1862C29.9664 81.044 29.6065 81.88 28.9511 82.0536L26.7206 82.6441C26.0651 82.8177 25.3624 82.2629 25.1511 81.4051L23.7754 75.825C23.564 74.9672 23.9238 74.1311 24.5792 73.9577Z" fill="#C88711"/>
<path opacity="0.986512" d="M28.8503 74.8809L30.2492 80.5553C30.47 81.4509 30.0305 82.3403 29.2672 82.5425L26.669 83.2303C25.9057 83.4325 25.1074 82.8708 24.8867 81.9752L23.4881 76.3021C22.878 76.7534 22.2833 77.1336 21.7261 77.5529L22.7562 81.7315C22.9342 82.4534 22.6155 83.1621 22.0437 83.3135L20.0971 83.8288C19.8649 83.8903 19.6274 83.8495 19.4158 83.7311C19.4855 84.7473 19.6205 85.7576 19.7341 86.6088L27.2105 84.6292L36.9147 82.0596C36.6013 81.2039 36.2478 80.2534 35.8348 79.3447C35.7034 79.5759 35.5067 79.7487 35.2587 79.8144L33.3122 80.3297C32.7403 80.4811 32.1328 80.0178 31.9548 79.2958L30.9244 75.1161C30.2329 75.0198 29.5201 74.9641 28.8503 74.8809ZM31.2987 75.1712L32.1378 78.5756C32.3158 79.2976 32.9231 79.7597 33.4949 79.6083L35.4415 79.0929C35.5218 79.0716 35.5942 79.0347 35.6633 78.9925C35.0079 77.624 34.2139 76.3907 33.2037 75.7918C32.6543 75.4661 31.9939 75.289 31.2987 75.1712ZM21.4236 77.7888C20.9154 78.2 20.4457 78.6628 20.0396 79.2774C19.4229 80.2111 19.3202 81.7444 19.3972 83.312C19.4656 83.3113 19.5345 83.3048 19.6028 83.2866L21.5493 82.7713C22.1212 82.6199 22.4402 81.9125 22.2622 81.1905L21.4236 77.7888Z" fill="#C88711"/>
<path opacity="0.986512" d="M19.8614 87.1249L37.042 82.5759C37.042 82.5759 41.9987 83.2481 37.6513 85.0477C35.4821 85.9457 32.3565 86.9452 29.1931 87.7931C26.0166 88.6447 22.8022 89.3435 20.4797 89.6335C15.8444 90.2124 19.8614 87.1249 19.8614 87.1249Z" fill="#C88711"/>
<path opacity="0.986512" d="M24.5089 73.6735L26.7395 73.0828C27.3949 72.9093 28.0976 73.464 28.3089 74.3218L29.6846 79.902C29.896 80.7598 29.5362 81.5958 28.8808 81.7694L26.6502 82.3599C25.9949 82.5335 25.2922 81.9787 25.0807 81.121L23.7051 75.5408C23.4936 74.6831 23.8535 73.8469 24.5089 73.6735Z" fill="#FFB900"/>
<path opacity="0.986512" d="M28.78 74.5967L30.1789 80.2712C30.3996 81.1667 29.9602 82.0561 29.1969 82.2583L26.5986 82.9461C25.8353 83.1483 25.0371 82.5866 24.8163 81.6911L23.4178 76.0179C22.8076 76.4692 22.213 76.8494 21.6558 77.2688L22.6859 81.4473C22.8638 82.1691 22.5451 82.8779 21.9732 83.0293L20.0268 83.5447C19.7946 83.6061 19.5571 83.5653 19.3455 83.4469C19.4152 84.4632 19.5502 85.4734 19.6638 86.3246L27.14 84.345L36.8444 81.7755C36.531 80.9197 36.1774 79.9692 35.7645 79.0605C35.6331 79.2917 35.4362 79.4645 35.1883 79.5302L33.2419 80.0455C32.67 80.197 32.0623 79.7336 31.8843 79.0116L30.854 74.8319C30.1625 74.7356 29.4497 74.68 28.78 74.5967ZM31.2282 74.8871L32.0675 78.2914C32.2455 79.0134 32.8527 79.4755 33.4246 79.3241L35.3711 78.8087C35.4514 78.7874 35.5239 78.7505 35.593 78.7083C34.9375 77.3398 34.1436 76.1065 33.1334 75.5076C32.5839 75.182 31.9236 75.0048 31.2282 74.8871ZM21.3533 77.5046C20.845 77.9158 20.3754 78.3786 19.9692 78.9933C19.3524 79.9269 19.2499 81.4603 19.3269 83.0278C19.3953 83.0272 19.464 83.0206 19.5325 83.0025L21.479 82.4871C22.0508 82.3357 22.3698 81.6283 22.1919 80.9063L21.3533 77.5046Z" fill="#FFB900"/>
<path opacity="0.986512" d="M19.791 86.8405L36.9716 82.2915C36.9716 82.2915 41.9284 82.9637 37.5809 84.7633C35.4117 85.6612 32.2861 86.6607 29.1227 87.5087C25.9464 88.3603 22.7318 89.0591 20.4094 89.3491C15.7741 89.9278 19.791 86.8405 19.791 86.8405Z" fill="#FFB900"/>
<path d="M34.6779 70.3413L33.5522 71.4303L33.1711 72.9771L32.1207 71.8093L30.6289 71.4134L31.7546 70.3245L32.1358 68.7776L33.1862 69.9454L34.6779 70.3413Z" fill="#FFD0E7"/>
<path d="M30.1122 68.1731L29.5385 68.7281L29.3442 69.5163L28.809 68.9212L28.0488 68.7195L28.6225 68.1646L28.8168 67.3762L29.3521 67.9713L30.1122 68.1731Z" fill="#FFD0E7"/>
<path d="M26.2919 90.5673L25.7182 91.1222L25.5239 91.9106L24.9887 91.3154L24.2285 91.1137L24.8022 90.5587L24.9965 89.7705L25.5317 90.3656L26.2919 90.5673Z" fill="#FFD0E7"/>
<path d="M20.7037 74.6808L19.7473 75.606L19.4234 76.9203L18.531 75.9281L17.2637 75.5918L18.2201 74.6666L18.5438 73.3523L19.4363 74.3445L20.7037 74.6808Z" fill="#FFD0E7"/>
<path d="M10.1475 99.0996C9.6302 97.0012 10.7781 94.8852 12.7113 94.3733L19.1434 92.6702C21.0766 92.1583 23.0632 93.4444 23.5804 95.5428L23.5841 95.5576C24.1013 97.6559 22.9536 99.772 21.0203 100.284L14.5881 101.987C12.655 102.499 10.6684 101.213 10.1511 99.1144L10.1475 99.0996Z" fill="#C07668"/>
<path d="M38.8897 95.5442C38.3724 93.4458 39.5202 91.3298 41.4534 90.818L47.8856 89.1147C49.8189 88.6029 51.8054 89.889 52.3227 91.9874L52.3263 92.0021C52.8436 94.1007 51.6957 96.2167 49.7624 96.7285L43.3303 98.4316C41.3971 98.9436 39.4106 97.6573 38.8933 95.559L38.8897 95.5442Z" fill="#C07668"/>
<path d="M35.3872 88.5849C34.8801 86.5272 36.0055 84.4523 37.9012 83.9504L48.2701 81.2048C50.1658 80.703 52.1138 81.9641 52.621 84.0217L52.661 84.1841C53.1682 86.2416 52.0427 88.3166 50.147 88.8186L39.7782 91.5642C37.8825 92.066 35.9345 90.8049 35.4273 88.7472L35.3872 88.5849Z" fill="#C07668"/>
<path d="M33.44 80.6875C32.9328 78.6299 34.0583 76.5549 35.954 76.0529L46.3228 73.3074C48.2185 72.8055 50.1665 74.0666 50.6737 76.1243L50.7138 76.2866C51.2209 78.3443 50.0955 80.4193 48.1998 80.9212L37.8309 83.6667C35.9352 84.1686 33.9872 82.9074 33.48 80.8499L33.44 80.6875Z" fill="#C07668"/>
<path d="M33.242 72.629C32.7347 70.5715 33.5894 68.5682 35.151 68.1547L43.6923 65.8931C45.254 65.4796 46.9311 66.8125 47.4383 68.8702L47.4783 69.0324C47.9855 71.0901 47.1309 73.0934 45.5693 73.5068L37.0278 75.7685C35.4663 76.182 33.7892 74.849 33.2819 72.7914L33.242 72.629Z" fill="#C07668"/>
<path d="M36.7656 75.838L45.731 73.4641" stroke="#864C37" stroke-width="0.584728" stroke-miterlimit="10" stroke-linejoin="round"/>
<path d="M40.5195 91.0655L48.7255 88.8928" stroke="#864C37" stroke-width="0.584728" stroke-miterlimit="10" stroke-linejoin="round"/>
<path d="M37.9531 83.6341L48.4732 80.8486" stroke="#864C37" stroke-width="0.584728" stroke-miterlimit="10" stroke-linejoin="round"/>
<path d="M26.5332 120.21C26.5332 120.21 28.3073 120.372 30.2028 120.258C32.0982 120.145 35.3002 119.802 35.3002 119.802C35.3002 119.802 33.2677 121.036 31.4585 121.65C29.6492 122.265 27.1026 122.519 27.1026 122.519L26.5332 120.21Z" fill="#864C37"/>
<path opacity="0.916667" d="M10.1504 73.8364C10.0909 73.5951 10.2314 73.3496 10.4642 73.2879L10.4875 73.2817C10.7203 73.2201 10.9572 73.3657 11.0167 73.607L13.2214 82.5507C13.2809 82.7919 13.1404 83.0375 12.9076 83.0991L12.8842 83.1052C12.6515 83.1668 12.4146 83.0213 12.3551 82.7801L10.1504 73.8364Z" fill="#577CAF"/>
<path opacity="0.916667" d="M9.33395 70.5228C9.27449 70.2815 9.41498 70.036 9.64775 69.9744L9.67114 69.9682C9.90391 69.9066 10.1408 70.0521 10.2003 70.2934L10.4948 71.4881C10.5543 71.7294 10.4138 71.9749 10.181 72.0366L10.1576 72.0428C9.92484 72.1044 9.68795 71.9588 9.62847 71.7175L9.33395 70.5228Z" fill="#577CAF"/>
</g>
<g filter="url(#filter4_d_652_583)">
<path d="M41.9844 72.6572C41.9844 72.6572 42.0355 82.8908 46.2724 90.3499C50.5092 97.8088 55.2859 100.782 59.388 102.493C66.2562 105.358 73.6422 103.025 73.6422 103.025C77.3979 102.433 77.224 103.636 81.5337 97.555C84.2984 93.6537 91.0821 78.094 91.0821 78.094" fill="#F5C08F"/>
<path d="M54.8301 97.9528C54.8301 97.7331 54.9775 97.5549 55.1591 97.5549H79.4569C79.6385 97.5549 79.7858 97.7331 79.7858 97.9528V127.75C79.7858 127.969 79.6385 128.148 79.4569 128.148H55.1591C54.9775 128.148 54.8301 127.969 54.8301 127.75V97.9528Z" fill="#F5C08F"/>
<g opacity="0.916667" filter="url(#filter5_d_652_583)">
<path d="M47.0684 29.9423C47.0684 26.8017 49.3078 24.2556 52.0704 24.2556H78.0781C80.8407 24.2556 83.0802 26.8017 83.0802 29.9423V88.706C83.0802 91.8467 80.8407 94.3927 78.0781 94.3927H52.0704C49.3078 94.3927 47.0684 91.8467 47.0684 88.706V29.9423Z" fill="#1D3250"/>
</g>
<path opacity="0.916667" d="M48.0723 29.8118C48.0723 26.7431 50.2493 24.2556 52.935 24.2556H78.2182C80.9038 24.2556 83.0809 26.7431 83.0809 29.8118V87.2261C83.0809 90.2948 80.9038 92.7823 78.2182 92.7823H52.935C50.2493 92.7823 48.0723 90.2948 48.0723 87.2261V29.8118Z" fill="#425C80"/>
<path d="M51.7715 32.7404C51.7715 30.989 53.108 29.5691 54.7568 29.5691H76.3968C78.0454 29.5691 79.382 30.989 79.382 32.7404V80.2301C79.382 81.9815 78.0454 83.4014 76.3968 83.4014H54.7568C53.108 83.4014 51.7715 81.9815 51.7715 80.2301V32.7404Z" fill="white"/>
<path opacity="0.916667" d="M61.9395 88.0331C61.9395 87.2275 62.511 86.5745 63.2161 86.5745H67.9363C68.6414 86.5745 69.213 87.2275 69.213 88.0331V88.0344C69.213 88.84 68.6414 89.4932 67.9363 89.4932H63.2161C62.511 89.4932 61.9395 88.84 61.9395 88.0344V88.0331Z" fill="#213653"/>
<path opacity="0.916667" d="M54.0137 33.7241H54.5086V35.6227H54.0137V33.7241Z" fill="#9D9D9D"/>
<path opacity="0.916667" d="M55.0117 33.03H55.5067V35.6123H55.0117V33.03Z" fill="#9D9D9D"/>
<path opacity="0.916667" d="M56.0098 32.2949H56.5047V35.6429H56.0098V32.2949Z" fill="#9D9D9D"/>
<path opacity="0.916667" d="M75.5547 33.9691C75.5547 33.4692 75.9093 33.064 76.3468 33.064C76.7845 33.064 77.1391 33.4692 77.1391 33.9691C77.1391 34.469 76.7845 34.8744 76.3468 34.8744C75.9093 34.8744 75.5547 34.469 75.5547 33.9691Z" fill="#9D9D9D"/>
<path d="M57.0156 56.486C57.0156 51.0938 61.2333 46.7227 66.436 46.7227C71.6389 46.7227 75.8565 51.0938 75.8565 56.486C75.8565 61.8781 71.6389 66.2493 66.436 66.2493C61.2333 66.2493 57.0156 61.8781 57.0156 56.486Z" fill="#CCF9FF"/>
<path d="M66.4366 42.6514C59.0644 42.6514 53.0898 48.8465 53.0898 56.487C53.0898 64.1273 59.0644 70.3195 66.4366 70.3195C73.8087 70.3195 79.7863 64.1273 79.7863 56.487C79.7863 48.8465 73.8087 42.6514 66.4366 42.6514ZM66.043 44.1351C72.624 44.1351 77.958 49.6665 77.958 56.487C77.958 63.3075 72.624 68.8356 66.043 68.8356C59.462 68.8356 54.1249 63.3075 54.1249 56.487C54.1249 49.6665 59.462 44.1351 66.043 44.1351Z" fill="#CCF9FF"/>
<path d="M65.5773 44.8044C71.8025 44.8044 76.8474 50.0359 76.8474 56.4875C76.8474 62.9391 71.8025 68.1677 65.5773 68.1677C59.3523 68.1677 54.3047 62.9391 54.3047 56.4875C54.3047 50.0359 59.3522 44.8044 65.5773 44.8044ZM65.9096 46.0574C60.3526 46.0574 55.8485 50.7281 55.8485 56.4875C55.8485 62.2468 60.3526 66.9148 65.9096 66.9148C71.4667 66.9148 75.9734 62.2468 75.9734 56.4875C75.9734 50.7281 71.4667 46.0574 65.9096 46.0574Z" fill="#CCF9FF"/>
<path opacity="0.986512" d="M65.1008 48.3735H67.7682C68.552 48.3735 69.1873 49.2052 69.1873 50.2311V56.9043C69.1873 57.9301 68.552 58.7617 67.7682 58.7617H65.1008C64.3169 58.7617 63.6816 57.9301 63.6816 56.9043V50.2311C63.6816 49.2052 64.3169 48.3735 65.1008 48.3735Z" fill="#C88711"/>
<path opacity="0.986512" d="M69.6417 50.6799V57.4659C69.6417 58.5371 68.9022 59.4048 67.9894 59.4048H64.8822C63.9694 59.4048 63.2286 58.5371 63.2286 57.4659V50.6814C62.4189 51.0068 61.646 51.2568 60.9045 51.5619V56.559C60.9045 57.4223 60.3506 58.1231 59.6668 58.1231H57.3389C57.0612 58.1231 56.806 58.0067 56.6011 57.811C56.3981 58.9725 56.2701 60.1467 56.1621 61.1361H65.1029H76.7083C76.5932 60.0822 76.4593 58.91 76.2473 57.7672C76.0359 57.9877 75.7671 58.1231 75.4705 58.1231H73.1427C72.4588 58.1231 71.905 57.4223 71.905 56.559V51.5604C71.1553 51.2468 70.3705 50.9724 69.6417 50.6799ZM72.3098 51.7336V55.8049C72.3098 56.6684 72.8637 57.3677 73.5475 57.3677H75.8754C75.9714 57.3677 76.063 57.3476 76.1522 57.3208C75.7952 55.5897 75.245 53.9692 74.2768 52.9965C73.7501 52.4675 73.0578 52.0726 72.3098 51.7336ZM60.4996 51.7368C59.8152 52.0473 59.1598 52.4272 58.5339 52.9965C57.5831 53.8613 57.0436 55.5522 56.6962 57.3348C56.7731 57.3546 56.8522 57.3677 56.934 57.3677H59.2619C59.9457 57.3677 60.4996 56.6684 60.4996 55.8049V51.7368Z" fill="#C88711"/>
<path opacity="0.986512" d="M56.1613 61.7534H76.7075C76.7075 61.7534 82.086 63.9813 76.7075 64.7095C74.0238 65.0726 70.2383 65.2656 66.4523 65.2774C62.6509 65.2891 58.8488 65.118 56.1613 64.7533C50.7974 64.0253 56.1613 61.7534 56.1613 61.7534Z" fill="#C88711"/>
<path opacity="0.986512" d="M65.1008 48.0337H67.7682C68.552 48.0337 69.1873 48.8653 69.1873 49.8911V56.5644C69.1873 57.5903 68.552 58.4218 67.7682 58.4218H65.1008C64.3169 58.4218 63.6816 57.5903 63.6816 56.5644V49.8911C63.6816 48.8653 64.3169 48.0337 65.1008 48.0337Z" fill="#FFB900"/>
<path opacity="0.986512" d="M69.6417 50.3398V57.1258C69.6417 58.1969 68.9022 59.0647 67.9894 59.0647H64.8822C63.9694 59.0647 63.2286 58.1969 63.2286 57.1258V50.3414C62.4189 50.6666 61.646 50.9167 60.9045 51.2218V56.2189C60.9045 57.0822 60.3506 57.783 59.6668 57.783H57.3389C57.0612 57.783 56.806 57.6666 56.6011 57.4709C56.3981 58.6324 56.2701 59.8066 56.1621 60.796H65.1029H76.7083C76.5932 59.7421 76.4593 58.5699 76.2473 57.4272C76.0359 57.6476 75.7671 57.783 75.4705 57.783H73.1427C72.4588 57.783 71.905 57.0822 71.905 56.2189V51.2203C71.1553 50.9067 70.3705 50.6324 69.6417 50.3398ZM72.3098 51.3935V55.4648C72.3098 56.3283 72.8637 57.0276 73.5475 57.0276H75.8754C75.9714 57.0276 76.063 57.0075 76.1522 56.9807C75.7952 55.2497 75.245 53.629 74.2768 52.6564C73.7501 52.1274 73.0578 51.7324 72.3098 51.3935ZM60.4996 51.3967C59.8152 51.7072 59.1598 52.0871 58.5339 52.6564C57.5831 53.5211 57.0436 55.2121 56.6962 56.9947C56.7731 57.0145 56.8522 57.0276 56.934 57.0276H59.2619C59.9457 57.0276 60.4996 56.3283 60.4996 55.4648V51.3967Z" fill="#FFB900"/>
<path opacity="0.986512" d="M56.1613 61.4131H76.7075C76.7075 61.4131 82.086 63.6411 76.7075 64.3693C74.0238 64.7324 70.2383 64.9254 66.4523 64.9372C62.6509 64.9489 58.8488 64.7778 56.1613 64.4131C50.7974 63.6849 56.1613 61.4131 56.1613 61.4131Z" fill="#FFB900"/>
<path d="M77.4379 47.3157L75.8727 48.2034L75.0168 49.8268L74.1608 48.2034L72.5957 47.3157L74.1608 46.4278L75.0168 44.8044L75.8727 46.4278L77.4379 47.3157Z" fill="#E1D0FF"/>
<path d="M72.9148 43.5245L72.1172 43.9771L71.681 44.8042L71.2448 43.9771L70.4473 43.5245L71.2448 43.0722L71.681 42.2449L72.1172 43.0722L72.9148 43.5245Z" fill="#E1D0FF"/>
<path d="M62.4284 67.5289L61.6309 67.9814L61.1946 68.8086L60.7585 67.9814L59.9609 67.5289L60.7585 67.0766L61.1946 66.2493L61.6309 67.0766L62.4284 67.5289Z" fill="#E1D0FF"/>
<path d="M60.5515 48.0334L59.2218 48.7878L58.4946 50.167L57.7673 48.7878L56.4375 48.0334L57.7673 47.2791L58.4946 45.8999L59.2218 47.2791L60.5515 48.0334Z" fill="#E1D0FF"/>
<path d="M41.9414 72.3087C41.9414 69.7992 43.8157 67.7649 46.1276 67.7649H53.8197C56.1317 67.7649 58.0059 69.7992 58.0059 72.3087V72.3264C58.0059 74.8358 56.1317 76.8701 53.8197 76.8701H46.1276C43.8157 76.8701 41.9414 74.8358 41.9414 72.3264V72.3087Z" fill="#F5C08F"/>
<path d="M75.1934 76.8613C75.1934 74.3519 77.0675 72.3176 79.3794 72.3176H87.0717C89.3836 72.3176 91.2578 74.3519 91.2578 76.8613V76.879C91.2578 79.3884 89.3836 81.4228 87.0717 81.4228H79.3794C77.0675 81.4228 75.1934 79.3884 75.1934 76.879V76.8613Z" fill="#F5C08F"/>
<path d="M73.1875 68.0073C73.1875 65.5466 75.0252 63.5518 77.2923 63.5518H89.6924C91.9595 63.5518 93.7973 65.5466 93.7973 68.0073V68.2014C93.7973 70.6621 91.9595 72.657 89.6924 72.657H77.2923C75.0252 72.657 73.1875 70.6621 73.1875 68.2014V68.0073Z" fill="#F5C08F"/>
<path d="M73.1855 58.5625C73.1855 56.1018 75.0233 54.1069 77.2904 54.1069H89.6905C91.9574 54.1069 93.7953 56.1018 93.7953 58.5625V58.7566C93.7953 61.2173 91.9574 63.2121 89.6905 63.2121H77.2904C75.0233 63.2121 73.1855 61.2173 73.1855 58.7566V58.5625Z" fill="#F5C08F"/>
<path d="M75.1934 49.4572C75.1934 46.9965 76.7072 45.0017 78.5747 45.0017H88.7894C90.6569 45.0017 92.1707 46.9965 92.1707 49.4572V49.6514C92.1707 52.1121 90.6569 54.1069 88.7894 54.1069H78.5747C76.7072 54.1069 75.1934 52.1121 75.1934 49.6514V49.4572Z" fill="#F5C08F"/>
<path d="M78.2617 54.1069H88.9833" stroke="#C68968" stroke-width="0.677512" stroke-miterlimit="10" stroke-linejoin="round"/>
<path d="M78.2617 72.3176H88.0752" stroke="#C68968" stroke-width="0.677512" stroke-miterlimit="10" stroke-linejoin="round"/>
<path d="M77.4375 63.2122H90.0183" stroke="#C68968" stroke-width="0.677512" stroke-miterlimit="10" stroke-linejoin="round"/>
<path d="M54.8301 100.054C54.8301 100.054 56.7769 100.764 58.9363 101.2C61.0955 101.636 64.7847 102.203 64.7847 102.203C64.7847 102.203 62.1617 102.984 59.9606 103.136C57.7594 103.288 54.8301 102.817 54.8301 102.817V100.054Z" fill="#C68968"/>
<path opacity="0.916667" d="M48.9375 43.9489C48.9375 43.6605 49.1631 43.4265 49.4415 43.4265H49.4695C49.7479 43.4265 49.9735 43.6605 49.9735 43.9489V54.6447C49.9735 54.9332 49.7479 55.167 49.4695 55.167H49.4415C49.1631 55.167 48.9375 54.9332 48.9375 54.6447V43.9489Z" fill="#577CAF"/>
<path opacity="0.916667" d="M48.9375 39.9864C48.9375 39.6979 49.1631 39.4641 49.4415 39.4641H49.4695C49.7479 39.4641 49.9735 39.6979 49.9735 39.9864V41.4152C49.9735 41.7037 49.7479 41.9377 49.4695 41.9377H49.4415C49.1631 41.9377 48.9375 41.7037 48.9375 41.4152V39.9864Z" fill="#577CAF"/>
<path d="M55.5986 104.395C53.7179 104.395 52.1934 105.854 52.1934 107.653V129.156H83.5417V107.653C83.5417 105.854 82.0172 104.395 80.1365 104.395H55.5986Z" fill="#7EE8FF"/>
</g>
</g>
<g filter="url(#filter6_d_652_583)">
<path d="M126.232 169.547L121.117 121.478C121.031 120.622 121.143 119.758 121.444 118.952C121.746 118.146 122.228 117.421 122.855 116.832C124.747 115.027 125.434 112.576 125.154 109.947C124.779 106.428 119.782 101.759 117.844 101.965C117.771 101.973 117.688 101.984 117.596 102C117.481 102.019 117.373 102.062 117.277 102.128C117.181 102.193 117.101 102.279 117.042 102.378C116.983 102.478 116.946 102.589 116.934 102.704C116.923 102.82 116.936 102.936 116.974 103.045L119.174 109.395C119.219 109.526 119.238 109.663 119.229 109.801C119.221 109.938 119.186 110.073 119.126 110.197C119.066 110.321 118.982 110.431 118.879 110.523C118.776 110.614 118.656 110.684 118.526 110.729L113.023 112.635C112.76 112.726 112.472 112.708 112.222 112.587C111.972 112.466 111.78 112.25 111.689 111.987L109.489 105.635C109.446 105.51 109.371 105.398 109.272 105.311C109.173 105.224 109.052 105.164 108.923 105.138C108.794 105.111 108.659 105.119 108.534 105.16C108.408 105.201 108.295 105.274 108.206 105.371C106.72 107.02 106.109 109.554 106.466 112.908C106.595 114.082 107.007 115.208 107.666 116.189C108.325 117.169 109.212 117.976 110.251 118.539C111.001 118.953 111.642 119.54 112.121 120.251C112.6 120.962 112.904 121.777 113.006 122.628L118.091 170.413C118.148 170.948 118.31 171.466 118.567 171.938C118.824 172.411 119.172 172.827 119.59 173.165C120.008 173.503 120.489 173.755 121.004 173.907C121.52 174.059 122.061 174.108 122.595 174.051C123.13 173.995 123.648 173.833 124.12 173.576C124.592 173.319 125.009 172.971 125.347 172.553C125.685 172.134 125.937 171.654 126.089 171.138C126.241 170.622 126.29 170.082 126.233 169.547L126.232 169.547ZM120.393 169.811C120.359 169.492 120.42 169.17 120.569 168.886C120.718 168.602 120.948 168.369 121.229 168.216C121.51 168.062 121.831 167.996 122.15 168.025C122.469 168.054 122.773 168.176 123.022 168.378C123.271 168.579 123.456 168.85 123.551 169.156C123.646 169.462 123.649 169.789 123.558 170.097C123.468 170.404 123.288 170.678 123.042 170.883C122.796 171.088 122.494 171.216 122.176 171.25C121.749 171.295 121.321 171.169 120.987 170.899C120.652 170.629 120.439 170.238 120.393 169.811Z" fill="#D4E3E3"/>
</g>
<g filter="url(#filter7_d_652_583)">
<path d="M37.3966 125.534L37.4084 125.61C37.4838 126.101 37.9423 126.437 38.4325 126.361L46.8544 125.066C47.3446 124.99 47.6809 124.532 47.6054 124.042L47.5937 123.965C47.5183 123.475 47.0597 123.139 46.5695 123.214L38.1476 124.51C37.6574 124.585 37.3212 125.044 37.3966 125.534Z" fill="#26B4E1"/>
<path d="M40.1248 103.445L39.606 103.525L40.126 106.904L39.4091 107.015L38.8891 103.635L38.3514 103.718L38.1846 107.203L40.7051 123.585L43.8521 123.101L41.3316 106.719L40.1248 103.445Z" fill="#D4E3E3"/>
<path d="M49.2738 139.915C49.1787 139.93 49.0817 139.906 49.0042 139.849C48.9266 139.793 48.8748 139.707 48.8602 139.612L46.9794 127.388C46.9648 127.293 46.9885 127.196 47.0454 127.119C47.1023 127.041 47.1877 126.989 47.2827 126.975L47.1634 126.199C47.1378 126.033 47.0472 125.883 46.9115 125.784C46.7759 125.684 46.6062 125.643 46.44 125.668L39.0103 126.812C38.8441 126.837 38.6949 126.928 38.5955 127.063C38.496 127.199 38.4546 127.369 38.4801 127.535L38.5995 128.311C38.6946 128.296 38.7916 128.32 38.8691 128.377C38.9467 128.434 38.9985 128.519 39.0131 128.614L40.8939 140.838C40.9085 140.933 40.8848 141.03 40.8279 141.107C40.771 141.185 40.6856 141.237 40.5905 141.251L40.7637 142.377L49.4469 141.041L49.2738 139.915ZM42.3478 140.614L40.4671 128.39C40.4525 128.295 40.4762 128.198 40.5331 128.121C40.59 128.043 40.6753 127.991 40.7704 127.977C40.8655 127.962 40.9625 127.986 41.04 128.043C41.1176 128.1 41.1694 128.185 41.184 128.28L43.0648 140.504C43.0794 140.599 43.0557 140.696 42.9988 140.773C42.9419 140.851 42.8565 140.903 42.7614 140.917C42.6664 140.932 42.5694 140.908 42.4918 140.851C42.4142 140.795 42.3624 140.709 42.3478 140.614ZM44.5184 140.28L42.6376 128.056C42.623 127.961 42.6467 127.864 42.7036 127.787C42.7605 127.709 42.8459 127.657 42.9409 127.643C43.036 127.628 43.133 127.652 43.2106 127.709C43.2881 127.766 43.3399 127.851 43.3546 127.946L45.2353 140.17C45.2499 140.265 45.2262 140.362 45.1693 140.44C45.1124 140.517 45.0271 140.569 44.932 140.583C44.8369 140.598 44.7399 140.574 44.6624 140.518C44.5848 140.461 44.533 140.375 44.5184 140.28ZM46.6893 139.946L44.8085 127.722C44.7939 127.627 44.8176 127.53 44.8745 127.453C44.9314 127.375 45.0168 127.323 45.1118 127.309C45.2069 127.294 45.3039 127.318 45.3815 127.375C45.459 127.432 45.5108 127.517 45.5255 127.612L47.4062 139.836C47.4208 139.931 47.3971 140.028 47.3402 140.106C47.2833 140.183 47.198 140.235 47.1029 140.249C47.0078 140.264 46.9108 140.24 46.8333 140.184C46.7557 140.127 46.7039 140.041 46.6893 139.946Z" fill="#26B4E1"/>
</g>
<g filter="url(#filter8_d_652_583)">
<path d="M89.5395 102.073L82.7286 99.759C82.5432 99.6961 82.3403 99.7094 82.1646 99.796C81.9889 99.8826 81.8548 100.035 81.7917 100.221L74.6423 121.267L76.5215 121.906C77.0593 122.089 77.5024 122.478 77.7535 122.988C78.0047 123.497 78.0434 124.086 77.8612 124.624L74.9717 133.13C74.7884 133.668 74.3992 134.111 73.8896 134.362C73.3801 134.613 72.7917 134.652 72.2536 134.47L70.3744 133.831L63.225 154.878C63.162 155.064 63.1753 155.266 63.2619 155.442C63.3485 155.618 63.5013 155.752 63.6868 155.815L70.4977 158.129C70.5895 158.16 70.6866 158.173 70.7833 158.166C70.8801 158.16 70.9747 158.135 71.0617 158.092C71.1486 158.049 71.2263 157.989 71.2903 157.916C71.3542 157.843 71.4032 157.759 71.4343 157.667L90.001 103.009C90.064 102.824 90.0508 102.621 89.9643 102.445C89.8777 102.27 89.7249 102.136 89.5395 102.073ZM67.8145 154.845C67.6561 154.792 67.5171 154.692 67.4152 154.559C67.3133 154.427 67.2531 154.267 67.2422 154.1C67.2312 153.933 67.2701 153.766 67.3538 153.621C67.4374 153.476 67.5622 153.359 67.7123 153.285C67.8624 153.211 68.031 153.184 68.197 153.205C68.3629 153.227 68.5186 153.298 68.6444 153.408C68.7702 153.519 68.8604 153.664 68.9037 153.825C68.947 153.987 68.9414 154.158 68.8875 154.316C68.8154 154.529 68.6618 154.704 68.4606 154.803C68.2594 154.902 68.027 154.918 67.8145 154.845ZM84.8661 104.649C84.7077 104.595 84.5688 104.495 84.467 104.362C84.3652 104.23 84.305 104.07 84.2941 103.903C84.2832 103.736 84.322 103.57 84.4057 103.425C84.4893 103.28 84.6141 103.163 84.7641 103.089C84.9141 103.015 85.0827 102.987 85.2486 103.009C85.4144 103.031 85.5701 103.101 85.6958 103.212C85.8216 103.322 85.9118 103.467 85.9551 103.629C85.9984 103.79 85.9928 103.961 85.9391 104.12C85.8669 104.332 85.7134 104.507 85.5121 104.606C85.3109 104.705 85.0785 104.721 84.8661 104.649Z" fill="#F8DB7F"/>
<path d="M74.4143 132.941L77.3038 124.434C77.4364 124.044 77.4085 123.617 77.2263 123.248C77.0441 122.878 76.7225 122.596 76.3323 122.463L74.4531 121.825L70.564 133.274L72.4431 133.912C72.8333 134.045 73.2602 134.017 73.6299 133.835C73.9996 133.653 74.2817 133.331 74.4143 132.941ZM72.9879 129.702C72.8826 129.666 72.7854 129.61 72.7018 129.537C72.6182 129.463 72.5498 129.374 72.5007 129.274C72.4515 129.175 72.4224 129.066 72.4152 128.955C72.4079 128.844 72.4226 128.733 72.4584 128.628L72.9793 127.094C73.0543 126.885 73.2085 126.714 73.4085 126.617C73.6085 126.521 73.8385 126.507 74.0488 126.578C74.2591 126.65 74.4329 126.801 74.5328 126.999C74.6326 127.198 74.6506 127.427 74.5827 127.639L74.0617 129.172C74.026 129.278 73.9699 129.375 73.8966 129.459C73.8232 129.542 73.7342 129.611 73.6345 129.66C73.5347 129.709 73.4263 129.738 73.3153 129.745C73.2044 129.752 73.0931 129.738 72.9878 129.702L72.9879 129.702Z" fill="#26B4E1"/>
<path d="M85.4103 103.047C85.2519 102.993 85.0811 102.987 84.9195 103.031C84.7579 103.074 84.6127 103.164 84.5024 103.29C84.3921 103.416 84.3215 103.571 84.2996 103.737C84.2778 103.903 84.3056 104.071 84.3795 104.222C84.4535 104.372 84.5703 104.496 84.7151 104.58C84.86 104.664 85.0264 104.703 85.1933 104.692C85.3603 104.681 85.5202 104.621 85.6529 104.519C85.7857 104.417 85.8853 104.278 85.9391 104.12C86.0112 103.907 85.996 103.675 85.8969 103.474C85.7977 103.272 85.6227 103.119 85.4103 103.047Z" fill="#425579"/>
</g>
</g>
<defs>
<filter id="filter0_d_652_583" x="82.5898" y="36.4958" width="46.9141" height="97.1433" filterUnits="userSpaceOnUse" color-interpolation-filters="sRGB">
<feFlood flood-opacity="0" result="BackgroundImageFix"/>
<feColorMatrix in="SourceAlpha" type="matrix" values="0 0 0 0 0 0 0 0 0 0 0 0 0 0 0 0 0 0 127 0" result="hardAlpha"/>
<feOffset dy="0.503906"/>
<feGaussianBlur stdDeviation="0.251953"/>
<feComposite in2="hardAlpha" operator="out"/>
<feColorMatrix type="matrix" values="0 0 0 0 0 0 0 0 0 0 0 0 0 0 0 0 0 0 0.25 0"/>
<feBlend mode="normal" in2="BackgroundImageFix" result="effect1_dropShadow_652_583"/>
<feBlend mode="normal" in="SourceGraphic" in2="effect1_dropShadow_652_583" result="shape"/>
</filter>
<filter id="filter1_d_652_583" x="85.5625" y="36.4958" width="37.4102" height="63.8667" filterUnits="userSpaceOnUse" color-interpolation-filters="sRGB">
<feFlood flood-opacity="0" result="BackgroundImageFix"/>
<feColorMatrix in="SourceAlpha" type="matrix" values="0 0 0 0 0 0 0 0 0 0 0 0 0 0 0 0 0 0 127 0" result="hardAlpha"/>
<feOffset dy="0.503906"/>
<feGaussianBlur stdDeviation="0.251953"/>
<feComposite in2="hardAlpha" operator="out"/>
<feColorMatrix type="matrix" values="0 0 0 0 0 0 0 0 0 0 0 0 0 0 0 0 0 0 0.25 0"/>
<feBlend mode="normal" in2="BackgroundImageFix" result="effect1_dropShadow_652_583"/>
<feBlend mode="normal" in="SourceGraphic" in2="effect1_dropShadow_652_583" result="shape"/>
</filter>
<filter id="filter2_d_652_583" x="5.03516" y="50.7622" width="48.5898" height="93.8818" filterUnits="userSpaceOnUse" color-interpolation-filters="sRGB">
<feFlood flood-opacity="0" result="BackgroundImageFix"/>
<feColorMatrix in="SourceAlpha" type="matrix" values="0 0 0 0 0 0 0 0 0 0 0 0 0 0 0 0 0 0 127 0" result="hardAlpha"/>
<feOffset dy="0.503906"/>
<feGaussianBlur stdDeviation="0.251953"/>
<feComposite in2="hardAlpha" operator="out"/>
<feColorMatrix type="matrix" values="0 0 0 0 0 0 0 0 0 0 0 0 0 0 0 0 0 0 0.25 0"/>
<feBlend mode="normal" in2="BackgroundImageFix" result="effect1_dropShadow_652_583"/>
<feBlend mode="normal" in="SourceGraphic" in2="effect1_dropShadow_652_583" result="shape"/>
</filter>
<filter id="filter3_d_652_583" x="5.03516" y="50.7886" width="43.5586" height="65.6709" filterUnits="userSpaceOnUse" color-interpolation-filters="sRGB">
<feFlood flood-opacity="0" result="BackgroundImageFix"/>
<feColorMatrix in="SourceAlpha" type="matrix" values="0 0 0 0 0 0 0 0 0 0 0 0 0 0 0 0 0 0 127 0" result="hardAlpha"/>
<feOffset dy="0.503906"/>
<feGaussianBlur stdDeviation="0.251953"/>
<feComposite in2="hardAlpha" operator="out"/>
<feColorMatrix type="matrix" values="0 0 0 0 0 0 0 0 0 0 0 0 0 0 0 0 0 0 0.25 0"/>
<feBlend mode="normal" in2="BackgroundImageFix" result="effect1_dropShadow_652_583"/>
<feBlend mode="normal" in="SourceGraphic" in2="effect1_dropShadow_652_583" result="shape"/>
</filter>
<filter id="filter4_d_652_583" x="41.4375" y="24.2556" width="52.8633" height="105.908" filterUnits="userSpaceOnUse" color-interpolation-filters="sRGB">
<feFlood flood-opacity="0" result="BackgroundImageFix"/>
<feColorMatrix in="SourceAlpha" type="matrix" values="0 0 0 0 0 0 0 0 0 0 0 0 0 0 0 0 0 0 127 0" result="hardAlpha"/>
<feOffset dy="0.503906"/>
<feGaussianBlur stdDeviation="0.251953"/>
<feComposite in2="hardAlpha" operator="out"/>
<feColorMatrix type="matrix" values="0 0 0 0 0 0 0 0 0 0 0 0 0 0 0 0 0 0 0.25 0"/>
<feBlend mode="normal" in2="BackgroundImageFix" result="effect1_dropShadow_652_583"/>
<feBlend mode="normal" in="SourceGraphic" in2="effect1_dropShadow_652_583" result="shape"/>
</filter>
<filter id="filter5_d_652_583" x="46.5645" y="24.2556" width="37.0195" height="71.1448" filterUnits="userSpaceOnUse" color-interpolation-filters="sRGB">
<feFlood flood-opacity="0" result="BackgroundImageFix"/>
<feColorMatrix in="SourceAlpha" type="matrix" values="0 0 0 0 0 0 0 0 0 0 0 0 0 0 0 0 0 0 127 0" result="hardAlpha"/>
<feOffset dy="0.503906"/>
<feGaussianBlur stdDeviation="0.251953"/>
<feComposite in2="hardAlpha" operator="out"/>
<feColorMatrix type="matrix" values="0 0 0 0 0 0 0 0 0 0 0 0 0 0 0 0 0 0 0.25 0"/>
<feBlend mode="normal" in2="BackgroundImageFix" result="effect1_dropShadow_652_583"/>
<feBlend mode="normal" in="SourceGraphic" in2="effect1_dropShadow_652_583" result="shape"/>
</filter>
<filter id="filter6_d_652_583" x="105.863" y="101.958" width="20.8965" height="73.124" filterUnits="userSpaceOnUse" color-interpolation-filters="sRGB">
<feFlood flood-opacity="0" result="BackgroundImageFix"/>
<feColorMatrix in="SourceAlpha" type="matrix" values="0 0 0 0 0 0 0 0 0 0 0 0 0 0 0 0 0 0 127 0" result="hardAlpha"/>
<feOffset dy="0.503906"/>
<feGaussianBlur stdDeviation="0.251953"/>
<feComposite in2="hardAlpha" operator="out"/>
<feColorMatrix type="matrix" values="0 0 0 0 0 0 0 0 0 0 0 0 0 0 0 0 0 0 0.25 0"/>
<feBlend mode="normal" in2="BackgroundImageFix" result="effect1_dropShadow_652_583"/>
<feBlend mode="normal" in="SourceGraphic" in2="effect1_dropShadow_652_583" result="shape"/>
</filter>
<filter id="filter7_d_652_583" x="36.8828" y="103.445" width="13.2676" height="43.2524" filterUnits="userSpaceOnUse" color-interpolation-filters="sRGB">
<feFlood flood-opacity="0" result="BackgroundImageFix"/>
<feColorMatrix in="SourceAlpha" type="matrix" values="0 0 0 0 0 0 0 0 0 0 0 0 0 0 0 0 0 0 127 0" result="hardAlpha"/>
<feOffset dy="0.503906"/>
<feGaussianBlur stdDeviation="0.251953"/>
<feComposite in2="hardAlpha" operator="out"/>
<feColorMatrix type="matrix" values="0 0 0 0 0 0 0 0 0 0 0 0 0 0 0 0 0 0 0.25 0"/>
<feBlend mode="normal" in2="BackgroundImageFix" result="effect1_dropShadow_652_583"/>
<feBlend mode="normal" in="SourceGraphic" in2="effect1_dropShadow_652_583" result="shape"/>
</filter>
<filter id="filter8_d_652_583" x="62.6816" y="99.72" width="27.8633" height="59.4556" filterUnits="userSpaceOnUse" color-interpolation-filters="sRGB">
<feFlood flood-opacity="0" result="BackgroundImageFix"/>
<feColorMatrix in="SourceAlpha" type="matrix" values="0 0 0 0 0 0 0 0 0 0 0 0 0 0 0 0 0 0 127 0" result="hardAlpha"/>
<feOffset dy="0.503906"/>
<feGaussianBlur stdDeviation="0.251953"/>
<feComposite in2="hardAlpha" operator="out"/>
<feColorMatrix type="matrix" values="0 0 0 0 0 0 0 0 0 0 0 0 0 0 0 0 0 0 0.25 0"/>
<feBlend mode="normal" in2="BackgroundImageFix" result="effect1_dropShadow_652_583"/>
<feBlend mode="normal" in="SourceGraphic" in2="effect1_dropShadow_652_583" result="shape"/>
</filter>
<linearGradient id="paint0_linear_652_583" x1="86.1369" y1="16.4225" x2="92.341" y2="151.235" gradientUnits="userSpaceOnUse">
<stop stop-color="#60D7E7"/>
<stop offset="1" stop-color="#0E33B5"/>
</linearGradient>
<clipPath id="clip0_652_583">
<path d="M0 0H129V90C129 111.539 111.539 129 90 129H0V0Z" fill="white"/>
</clipPath>
</defs>
</svg>
