<svg width="129" height="129" viewBox="0 0 129 129" fill="none" xmlns="http://www.w3.org/2000/svg">
<g clip-path="url(#clip0_652_869)">
<mask id="mask0_652_869" style="mask-type:luminance" maskUnits="userSpaceOnUse" x="0" y="0" width="129" height="129">
<path d="M129 0H0V129H129V0Z" fill="white"/>
</mask>
<g mask="url(#mask0_652_869)">
<path d="M85.8209 18.519C50.9842 18.519 22.7461 45.085 22.7461 77.8544V129.156H148.975V77.8544C148.975 45.085 120.736 18.519 85.8997 18.519H85.8209Z" fill="url(#paint0_linear_652_869)"/>
<path d="M97.5062 10.597L102.384 13.3636L105.051 18.4225L107.719 13.3636L112.596 10.597L107.719 7.83025L105.051 2.77148L102.384 7.83025L97.5062 10.597Z" fill="#FFB774"/>
<path d="M107.71 20.6575L110.692 22.349L112.323 25.442L113.954 22.349L116.936 20.6575L113.954 18.9659L112.323 15.873L110.692 18.9659L107.71 20.6575Z" fill="#FFB774"/>
<path d="M30.3759 43.8731L27.9097 45.272L26.5609 47.83L25.2122 45.272L22.7461 43.8731L25.2122 42.4741L26.5609 39.9163L27.9097 42.4741L30.3759 43.8731Z" fill="#FFB774"/>
<path d="M38.0728 33.9461L34.3518 36.057L32.3167 39.9164L30.2816 36.057L26.5605 33.9461L30.2816 31.8354L32.3167 27.9758L34.3518 31.8354L38.0728 33.9461Z" fill="#FFB774"/>
<path d="M18.4638 121.998L16.0703 123.356L14.7612 125.838L13.4521 123.356L11.0586 121.998L13.4521 120.64L14.7612 118.157L16.0703 120.64L18.4638 121.998Z" fill="#FFB774"/>
</g>
<g filter="url(#filter0_d_652_869)">
<path opacity="0.916667" d="M44.3152 33.755C42.8653 29.0424 45.0504 24.1883 49.1955 22.913L88.2201 10.907C92.3653 9.63175 96.901 12.4182 98.3508 17.1308L125.478 105.306C126.928 110.018 124.743 114.872 120.598 116.148L81.5732 128.153C77.4279 129.429 72.8922 126.643 71.4424 121.93L44.3152 33.755Z" fill="#1D3250"/>
<path opacity="0.916667" d="M45.7601 33.0961C44.3436 28.4917 46.462 23.7541 50.4917 22.5143L88.4292 10.8428C92.4589 9.60301 96.8739 12.3306 98.2905 16.935L124.795 103.085C126.212 107.689 124.093 112.427 120.063 113.667L82.1258 125.338C78.0961 126.579 73.681 123.851 72.2644 119.246L45.7601 33.0961Z" fill="#425C80"/>
<path d="M52.6622 35.7833C51.8537 33.1552 53.2036 30.4076 55.6775 29.6465L88.1484 19.6568C90.6223 18.8956 93.2833 20.4092 94.0918 23.0374L116.015 94.2954C116.823 96.9235 115.473 99.6711 112.999 100.432L80.5283 110.422C78.0544 111.183 75.3935 109.669 74.5849 107.041L52.6622 35.7833Z" fill="white"/>
<path opacity="0.916667" d="M93.4455 114.056C93.0736 112.847 93.6298 111.603 94.6879 111.278L101.77 109.099C102.829 108.773 103.988 109.489 104.36 110.698L104.36 110.7C104.732 111.909 104.176 113.153 103.118 113.478L96.0352 115.657C94.9773 115.983 93.818 115.266 93.4462 114.058L93.4455 114.056Z" fill="#213653"/>
<path opacity="0.916667" d="M56.4805 36.2233L57.2232 35.9949L58.0996 38.8437L57.357 39.0722L56.4805 36.2233Z" fill="#9D9D9D"/>
<path opacity="0.916667" d="M57.6582 34.7214L58.401 34.4929L59.593 38.3676L58.8503 38.5961L57.6582 34.7214Z" fill="#9D9D9D"/>
<path opacity="0.916667" d="M58.8184 33.1576L59.561 32.9292L61.1066 37.9526L60.3638 38.1812L58.8184 33.1576Z" fill="#9D9D9D"/>
<path opacity="0.916667" d="M88.9174 26.6472C88.6866 25.897 89.0317 25.1252 89.6882 24.9232C90.3448 24.7213 91.0641 25.1656 91.2949 25.9158C91.5256 26.6659 91.1805 27.4377 90.5239 27.6398C89.8675 27.8417 89.1481 27.3974 88.9174 26.6472Z" fill="#9D9D9D"/>
<path d="M85.1792 46.2847C94.7818 47.4394 101.692 56.4393 100.617 66.3847C99.5417 76.3301 90.8878 83.4544 81.285 82.2998C71.6823 81.1451 64.7673 72.1489 65.8426 62.2035C66.918 52.2582 75.5763 45.1302 85.1792 46.2847ZM85.4829 48.2778C76.9106 47.2471 69.184 53.6118 68.2241 62.4899C67.2642 71.3679 73.4342 79.3993 82.0064 80.4301C90.5788 81.4608 98.3089 75.1007 99.2689 66.2227C100.229 57.3445 94.0552 49.3086 85.4829 48.2778Z" fill="#FFFBA7"/>
<path d="M69.4886 62.5843C70.3873 54.2723 77.622 48.3162 85.6479 49.2812C93.6736 50.2462 99.4513 57.7669 98.5525 66.0789C97.6538 74.391 90.419 80.347 82.3933 79.3821C74.3674 78.4171 68.5899 70.8964 69.4886 62.5843Z" fill="#FFFBA7"/>
<path d="M86.326 43.0053C74.9538 41.638 64.7049 50.0799 63.4314 61.8577C62.1579 73.6356 70.3422 84.289 81.7143 85.6563C93.0865 87.0237 103.34 78.5873 104.613 66.8094C105.887 55.0316 97.6981 44.3727 86.326 43.0053ZM85.4716 45.2195C95.6234 46.4402 102.93 55.9563 101.793 66.4702C100.656 76.9842 91.5064 84.5166 81.3546 83.296C71.2027 82.0754 63.8912 72.5637 65.028 62.0497C66.1648 51.5357 75.3198 43.9989 85.4716 45.2195Z" fill="#FFFBA7"/>
<path d="M68.4391 69.0102C65.7191 60.1937 70.4426 50.909 78.9893 48.2723C87.5361 45.6356 96.6695 50.6453 99.3894 59.4619C102.109 68.2784 97.3857 77.563 88.8391 80.1997C80.2923 82.8364 71.1589 77.8267 68.4391 69.0102Z" fill="#22D259"/>
<path d="M69.5017 67.6634C66.9402 59.3609 71.3884 50.6174 79.4369 48.1344C87.4855 45.6514 96.0865 50.3691 98.6479 58.6717C101.209 66.9743 96.761 75.7177 88.7125 78.2007C80.664 80.6837 72.063 75.966 69.5017 67.6634Z" fill="#8BFF45"/>
<path d="M72.2628 66.8111C70.1869 60.0824 73.7919 52.9964 80.3148 50.984C86.8376 48.9717 93.8083 52.7951 95.8841 59.5239C97.96 66.2527 94.3549 73.3387 87.8321 75.3509C81.3093 77.3633 74.3386 73.5399 72.2628 66.8111Z" fill="#8BFF45"/>
<mask id="mask1_652_869" style="mask-type:luminance" maskUnits="userSpaceOnUse" x="71" y="50" width="26" height="26">
<path d="M72.2628 66.8111C70.1869 60.0824 73.7919 52.9964 80.3148 50.984C86.8376 48.9717 93.8083 52.7951 95.8841 59.5239C97.96 66.2527 94.3549 73.3387 87.8321 75.3509C81.3093 77.3633 74.3386 73.5399 72.2628 66.8111Z" fill="white"/>
</mask>
<g mask="url(#mask1_652_869)">
<g filter="url(#filter1_i_652_869)">
<path d="M81.8285 72.1845L77.1387 56.9827L92.6488 60.5221L81.8285 72.1845Z" fill="#22D259"/>
</g>
<g style="mix-blend-mode:overlay" opacity="0.569767">
<path d="M64.1426 72.2743C64.0068 72.2177 63.958 72.0248 64.0336 71.8434L76.2129 42.6409C76.2886 42.4596 76.46 42.3585 76.5958 42.4152L88.1628 47.2393C88.2986 47.296 88.3474 47.4889 88.2718 47.6702L76.0925 76.8728C76.0169 77.0541 75.8456 77.1551 75.7098 77.0985L64.1426 72.2743Z" fill="#DAFF99"/>
</g>
<g style="mix-blend-mode:overlay" opacity="0.569767">
<path d="M82.3035 81.2029C82.2602 81.1848 82.2884 81.0179 82.3668 80.8302L94.9794 50.5883C95.0578 50.4005 95.1564 50.263 95.1999 50.2811L98.8997 51.8241C98.9431 51.8423 98.9148 52.0092 98.8366 52.1969L86.2238 82.4388C86.1454 82.6265 86.0468 82.7641 86.0033 82.7459L82.3035 81.2029Z" fill="#DAFF99"/>
</g>
</g>
<path d="M95.6472 43.3635L93.8731 45.2439L93.3835 47.8347L91.5222 45.9671L88.998 45.4091L90.7721 43.5288L91.2617 40.938L93.123 42.8056L95.6472 43.3635Z" fill="#E1D0FF"/>
<path d="M87.5897 40.4648L86.6855 41.4231L86.4361 42.7434L85.4876 41.7916L84.2012 41.5073L85.1053 40.5491L85.3549 39.2288L86.3033 40.1805L87.5897 40.4648Z" fill="#E1D0FF"/>
<path d="M82.1346 83.5033L81.2305 84.4616L80.9809 85.7818L80.0324 84.8302L78.7461 84.5457L79.6502 83.5876L79.8997 82.2673L80.8481 83.219L82.1346 83.5033Z" fill="#E1D0FF"/>
<path d="M71.0028 51.0619L69.4955 52.6595L69.0795 54.8606L67.4981 53.274L65.3535 52.7999L66.8608 51.2023L67.2768 49.0012L68.8582 50.5879L71.0028 51.0619Z" fill="#E1D0FF"/>
<path d="M103.167 83.455L101.66 85.0526L101.244 87.2538L99.6623 85.6672L97.5176 85.1931L99.0249 83.5955L99.441 81.3943L101.022 82.981L103.167 83.455Z" fill="#E1D0FF"/>
<path opacity="0.916667" d="M53.5846 53.9092C53.4514 53.4763 53.6821 53.0212 54.0998 52.8927L54.1418 52.8797C54.5594 52.7512 55.006 52.998 55.1393 53.4309L60.0767 69.4799C60.2099 69.9128 59.9793 70.3679 59.5615 70.4964L59.5196 70.5093C59.1019 70.6378 58.6553 70.3911 58.5221 69.9581L53.5846 53.9092Z" fill="#577CAF"/>
<path opacity="0.916667" d="M51.7565 47.9633C51.6233 47.5304 51.8539 47.0753 52.2716 46.9468L52.3135 46.9339C52.7313 46.8054 53.1779 47.0521 53.311 47.4851L53.9706 49.6289C54.1038 50.0618 53.8731 50.5169 53.4554 50.6454L53.4134 50.6583C52.9958 50.7868 52.5492 50.5401 52.4161 50.1071L51.7565 47.9633Z" fill="#577CAF"/>
</g>
<g filter="url(#filter2_d_652_869)">
<mask id="mask2_652_869" style="mask-type:luminance" maskUnits="userSpaceOnUse" x="0" y="0" width="129" height="129">
<path d="M129 0H0V129H129V0Z" fill="white"/>
</mask>
<g mask="url(#mask2_652_869)">
<path d="M21.0294 71.8223C21.0294 71.8223 18.9585 73.9409 17.4736 76.1902C15.9887 78.4394 15.0898 80.8194 15.0898 80.8194" stroke="#2DAED2" stroke-width="1.67952" stroke-miterlimit="10" stroke-linecap="round" stroke-linejoin="round"/>
<path d="M26.3336 71.0635C26.3336 71.0635 22.8093 73.8773 20.1884 77.7396C17.5673 81.6019 15.8496 86.5127 15.8496 86.5127" stroke="#2DAED2" stroke-width="1.67952" stroke-miterlimit="10" stroke-linecap="round" stroke-linejoin="round"/>
<g style="mix-blend-mode:multiply">
<path d="M20.2041 87.3343C26.2671 72.0079 43.6067 64.4984 58.9332 70.5614C74.2596 76.6244 81.7691 93.9641 75.7061 109.291C69.6429 124.617 52.3034 132.127 36.977 126.064C21.6504 120 14.1409 102.661 20.2041 87.3343Z" fill="#1782E5"/>
</g>
<path d="M20.4162 86.7986C26.3134 71.8912 43.179 64.5869 58.0865 70.4843C72.994 76.3816 80.2981 93.2472 74.4009 108.155C68.5036 123.062 51.6379 130.367 36.7305 124.469C21.8231 118.572 14.5188 101.706 20.4162 86.7986Z" fill="#2CD6FF"/>
<path d="M25.4584 88.7933C30.2542 76.6703 43.9694 70.7305 56.0923 75.5262C68.2153 80.322 74.1551 94.0373 69.3593 106.16C64.5636 118.283 50.8483 124.223 38.7253 119.427C26.6025 114.631 20.6626 100.916 25.4584 88.7933Z" fill="#F3F8FF"/>
<mask id="mask3_652_869" style="mask-type:luminance" maskUnits="userSpaceOnUse" x="23" y="73" width="49" height="49">
<path d="M25.4584 88.7933C30.2542 76.6703 43.9694 70.7305 56.0923 75.5262C68.2153 80.322 74.1551 94.0373 69.3593 106.16C64.5636 118.283 50.8483 124.223 38.7253 119.427C26.6025 114.631 20.6626 100.916 25.4584 88.7933Z" fill="white"/>
</mask>
<g mask="url(#mask3_652_869)">
<path d="M47.1984 98.0122C47.1984 98.0122 49.6771 93.0311 50.9167 85.4981C52.1564 77.965 49.2868 68.3042 49.2868 68.3042L22.168 84.9293C22.168 84.9293 32.4291 87.5132 38.3224 91.2154C44.2158 94.9176 47.1984 98.0122 47.1984 98.0122Z" fill="#FFAF9D"/>
<path d="M46.1334 97.5907C46.3661 97.0024 47.0319 96.7141 47.6202 96.9469C48.2086 97.1795 48.497 97.8453 48.2642 98.4336C48.0314 99.0221 47.3657 99.3104 46.7773 99.0776C46.1888 98.8448 45.9006 98.1792 46.1334 97.5907Z" fill="#1F242F" stroke="#1F242F" stroke-width="1.02698" stroke-miterlimit="10" stroke-linejoin="round"/>
<path d="M34.0254 88.9668C34.0254 88.9668 34.848 89.7851 35.3192 90.8421C35.7605 91.8316 36.0219 92.8593 36.0219 92.8593L36.8294 91.112C36.8294 91.112 39.4821 92.2467 41.5709 93.5165C43.6598 94.7864 45.1849 96.1915 45.1849 96.1915C45.1849 96.1915 44.1618 94.0939 41.9918 92.6003C39.7467 91.0552 37.5958 90.3119 37.5958 90.3119L39.6311 89.5355C39.6311 89.5355 37.9606 89.0982 36.5592 88.9561C35.1578 88.8138 34.0254 88.9668 34.0254 88.9668Z" fill="#CB0000"/>
<path d="M50.7947 75.5476C50.7947 75.5476 50.3333 77.3129 49.3445 79.1195C48.4187 80.8113 47.3359 82.4142 47.3359 82.4142L49.567 80.9689C49.567 80.9689 50.1151 83.7363 49.7475 87.2631C49.3799 90.7899 48.4778 94.7743 48.4778 94.7743C48.4778 94.7743 50.2634 90.8937 50.9911 87.2445C51.7189 83.5954 51.7013 80.4391 51.7013 80.4391L53.9677 81.0713C53.9677 81.0713 53.403 79.2096 52.4867 77.7314C51.7164 76.4883 50.7947 75.5476 50.7947 75.5476Z" fill="#304259"/>
<g style="mix-blend-mode:overlay" opacity="0.51938">
<path d="M9.04165 82.2747C8.95508 82.0844 9.0148 81.871 9.17504 81.7982L59.8725 58.7403C60.0327 58.6675 60.2329 58.7627 60.3194 58.9531L70.5083 81.3555C70.5948 81.5458 70.5351 81.7592 70.3749 81.8322L19.6774 104.89C19.5171 104.963 19.3171 104.868 19.2305 104.677L9.04165 82.2747Z" fill="white"/>
</g>
<g style="mix-blend-mode:overlay" opacity="0.51938">
<path d="M22.936 114.384C22.8977 114.3 22.9966 114.173 23.1568 114.1L73.8542 91.0421C74.0144 90.9691 74.1754 90.9785 74.2139 91.0627L78.7257 100.983C78.764 101.067 78.6651 101.195 78.5049 101.268L27.8075 124.325C27.6472 124.398 27.4862 124.389 27.4478 124.305L22.936 114.384Z" fill="white"/>
</g>
</g>
</g>
</g>
<mask id="mask4_652_869" style="mask-type:luminance" maskUnits="userSpaceOnUse" x="0" y="0" width="129" height="129">
<path d="M129 0H0V129H129V0Z" fill="white"/>
</mask>
<g mask="url(#mask4_652_869)">
<g filter="url(#filter3_d_652_869)">
<path d="M83.5587 70.9364C82.6303 68.4482 83.7267 65.7415 86.0074 64.8905L86.0514 64.8741C88.3321 64.0233 90.9335 65.3505 91.8618 67.8386L101.588 93.909C102.517 96.397 101.42 99.1039 99.1395 99.9547L99.0955 99.9712C96.8148 100.822 94.2134 99.4948 93.2851 97.0067L83.5587 70.9364Z" fill="#C07668"/>
<path d="M98.1568 84.7145C97.8122 83.7905 99.3816 82.3517 101.662 81.5009L101.706 81.4845C103.987 80.6335 106.115 80.6927 106.46 81.6168L110.072 91.2978C110.417 92.2217 108.847 93.6605 106.566 94.5113L106.522 94.5278C104.242 95.3787 102.113 95.3195 101.769 94.3956L98.1568 84.7145Z" fill="#C07668"/>
<path d="M107.337 83.9623C106.992 83.0383 108.561 81.5995 110.842 80.7487L110.886 80.7322C113.167 79.8813 115.295 79.9405 115.64 80.8646L119.251 90.5456C119.596 91.4695 118.027 92.9083 115.746 93.7592L115.702 93.7757C113.421 94.6265 111.293 94.5673 110.948 93.6434L107.337 83.9623Z" fill="#C07668"/>
<path d="M117.176 84.9833C116.832 84.0593 118.401 82.6205 120.682 81.7697L120.726 81.7532C123.006 80.9023 125.135 80.9615 125.479 81.8856L129.092 91.5666C129.436 92.4905 127.867 93.9293 125.586 94.7802L125.542 94.7967C123.261 95.6475 121.133 95.5883 120.788 94.6644L117.176 84.9833Z" fill="#C07668"/>
<path d="M92.7109 95.4702L125.923 83.0791C125.923 83.0791 130.215 92.4853 133.207 102.601C136.198 112.717 133.197 125.552 133.197 125.552L111.247 131.964L100.336 115.345L92.7109 95.4702Z" fill="#C07668"/>
<path d="M84.0215 107.564C84.0215 107.564 87.2126 103.388 90.7519 105.053C94.2912 106.718 98.9268 110.909 98.9268 110.909L108.642 123.747L114.114 132.672C114.114 132.672 101.957 130.395 97.7614 125.399C93.5658 120.402 93.49 118.047 90.5464 114.709C87.603 111.371 84.0215 107.564 84.0215 107.564Z" fill="#C07668"/>
<path d="M108.207 121.502L128.818 113.812L148.975 163.009L123.96 172.341L108.207 121.502Z" fill="#C07668"/>
<path d="M98.0391 84.3955L100.839 91.9004" stroke="#864C37" stroke-width="1.01087" stroke-miterlimit="10" stroke-linejoin="round"/>
<path d="M107.184 83.553L109.631 90.1135" stroke="#864C37" stroke-width="1.01087" stroke-miterlimit="10" stroke-linejoin="round"/>
<path d="M116.887 84.2078L118.526 88.6031" stroke="#864C37" stroke-width="1.01087" stroke-miterlimit="10" stroke-linejoin="round"/>
</g>
</g>
</g>
<defs>
<filter id="filter0_d_652_869" x="43.3633" y="10.5437" width="83.0664" height="118.927" filterUnits="userSpaceOnUse" color-interpolation-filters="sRGB">
<feFlood flood-opacity="0" result="BackgroundImageFix"/>
<feColorMatrix in="SourceAlpha" type="matrix" values="0 0 0 0 0 0 0 0 0 0 0 0 0 0 0 0 0 0 127 0" result="hardAlpha"/>
<feOffset dy="0.503906"/>
<feGaussianBlur stdDeviation="0.251953"/>
<feComposite in2="hardAlpha" operator="out"/>
<feColorMatrix type="matrix" values="0 0 0 0 0 0 0 0 0 0 0 0 0 0 0 0 0 0 0.25 0"/>
<feBlend mode="normal" in2="BackgroundImageFix" result="effect1_dropShadow_652_869"/>
<feBlend mode="normal" in="SourceGraphic" in2="effect1_dropShadow_652_869" result="shape"/>
</filter>
<filter id="filter1_i_652_869" x="77.1387" y="56.9827" width="15.5098" height="15.7058" filterUnits="userSpaceOnUse" color-interpolation-filters="sRGB">
<feFlood flood-opacity="0" result="BackgroundImageFix"/>
<feBlend mode="normal" in="SourceGraphic" in2="BackgroundImageFix" result="shape"/>
<feColorMatrix in="SourceAlpha" type="matrix" values="0 0 0 0 0 0 0 0 0 0 0 0 0 0 0 0 0 0 127 0" result="hardAlpha"/>
<feOffset dy="0.503906"/>
<feGaussianBlur stdDeviation="0.251953"/>
<feComposite in2="hardAlpha" operator="arithmetic" k2="-1" k3="1"/>
<feColorMatrix type="matrix" values="0 0 0 0 0 0 0 0 0 0 0 0 0 0 0 0 0 0 0.25 0"/>
<feBlend mode="normal" in2="shape" result="effect1_innerShadow_652_869"/>
</filter>
<filter id="filter2_d_652_869" x="13.7461" y="68.4412" width="64.5645" height="60.7307" filterUnits="userSpaceOnUse" color-interpolation-filters="sRGB">
<feFlood flood-opacity="0" result="BackgroundImageFix"/>
<feColorMatrix in="SourceAlpha" type="matrix" values="0 0 0 0 0 0 0 0 0 0 0 0 0 0 0 0 0 0 127 0" result="hardAlpha"/>
<feOffset dy="0.503906"/>
<feGaussianBlur stdDeviation="0.251953"/>
<feComposite in2="hardAlpha" operator="out"/>
<feColorMatrix type="matrix" values="0 0 0 0 0 0 0 0 0 0 0 0 0 0 0 0 0 0 0.25 0"/>
<feBlend mode="normal" in2="BackgroundImageFix" result="effect1_dropShadow_652_869"/>
<feBlend mode="normal" in="SourceGraphic" in2="effect1_dropShadow_652_869" result="shape"/>
</filter>
<filter id="filter3_d_652_869" x="82.7246" y="64.6167" width="66.7539" height="108.732" filterUnits="userSpaceOnUse" color-interpolation-filters="sRGB">
<feFlood flood-opacity="0" result="BackgroundImageFix"/>
<feColorMatrix in="SourceAlpha" type="matrix" values="0 0 0 0 0 0 0 0 0 0 0 0 0 0 0 0 0 0 127 0" result="hardAlpha"/>
<feOffset dy="0.503906"/>
<feGaussianBlur stdDeviation="0.251953"/>
<feComposite in2="hardAlpha" operator="out"/>
<feColorMatrix type="matrix" values="0 0 0 0 0 0 0 0 0 0 0 0 0 0 0 0 0 0 0.25 0"/>
<feBlend mode="normal" in2="BackgroundImageFix" result="effect1_dropShadow_652_869"/>
<feBlend mode="normal" in="SourceGraphic" in2="effect1_dropShadow_652_869" result="shape"/>
</filter>
<linearGradient id="paint0_linear_652_869" x1="86.1369" y1="16.4223" x2="91.6481" y2="131.331" gradientUnits="userSpaceOnUse">
<stop stop-color="#FFF96D"/>
<stop offset="1" stop-color="#FF9900"/>
</linearGradient>
<clipPath id="clip0_652_869">
<path d="M0 0H129V90C129 111.539 111.539 129 90 129H0V0Z" fill="white"/>
</clipPath>
</defs>
</svg>
