<svg width="191" height="75" viewBox="0 0 191 75" fill="none" xmlns="http://www.w3.org/2000/svg">
    <path
        d="M68.7476 55.6597C66.7021 53.6636 65.6829 50.6364 65.6829 46.5636C65.6829 42.7029 66.8322 39.8 69.1235 37.8697C71.4149 35.9393 74.8627 34.9741 79.4526 34.9741H88.7915V33.3143C88.8782 31.713 88.2205 30.1701 87.0061 29.1318C85.8062 28.152 84.1221 27.6694 81.9391 27.6694C80.4863 27.6694 79.0406 27.9107 77.6673 28.386C76.3084 28.832 75.0362 29.5047 73.9014 30.3822L67.5767 24.1012C69.2464 22.2293 71.3353 20.8035 73.6773 19.9407C76.3662 18.917 79.2141 18.4125 82.0837 18.4563C85.0545 18.3686 88.0036 18.9535 90.7142 20.1673C92.9983 21.2129 94.8993 22.9532 96.1715 25.1395C97.4798 27.5378 98.1231 30.2506 98.0436 32.9853V58.0946H88.7843V54.424C88.4735 54.9139 88.0904 55.3526 87.6422 55.7256C86.4062 56.7639 84.9533 57.517 83.3992 57.9265C81.65 58.4237 79.843 58.665 78.0214 58.6577C73.8869 58.6577 70.786 57.6559 68.7332 55.6597H68.7476ZM76.0337 43.7631C75.2241 44.4578 74.7977 45.4961 74.8772 46.5709C74.8049 47.7189 75.3615 48.8084 76.3228 49.4153C77.6745 50.1173 79.1924 50.439 80.7031 50.3366C83.4426 50.3366 85.481 50.0222 86.7893 49.4007C88.0036 48.9473 88.806 47.7701 88.7843 46.4613V42.8491H79.4815C78.26 42.7541 77.0456 43.0831 76.0265 43.7704L76.0337 43.7631ZM11.1965 58.0288C9.09311 57.634 7.04029 57.0271 5.06699 56.2008C3.25993 55.4623 1.5613 54.4825 0 53.298L6.29578 45.3571C8.11007 46.5417 10.0761 47.4849 12.1362 48.143C14.0083 48.7718 15.9671 49.1009 17.9332 49.1228C19.8126 49.2033 21.6919 48.9254 23.4773 48.3112C24.8 47.7701 25.4578 47.0243 25.4578 46.0737C25.5084 45.306 25.1904 44.5675 24.5976 44.0775C23.9471 43.595 23.1954 43.2659 22.4003 43.1197C21.157 42.8784 19.8993 42.7102 18.6416 42.6078C18.2007 42.5567 17.7381 42.5055 17.2827 42.4543L15.8804 42.3007C15.7792 42.2715 15.6708 42.2569 15.5696 42.2422C15.4612 42.2349 15.3527 42.2203 15.2588 42.2203C12.9168 41.9571 10.6038 41.4891 8.33414 40.8237C6.57046 40.2534 5.03084 39.142 3.92493 37.643C2.71781 36.0782 2.11787 33.7969 2.11064 30.8136C2.04559 28.4372 2.69613 26.1047 3.97552 24.1158C5.31274 22.1854 7.19931 20.7084 9.37501 19.8822C12.1073 18.8512 15.013 18.3613 17.9332 18.4344C19.8993 18.4344 21.8654 18.6391 23.7953 19.034C25.7108 19.4288 27.5901 20.0065 29.3972 20.7669C31.132 21.4908 32.7945 22.4048 34.3413 23.4797L28.2696 30.9745C26.5999 30.0239 24.8289 29.2781 22.9858 28.7516C21.2727 28.2398 19.4945 27.9765 17.7091 27.9619C16.0756 27.8961 14.4492 28.1374 12.9096 28.6785C11.7675 29.1538 11.1965 29.8192 11.1893 30.6747C11.1893 31.3181 11.5362 31.9031 12.1 32.2029C12.8012 32.605 13.5746 32.8683 14.3697 32.9926C15.2805 33.1534 16.6032 33.3362 18.338 33.541C18.5621 33.5629 18.7862 33.5922 19.003 33.6141C19.2198 33.636 19.4512 33.6653 19.6752 33.6872C19.7836 33.7165 19.8993 33.7238 20.015 33.7238C20.1234 33.7238 20.239 33.7384 20.3475 33.7603C22.8195 34.0089 25.2771 34.4623 27.6769 35.113C29.5851 35.6834 31.2693 36.8387 32.4981 38.4254C33.8353 40.0852 34.4859 42.5128 34.4859 45.7301C34.5581 48.1942 33.8859 50.6218 32.5631 52.6911C31.1609 54.7092 29.1876 56.252 26.9034 57.1148C24.0411 58.197 20.9908 58.7162 17.9332 58.643C15.6708 58.643 13.4156 58.4456 11.1893 58.0288H11.1965ZM53.4744 58.2701C50.0988 58.2701 47.6268 57.4 46.0438 55.6524C44.4753 53.9122 43.6874 51.331 43.6874 47.9163V27.8157H39.7046V19.0047H43.6874V7.64189H53.8792V19.012H58.6137V27.823H53.8792V45.3645C53.8358 46.1395 54.031 46.9073 54.443 47.5654C54.8261 48.0845 55.4477 48.377 56.091 48.3404H58.6209V58.2774H53.4816L53.4744 58.2701Z"
        fill="white" />
    <path
        d="M112.406 18.917L121.326 44.9258L129.364 18.917H139.729L125.67 61.4289C122.056 72.3238 118.521 75 107.267 75V65.7357C112.811 65.7357 114.979 64.8436 116.671 60.1274L101.643 18.917H112.413H112.406Z"
        fill="white" />
    <path d="M179.158 0L171.331 9.42124L176.81 16.1507L190.154 0H179.158Z" fill="white" />
    <path d="M158.555 0H147.442L162.86 18.8821L147.442 37.8433H158.555L174.09 18.8821L158.555 0Z" fill="white" />
    <path d="M176.81 21.6924L171.331 28.4218L179.08 37.843H190.232L176.81 21.6924Z" fill="white" />
</svg>