<svg width="200" height="200" viewBox="0 0 200 200" fill="none" xmlns="http://www.w3.org/2000/svg">
<g clip-path="url(#clip0_916_26864)">
<path d="M88.0533 111.233C88.0533 111.233 87.3393 121.276 85.1385 128.923C82.9377 136.57 81.3022 140.407 79.4551 141.818C71.1514 148.157 58.3721 147.973 51.9807 154.355C42.5627 163.758 38.3186 177.018 36.2199 194.496C35.9951 196.368 35.9078 198.2 35.9166 200.001H164.083C164.092 198.2 164.005 196.368 163.78 194.496C161.681 177.018 157.437 163.758 148.019 154.355C141.628 147.973 128.585 148.486 120.545 141.818C118.621 140.222 117.067 136.57 114.867 128.923C112.666 121.276 111.952 111.233 111.952 111.233H111.816H88.1887H88.0533Z" fill="url(#paint0_linear_916_26864)"/>
<path d="M57.2076 77.8156C56.1113 72.8248 59.8384 66.7338 63.9783 67.633C71.2713 69.2172 71.5949 72.5867 71.6736 77.6959C71.7521 82.8053 70.75 87.8412 66.5898 88.0744C62.359 88.3115 58.4855 83.634 57.2076 77.8156Z" fill="#E6A982"/>
<path d="M142.796 77.8156C143.892 72.8248 140.165 66.7338 136.025 67.633C128.733 69.2172 128.409 72.5867 128.33 77.6959C128.252 82.8053 129.254 87.8412 133.414 88.0744C137.645 88.3115 141.518 83.634 142.796 77.8156Z" fill="#E6A982"/>
<g filter="url(#filter0_f_916_26864)">
<path d="M132.79 80.8535C132.79 80.8535 135.112 73.9824 138.526 73.9824" stroke="black" stroke-width="1.78253" stroke-miterlimit="10" stroke-linecap="round" stroke-linejoin="round"/>
</g>
<g filter="url(#filter1_f_916_26864)">
<path d="M67.2139 80.8535C67.2139 80.8535 64.8922 73.9824 61.4775 73.9824" stroke="black" stroke-width="1.78253" stroke-miterlimit="10" stroke-linecap="round" stroke-linejoin="round"/>
</g>
</g>
<defs>
<filter id="filter0_f_916_26864" x="131.861" y="73.0529" width="7.59538" height="8.73015" filterUnits="userSpaceOnUse" color-interpolation-filters="sRGB">
<feFlood flood-opacity="0" result="BackgroundImageFix"/>
<feBlend mode="normal" in="SourceGraphic" in2="BackgroundImageFix" result="shape"/>
<feGaussianBlur stdDeviation="0.018963" result="effect1_foregroundBlur_916_26864"/>
</filter>
<filter id="filter1_f_916_26864" x="60.548" y="73.0529" width="7.59538" height="8.73015" filterUnits="userSpaceOnUse" color-interpolation-filters="sRGB">
<feFlood flood-opacity="0" result="BackgroundImageFix"/>
<feBlend mode="normal" in="SourceGraphic" in2="BackgroundImageFix" result="shape"/>
<feGaussianBlur stdDeviation="0.018963" result="effect1_foregroundBlur_916_26864"/>
</filter>
<linearGradient id="paint0_linear_916_26864" x1="103.249" y1="140.639" x2="103.424" y2="95.4744" gradientUnits="userSpaceOnUse">
<stop stop-color="#E6A982"/>
<stop offset="1" stop-color="#A34D1C"/>
</linearGradient>
<clipPath id="clip0_916_26864">
<rect width="200" height="200" rx="100" fill="white"/>
</clipPath>
</defs>
</svg>
