<svg width="200" height="200" viewBox="0 0 200 200" fill="none" xmlns="http://www.w3.org/2000/svg">
<path d="M54.0483 76.4796C54.0483 46.9964 74.3978 23.0957 99.5001 23.0957C124.602 23.0957 144.952 46.9964 144.952 76.4796C144.952 92.3358 147.411 105.228 138.065 115.005C130.034 123.408 111.698 126.647 100.096 126.647C88.7022 126.647 68.0499 124.005 60.073 115.87C50.4752 106.082 54.0483 92.5807 54.0483 76.4796Z" fill="#75A3CE"/>
<path d="M67.729 145.477C67.729 139.026 81.56 133.797 98.6213 133.797C115.683 133.797 129.514 139.026 129.514 145.477C129.514 151.928 115.683 157.158 98.6213 157.158C90.8773 157.158 83.7989 156.081 78.3772 154.301C71.8539 152.159 67.729 149 67.729 145.477Z" fill="#75A3CE"/>
<path d="M67.729 145.477C67.729 139.026 81.56 133.797 98.6213 133.797C115.683 133.797 129.514 139.026 129.514 145.477C129.514 151.928 115.683 157.158 98.6213 157.158C90.8773 157.158 83.7989 156.081 78.3772 154.301C71.8539 152.159 67.729 149 67.729 145.477Z" fill="#75A3CE"/>
<path d="M68.4305 108.02H128.848C128.848 108.02 131.799 112.136 131.799 116.895C131.799 121.654 128.848 127.055 128.848 127.055C128.848 127.055 131.799 131.384 131.799 136.594C131.799 141.804 128.848 147.896 128.848 147.896H68.4305C68.4305 147.896 65.9526 144.592 65.9526 139.451C65.9526 134.31 68.4305 127.332 68.4305 127.332C68.4305 127.332 65.9526 122.257 65.9526 117.429C65.9526 112.601 68.4305 108.02 68.4305 108.02Z" fill="#75A3CE"/>
<path d="M87.3154 145.247L117.832 140.699C117.832 140.699 117.51 147.664 120.866 162.322C124.222 176.979 131.507 199.049 131.507 199.049L90.1402 198.997C90.1402 198.997 92.4844 190.558 91.7691 176.616C91.0536 162.674 87.3154 145.247 87.3154 145.247Z" fill="#75A3CE"/>
<path d="M91.3198 156.72C91.3198 156.72 95.8781 157.886 102.629 157.083C109.919 156.215 118.307 153.383 118.307 153.383C118.307 153.383 110.437 157.805 103.563 159.069C97.6538 160.156 91.3198 156.72 91.3198 156.72Z" fill="#46627D"/>
<path d="M70.6694 131.332C70.6694 131.332 93.4247 145.934 107.638 142.474C112.206 141.362 117.444 139.023 121.288 136.29C123.11 134.994 123.984 133.616 121.982 134.613C114.327 138.429 96.0643 140.025 83.8411 136.047C78.4109 134.279 70.6694 131.332 70.6694 131.332Z" fill="#46627D"/>
<path d="M66.6329 120.476C66.1239 120.252 85.3916 134.131 92.4407 130.588C95.7836 128.908 89.4792 127.39 83.8597 126.11C76.1526 124.354 73.7453 123.618 66.6329 120.476Z" fill="#46627D"/>
<path d="M124.736 124.345C119.658 127.68 109.236 133.413 106.78 129.546C105.428 127.418 111.694 127.314 114.147 126.732C120.413 125.246 125.432 123.856 130.749 120.113" fill="#46627D"/>
<path d="M100 15C74.5942 15 54 39.3176 54 69.3119C54 70.5547 54.046 71.7781 54.1157 73C55.7269 59.1631 75.6477 48.2293 100 48.2295C124.352 48.2295 144.273 59.1631 145.884 73C145.954 71.7781 146 70.5547 146 69.3119C146 39.3176 125.406 15 100 15Z" fill="#75A3CE"/>
<path d="M60.8557 49.7437C50.0078 63.3799 52.2794 83.2365 65.928 94.0942C66.4935 94.5441 66.4143 94.5944 67 94.9995C63.5 88.9995 65.578 74.8434 75.9762 61.7727C86.3745 48.702 99.8558 41.9677 106.84 46.1118C106.314 45.6321 105.777 45.1645 105.211 44.7146C91.5628 33.8569 71.7038 36.1075 60.8557 49.7437Z" fill="#75A3CE"/>
<path d="M139.378 49.7437C150.225 63.3799 148.149 83.6418 134.5 94.4995C133.935 94.9494 134 94.9995 134 94.9995C135 88.9995 134.655 74.8434 124.257 61.7727C113.859 48.702 100.377 41.9677 93.3931 46.1118C93.9195 45.6321 94.4566 45.1645 95.0221 44.7146C108.67 33.8569 128.529 36.1075 139.378 49.7437Z" fill="#75A3CE"/>
</svg>
