<svg width="200" height="200" viewBox="0 0 200 200" fill="none" xmlns="http://www.w3.org/2000/svg">
<path d="M90.5655 62.2151C89.6446 61.4893 86.1996 61.4653 85.3031 61.5264C83.1875 61.671 80.2363 63.4317 80.7147 64.7682C80.9893 65.5348 82.4801 65.179 85.6149 65.0659C86.7362 65.0253 90.2471 66.0891 91.2494 64.9042C92.6004 63.3069 90.5655 62.2151 90.5655 62.2151Z" fill="#412923"/>
<path d="M109.439 62.2151C110.36 61.4893 113.805 61.4653 114.702 61.5264C116.818 61.671 119.769 63.4317 119.29 64.7682C119.016 65.5348 117.525 64.9534 114.39 65.0659C113.249 65.1067 109.758 66.0891 108.756 64.9042C107.404 63.3069 109.439 62.2151 109.439 62.2151Z" fill="#412923"/>
</svg>
