<svg width="14" height="13" viewBox="0 0 14 13" fill="none" xmlns="http://www.w3.org/2000/svg">
    <g clip-path="url(#clip0_824_1581)">
        <path
            d="M1.168 7.04883L5.85547 11.7363C6.20703 12.1172 6.82227 12.1172 7.17383 11.7363C7.55469 11.3848 7.55469 10.7695 7.17383 10.418L4.09766 7.3125H13.0625C13.5898 7.3125 14 6.90234 14 6.375C14 5.87695 13.5898 5.4375 13.0625 5.4375H4.09766L7.17383 2.36133C7.55469 2.00977 7.55469 1.39453 7.17383 1.04297C6.82227 0.662109 6.20703 0.662109 5.85547 1.04297L1.168 5.73047C0.7871 6.08203 0.7871 6.69727 1.168 7.04883Z"
            fill="#5771EC" />
    </g>
    <defs>
        <clipPath id="clip0_824_1581">
            <rect width="14" height="13" fill="white" transform="matrix(-1 0 0 1 14 0)" />
        </clipPath>
    </defs>
</svg>