<svg width="30" height="30" viewBox="0 0 30 30" fill="none" xmlns="http://www.w3.org/2000/svg">
<path d="M15 30C23.2843 30 30 23.2843 30 15C30 6.71573 23.2843 0 15 0C6.71573 0 0 6.71573 0 15C0 23.2843 6.71573 30 15 30Z" fill="white"/>
<path d="M8.26367 14.7305L12.9512 10.043C13.3027 9.66211 13.918 9.66211 14.2695 10.043C14.6504 10.3945 14.6504 11.0098 14.2695 11.3613L11.1934 14.4375H20.1875C20.6855 14.4375 21.125 14.877 21.125 15.375C21.125 15.9023 20.6855 16.3125 20.1875 16.3125H11.1934L14.2695 19.418C14.6504 19.7695 14.6504 20.3848 14.2695 20.7363C13.918 21.1172 13.3027 21.1172 12.9512 20.7363L8.26367 16.0488C7.88281 15.6973 7.88281 15.082 8.26367 14.7305Z" fill="#5771EC"/>
</svg>
