<svg width="32" height="32" viewBox="0 0 32 32" fill="none" xmlns="http://www.w3.org/2000/svg">
<path d="M11.6689 26L10.827 18.4382C10.827 17.7702 11.0931 17.1296 11.5667 16.6572C12.0403 16.1848 12.6828 15.9193 13.3526 15.9193H20.0871C20.7569 15.9193 21.3993 16.1848 21.8729 16.6572C22.3465 17.1296 22.6126 17.7702 22.6126 18.4382L21.7708 26H11.6689ZM24.5207 23.7097L25.1475 18.0779C25.1481 17.645 25.0506 17.2175 24.8623 16.8276C24.6739 16.4376 24.3994 16.0952 24.0596 15.8259H29.0226C29.5468 15.8262 30.0494 16.0339 30.4202 16.4035C30.7909 16.7731 30.9995 17.2745 31 17.7973L30.3453 23.7088H24.5254L24.5207 23.7097ZM8.92639 23.7097H2.6595L2 17.7973C2.00074 17.2746 2.20934 16.7735 2.58003 16.4039C2.95073 16.0344 3.45326 15.8264 3.97737 15.8259H9.24632C9.28747 15.8259 9.32951 15.8259 9.38002 15.8259C9.04135 16.0949 8.76798 16.4366 8.58042 16.8257C8.39286 17.2149 8.29598 17.6416 8.29691 18.0734L8.92353 23.7043L8.92639 23.7097ZM23.0195 10.8773C23.0195 9.98666 23.3743 9.13216 24.0058 8.50235C24.6373 7.87255 25.4937 7.51893 26.3868 7.51893C27.2799 7.51893 28.1363 7.87255 28.7678 8.50235C29.3993 9.13216 29.7541 9.98666 29.7541 10.8773C29.7541 11.768 29.3993 12.6221 28.7678 13.2519C28.1363 13.8817 27.2799 14.2353 26.3868 14.2353C25.9444 14.2353 25.5063 14.1487 25.0976 13.9798C24.6889 13.8108 24.3175 13.5631 24.0048 13.251C23.692 12.9388 23.4441 12.5683 23.275 12.1605C23.106 11.7527 23.0191 11.3154 23.0195 10.8742V10.8773ZM3.24593 10.8773C3.24593 9.98666 3.60073 9.13216 4.23222 8.50235C4.86371 7.87255 5.72015 7.51893 6.61321 7.51893C7.50628 7.51893 8.36283 7.87255 8.99432 8.50235C9.62581 9.13216 9.9805 9.98666 9.9805 10.8773C9.9805 11.768 9.62581 12.6221 8.99432 13.2519C8.36283 13.8817 7.50628 14.2353 6.61321 14.2353C6.1707 14.2354 5.7325 14.1487 5.32366 13.9798C4.91483 13.8109 4.54344 13.5631 4.23062 13.251C3.9178 12.9388 3.66967 12.5683 3.50055 12.1605C3.33144 11.7527 3.24465 11.3155 3.24502 10.8742L3.24593 10.8773ZM12.5126 9.1979C12.5126 8.08455 12.956 7.01666 13.7454 6.2294C14.5347 5.44214 15.6053 5 16.7217 5C17.838 5 18.9086 5.44214 19.698 6.2294C20.4874 7.01666 20.9308 8.08455 20.9308 9.1979C20.9308 10.3113 20.4874 11.3792 19.698 12.1664C18.9086 12.9537 17.838 13.3958 16.7217 13.3958C16.1686 13.3959 15.621 13.2876 15.11 13.0765C14.5991 12.8654 14.1347 12.5556 13.7438 12.1655C13.3528 11.7754 13.0428 11.3123 12.8313 10.8026C12.6199 10.2929 12.5113 9.74676 12.5116 9.19517L12.5126 9.1979Z" fill="#29387F"/>
</svg>
