<svg width="32" height="32" viewBox="0 0 32 32" fill="none" xmlns="http://www.w3.org/2000/svg">
<path d="M29.9531 16C29.9531 16.8438 29.25 17.5 28.4531 17.5H26.9531L27 25C27 25.1406 27 25.2812 27 25.375V26.125C27 27.2031 26.1562 28 25.125 28H24.375C24.2812 28 24.2344 28 24.1875 28C24.1406 28 24.0469 28 24 28H22.5H21.375C20.2969 28 19.5 27.2031 19.5 26.125V25V22C19.5 21.2031 18.7969 20.5 18 20.5H15C14.1562 20.5 13.5 21.2031 13.5 22V25V26.125C13.5 27.2031 12.6562 28 11.625 28H10.5H9C8.90625 28 8.85938 28 8.76562 28C8.71875 28 8.67188 28 8.625 28H7.875C6.79688 28 6 27.2031 6 26.125V20.875C6 20.875 6 20.8281 6 20.7812V17.5H4.5C3.65625 17.5 3 16.8438 3 16C3 15.5781 3.14062 15.2031 3.46875 14.875L15.4688 4.375C15.7969 4.04688 16.1719 4 16.5 4C16.8281 4 17.2031 4.09375 17.4844 4.32812L29.4375 14.875C29.8125 15.2031 30 15.5781 29.9531 16Z" fill="#29387F"/>
</svg>
