<svg width="56" height="56" viewBox="0 0 56 56" fill="none" xmlns="http://www.w3.org/2000/svg">
<path d="M15 0.5H41C49.0081 0.5 55.5 6.99187 55.5 15V41C55.5 49.0081 49.0081 55.5 41 55.5H15C6.99187 55.5 0.5 49.0081 0.5 41V15C0.5 6.99187 6.99187 0.5 15 0.5Z" fill="white" stroke="#3695FB"/>
<path d="M35.9531 22.7578L30.2109 28.5L35.9531 34.2969C36.6641 34.9531 36.6641 36.1016 35.9531 36.7578C35.2969 37.4688 34.1484 37.4688 33.4922 36.7578L27.75 31.0156L21.9531 36.7578C21.2969 37.4688 20.1484 37.4688 19.4922 36.7578C18.7812 36.1016 18.7812 34.9531 19.4922 34.2969L25.2344 28.5L19.4922 22.7578C18.7812 22.1016 18.7812 20.9531 19.4922 20.2969C20.1484 19.5859 21.2969 19.5859 21.9531 20.2969L27.75 26.0391L33.4922 20.2969C34.1484 19.5859 35.2969 19.5859 35.9531 20.2969C36.6641 20.9531 36.6641 22.1016 35.9531 22.7578Z" fill="#3695FB"/>
</svg>
