<svg width="32" height="32" viewBox="0 0 32 32" fill="none" xmlns="http://www.w3.org/2000/svg">
<path d="M18.2585 24.8433C20.7687 24.4691 23.0916 23.28 24.8789 21.4541C25.0439 21.2868 25.1982 21.1196 25.35 20.9523L27 26.3054L22.7637 25.3126L21.084 28L18.2585 24.8433ZM11.916 27.9992L10.2363 25.3117L6 26.3054L7.64997 20.9481C7.79764 21.1154 7.95603 21.2827 8.12102 21.4541C9.9084 23.2799 12.2313 24.469 14.7415 24.8433L11.9201 27.9992H11.916ZM9.55568 19.9971C8.64087 19.0747 7.91556 17.9776 7.42177 16.7691C6.92798 15.5607 6.67552 14.2649 6.67896 12.9569C6.67552 11.6488 6.92798 10.3531 7.42177 9.14465C7.91556 7.93619 8.64087 6.83902 9.55568 5.91666C10.4653 4.98905 11.5475 4.25364 12.7394 3.753C13.9313 3.25235 15.2094 2.99641 16.4996 3.00004C17.7897 2.99646 19.0678 3.2524 20.2597 3.75305C21.4517 4.25369 22.5338 4.98909 23.4435 5.91666C24.3583 6.83902 25.0836 7.93619 25.5774 9.14465C26.0712 10.3531 26.3236 11.6488 26.3202 12.9569C26.3236 14.2649 26.0712 15.5607 25.5774 16.7691C25.0836 17.9776 24.3583 19.0747 23.4435 19.9971C22.5337 20.9246 21.4516 21.6599 20.2597 22.1606C19.0678 22.6612 17.7897 22.9172 16.4996 22.9137C15.2094 22.9172 13.9314 22.6612 12.7395 22.1606C11.5476 21.6599 10.4654 20.9246 9.55568 19.9971ZM16.4996 15.8727L19.5925 17.42L19.0908 13.9706L21.504 11.4781L18.1009 10.8925L16.4996 7.80449L14.8983 10.8925L11.4952 11.4781L13.9083 13.9706L13.4067 17.42L16.4996 15.8727Z" fill="#29387F"/>
</svg>
