<svg width="32" height="32" viewBox="0 0 32 32" fill="none" xmlns="http://www.w3.org/2000/svg">
<path d="M7 5.5V26.5C7 27.3438 6.29688 28 5.5 28C4.65625 28 4 27.3438 4 26.5V5.5C4 4.70312 4.65625 4 5.5 4C6.29688 4 7 4.70312 7 5.5ZM8.875 19.7031C8.73438 19.75 8.59375 19.7969 8.5 19.8438V4.65625C9.67188 4.32812 11.1719 4 12.625 4C14.3125 4 15.8125 4.46875 17.0781 4.79688L17.125 4.84375C18.4844 5.21875 19.6094 5.5 20.875 5.5C22.0938 5.5 23.3125 5.21875 24.2969 4.84375C24.7188 4.70312 25.0938 4.51562 25.375 4.42188C25.5156 4.32812 25.6094 4.28125 25.6562 4.23438C25.7031 4.23438 25.7031 4.23438 25.75 4.23438C26.2188 3.95312 26.7812 3.95312 27.25 4.23438C27.6719 4.51562 28 4.98438 28 5.5V17.5C28 18.1094 27.6719 18.625 27.1562 18.8594L26.5 17.5C27.1562 18.8594 27.1562 18.8594 27.1562 18.8594L27.1094 18.9062C27.0625 18.9062 27.0156 18.9062 26.9688 18.9531C26.875 19 26.7344 19.0469 26.5469 19.1406C26.2188 19.2812 25.7031 19.4688 25.0938 19.7031C23.875 20.0781 22.1875 20.5 20.5 20.5C18.7656 20.5 17.4062 20.0781 16.3281 19.7031H16.2812C15.1562 19.3281 14.2188 19 13 19C11.6875 19 10.1406 19.3281 8.875 19.7031Z" fill="#5771EC"/>
</svg>
