<svg width="32" height="32" viewBox="0 0 32 32" fill="none" xmlns="http://www.w3.org/2000/svg">
<path d="M28 17.5555V13.4756L25.2955 13.2713C25.05 12.173 24.6189 11.1247 24.0206 10.1714L25.792 8.10965L22.9049 5.22557L20.8484 6.99298C19.8999 6.39344 18.8564 5.95938 17.7624 5.70936L17.5596 3H13.4808L13.2764 5.70314C12.1774 5.94793 11.1283 6.37836 10.1742 6.9759L8.11141 5.20538L5.22668 8.08868L6.99496 10.1442C6.39507 11.0921 5.9608 12.1352 5.7107 13.2286L3 13.4328V17.5221L5.70449 17.7263C5.94914 18.8256 6.37979 19.875 6.97787 20.8294L5.20648 22.8911L8.09121 25.7744L10.1477 24.007C11.0962 24.6066 12.1397 25.0406 13.2337 25.2906L13.438 28H17.5293L17.7337 25.2969C18.8325 25.0515 19.8814 24.6205 20.8352 24.0225L22.8979 25.7931L25.7826 22.9098L24.0144 20.8543C24.615 19.9064 25.0501 18.8634 25.3009 17.7698L28 17.5555ZM15.5062 21.5982C14.2995 21.5982 13.1199 21.2405 12.1166 20.5705C11.1132 19.9004 10.3312 18.948 9.86942 17.8337C9.40764 16.7194 9.28681 15.4932 9.52223 14.3103C9.75765 13.1274 10.3387 12.0408 11.192 11.1879C12.0453 10.3351 13.1324 9.75429 14.3159 9.51899C15.4994 9.28369 16.7262 9.40445 17.8411 9.86601C18.9559 10.3276 19.9088 11.1092 20.5792 12.112C21.2496 13.1149 21.6074 14.2939 21.6074 15.5C21.6074 16.3008 21.4496 17.0938 21.143 17.8337C20.8364 18.5735 20.387 19.2458 19.8204 19.8121C19.2539 20.3783 18.5813 20.8275 17.8411 21.134C17.1008 21.4405 16.3074 21.5982 15.5062 21.5982Z" fill="#29387F"/>
</svg>
